<?xml version="1.0" encoding="utf-8"?><svg xmlns="http://www.w3.org/2000/svg" xmlns:xlink="http://www.w3.org/1999/xlink"><symbol viewBox="0 0 24 24" id="activity" xmlns="http://www.w3.org/2000/svg"><path d="M15,22c-0.4,0-0.8-0.3-0.9-0.7L9,6.2l-2.1,6.2C6.8,12.7,6.4,13,6,13H2c-0.6,0-1-0.4-1-1c0-0.6,0.4-1,1-1h3.3l2.8-8.3 C8.2,2.3,8.6,2,9,2s0.8,0.3,0.9,0.7L15,17.8l2.1-6.2c0.1-0.4,0.5-0.7,0.9-0.7h4c0.6,0,1,0.4,1,1c0,0.6-0.4,1-1,1h-3.3l-2.8,8.3 C15.8,21.7,15.4,22,15,22z"/></symbol><symbol viewBox="0 0 24 24" id="alert-circle" xmlns="http://www.w3.org/2000/svg"><path d="M12,23C5.9,23,1,18.1,1,12S5.9,1,12,1s11,4.9,11,11S18.1,23,12,23z M12,3c-5,0-9,4-9,9c0,5,4,9,9,9c5,0,9-4,9-9 C21,7,17,3,12,3z"/><path d="M12 13c-.6 0-1-.4-1-1V8c0-.6.4-1 1-1 .6 0 1 .4 1 1v4C13 12.6 12.6 13 12 13zM12 17c-.3 0-.5-.1-.7-.3C11.1 16.5 11 16.3 11 16c0-.1 0-.3.1-.4.1-.1.1-.2.2-.3.3-.3.7-.4 1.1-.2.1 0 .1 0 .2.1 0 0 .1.1.2.1.1.1.2.2.2.3S13 15.9 13 16s0 .3-.1.4-.1.2-.2.3C12.5 16.9 12.3 17 12 17z"/></symbol><symbol viewBox="0 0 24 24" id="align-center" xmlns="http://www.w3.org/2000/svg"><path d="M18 11H6c-.6 0-1-.4-1-1s.4-1 1-1h12c.6 0 1 .4 1 1S18.6 11 18 11zM21 7H3C2.4 7 2 6.6 2 6s.4-1 1-1h18c.6 0 1 .4 1 1S21.6 7 21 7zM21 15H3c-.6 0-1-.4-1-1s.4-1 1-1h18c.6 0 1 .4 1 1S21.6 15 21 15zM18 19H6c-.6 0-1-.4-1-1s.4-1 1-1h12c.6 0 1 .4 1 1S18.6 19 18 19z"/></symbol><symbol viewBox="0 0 24 24" id="align-justify" xmlns="http://www.w3.org/2000/svg"><path d="M21 11H3c-.6 0-1-.4-1-1s.4-1 1-1h18c.6 0 1 .4 1 1S21.6 11 21 11zM21 7H3C2.4 7 2 6.6 2 6s.4-1 1-1h18c.6 0 1 .4 1 1S21.6 7 21 7zM21 15H3c-.6 0-1-.4-1-1s.4-1 1-1h18c.6 0 1 .4 1 1S21.6 15 21 15zM21 19H3c-.6 0-1-.4-1-1s.4-1 1-1h18c.6 0 1 .4 1 1S21.6 19 21 19z"/></symbol><symbol viewBox="0 0 24 24" id="align-left" xmlns="http://www.w3.org/2000/svg"><path d="M17 11H3c-.6 0-1-.4-1-1s.4-1 1-1h14c.6 0 1 .4 1 1S17.6 11 17 11zM21 7H3C2.4 7 2 6.6 2 6s.4-1 1-1h18c.6 0 1 .4 1 1S21.6 7 21 7zM21 15H3c-.6 0-1-.4-1-1s.4-1 1-1h18c.6 0 1 .4 1 1S21.6 15 21 15zM17 19H3c-.6 0-1-.4-1-1s.4-1 1-1h14c.6 0 1 .4 1 1S17.6 19 17 19z"/></symbol><symbol viewBox="0 0 24 24" id="align-right" xmlns="http://www.w3.org/2000/svg"><path d="M21 11H7c-.6 0-1-.4-1-1s.4-1 1-1h14c.6 0 1 .4 1 1S21.6 11 21 11zM21 7H3C2.4 7 2 6.6 2 6s.4-1 1-1h18c.6 0 1 .4 1 1S21.6 7 21 7zM21 15H3c-.6 0-1-.4-1-1s.4-1 1-1h18c.6 0 1 .4 1 1S21.6 15 21 15zM21 19H7c-.6 0-1-.4-1-1s.4-1 1-1h14c.6 0 1 .4 1 1S21.6 19 21 19z"/></symbol><symbol viewBox="0 0 24 24" id="arrow-down" xmlns="http://www.w3.org/2000/svg"><path d="M12,20c-0.6,0-1-0.4-1-1V5c0-0.6,0.4-1,1-1c0.6,0,1,0.4,1,1v14C13,19.6,12.6,20,12,20z"/><path d="M12,20c-0.3,0-0.5-0.1-0.7-0.3l-7-7c-0.4-0.4-0.4-1,0-1.4s1-0.4,1.4,0l6.3,6.3l6.3-6.3c0.4-0.4,1-0.4,1.4,0s0.4,1,0,1.4 l-7,7C12.5,19.9,12.3,20,12,20z"/></symbol><symbol viewBox="0 0 24 24" id="arrow-left" xmlns="http://www.w3.org/2000/svg"><path d="M19,13H5c-0.6,0-1-0.4-1-1c0-0.6,0.4-1,1-1h14c0.6,0,1,0.4,1,1C20,12.6,19.6,13,19,13z"/><path d="M12,20c-0.3,0-0.5-0.1-0.7-0.3l-7-7c-0.4-0.4-0.4-1,0-1.4l7-7c0.4-0.4,1-0.4,1.4,0s0.4,1,0,1.4L6.4,12l6.3,6.3 c0.4,0.4,0.4,1,0,1.4C12.5,19.9,12.3,20,12,20z"/></symbol><symbol viewBox="0 0 24 24" id="arrow-right" xmlns="http://www.w3.org/2000/svg"><path d="M19,13H5c-0.6,0-1-0.4-1-1c0-0.6,0.4-1,1-1h14c0.6,0,1,0.4,1,1C20,12.6,19.6,13,19,13z"/><path d="M12,20c-0.3,0-0.5-0.1-0.7-0.3c-0.4-0.4-0.4-1,0-1.4l6.3-6.3l-6.3-6.3c-0.4-0.4-0.4-1,0-1.4s1-0.4,1.4,0l7,7 c0.4,0.4,0.4,1,0,1.4l-7,7C12.5,19.9,12.3,20,12,20z"/></symbol><symbol viewBox="0 0 24 24" id="arrow-up" xmlns="http://www.w3.org/2000/svg"><path d="M12,20c-0.6,0-1-0.4-1-1V5c0-0.6,0.4-1,1-1c0.6,0,1,0.4,1,1v14C13,19.6,12.6,20,12,20z"/><path d="M19,13c-0.3,0-0.5-0.1-0.7-0.3L12,6.4l-6.3,6.3c-0.4,0.4-1,0.4-1.4,0s-0.4-1,0-1.4l7-7c0.4-0.4,1-0.4,1.4,0l7,7 c0.4,0.4,0.4,1,0,1.4C19.5,12.9,19.3,13,19,13z"/></symbol><symbol viewBox="0 0 24 24" id="at-sign" xmlns="http://www.w3.org/2000/svg"><path d="M12,17c-2.8,0-5-2.2-5-5s2.2-5,5-5s5,2.2,5,5S14.8,17,12,17z M12,9c-1.7,0-3,1.3-3,3s1.3,3,3,3s3-1.3,3-3S13.7,9,12,9z"/><path d="M12,23C5.9,23,1,18.1,1,12c0-2.9,1.1-5.7,3.2-7.8C6.3,2.1,9.1,1,12,1c6.1,0,11,4.9,11,11v1c0,2.2-1.8,4-4,4s-4-1.8-4-4V8 c0-0.6,0.4-1,1-1s1,0.4,1,1v5c0,1.1,0.9,2,2,2s2-0.9,2-2v-1c0-5-4-9-9-9C9.6,3,7.3,3.9,5.6,5.6C3.9,7.3,3,9.6,3,12c0,5,4,9,9,9 c2,0,3.9-0.7,5.5-1.9c0.4-0.3,1.1-0.3,1.4,0.2c0.3,0.4,0.3,1.1-0.2,1.4C16.8,22.2,14.4,23,12,23z"/></symbol><symbol viewBox="0 0 24 24" id="bar-chart" xmlns="http://www.w3.org/2000/svg"><path d="M12 21c-.6 0-1-.4-1-1V10c0-.6.4-1 1-1 .6 0 1 .4 1 1v10C13 20.6 12.6 21 12 21zM18 21c-.6 0-1-.4-1-1V4c0-.6.4-1 1-1s1 .4 1 1v16C19 20.6 18.6 21 18 21zM6 21c-.6 0-1-.4-1-1v-4c0-.6.4-1 1-1s1 .4 1 1v4C7 20.6 6.6 21 6 21z"/></symbol><symbol viewBox="0 0 24 24" id="bell" xmlns="http://www.w3.org/2000/svg"><path d="M12,23c-0.5,0-1-0.1-1.5-0.4C10,22.3,9.7,22,9.4,21.5c-0.3-0.5-0.1-1.1,0.4-1.4c0.5-0.3,1.1-0.1,1.4,0.4 c0.1,0.1,0.2,0.3,0.4,0.4c0.5,0.3,1.1,0.1,1.4-0.4c0.3-0.5,0.9-0.6,1.4-0.4s0.6,0.9,0.4,1.4C14,22.5,13,23,12,23z M22,18H2 c-0.6,0-1-0.4-1-1s0.4-1,1-1c1.1,0,2-0.9,2-2V9c0-4.4,3.6-8,8-8s8,3.6,8,8v5c0,1.1,0.9,2,2,2c0.6,0,1,0.4,1,1S22.6,18,22,18z M5.5,16h13.1c-0.3-0.6-0.5-1.3-0.5-2V9c0-3.3-2.7-6-6-6S6,5.7,6,9v5C6,14.7,5.8,15.4,5.5,16z"/></symbol><symbol viewBox="0 0 24 24" id="bell-off" xmlns="http://www.w3.org/2000/svg"><path d="M12,23c-0.5,0-1-0.1-1.5-0.4C10,22.3,9.7,22,9.4,21.5c-0.3-0.5-0.1-1.1,0.4-1.4c0.5-0.3,1.1-0.1,1.4,0.4 c0.1,0.1,0.2,0.3,0.4,0.4c0.5,0.3,1.1,0.1,1.4-0.4c0.3-0.5,0.9-0.6,1.4-0.4s0.6,0.9,0.4,1.4C14,22.5,13,23,12,23z M17,18H2 c-0.6,0-1-0.4-1-1s0.4-1,1-1c1.1,0,2-0.9,2-2V9c0-1.3,0.3-2.5,0.9-3.7c0.3-0.5,0.9-0.7,1.3-0.4c0.5,0.3,0.7,0.9,0.4,1.3 C6.2,7.1,6,8,6,9v5c0,0.7-0.2,1.4-0.5,2H17c0.6,0,1,0.4,1,1S17.6,18,17,18z M19,14c-0.6,0-1-0.4-1-1V9c0-1-0.3-2.1-0.8-3 c-1.6-2.9-5.3-3.9-8.2-2.3C8.6,4,8,3.9,7.7,3.4C7.4,2.9,7.6,2.3,8.1,2c3.8-2.2,8.7-0.8,10.9,3c0.7,1.2,1,2.6,1,3.9v4 C20,13.6,19.6,14,19,14z"/><path d="M23,24c-0.3,0-0.5-0.1-0.7-0.3l-22-22c-0.4-0.4-0.4-1,0-1.4s1-0.4,1.4,0l22,22c0.4,0.4,0.4,1,0,1.4 C23.5,23.9,23.3,24,23,24z"/></symbol><symbol viewBox="0 0 24 24" id="bold" xmlns="http://www.w3.org/2000/svg"><path d="M15,21H6c-0.6,0-1-0.4-1-1V4c0-0.6,0.4-1,1-1h8c2.8,0,5,2.2,5,5c0,1.4-0.6,2.7-1.6,3.6C19,12.5,20,14.1,20,16 C20,18.8,17.8,21,15,21z M7,19h8c1.7,0,3-1.3,3-3s-1.3-3-3-3H7V19z M7,11h7c1.7,0,3-1.3,3-3s-1.3-3-3-3H7V11z"/></symbol><symbol viewBox="0 0 24 24" id="bookmark" xmlns="http://www.w3.org/2000/svg"><path d="M19,22c-0.2,0-0.4-0.1-0.6-0.2L12,17.2l-6.4,4.6c-0.3,0.2-0.7,0.2-1,0.1C4.2,21.7,4,21.4,4,21V5c0-1.7,1.3-3,3-3h10 c1.7,0,3,1.3,3,3v16c0,0.4-0.2,0.7-0.5,0.9C19.3,22,19.2,22,19,22z M12,15c0.2,0,0.4,0.1,0.6,0.2l5.4,3.9V5c0-0.6-0.4-1-1-1H7 C6.4,4,6,4.4,6,5v14.1l5.4-3.9C11.6,15.1,11.8,15,12,15z"/></symbol><symbol viewBox="0 0 24 24" id="calendar" xmlns="http://www.w3.org/2000/svg"><path d="M19,23H5c-1.7,0-3-1.3-3-3V6c0-1.7,1.3-3,3-3h14c1.7,0,3,1.3,3,3v14C22,21.7,20.7,23,19,23z M5,5C4.4,5,4,5.4,4,6v14 c0,0.6,0.4,1,1,1h14c0.6,0,1-0.4,1-1V6c0-0.6-0.4-1-1-1H5z"/><path d="M16 7c-.6 0-1-.4-1-1V2c0-.6.4-1 1-1s1 .4 1 1v4C17 6.6 16.6 7 16 7zM8 7C7.4 7 7 6.6 7 6V2c0-.6.4-1 1-1s1 .4 1 1v4C9 6.6 8.6 7 8 7zM21 11H3c-.6 0-1-.4-1-1s.4-1 1-1h18c.6 0 1 .4 1 1S21.6 11 21 11z"/></symbol><symbol viewBox="0 0 24 24" id="camera" xmlns="http://www.w3.org/2000/svg"><path d="M21,22H3c-1.7,0-3-1.3-3-3V8c0-1.7,1.3-3,3-3h3.5l1.7-2.6C8.4,2.2,8.7,2,9,2h6c0.3,0,0.6,0.2,0.8,0.4L17.5,5H21 c1.7,0,3,1.3,3,3v11C24,20.7,22.7,22,21,22z M3,7C2.4,7,2,7.4,2,8v11c0,0.6,0.4,1,1,1h18c0.6,0,1-0.4,1-1V8c0-0.6-0.4-1-1-1h-4 c-0.3,0-0.6-0.2-0.8-0.4L14.5,4H9.5L7.8,6.6C7.6,6.8,7.3,7,7,7H3z"/><path d="M12,18c-2.8,0-5-2.2-5-5s2.2-5,5-5s5,2.2,5,5S14.8,18,12,18z M12,10c-1.7,0-3,1.3-3,3s1.3,3,3,3s3-1.3,3-3S13.7,10,12,10z"/></symbol><symbol viewBox="0 0 24 24" fill="currentColor" stroke-width="0" id="cash" xmlns="http://www.w3.org/2000/svg"><path d="M13.07 11.58h-.64V9.5h1.71a.4.4 0 0 0 .43-.42.39.39 0 0 0-.43-.41h-1.71V7.42a.43.43 0 0 0-.86 0v1.25h-.64a1.88 1.88 0 1 0 0 3.75h.64v2.08H9.43a.4.4 0 0 0-.43.42.39.39 0 0 0 .43.41h2.14v1.25a.43.43 0 0 0 .86 0v-1.25h.64a1.88 1.88 0 1 0 0-3.75zm-1.5 0h-.64a1 1 0 1 1 0-2.08h.64zm1.5 2.92h-.64v-2.08h.64a1 1 0 1 1 0 2.08z"/><path d="M20.73 3H3.27A3.15 3.15 0 0 0 0 6v12a3.15 3.15 0 0 0 3.27 3h17.46A3.15 3.15 0 0 0 24 18V6a3.15 3.15 0 0 0-3.27-3zm1.09 15a1.05 1.05 0 0 1-1.09 1H3.27a1.05 1.05 0 0 1-1.09-1V6a1.05 1.05 0 0 1 1.09-1h17.46a1.05 1.05 0 0 1 1.09 1z"/></symbol><symbol viewBox="0 0 24 24" id="check" xmlns="http://www.w3.org/2000/svg"><path d="M9,18c-0.3,0-0.5-0.1-0.7-0.3l-5-5c-0.4-0.4-0.4-1,0-1.4s1-0.4,1.4,0L9,15.6L19.3,5.3c0.4-0.4,1-0.4,1.4,0s0.4,1,0,1.4 l-11,11C9.5,17.9,9.3,18,9,18z"/></symbol><symbol viewBox="0 0 24 24" id="check-circle" xmlns="http://www.w3.org/2000/svg"><path d="M12,23C12,23,12,23,12,23C5.9,23,1,18.1,1,12C1,5.9,5.9,1,12,1c0,0,0,0,0,0c1.5,0,3.1,0.3,4.5,1C17,2.2,17.2,2.8,17,3.3 c-0.2,0.5-0.8,0.7-1.3,0.5C14.5,3.3,13.3,3,12,3c0,0,0,0,0,0c-5,0-9,4-9,9c0,5,4,9,9,9c0,0,0,0,0,0c5,0,9-4,9-9v-0.9 c0-0.6,0.4-1,1-1s1,0.4,1,1V12C23,18.1,18.1,23,12,23z"/><path d="M12,15c-0.3,0-0.5-0.1-0.7-0.3l-3-3c-0.4-0.4-0.4-1,0-1.4s1-0.4,1.4,0l2.3,2.3l9.3-9.3c0.4-0.4,1-0.4,1.4,0 c0.4,0.4,0.4,1,0,1.4l-10,10C12.5,14.9,12.3,15,12,15z"/></symbol><symbol viewBox="0 0 24 24" id="check-square" xmlns="http://www.w3.org/2000/svg"><path d="M12,15c-0.3,0-0.5-0.1-0.7-0.3l-3-3c-0.4-0.4-0.4-1,0-1.4s1-0.4,1.4,0l2.3,2.3l9.3-9.3c0.4-0.4,1-0.4,1.4,0s0.4,1,0,1.4 l-10,10C12.5,14.9,12.3,15,12,15z"/><path d="M19,22H5c-1.7,0-3-1.3-3-3V5c0-1.7,1.3-3,3-3h11c0.6,0,1,0.4,1,1s-0.4,1-1,1H5C4.4,4,4,4.4,4,5v14c0,0.6,0.4,1,1,1h14 c0.6,0,1-0.4,1-1v-7c0-0.6,0.4-1,1-1s1,0.4,1,1v7C22,20.7,20.7,22,19,22z"/></symbol><symbol viewBox="0 0 24 24" id="chevron-down" xmlns="http://www.w3.org/2000/svg"><path d="M12,16c-0.3,0-0.5-0.1-0.7-0.3l-6-6c-0.4-0.4-0.4-1,0-1.4s1-0.4,1.4,0l5.3,5.3l5.3-5.3c0.4-0.4,1-0.4,1.4,0s0.4,1,0,1.4 l-6,6C12.5,15.9,12.3,16,12,16z"/></symbol><symbol viewBox="0 0 24 24" id="chevron-left" xmlns="http://www.w3.org/2000/svg"><path d="M15,19c-0.3,0-0.5-0.1-0.7-0.3l-6-6c-0.4-0.4-0.4-1,0-1.4l6-6c0.4-0.4,1-0.4,1.4,0s0.4,1,0,1.4L10.4,12l5.3,5.3 c0.4,0.4,0.4,1,0,1.4C15.5,18.9,15.3,19,15,19z"/></symbol><symbol viewBox="0 0 24 24" id="chevron-right" xmlns="http://www.w3.org/2000/svg"><path d="M9,19c-0.3,0-0.5-0.1-0.7-0.3c-0.4-0.4-0.4-1,0-1.4l5.3-5.3L8.3,6.7c-0.4-0.4-0.4-1,0-1.4s1-0.4,1.4,0l6,6 c0.4,0.4,0.4,1,0,1.4l-6,6C9.5,18.9,9.3,19,9,19z"/></symbol><symbol viewBox="0 0 24 24" id="chevron-up" xmlns="http://www.w3.org/2000/svg"><path d="M18,16c-0.3,0-0.5-0.1-0.7-0.3L12,10.4l-5.3,5.3c-0.4,0.4-1,0.4-1.4,0s-0.4-1,0-1.4l6-6c0.4-0.4,1-0.4,1.4,0l6,6 c0.4,0.4,0.4,1,0,1.4C18.5,15.9,18.3,16,18,16z"/></symbol><symbol viewBox="0 0 24 24" id="circle" xmlns="http://www.w3.org/2000/svg"><path d="M12,23C5.9,23,1,18.1,1,12S5.9,1,12,1s11,4.9,11,11S18.1,23,12,23z M12,3c-5,0-9,4-9,9c0,5,4,9,9,9c5,0,9-4,9-9 C21,7,17,3,12,3z"/></symbol><symbol viewBox="0 0 24 24" id="clipboard" xmlns="http://www.w3.org/2000/svg"><path d="M18,23H6c-1.7,0-3-1.3-3-3V6c0-1.7,1.3-3,3-3h2c0.6,0,1,0.4,1,1S8.6,5,8,5H6C5.4,5,5,5.4,5,6v14c0,0.6,0.4,1,1,1h12 c0.6,0,1-0.4,1-1V6c0-0.6-0.4-1-1-1h-2c-0.6,0-1-0.4-1-1s0.4-1,1-1h2c1.7,0,3,1.3,3,3v14C21,21.7,19.7,23,18,23z"/><path d="M15,7H9C7.9,7,7,6.1,7,5V3c0-1.1,0.9-2,2-2h6c1.1,0,2,0.9,2,2v2C17,6.1,16.1,7,15,7z M9,3L9,3v2h6V3H9z"/></symbol><symbol viewBox="0 0 24 24" id="clock" xmlns="http://www.w3.org/2000/svg"><path d="M12,23C5.9,23,1,18.1,1,12S5.9,1,12,1s11,4.9,11,11S18.1,23,12,23z M12,3c-5,0-9,4-9,9c0,5,4,9,9,9c5,0,9-4,9-9 C21,7,17,3,12,3z"/><path d="M16,15c-0.2,0-0.3,0-0.4-0.1l-4-2C11.2,12.7,11,12.4,11,12V6c0-0.6,0.4-1,1-1c0.6,0,1,0.4,1,1v5.4l3.4,1.7 c0.5,0.2,0.7,0.8,0.4,1.3C16.7,14.8,16.4,15,16,15z"/></symbol><symbol viewBox="0 0 24 24" fill="currentColor" stroke-width="0" id="contacts" xmlns="http://www.w3.org/2000/svg"><title>contacts</title><path d="M12 7.5a2.25 2.25 0 1 0 2.22 2.25A2.22 2.22 0 0 0 12 7.5zm0 3.6a1.35 1.35 0 1 1 1.33-1.35A1.31 1.31 0 0 1 12 11.1zM16 15.15v.9a.45.45 0 1 1-.89 0v-.9a1.32 1.32 0 0 0-1.33-1.35h-3.56a1.32 1.32 0 0 0-1.33 1.35v.9a.45.45 0 1 1-.89 0v-.9a2.22 2.22 0 0 1 2.22-2.25h3.56A2.22 2.22 0 0 1 16 15.15z"/><path d="M12 7.5a2.25 2.25 0 1 0 2.22 2.25A2.22 2.22 0 0 0 12 7.5zm0 3.6a1.35 1.35 0 1 1 1.33-1.35A1.31 1.31 0 0 1 12 11.1zM16 15.15v.9a.45.45 0 1 1-.89 0v-.9a1.32 1.32 0 0 0-1.33-1.35h-3.56a1.32 1.32 0 0 0-1.33 1.35v.9a.45.45 0 1 1-.89 0v-.9a2.22 2.22 0 0 1 2.22-2.25h3.56A2.22 2.22 0 0 1 16 15.15z"/><path d="M20 3H4a3 3 0 0 0-3 3v12a3 3 0 0 0 3 3h16a3 3 0 0 0 3-3V6a3 3 0 0 0-3-3zm1 15a1 1 0 0 1-1 1H4a1 1 0 0 1-1-1V6a1 1 0 0 1 1-1h16a1 1 0 0 1 1 1zM4.5 0h15a.5.5 0 0 1 .5.5.5.5 0 0 1-.5.5h-15A.5.5 0 0 1 4 .5a.5.5 0 0 1 .5-.5zM4.5 23h15a.5.5 0 0 1 0 1h-15a.5.5 0 0 1 0-1z"/><path d="M16 15.15v.9a.45.45 0 1 1-.89 0v-.9a1.32 1.32 0 0 0-1.33-1.35h-3.56a1.32 1.32 0 0 0-1.33 1.35v.9a.45.45 0 1 1-.89 0v-.9a2.22 2.22 0 0 1 2.22-2.25h3.56A2.22 2.22 0 0 1 16 15.15zM12 7.5a2.25 2.25 0 1 0 2.22 2.25A2.22 2.22 0 0 0 12 7.5zm0 3.6a1.35 1.35 0 1 1 1.33-1.35A1.31 1.31 0 0 1 12 11.1z"/></symbol><symbol viewBox="0 0 24 24" id="copy" xmlns="http://www.w3.org/2000/svg"><path d="M20,23h-9c-1.7,0-3-1.3-3-3v-9c0-1.7,1.3-3,3-3h9c1.7,0,3,1.3,3,3v9C23,21.7,21.7,23,20,23z M11,10c-0.6,0-1,0.4-1,1v9 c0,0.6,0.4,1,1,1h9c0.6,0,1-0.4,1-1v-9c0-0.6-0.4-1-1-1H11z"/><path d="M5,16H4c-1.7,0-3-1.3-3-3V4c0-1.7,1.3-3,3-3h9c1.7,0,3,1.3,3,3v1c0,0.6-0.4,1-1,1s-1-0.4-1-1V4c0-0.6-0.4-1-1-1H4 C3.4,3,3,3.4,3,4v9c0,0.6,0.4,1,1,1h1c0.6,0,1,0.4,1,1S5.6,16,5,16z"/></symbol><symbol viewBox="0 0 24 24" id="credit-card" xmlns="http://www.w3.org/2000/svg"><path d="M21,21H3c-1.7,0-3-1.3-3-3V6c0-1.7,1.3-3,3-3h18c1.7,0,3,1.3,3,3v12C24,19.7,22.7,21,21,21z M3,5C2.4,5,2,5.4,2,6v12 c0,0.6,0.4,1,1,1h18c0.6,0,1-0.4,1-1V6c0-0.6-0.4-1-1-1H3z"/><path d="M23,11H1c-0.6,0-1-0.4-1-1s0.4-1,1-1h22c0.6,0,1,0.4,1,1S23.6,11,23,11z"/></symbol><symbol viewBox="0 0 24 24" id="crop" xmlns="http://www.w3.org/2000/svg"><path d="M23,19H8c-1.7,0-3-1.3-3-3L5.1,1c0-0.5,0.5-1,1-1c0,0,0,0,0,0c0.6,0,1,0.5,1,1L7,16c0,0.5,0.4,1,1,1h15c0.6,0,1,0.4,1,1 S23.6,19,23,19z"/><path d="M18,24c-0.6,0-1-0.4-1-1V8c0-0.6-0.4-1-1-1L1,7.1c0,0,0,0,0,0c-0.5,0-1-0.4-1-1c0-0.6,0.4-1,1-1L16,5c1.7,0,3,1.3,3,3v15 C19,23.6,18.6,24,18,24z"/></symbol><symbol viewBox="0 0 24 24" id="delete" xmlns="http://www.w3.org/2000/svg"><path d="M21,21H8c-0.3,0-0.6-0.1-0.8-0.3l-7-8c-0.3-0.4-0.3-0.9,0-1.3l7-8C7.4,3.1,7.7,3,8,3h13c1.7,0,3,1.3,3,3v12 C24,19.7,22.7,21,21,21z M8.5,19H21c0.6,0,1-0.4,1-1V6c0-0.6-0.4-1-1-1H8.5l-6.1,7L8.5,19z"/><path d="M12,16c-0.3,0-0.5-0.1-0.7-0.3c-0.4-0.4-0.4-1,0-1.4l6-6c0.4-0.4,1-0.4,1.4,0s0.4,1,0,1.4l-6,6C12.5,15.9,12.3,16,12,16z"/><path d="M18,16c-0.3,0-0.5-0.1-0.7-0.3l-6-6c-0.4-0.4-0.4-1,0-1.4s1-0.4,1.4,0l6,6c0.4,0.4,0.4,1,0,1.4C18.5,15.9,18.3,16,18,16z"/></symbol><symbol viewBox="0 0 24 24" id="dollar-sign" xmlns="http://www.w3.org/2000/svg"><path d="M12,24c-0.6,0-1-0.4-1-1V1c0-0.6,0.4-1,1-1c0.6,0,1,0.4,1,1v22C13,23.6,12.6,24,12,24z"/><path d="M14.5,20H6c-0.6,0-1-0.4-1-1s0.4-1,1-1h8.5c1.4,0,2.5-1.1,2.5-2.5S15.9,13,14.5,13h-5C7,13,5,11,5,8.5S7,4,9.5,4H17 c0.6,0,1,0.4,1,1s-0.4,1-1,1H9.5C8.1,6,7,7.1,7,8.5S8.1,11,9.5,11h5c2.5,0,4.5,2,4.5,4.5S17,20,14.5,20z"/></symbol><symbol viewBox="0 0 24 24" id="download" xmlns="http://www.w3.org/2000/svg"><path d="M19,22H5c-1.7,0-3-1.3-3-3v-4c0-0.6,0.4-1,1-1s1,0.4,1,1v4c0,0.6,0.4,1,1,1h14c0.6,0,1-0.4,1-1v-4c0-0.6,0.4-1,1-1 s1,0.4,1,1v4C22,20.7,20.7,22,19,22z"/><path d="M12,16c-0.3,0-0.5-0.1-0.7-0.3l-5-5c-0.4-0.4-0.4-1,0-1.4s1-0.4,1.4,0l4.3,4.3l4.3-4.3c0.4-0.4,1-0.4,1.4,0s0.4,1,0,1.4 l-5,5C12.5,15.9,12.3,16,12,16z"/><path d="M12,16c-0.6,0-1-0.4-1-1V3c0-0.6,0.4-1,1-1c0.6,0,1,0.4,1,1v12C13,15.6,12.6,16,12,16z"/></symbol><symbol viewBox="0 0 24 24" id="droplet" xmlns="http://www.w3.org/2000/svg"><path d="M12,23c-2.4,0-4.7-0.9-6.4-2.6C3.9,18.7,3,16.4,3,14c0-2.4,0.9-4.7,2.6-6.4c0,0,0,0,0,0L11.3,2c0.2-0.2,0.4-0.3,0.7-0.3h0 c0.3,0,0.5,0.1,0.7,0.3l5.7,5.7c3.5,3.5,3.5,9.2,0,12.7C16.7,22.1,14.4,23,12,23C12,23,12,23,12,23z M7,9.1c-1.3,1.3-2,3.1-2,4.9 c0,1.9,0.7,3.6,2.1,4.9c1.3,1.3,3.1,2,4.9,2c0,0,0,0,0,0c1.9,0,3.6-0.7,4.9-2.1c2.7-2.7,2.7-7.2,0-9.9l-5-5L7,9.1 C7.1,9.1,7,9.1,7,9.1z M6.4,8.4L6.4,8.4L6.4,8.4z"/></symbol><symbol viewBox="0 0 24 24" id="edit" xmlns="http://www.w3.org/2000/svg"><path d="M18,23H4c-1.7,0-3-1.3-3-3V6c0-1.7,1.3-3,3-3h5.3c0.6,0,1,0.4,1,1s-0.4,1-1,1H4C3.4,5,3,5.4,3,6v14c0,0.6,0.4,1,1,1h14 c0.6,0,1-0.4,1-1v-5.3c0-0.6,0.4-1,1-1s1,0.4,1,1V20C21,21.7,19.7,23,18,23z"/><path d="M12,17H8c-0.6,0-1-0.4-1-1v-4c0-0.3,0.1-0.5,0.3-0.7l10-10c0.4-0.4,1-0.4,1.4,0l4,4c0.4,0.4,0.4,1,0,1.4l-10,10 C12.5,16.9,12.3,17,12,17z M9,15h2.6l9-9L18,3.4l-9,9V15z"/></symbol><symbol viewBox="0 0 24 24" id="external-link" xmlns="http://www.w3.org/2000/svg"><path d="M16 22H5c-1.7 0-3-1.3-3-3V8c0-1.7 1.3-3 3-3h6c.6 0 1 .4 1 1s-.4 1-1 1H5C4.4 7 4 7.4 4 8v11c0 .6.4 1 1 1h11c.6 0 1-.4 1-1v-6c0-.6.4-1 1-1s1 .4 1 1v6C19 20.7 17.7 22 16 22zM21 10c-.6 0-1-.4-1-1V4h-5c-.6 0-1-.4-1-1s.4-1 1-1h6c.6 0 1 .4 1 1v6C22 9.6 21.6 10 21 10z"/><path d="M10,15c-0.3,0-0.5-0.1-0.7-0.3c-0.4-0.4-0.4-1,0-1.4l11-11c0.4-0.4,1-0.4,1.4,0s0.4,1,0,1.4l-11,11 C10.5,14.9,10.3,15,10,15z"/></symbol><symbol viewBox="0 0 24 24" id="eye" xmlns="http://www.w3.org/2000/svg"><path d="M12,21c-7.5,0-11.7-8.2-11.9-8.6c-0.1-0.3-0.1-0.6,0-0.9C0.3,11.2,4.5,3,12,3s11.7,8.2,11.9,8.6c0.1,0.3,0.1,0.6,0,0.9 C23.7,12.8,19.5,21,12,21z M2.1,12c0.9,1.6,4.5,7,9.9,7c5.4,0,8.9-5.4,9.9-7c-0.9-1.6-4.5-7-9.9-7C6.6,5,3.1,10.4,2.1,12z"/><path d="M12,16c-2.2,0-4-1.8-4-4c0-2.2,1.8-4,4-4c2.2,0,4,1.8,4,4C16,14.2,14.2,16,12,16z M12,10c-1.1,0-2,0.9-2,2c0,1.1,0.9,2,2,2 c1.1,0,2-0.9,2-2C14,10.9,13.1,10,12,10z"/></symbol><symbol viewBox="0 0 24 24" id="eye-off" xmlns="http://www.w3.org/2000/svg"><path d="M12,21c-7.5,0-11.7-8.2-11.9-8.6c-0.1-0.3-0.1-0.6,0-0.9C1.4,9.1,3.2,7,5.5,5.3C5.9,4.9,6.5,5,6.9,5.5 c0.3,0.4,0.3,1.1-0.2,1.4C4.8,8.3,3.3,10,2.1,12c0.9,1.6,4.5,7,9.9,7c1.9,0,3.8-0.7,5.3-1.9c0.4-0.3,1.1-0.2,1.4,0.2 c0.3,0.4,0.2,1.1-0.2,1.4C16.7,20.2,14.4,21,12,21z M20.8,16.2c-0.2,0-0.5-0.1-0.6-0.2c-0.4-0.4-0.5-1-0.1-1.4 c0.7-0.8,1.3-1.6,1.8-2.5c-0.9-1.6-4.5-7-9.9-7c-0.6,0-1.3,0.1-1.9,0.2C9.6,5.3,9.1,5,8.9,4.5s0.2-1.1,0.7-1.2 C10.4,3.1,11.2,3,12,3c7.5,0,11.7,8.2,11.9,8.6c0.1,0.3,0.1,0.6,0,0.9c-0.6,1.2-1.4,2.3-2.3,3.4C21.4,16.1,21.1,16.2,20.8,16.2z M11.9,16.1c-1,0-2-0.4-2.7-1.1c-0.8-0.7-1.2-1.7-1.3-2.8c0-1.1,0.3-2.1,1.1-2.9c0.1-0.1,0.1-0.1,0.2-0.2c0.4-0.4,1-0.4,1.4,0 c0.4,0.4,0.4,1,0,1.4c0,0-0.1,0.1-0.1,0.1c-0.4,0.4-0.6,0.9-0.5,1.4c0,0.5,0.2,1,0.6,1.4c0.8,0.8,2.1,0.7,2.8-0.1 c0.4-0.4,1-0.4,1.4,0c0.4,0.4,0.4,1,0,1.4C14.1,15.6,13,16.1,11.9,16.1z"/><path d="M23,24c-0.3,0-0.5-0.1-0.7-0.3l-22-22c-0.4-0.4-0.4-1,0-1.4s1-0.4,1.4,0l22,22c0.4,0.4,0.4,1,0,1.4 C23.5,23.9,23.3,24,23,24z"/></symbol><symbol viewBox="0 0 24 24" id="facebook" xmlns="http://www.w3.org/2000/svg"><path d="M14,23h-4c-0.6,0-1-0.4-1-1v-7H7c-0.6,0-1-0.4-1-1v-4c0-0.6,0.4-1,1-1h2V7c0-3.3,2.7-6,6-6h3c0.6,0,1,0.4,1,1v4 c0,0.6-0.4,1-1,1h-3v2h3c0.3,0,0.6,0.1,0.8,0.4S19,9.9,19,10.2l-1,4c-0.1,0.4-0.5,0.8-1,0.8h-2v7C15,22.6,14.6,23,14,23z M11,21h2 v-7c0-0.6,0.4-1,1-1h2.2l0.5-2H14c-0.6,0-1-0.4-1-1V7c0-1.1,0.9-2,2-2h2V3h-2c-2.2,0-4,1.8-4,4v3c0,0.6-0.4,1-1,1H8v2h2 c0.6,0,1,0.4,1,1V21z"/></symbol><symbol viewBox="0 0 24 24" id="file" xmlns="http://www.w3.org/2000/svg"><path d="M18,23H6c-1.7,0-3-1.3-3-3V4c0-1.7,1.3-3,3-3h7c0.3,0,0.5,0.1,0.7,0.3l7,7C20.9,8.5,21,8.7,21,9v11C21,21.7,19.7,23,18,23z M6,3C5.4,3,5,3.4,5,4v16c0,0.6,0.4,1,1,1h12c0.6,0,1-0.4,1-1V9.4L12.6,3H6z"/><path d="M20,10h-7c-0.6,0-1-0.4-1-1V2c0-0.6,0.4-1,1-1s1,0.4,1,1v6h6c0.6,0,1,0.4,1,1S20.6,10,20,10z"/></symbol><symbol viewBox="0 0 24 24" id="filter" xmlns="http://www.w3.org/2000/svg"><path d="M14,22c-0.2,0-0.3,0-0.4-0.1l-4-2C9.2,19.7,9,19.4,9,19v-6.2L1.2,3.6C1,3.3,0.9,2.9,1.1,2.6C1.3,2.2,1.6,2,2,2h20 c0.4,0,0.7,0.2,0.9,0.6s0.1,0.8-0.1,1.1L15,12.8V21c0,0.3-0.2,0.7-0.5,0.9C14.4,22,14.2,22,14,22z M11,18.4l2,1v-6.9 c0-0.2,0.1-0.5,0.2-0.6L19.8,4H4.2l6.6,7.8c0.2,0.2,0.2,0.4,0.2,0.6V18.4z"/></symbol><symbol viewBox="0 0 24 24" id="flag" xmlns="http://www.w3.org/2000/svg"><path d="M16,17c-1.7,0-3.1-0.5-4.4-1.1C10.4,15.5,9.3,15,8,15c-2.4,0-3.3,0.7-3.3,0.7C4.4,16,4,16.1,3.6,15.9C3.2,15.7,3,15.4,3,15 V3c0-0.3,0.1-0.5,0.3-0.7C3.5,2.1,4.8,1,8,1c1.7,0,3.1,0.5,4.4,1.1C13.6,2.5,14.7,3,16,3c2.4,0,3.3-0.7,3.3-0.7 C19.6,2,20,1.9,20.4,2.1C20.8,2.3,21,2.6,21,3v12c0,0.3-0.1,0.5-0.3,0.7C20.5,15.9,19.2,17,16,17z M8,13c1.7,0,3.1,0.5,4.4,1.1 c1.2,0.5,2.3,0.9,3.6,0.9c1.6,0,2.6-0.3,3-0.5V4.6C18.3,4.8,17.3,5,16,5c-1.7,0-3.1-0.5-4.4-1.1C10.4,3.5,9.3,3,8,3 C6.4,3,5.4,3.3,5,3.5v9.9C5.7,13.2,6.7,13,8,13z"/><path d="M4,23c-0.6,0-1-0.4-1-1v-7c0-0.6,0.4-1,1-1s1,0.4,1,1v7C5,22.6,4.6,23,4,23z"/></symbol><symbol viewBox="0 0 24 24" id="heart" xmlns="http://www.w3.org/2000/svg"><path d="M12,22.2c-0.3,0-0.5-0.1-0.7-0.3l-8.8-8.8c-1.2-1.2-1.9-2.9-1.9-4.6c0-1.7,0.7-3.4,1.9-4.6c2.5-2.5,6.7-2.5,9.2,0L12,4.3 l0.4-0.4c0,0,0,0,0,0C13.6,2.7,15.2,2,17,2h0c1.7,0,3.4,0.7,4.6,1.9l0,0c1.2,1.2,1.9,2.9,1.9,4.6c0,1.7-0.7,3.4-1.9,4.6l-8.8,8.8 C12.5,22.1,12.3,22.2,12,22.2z M7,4C5.9,4,4.7,4.4,3.9,5.3C3,6.2,2.5,7.3,2.5,8.5c0,1.2,0.5,2.3,1.3,3.2l8.1,8.1l8.1-8.1 c0.9-0.9,1.3-2,1.3-3.2c0-1.2-0.5-2.3-1.3-3.2l0,0C19.3,4.5,18.2,4,17,4c0,0,0,0,0,0c-1.2,0-2.3,0.5-3.2,1.3l0,0c0,0,0,0,0,0 l-1,1.1c-0.4,0.4-1,0.4-1.4,0l-1.1-1.1C9.4,4.4,8.2,4,7,4z"/></symbol><symbol viewBox="0 0 24 24" id="help-circle" xmlns="http://www.w3.org/2000/svg"><path d="M12,23C5.9,23,1,18.1,1,12S5.9,1,12,1s11,4.9,11,11S18.1,23,12,23z M12,3c-5,0-9,4-9,9c0,5,4,9,9,9c5,0,9-4,9-9 C21,7,17,3,12,3z"/><path d="M11.9 14c-.4 0-.8-.3-.9-.7-.2-.5.1-1.1.6-1.3.6-.2 2.3-1 2.3-2.1 0-.9-.5-1.6-1.3-1.9-1-.4-2.2.2-2.6 1.2-.2.5-.8.8-1.3.6C8.2 9.8 8 9.2 8.1 8.7c.7-2.1 3-3.2 5.1-2.4 1.6.6 2.7 2.1 2.7 3.8 0 2.6-3.3 3.8-3.7 3.9C12.1 14 12 14 11.9 14zM12 18c-.3 0-.5-.1-.7-.3C11.1 17.5 11 17.3 11 17c0-.1 0-.3.1-.4.1-.1.1-.2.2-.3.1-.1.2-.2.3-.2C11.8 16 12 16 12.2 16c.1 0 .1 0 .2.1.1 0 .1 0 .2.1 0 0 .1.1.2.1.1.1.2.2.2.3 0 .1.1.2.1.4 0 .3-.1.5-.3.7C12.5 17.9 12.3 18 12 18z"/></symbol><symbol viewBox="0 0 24 24" id="home" xmlns="http://www.w3.org/2000/svg"><path d="M19,23H5c-1.7,0-3-1.3-3-3V9c0-0.3,0.1-0.6,0.4-0.8l9-7c0.4-0.3,0.9-0.3,1.2,0l9,7C21.9,8.4,22,8.7,22,9v11 C22,21.7,20.7,23,19,23z M4,9.5V20c0,0.6,0.4,1,1,1h14c0.6,0,1-0.4,1-1V9.5l-8-6.2L4,9.5z"/><path d="M15,23c-0.6,0-1-0.4-1-1v-9h-4v9c0,0.6-0.4,1-1,1s-1-0.4-1-1V12c0-0.6,0.4-1,1-1h6c0.6,0,1,0.4,1,1v10 C16,22.6,15.6,23,15,23z"/></symbol><symbol viewBox="0 0 24 24" id="image" xmlns="http://www.w3.org/2000/svg"><path d="M19,22H5c-1.7,0-3-1.3-3-3V5c0-1.7,1.3-3,3-3h14c1.7,0,3,1.3,3,3v14C22,20.7,20.7,22,19,22z M5,4C4.4,4,4,4.4,4,5v14 c0,0.6,0.4,1,1,1h14c0.6,0,1-0.4,1-1V5c0-0.6-0.4-1-1-1H5z"/><path d="M8.5 11C7.1 11 6 9.9 6 8.5S7.1 6 8.5 6 11 7.1 11 8.5 9.9 11 8.5 11zM8.5 8C8.2 8 8 8.2 8 8.5S8.2 9 8.5 9 9 8.8 9 8.5 8.8 8 8.5 8zM5 22c-.3 0-.5-.1-.7-.3-.4-.4-.4-1 0-1.4l11-11c.4-.4 1-.4 1.4 0l5 5c.4.4.4 1 0 1.4s-1 .4-1.4 0L16 11.4 5.7 21.7C5.5 21.9 5.3 22 5 22z"/></symbol><symbol viewBox="0 0 24 24" id="info" xmlns="http://www.w3.org/2000/svg"><path d="M12,23C5.9,23,1,18.1,1,12S5.9,1,12,1s11,4.9,11,11S18.1,23,12,23z M12,3c-5,0-9,4-9,9c0,5,4,9,9,9c5,0,9-4,9-9 C21,7,17,3,12,3z"/><path d="M12 17c-.6 0-1-.4-1-1v-4c0-.6.4-1 1-1 .6 0 1 .4 1 1v4C13 16.6 12.6 17 12 17zM12 9c-.1 0-.1 0-.2 0-.1 0-.1 0-.2-.1-.1 0-.1-.1-.2-.1-.1 0-.1-.1-.1-.1C11.1 8.5 11 8.3 11 8s.1-.5.3-.7c0 0 .1-.1.1-.1.1 0 .1-.1.2-.1.1 0 .1 0 .2-.1.3-.1.7 0 .9.3C12.9 7.5 13 7.7 13 8c0 .3-.1.5-.3.7C12.5 8.9 12.3 9 12 9z"/></symbol><symbol viewBox="0 0 24 24" id="instagram" xmlns="http://www.w3.org/2000/svg"><path d="M17,23H7c-3.3,0-6-2.7-6-6V7c0-3.3,2.7-6,6-6h10c3.3,0,6,2.7,6,6v10C23,20.3,20.3,23,17,23z M7,3C4.8,3,3,4.8,3,7v10 c0,2.2,1.8,4,4,4h10c2.2,0,4-1.8,4-4V7c0-2.2-1.8-4-4-4H7z"/><path d="M12 17c-2.4 0-4.6-1.8-4.9-4.3C6.7 10 8.6 7.4 11.3 7c.5-.1 1-.1 1.5 0 2.2.3 3.9 2 4.2 4.2l0 0c.2 1.3-.1 2.6-.9 3.7-.8 1.1-2 1.8-3.3 2C12.5 16.9 12.3 17 12 17zM12 9c-.1 0-.3 0-.4 0-1.6.2-2.8 1.8-2.5 3.4.2 1.6 1.8 2.8 3.4 2.5.8-.1 1.5-.5 2-1.2s.7-1.4.6-2.2l0 0c-.2-1.3-1.2-2.3-2.5-2.5C12.3 9 12.2 9 12 9zM17.5 7.5c-.3 0-.5-.1-.7-.3-.2-.2-.3-.5-.3-.7 0-.1 0-.3.1-.4 0-.1.1-.2.2-.3.4-.4 1-.4 1.4 0 .1.1.2.2.2.3 0 .1.1.2.1.4 0 .3-.1.5-.3.7C18 7.4 17.8 7.5 17.5 7.5z"/></symbol><symbol viewBox="0 0 24 24" id="italic" xmlns="http://www.w3.org/2000/svg"><path d="M19 5h-9C9.4 5 9 4.6 9 4s.4-1 1-1h9c.6 0 1 .4 1 1S19.6 5 19 5zM14 21H5c-.6 0-1-.4-1-1s.4-1 1-1h9c.6 0 1 .4 1 1S14.6 21 14 21z"/><path d="M9,21c-0.1,0-0.2,0-0.4-0.1c-0.5-0.2-0.8-0.8-0.6-1.3l6-16c0.2-0.5,0.8-0.8,1.3-0.6c0.5,0.2,0.8,0.8,0.6,1.3l-6,16 C9.8,20.8,9.4,21,9,21z"/></symbol><symbol viewBox="0 0 116 31.93" fill="currentColor" stroke-width="0" id="jdrf" xmlns="http://www.w3.org/2000/svg"><title>JDRF</title><path d="M115.11,6.26,116,0H92L87.65,31.33h6.93L96.27,19.2h15l.86-6.28h-15l.93-6.66ZM87.62,10.58v-.1c.4-3-.19-5.42-1.7-7.16-1.79-2-4.73-3.18-8.74-3.18H62.81L58.46,31.47h6.93L68.88,6.38h6.87c3.37,0,5.23,1.52,4.83,4.46v.1c-.35,2.62-2.55,4.44-5.92,4.44H69.4L77.57,31.5h8.09L79.53,20.3a11.61,11.61,0,0,0,8.09-9.72M43.51.05H10.08L9.31,5.56h8l-2,14.76c-.5,3.63-2.34,5.18-5,5.18-2.19,0-3.79-1.17-5.32-3.12L0,27.22c1.81,2.56,4.75,4.71,9.65,4.71A12.72,12.72,0,0,0,18.24,29a13.22,13.22,0,0,0,4.14-8.35l2.07-15v.08H42.72c5.66,0,8.89,4.41,8.12,10v.1A10.6,10.6,0,0,1,40,25.17H34L36.44,7.81H29.23l-2.36,5.06h2.57L26.87,31.38H39.14c9.91,0,17.7-6.85,18.91-15.67v-.09C59.3,6.81,53.4.05,43.51.05"/></symbol><symbol viewBox="0 0 24 24" id="link-2" xmlns="http://www.w3.org/2000/svg"><path d="M18,18h-3c-0.6,0-1-0.4-1-1s0.4-1,1-1h3c2.2,0,4-1.8,4-4c0-2.2-1.8-4-4-4h-3c-0.6,0-1-0.4-1-1s0.4-1,1-1h3c3.3,0,6,2.7,6,6 S21.3,18,18,18z M9,18H6c-3.3,0-6-2.7-6-6s2.7-6,6-6h3c0.6,0,1,0.4,1,1S9.6,8,9,8H6c-2.2,0-4,1.8-4,4c0,2.2,1.8,4,4,4h3 c0.6,0,1,0.4,1,1S9.6,18,9,18z"/><path d="M16,13H8c-0.6,0-1-0.4-1-1c0-0.6,0.4-1,1-1h8c0.6,0,1,0.4,1,1C17,12.6,16.6,13,16,13z"/></symbol><symbol viewBox="0 0 24 24" id="linkedin" xmlns="http://www.w3.org/2000/svg"><path d="M22 22h-4c-.6 0-1-.4-1-1v-7c0-.6-.4-1-1-1s-1 .4-1 1v7c0 .6-.4 1-1 1h-4c-.6 0-1-.4-1-1v-7c0-3.9 3.1-7 7-7s7 3.1 7 7v7C23 21.6 22.6 22 22 22zM19 20h2v-6c0-2.8-2.2-5-5-5s-5 2.2-5 5v6h2v-6c0-1.7 1.3-3 3-3s3 1.3 3 3V20zM6 22H2c-.6 0-1-.4-1-1V9c0-.6.4-1 1-1h4c.6 0 1 .4 1 1v12C7 21.6 6.6 22 6 22zM3 20h2V10H3V20zM4 7C2.3 7 1 5.7 1 4s1.3-3 3-3 3 1.3 3 3S5.7 7 4 7zM4 3C3.4 3 3 3.4 3 4s.4 1 1 1 1-.4 1-1S4.6 3 4 3z"/></symbol><symbol viewBox="0 0 24 24" id="list" xmlns="http://www.w3.org/2000/svg"><path d="M21 7H8C7.4 7 7 6.6 7 6s.4-1 1-1h13c.6 0 1 .4 1 1S21.6 7 21 7zM21 13H8c-.6 0-1-.4-1-1 0-.6.4-1 1-1h13c.6 0 1 .4 1 1C22 12.6 21.6 13 21 13zM21 19H8c-.6 0-1-.4-1-1s.4-1 1-1h13c.6 0 1 .4 1 1S21.6 19 21 19zM3 7C2.9 7 2.9 7 2.8 7c-.1 0-.1 0-.2-.1-.1 0-.1-.1-.2-.1-.1 0-.1-.1-.1-.1C2.2 6.6 2.1 6.5 2.1 6.4 2 6.3 2 6.1 2 6c0-.1 0-.3.1-.4.1-.1.1-.2.2-.3C2.6 5 3 4.9 3.4 5.1c.1.1.2.1.3.2C3.9 5.5 4 5.7 4 6c0 .3-.1.5-.3.7C3.5 6.9 3.3 7 3 7zM3 13c-.3 0-.5-.1-.7-.3C2.1 12.5 2 12.3 2 12c0-.1 0-.1 0-.2 0-.1 0-.1.1-.2 0-.1.1-.1.1-.2 0-.1.1-.1.1-.1.1-.1.2-.2.3-.2C3 10.9 3.4 11 3.7 11.3c0 0 .1.1.1.1 0 .1.1.1.1.2 0 .1 0 .1.1.2 0 .1 0 .1 0 .2 0 .3-.1.5-.3.7C3.5 12.9 3.3 13 3 13zM3 19c-.3 0-.5-.1-.7-.3C2.1 18.5 2 18.3 2 18c0-.1 0-.3.1-.4.1-.1.1-.2.2-.3.4-.4 1-.4 1.4 0C3.9 17.5 4 17.7 4 18c0 .3-.1.5-.3.7C3.5 18.9 3.3 19 3 19z"/></symbol><symbol viewBox="0 0 24 24" fill="currentColor" stroke-width="0" id="list-ordered" xmlns="http://www.w3.org/2000/svg"><title>list-ordered-modified</title><path d="M3.06 20.2c-1.18 0-1.72-.54-1.76-1.46H2.37a.57.57 0 0 0 .62.59c.38 0 .56-.18.56-.48s-.18-.5-.56-.5H2.66V17.6H3c.38 0 .56-.17.56-.46s-.16-.42-.48-.42a.53.53 0 0 0-.56.53H1.42a1.46 1.46 0 0 1 1.66-1.4c1 0 1.58.45 1.58 1.16a.9.9 0 0 1-.71.91 1 1 0 0 1 .82.95C4.77 19.67 4.17 20.2 3.06 20.2zM1.3 14l1.5-1.59c.43-.46.71-.83.71-1.19a.43.43 0 0 0-.46-.48c-.3 0-.5.19-.55.7H1.38A1.56 1.56 0 0 1 3.11 9.85c1.05 0 1.61.56 1.61 1.36a2.09 2.09 0 0 1-.81 1.49l-.6.58H4.75v.92H1.3z"/><polygon points="2.83 5.08 2 5.59 2 4.55 3 3.85 4.08 3.85 4.08 8.2 2.83 8.2 2.83 5.08"/><path d="M21,17a1,1,0,0,1,0,2H8a1,1,0,0,1,0-2Zm0-6a1,1,0,0,1,0,2H8a1,1,0,0,1,0-2ZM7,6A.94.94,0,0,1,8,5H21a.94.94,0,0,1,1,1,.94.94,0,0,1-1,1H8A.94.94,0,0,1,7,6Z"/></symbol><symbol viewBox="0 0 24 24" id="lock" xmlns="http://www.w3.org/2000/svg"><path d="M19,23H5c-1.7,0-3-1.3-3-3v-7c0-1.7,1.3-3,3-3h14c1.7,0,3,1.3,3,3v7C22,21.7,20.7,23,19,23z M5,12c-0.6,0-1,0.4-1,1v7 c0,0.6,0.4,1,1,1h14c0.6,0,1-0.4,1-1v-7c0-0.6-0.4-1-1-1H5z"/><path d="M17,12c-0.6,0-1-0.4-1-1V7c0-2.2-1.8-4-4-4C9.8,3,8,4.8,8,7v4c0,0.6-0.4,1-1,1s-1-0.4-1-1V7c0-3.3,2.7-6,6-6s6,2.7,6,6v4 C18,11.6,17.6,12,17,12z"/></symbol><symbol viewBox="0 0 24 24" id="log-in" xmlns="http://www.w3.org/2000/svg"><path d="M19,22h-4c-0.6,0-1-0.4-1-1s0.4-1,1-1h4c0.6,0,1-0.4,1-1V5c0-0.6-0.4-1-1-1h-4c-0.6,0-1-0.4-1-1s0.4-1,1-1h4 c1.7,0,3,1.3,3,3v14C22,20.7,20.7,22,19,22z"/><path d="M10,18c-0.3,0-0.5-0.1-0.7-0.3c-0.4-0.4-0.4-1,0-1.4l4.3-4.3L9.3,7.7c-0.4-0.4-0.4-1,0-1.4s1-0.4,1.4,0l5,5 c0.4,0.4,0.4,1,0,1.4l-5,5C10.5,17.9,10.3,18,10,18z"/><path d="M15,13H3c-0.6,0-1-0.4-1-1c0-0.6,0.4-1,1-1h12c0.6,0,1,0.4,1,1C16,12.6,15.6,13,15,13z"/></symbol><symbol viewBox="0 0 24 24" id="log-out" xmlns="http://www.w3.org/2000/svg"><path d="M9 22H5c-1.7 0-3-1.3-3-3V5c0-1.7 1.3-3 3-3h4c.6 0 1 .4 1 1S9.6 4 9 4H5C4.4 4 4 4.4 4 5v14c0 .6.4 1 1 1h4c.6 0 1 .4 1 1S9.6 22 9 22zM16 18c-.3 0-.5-.1-.7-.3-.4-.4-.4-1 0-1.4l4.3-4.3-4.3-4.3c-.4-.4-.4-1 0-1.4s1-.4 1.4 0l5 5c.4.4.4 1 0 1.4l-5 5C16.5 17.9 16.3 18 16 18z"/><path d="M21,13H9c-0.6,0-1-0.4-1-1c0-0.6,0.4-1,1-1h12c0.6,0,1,0.4,1,1C22,12.6,21.6,13,21,13z"/></symbol><symbol viewBox="0 0 24 24" id="mail" xmlns="http://www.w3.org/2000/svg"><path d="M20,21H4c-1.7,0-3-1.3-3-3V6c0-1.7,1.3-3,3-3h16c1.7,0,3,1.3,3,3v12C23,19.7,21.7,21,20,21z M4,5C3.4,5,3,5.4,3,6v12 c0,0.6,0.4,1,1,1h16c0.6,0,1-0.4,1-1V6c0-0.6-0.4-1-1-1H4z"/><path d="M12,14c-0.2,0-0.4-0.1-0.6-0.2l-10-7C1,6.5,0.9,5.9,1.2,5.4C1.5,5,2.1,4.9,2.6,5.2l9.4,6.6l9.4-6.6 c0.5-0.3,1.1-0.2,1.4,0.2c0.3,0.5,0.2,1.1-0.2,1.4l-10,7C12.4,13.9,12.2,14,12,14z"/></symbol><symbol viewBox="0 0 24 24" id="map-pin" xmlns="http://www.w3.org/2000/svg"><path d="M12,24c-0.2,0-0.4-0.1-0.6-0.2C11.1,23.6,2,17.4,2,10C2,4.5,6.5,0,12,0c5.5,0,10,4.5,10,10c0,7.4-9.1,13.6-9.4,13.8 C12.4,23.9,12.2,24,12,24z M12,2c-4.4,0-8,3.6-8,8c0,5.4,6.1,10.4,8,11.8c1.9-1.4,8-6.4,8-11.8C20,5.6,16.4,2,12,2z"/><path d="M12,14c-2.2,0-4-1.8-4-4c0-2.2,1.8-4,4-4c2.2,0,4,1.8,4,4C16,12.2,14.2,14,12,14z M12,8c-1.1,0-2,0.9-2,2s0.9,2,2,2 c1.1,0,2-0.9,2-2S13.1,8,12,8z"/></symbol><symbol viewBox="0 0 24 24" id="menu" xmlns="http://www.w3.org/2000/svg"><path d="M21 13H3c-.6 0-1-.4-1-1 0-.6.4-1 1-1h18c.6 0 1 .4 1 1C22 12.6 21.6 13 21 13zM21 7H3C2.4 7 2 6.6 2 6s.4-1 1-1h18c.6 0 1 .4 1 1S21.6 7 21 7zM21 19H3c-.6 0-1-.4-1-1s.4-1 1-1h18c.6 0 1 .4 1 1S21.6 19 21 19z"/></symbol><symbol viewBox="0 0 24 24" id="message-circle" xmlns="http://www.w3.org/2000/svg"><path d="M3,22c-0.3,0-0.5-0.1-0.7-0.3c-0.3-0.3-0.4-0.7-0.2-1l1.8-5.3C3.3,14.2,3,12.8,3,11.5C3,7.9,5,4.6,8.3,3 c1.3-0.7,2.8-1,4.2-1c0,0,0,0,0,0H13c4.9,0.3,8.7,4.1,9,8.9l0,0.6c0,1.5-0.3,2.9-1,4.3C19.4,19,16.1,21,12.5,21 c-1.3,0-2.7-0.3-3.9-0.8l-5.3,1.8C3.2,22,3.1,22,3,22z M12.5,4c-1.2,0-2.3,0.3-3.3,0.8C6.6,6.1,5,8.6,5,11.5c0,1.2,0.3,2.3,0.8,3.3 c0.1,0.2,0.1,0.5,0.1,0.8l-1.3,3.8l3.8-1.3c0.3-0.1,0.5-0.1,0.8,0.1c1,0.5,2.2,0.8,3.3,0.8c2.9,0,5.4-1.6,6.7-4.1 c0.5-1,0.8-2.2,0.8-3.3c0,0,0,0,0,0V11c-0.2-3.8-3.2-6.8-7.1-7L12.5,4C12.5,4,12.5,4,12.5,4z"/></symbol><symbol viewBox="0 0 24 24" id="minus" xmlns="http://www.w3.org/2000/svg"><path d="M19,13H5c-0.6,0-1-0.4-1-1c0-0.6,0.4-1,1-1h14c0.6,0,1,0.4,1,1C20,12.6,19.6,13,19,13z"/></symbol><symbol viewBox="0 0 24 24" id="more-horizontal" xmlns="http://www.w3.org/2000/svg"><circle cx="12" cy="12" r="2"/><circle cx="19" cy="12" r="2"/><circle cx="5" cy="12" r="2"/></symbol><symbol viewBox="0 0 24 24" id="more-vertical" xmlns="http://www.w3.org/2000/svg"><circle cx="12" cy="12" r="2"/><circle cx="12" cy="5" r="2"/><circle cx="12" cy="19" r="2"/></symbol><symbol viewBox="0 0 24 24" id="move" xmlns="http://www.w3.org/2000/svg"><path d="M5 16c-.3 0-.5-.1-.7-.3l-3-3c-.4-.4-.4-1 0-1.4l3-3c.4-.4 1-.4 1.4 0s.4 1 0 1.4L3.4 12l2.3 2.3c.4.4.4 1 0 1.4C5.5 15.9 5.3 16 5 16zM15 6c-.3 0-.5-.1-.7-.3L12 3.4 9.7 5.7c-.4.4-1 .4-1.4 0s-.4-1 0-1.4l3-3c.4-.4 1-.4 1.4 0l3 3c.4.4.4 1 0 1.4C15.5 5.9 15.3 6 15 6zM12 23c-.3 0-.5-.1-.7-.3l-3-3c-.4-.4-.4-1 0-1.4s1-.4 1.4 0l2.3 2.3 2.3-2.3c.4-.4 1-.4 1.4 0s.4 1 0 1.4l-3 3C12.5 22.9 12.3 23 12 23zM19 16c-.3 0-.5-.1-.7-.3-.4-.4-.4-1 0-1.4l2.3-2.3-2.3-2.3c-.4-.4-.4-1 0-1.4s1-.4 1.4 0l3 3c.4.4.4 1 0 1.4l-3 3C19.5 15.9 19.3 16 19 16z"/><path d="M22,13H2c-0.6,0-1-0.4-1-1c0-0.6,0.4-1,1-1h20c0.6,0,1,0.4,1,1C23,12.6,22.6,13,22,13z"/><path d="M12,23c-0.6,0-1-0.4-1-1V2c0-0.6,0.4-1,1-1c0.6,0,1,0.4,1,1v20C13,22.6,12.6,23,12,23z"/></symbol><symbol viewBox="0 0 24 24" id="phone" xmlns="http://www.w3.org/2000/svg"><path d="M20,22.9c-0.1,0-0.2,0-0.3,0c-3.2-0.4-6.4-1.5-9.1-3.2c-2.5-1.6-4.7-3.8-6.3-6.3c-1.8-2.7-2.9-5.9-3.2-9.1 C1.1,3.5,1.3,2.7,1.8,2.1c0.5-0.6,1.2-1,2-1.1C3.9,1,4,1,4.1,1h3c0,0,0,0,0,0c1.5,0,2.8,1.1,3,2.6c0.1,0.9,0.3,1.8,0.6,2.6 c0.4,1.1,0.1,2.3-0.7,3.2l-0.7,0.7c1.2,1.8,2.7,3.4,4.6,4.6l0.7-0.7c0.8-0.8,2.1-1.1,3.2-0.7c0.8,0.3,1.7,0.5,2.6,0.6 c1.5,0.2,2.6,1.5,2.6,3v3c0,0.8-0.3,1.6-0.9,2.1S20.8,22.9,20,22.9C20,22.9,20,22.9,20,22.9z M7.1,3C7.1,3,7.1,3,7.1,3h-3 C3.8,3,3.5,3.2,3.3,3.4C3.2,3.6,3.1,3.8,3.1,4.1C3.4,7,4.4,9.8,6,12.3c1.5,2.3,3.4,4.3,5.7,5.7c2.5,1.6,5.3,2.6,8.2,2.9 c0.4,0,0.6-0.1,0.8-0.3c0.2-0.2,0.3-0.4,0.3-0.7v-3c0,0,0,0,0,0c0-0.5-0.4-0.9-0.9-1c-1-0.1-2-0.4-3-0.8c-0.4-0.1-0.8-0.1-1.1,0.2 l-1.3,1.3c-0.3,0.3-0.8,0.4-1.2,0.2c-2.7-1.5-4.9-3.7-6.4-6.4C7,10,7.1,9.5,7.4,9.2l1.3-1.3C8.9,7.7,9,7.2,8.9,6.9 c-0.4-1-0.6-2-0.8-3C8.1,3.4,7.6,3,7.1,3z"/></symbol><symbol viewBox="0 0 24 24" id="play-circle" xmlns="http://www.w3.org/2000/svg"><path d="M12,23C5.9,23,1,18.1,1,12S5.9,1,12,1s11,4.9,11,11S18.1,23,12,23z M12,3c-5,0-9,4-9,9c0,5,4,9,9,9c5,0,9-4,9-9 C21,7,17,3,12,3z"/><path d="M10,17c-0.2,0-0.3,0-0.5-0.1C9.2,16.7,9,16.4,9,16V8c0-0.4,0.2-0.7,0.5-0.9c0.3-0.2,0.7-0.2,1,0l6,4 c0.3,0.2,0.4,0.5,0.4,0.8c0,0.3-0.2,0.6-0.4,0.8l-6,4C10.4,16.9,10.2,17,10,17z M11,9.9v4.3l3.2-2.1L11,9.9z"/></symbol><symbol viewBox="0 0 24 24" id="plus" xmlns="http://www.w3.org/2000/svg"><path d="M12,20c-0.6,0-1-0.4-1-1V5c0-0.6,0.4-1,1-1c0.6,0,1,0.4,1,1v14C13,19.6,12.6,20,12,20z"/><path d="M19,13H5c-0.6,0-1-0.4-1-1c0-0.6,0.4-1,1-1h14c0.6,0,1,0.4,1,1C20,12.6,19.6,13,19,13z"/></symbol><symbol viewBox="0 0 24 24" id="printer" xmlns="http://www.w3.org/2000/svg"><path d="M18,10c-0.6,0-1-0.4-1-1V3H7v6c0,0.6-0.4,1-1,1S5,9.6,5,9V2c0-0.6,0.4-1,1-1h12c0.6,0,1,0.4,1,1v7C19,9.6,18.6,10,18,10z"/><path d="M20,19h-2c-0.6,0-1-0.4-1-1s0.4-1,1-1h2c0.6,0,1-0.4,1-1v-5c0-0.6-0.4-1-1-1H4c-0.6,0-1,0.4-1,1v5c0,0.6,0.4,1,1,1h2 c0.6,0,1,0.4,1,1s-0.4,1-1,1H4c-1.7,0-3-1.3-3-3v-5c0-1.7,1.3-3,3-3h16c1.7,0,3,1.3,3,3v5C23,17.7,21.7,19,20,19z"/><path d="M18,23H6c-0.6,0-1-0.4-1-1v-8c0-0.6,0.4-1,1-1h12c0.6,0,1,0.4,1,1v8C19,22.6,18.6,23,18,23z M7,21h10v-6H7V21z"/></symbol><symbol viewBox="0 0 24 24" id="rotate-ccw" xmlns="http://www.w3.org/2000/svg"><path d="M7,11H1c-0.6,0-1-0.4-1-1V4c0-0.6,0.4-1,1-1s1,0.4,1,1v5h5c0.6,0,1,0.4,1,1S7.6,11,7,11z"/><path d="M12,22c-4.1,0-8-2.6-9.4-6.7c-0.2-0.5,0.1-1.1,0.6-1.3c0.5-0.2,1.1,0.1,1.3,0.6c1.5,4.2,6,6.4,10.2,4.9 c4.2-1.5,6.4-6,4.9-10.2c-0.7-2-2.2-3.6-4.1-4.6c-1.9-0.9-4.1-1-6.1-0.3c-1.1,0.4-2.2,1-3,1.9l-4.7,4.4c-0.4,0.4-1,0.4-1.4,0 c-0.4-0.4-0.4-1,0-1.4L5,4.9c1-1,2.3-1.8,3.7-2.3c2.5-0.9,5.2-0.7,7.6,0.4c2.4,1.2,4.2,3.2,5.1,5.7c1.8,5.2-0.9,10.9-6.1,12.8 C14.2,21.8,13.1,22,12,22z"/></symbol><symbol viewBox="0 0 24 24" id="rotate-cw" xmlns="http://www.w3.org/2000/svg"><path d="M23,11h-6c-0.6,0-1-0.4-1-1s0.4-1,1-1h5V4c0-0.6,0.4-1,1-1s1,0.4,1,1v6C24,10.6,23.6,11,23,11z"/><path d="M12,22c-1.1,0-2.2-0.2-3.3-0.6c-5.2-1.8-7.9-7.6-6.1-12.8c1.8-5.2,7.6-7.9,12.8-6.1c1.4,0.5,2.7,1.3,3.7,2.4l4.6,4.3 c0.4,0.4,0.4,1,0,1.4c-0.4,0.4-1,0.4-1.4,0l-4.6-4.4c-0.9-0.9-1.9-1.5-3-1.9c-2-0.7-4.2-0.6-6.1,0.3C6.6,5.7,5.2,7.3,4.5,9.3 C3,13.5,5.2,18.1,9.3,19.5c4.2,1.5,8.7-0.7,10.2-4.9c0.2-0.5,0.8-0.8,1.3-0.6c0.5,0.2,0.8,0.8,0.6,1.3C20,19.4,16.1,22,12,22z"/></symbol><symbol viewBox="0 0 24 24" id="search" xmlns="http://www.w3.org/2000/svg"><path d="M11,20c-5,0-9-4-9-9c0-5,4-9,9-9c5,0,9,4,9,9C20,16,16,20,11,20z M11,4c-3.9,0-7,3.1-7,7c0,3.9,3.1,7,7,7c3.9,0,7-3.1,7-7 C18,7.1,14.9,4,11,4z"/><path d="M21,22c-0.3,0-0.5-0.1-0.7-0.3l-4.3-4.3c-0.4-0.4-0.4-1,0-1.4s1-0.4,1.4,0l4.3,4.3c0.4,0.4,0.4,1,0,1.4 C21.5,21.9,21.3,22,21,22z"/></symbol><symbol viewBox="0 0 24 24" id="send" xmlns="http://www.w3.org/2000/svg"><path d="M11,14c-0.3,0-0.5-0.1-0.7-0.3c-0.4-0.4-0.4-1,0-1.4l11-11c0.4-0.4,1-0.4,1.4,0s0.4,1,0,1.4l-11,11 C11.5,13.9,11.3,14,11,14z"/><path d="M15,23c-0.4,0-0.8-0.2-0.9-0.6l-3.8-8.6L1.6,9.9C1.2,9.7,1,9.4,1,9c0-0.4,0.3-0.8,0.7-0.9l20-7c0.4-0.1,0.8,0,1,0.2 c0.3,0.3,0.4,0.7,0.2,1l-7,20C15.8,22.7,15.5,23,15,23C15,23,15,23,15,23z M4.7,9.1l6.7,3c0.2,0.1,0.4,0.3,0.5,0.5l3,6.7l5.5-15.7 L4.7,9.1z"/></symbol><symbol viewBox="0 0 24 24" id="settings" xmlns="http://www.w3.org/2000/svg"><path d="M12,16c-2.2,0-4-1.8-4-4c0-2.2,1.8-4,4-4c2.2,0,4,1.8,4,4C16,14.2,14.2,16,12,16z M12,10c-1.1,0-2,0.9-2,2c0,1.1,0.9,2,2,2 c1.1,0,2-0.9,2-2C14,10.9,13.1,10,12,10z"/><path d="M12.1,24c-1.7,0-3-1.3-3-3c0-0.3-0.2-0.6-0.4-0.7c-0.3-0.1-0.6-0.1-0.8,0.1c-1.2,1.2-3.1,1.2-4.3,0.1c0,0,0,0,0,0 c-0.6-0.6-0.9-1.3-0.9-2.1c0-0.8,0.3-1.6,0.9-2.1c0.2-0.2,0.3-0.5,0.2-0.8c-0.1-0.2-0.3-0.4-0.6-0.4H3c-1.7,0-3-1.3-3-3s1.3-3,3-3 c0.3,0,0.6-0.2,0.7-0.4c0.1-0.3,0.1-0.6-0.1-0.8C2.3,6.7,2.3,4.8,3.5,3.6c1.2-1.2,3.1-1.2,4.2,0C8,3.8,8.3,3.9,8.5,3.8 c0.1,0,0.1,0,0.2-0.1C8.9,3.6,9,3.4,9,3.2V3c0-1.7,1.3-3,3-3s3,1.3,3,3c0,0.3,0.2,0.6,0.4,0.7c0.3,0.1,0.5,0.1,0.7-0.1 c0.6-0.6,1.3-1,2.2-0.9c0.8,0,1.5,0.3,2.1,0.9c0,0,0,0,0,0v0c1.2,1.2,1.2,3.1,0,4.2c-0.2,0.2-0.3,0.5-0.2,0.8c0,0.1,0,0.1,0.1,0.2 C20.4,8.9,20.6,9,20.8,9H21c1.7,0,3,1.3,3,3s-1.3,3-3,3c-0.3,0-0.6,0.2-0.7,0.4c0,0,0,0,0,0c-0.1,0.2-0.1,0.5,0.1,0.7 c1.2,1.2,1.2,3.1,0.1,4.3c-1.2,1.2-3.1,1.2-4.2,0c-0.2-0.2-0.5-0.3-0.8-0.2c-0.2,0.1-0.4,0.3-0.4,0.6V21C15.1,22.7,13.7,24,12.1,24 z M8.3,18.3c0.4,0,0.7,0.1,1.1,0.2c1,0.4,1.6,1.3,1.7,2.4c0,0,0,0.1,0,0.1c0,0.6,0.4,1,1,1c0.6,0,1-0.4,1-1v-0.2 c0-1.1,0.6-2,1.6-2.4c1-0.4,2.1-0.2,2.9,0.5c0.3,0.3,0.5,0.4,0.8,0.4c0,0,0,0,0,0c0.3,0,0.5-0.1,0.7-0.3c0.2-0.2,0.3-0.4,0.3-0.7 c0-0.3-0.1-0.5-0.3-0.7c-0.8-0.8-1-2-0.6-3c0.4-1,1.4-1.6,2.4-1.6c0.6,0,1.1-0.4,1.1-1c0-0.6-0.4-1-1-1h-0.2c-1.1,0-2-0.6-2.4-1.6 c0-0.1-0.1-0.2-0.1-0.3c-0.3-0.9-0.1-2,0.6-2.7c0.5-0.5,0.5-1.1,0.1-1.5c0,0,0,0,0,0c-0.2-0.2-0.4-0.3-0.7-0.3h0 c-0.3,0-0.5,0.1-0.7,0.3c-0.8,0.8-2,1-3,0.6c-1-0.4-1.6-1.4-1.6-2.4C13,2.4,12.6,2,12,2c-0.6,0-1,0.4-1,1v0.2c0,1.1-0.6,2-1.6,2.4 c-0.1,0-0.2,0.1-0.3,0.1C8.2,6,7.1,5.8,6.4,5.1C5.9,4.6,5.3,4.6,4.9,5c-0.4,0.4-0.4,1,0,1.4c0.8,0.8,1,2,0.6,3 c-0.4,1-1.3,1.6-2.4,1.7c0,0-0.1,0-0.1,0c-0.6,0-1,0.4-1,1c0,0.6,0.4,1,1,1h0.2c1.1,0,2,0.6,2.4,1.6c0.4,1,0.2,2.1-0.5,2.9 c-0.3,0.3-0.4,0.5-0.4,0.8c0,0.3,0.1,0.5,0.3,0.7h0c0,0,0,0,0,0c0.4,0.4,1,0.4,1.4,0C7,18.5,7.7,18.3,8.3,18.3z M19.4,15L19.4,15 L19.4,15z"/></symbol><symbol viewBox="0 0 24 24" id="share" xmlns="http://www.w3.org/2000/svg"><path d="M18 23H6c-1.7 0-3-1.3-3-3v-8c0-.6.4-1 1-1s1 .4 1 1v8c0 .6.4 1 1 1h12c.6 0 1-.4 1-1v-8c0-.6.4-1 1-1s1 .4 1 1v8C21 21.7 19.7 23 18 23zM16 7c-.3 0-.5-.1-.7-.3L12 3.4 8.7 6.7c-.4.4-1 .4-1.4 0s-.4-1 0-1.4l4-4c.4-.4 1-.4 1.4 0l4 4c.4.4.4 1 0 1.4C16.5 6.9 16.3 7 16 7z"/><path d="M12,16c-0.6,0-1-0.4-1-1V2c0-0.6,0.4-1,1-1c0.6,0,1,0.4,1,1v13C13,15.6,12.6,16,12,16z"/></symbol><symbol viewBox="0 0 24 24" id="tag" xmlns="http://www.w3.org/2000/svg"><path d="M12,22.2c-0.8,0-1.6-0.3-2.1-0.9l-8.6-8.6C1.1,12.5,1,12.3,1,12V2c0-0.6,0.4-1,1-1h10c0.3,0,0.5,0.1,0.7,0.3l8.6,8.6 c1.2,1.2,1.2,3.1,0,4.2c0,0,0,0,0,0l-7.2,7.2C13.6,21.9,12.8,22.2,12,22.2C12,22.2,12,22.2,12,22.2z M3,11.6l8.3,8.3 c0.4,0.4,1,0.4,1.4,0l7.2-7.2c0.4-0.4,0.4-1,0-1.4L11.6,3H3V11.6z M20.6,13.4L20.6,13.4L20.6,13.4z"/><path d="M7,8C6.7,8,6.5,7.9,6.3,7.7C6.2,7.6,6.1,7.5,6.1,7.4C6,7.3,6,7.1,6,7c0-0.3,0.1-0.5,0.3-0.7C6.6,6,7,5.9,7.4,6.1 c0.1,0.1,0.2,0.1,0.3,0.2C7.9,6.5,8,6.7,8,7c0,0.3-0.1,0.5-0.3,0.7C7.5,7.9,7.3,8,7,8z"/></symbol><symbol viewBox="0 0 24 24" id="thumbs-down" xmlns="http://www.w3.org/2000/svg"><path d="M13,23c-2.2,0-4-1.8-4-4v-3H4.3c-0.2,0-0.3,0-0.5,0c-1.6-0.2-2.8-1.8-2.5-3.4l1.4-9C3,2.1,4.2,1,5.7,1c0,0,0,0,0,0h13.9 c0,0,0,0,0.1,0c1.6,0,3,1.2,3.3,2.9c0,0,0,0.1,0,0.1v7c0,0,0,0.1,0,0.1c-0.2,1.7-1.7,2.9-3.3,2.9h-2l-3.7,8.4 C13.8,22.8,13.4,23,13,23z M10,14c0.6,0,1,0.4,1,1v4c0,0.9,0.6,1.6,1.4,1.9l3.6-8.1V3H5.7c0,0,0,0,0,0c-0.5,0-0.9,0.4-1,0.9l-1.4,9 c-0.1,0.5,0.3,1.1,0.8,1.1c0.1,0,0.1,0,0.2,0H10z M18,12h1.7c0.6,0,1.2-0.4,1.3-1.1V4.1C20.9,3.5,20.3,3,19.7,3c0,0,0,0,0,0H18V12z"/></symbol><symbol viewBox="0 0 24 24" id="thumbs-up" xmlns="http://www.w3.org/2000/svg"><path d="M18.3,23C18.3,23,18.3,23,18.3,23H4c-1.7,0-3-1.3-3-3v-7c0-1.7,1.3-3,3-3h2.4l3.7-8.4C10.2,1.2,10.6,1,11,1 c2.2,0,4,1.8,4,4v3h4.7c0.2,0,0.3,0,0.5,0c0.8,0.1,1.5,0.5,2,1.2c0.5,0.6,0.7,1.4,0.5,2.2l-1.4,9C21,21.9,19.8,23,18.3,23z M8,21 h10.3c0.5,0,0.9-0.4,1-0.8l1.4-9c0-0.3,0-0.5-0.2-0.7c-0.2-0.2-0.4-0.4-0.7-0.4c-0.1,0-0.1,0-0.2,0H14c-0.6,0-1-0.4-1-1V5 c0-0.9-0.6-1.6-1.4-1.9L8,11.2V21z M4,12c-0.6,0-1,0.4-1,1v7c0,0.6,0.4,1,1,1h2v-9H4z"/></symbol><symbol viewBox="0 0 24 24" id="trash-2" xmlns="http://www.w3.org/2000/svg"><path d="M21,7H3C2.4,7,2,6.6,2,6s0.4-1,1-1h18c0.6,0,1,0.4,1,1S21.6,7,21,7z"/><path d="M17,23H7c-1.7,0-3-1.3-3-3V6c0-0.6,0.4-1,1-1s1,0.4,1,1v14c0,0.6,0.4,1,1,1h10c0.6,0,1-0.4,1-1V6c0-0.6,0.4-1,1-1 s1,0.4,1,1v14C20,21.7,18.7,23,17,23z M16,7c-0.6,0-1-0.4-1-1V4c0-0.6-0.4-1-1-1h-4C9.4,3,9,3.4,9,4v2c0,0.6-0.4,1-1,1S7,6.6,7,6V4 c0-1.7,1.3-3,3-3h4c1.7,0,3,1.3,3,3v2C17,6.6,16.6,7,16,7z"/><path d="M10 18c-.6 0-1-.4-1-1v-6c0-.6.4-1 1-1s1 .4 1 1v6C11 17.6 10.6 18 10 18zM14 18c-.6 0-1-.4-1-1v-6c0-.6.4-1 1-1s1 .4 1 1v6C15 17.6 14.6 18 14 18z"/></symbol><symbol viewBox="0 0 24 24" id="twitter" xmlns="http://www.w3.org/2000/svg"><path d="M8.3,21.9c-2.6,0-5.3-0.7-7.7-2.1c-0.4-0.2-0.6-0.7-0.5-1.1C0.2,18.3,0.6,18,1,18c1.7,0.1,3.4-0.3,4.9-1 c-3.7-2.3-4.7-5.5-4.8-8C1,6.1,2,3.7,2.1,3.6C2.2,3.3,2.5,3,2.9,3c0.4,0,0.7,0.1,0.9,0.4C5.5,5.8,8.1,7.3,11,7.5 c0-1.6,0.7-3.1,1.9-4.2c2.1-1.8,5.2-1.8,7.2,0c0.8-0.3,1.6-0.7,2.3-1.2c0.3-0.2,0.8-0.2,1.1,0c0.3,0.2,0.5,0.7,0.4,1.1 c-0.3,1.4-1,2.7-2,3.8c0,0.2,0,0.3,0,0.5c0,5.5-2.4,10.1-6.7,12.5C13.2,21.3,10.8,21.9,8.3,21.9z M5,19.5c3.3,0.8,6.6,0.4,9.4-1.2 c3.6-2.1,5.7-6.1,5.7-10.8c0-0.2,0-0.4-0.1-0.6c-0.1-0.3,0-0.7,0.3-0.9c0.2-0.2,0.4-0.5,0.6-0.7c-0.2,0.1-0.5,0.2-0.7,0.2 c-0.4,0.1-0.8,0-1-0.3c-1.3-1.4-3.5-1.6-4.9-0.3C13.4,5.5,13,6.5,13,7.5v1c0,0.5-0.4,1-1,1C8.7,9.6,5.6,8.3,3.4,6 c-0.6,2.6-0.8,7.5,5,10C8.7,16.2,9,16.5,9,16.9s-0.1,0.7-0.4,0.9C7.4,18.6,6.2,19.2,5,19.5z"/></symbol><symbol viewBox="0 0 24 24" id="user" xmlns="http://www.w3.org/2000/svg"><path d="M20 22c-.6 0-1-.4-1-1v-2c0-1.7-1.3-3-3-3H8c-1.7 0-3 1.3-3 3v2c0 .6-.4 1-1 1s-1-.4-1-1v-2c0-2.8 2.2-5 5-5h8c2.8 0 5 2.2 5 5v2C21 21.6 20.6 22 20 22zM12 12c-2.8 0-5-2.2-5-5s2.2-5 5-5 5 2.2 5 5S14.8 12 12 12zM12 4c-1.7 0-3 1.3-3 3s1.3 3 3 3 3-1.3 3-3S13.7 4 12 4z"/></symbol><symbol viewBox="0 0 24 24" id="user-plus" xmlns="http://www.w3.org/2000/svg"><path d="M16 22c-.6 0-1-.4-1-1v-2c0-1.7-1.3-3-3-3H5c-1.7 0-3 1.3-3 3v2c0 .6-.4 1-1 1s-1-.4-1-1v-2c0-2.8 2.2-5 5-5h7c2.8 0 5 2.2 5 5v2C17 21.6 16.6 22 16 22zM8.5 12c-2.8 0-5-2.2-5-5s2.2-5 5-5 5 2.2 5 5S11.3 12 8.5 12zM8.5 4c-1.7 0-3 1.3-3 3s1.3 3 3 3 3-1.3 3-3S10.2 4 8.5 4zM20 15c-.6 0-1-.4-1-1V8c0-.6.4-1 1-1s1 .4 1 1v6C21 14.6 20.6 15 20 15z"/><path d="M23,12h-6c-0.6,0-1-0.4-1-1s0.4-1,1-1h6c0.6,0,1,0.4,1,1S23.6,12,23,12z"/></symbol><symbol viewBox="0 0 24 24" id="users" xmlns="http://www.w3.org/2000/svg"><path d="M17 22c-.6 0-1-.4-1-1v-2c0-1.7-1.3-3-3-3H5c-1.7 0-3 1.3-3 3v2c0 .6-.4 1-1 1s-1-.4-1-1v-2c0-2.8 2.2-5 5-5h8c2.8 0 5 2.2 5 5v2C18 21.6 17.6 22 17 22zM9 12c-2.8 0-5-2.2-5-5s2.2-5 5-5 5 2.2 5 5S11.8 12 9 12zM9 4C7.3 4 6 5.3 6 7s1.3 3 3 3 3-1.3 3-3S10.7 4 9 4zM23 22c-.6 0-1-.4-1-1v-2c0-1.4-.9-2.6-2.2-2.9-.5-.1-.9-.7-.7-1.2.1-.5.7-.9 1.2-.7 2.2.6 3.7 2.6 3.8 4.8v2C24 21.6 23.6 22 23 22zM16 11.9c-.4 0-.9-.3-1-.8-.1-.5.2-1.1.7-1.2 1.1-.3 1.9-1.1 2.2-2.2.4-1.6-.6-3.2-2.2-3.7C15.2 4 14.9 3.4 15 2.9c.1-.5.7-.9 1.2-.7 2.7.7 4.3 3.4 3.6 6.1-.5 1.8-1.8 3.2-3.6 3.6C16.2 11.9 16.1 11.9 16 11.9z"/></symbol><symbol fill="currentColor" stroke-width="0" viewBox="0 0 24 24" id="users-plus" xmlns="http://www.w3.org/2000/svg"><path d="M7.15 4a4 4 0 0 0-4 4 4 4 0 1 0 8 0 4 4 0 0 0-4-4zm0 6.4A2.35 2.35 0 0 1 4.77 8a2.39 2.39 0 1 1 4.77 0 2.35 2.35 0 0 1-2.39 2.4zM14.31 17.6v1.6a.8.8 0 1 1-1.59 0v-1.6a2.35 2.35 0 0 0-2.39-2.4H4a2.35 2.35 0 0 0-2.38 2.4v1.6a.76.76 0 0 1-.8.8.75.75 0 0 1-.82-.8v-1.6a4 4 0 0 1 4-4h6.36a4 4 0 0 1 3.95 4zM16.06 13.76a.79.79 0 1 0-.4 1.52 2.33 2.33 0 0 1 1.75 2.32v1.6a.75.75 0 0 0 .79.8.76.76 0 0 0 .8-.8v-1.6a3.72 3.72 0 0 0-2.94-3.84zM12.88 4.16a4 4 0 0 1 2.86 5A3.9 3.9 0 0 1 12.88 12h-.16a.78.78 0 0 1-.8-.64.76.76 0 0 1 .56-1 2.44 2.44 0 0 0 0-4.72.82.82 0 0 1-.56-1 .74.74 0 0 1 .96-.48zM23.25 9.25a.75.75 0 0 1 0 1.5h-1.5v1.5a.75.75 0 0 1-1.5 0v-1.5h-1.5a.75.75 0 0 1 0-1.5h1.5v-1.5a.75.75 0 0 1 1.5 0v1.5z"/></symbol><symbol viewBox="0 0 24 24" id="x" xmlns="http://www.w3.org/2000/svg"><path d="M6,19c-0.3,0-0.5-0.1-0.7-0.3c-0.4-0.4-0.4-1,0-1.4l12-12c0.4-0.4,1-0.4,1.4,0s0.4,1,0,1.4l-12,12C6.5,18.9,6.3,19,6,19z"/><path d="M18,19c-0.3,0-0.5-0.1-0.7-0.3l-12-12c-0.4-0.4-0.4-1,0-1.4s1-0.4,1.4,0l12,12c0.4,0.4,0.4,1,0,1.4 C18.5,18.9,18.3,19,18,19z"/></symbol><symbol viewBox="0 0 24 24" id="x-circle" xmlns="http://www.w3.org/2000/svg"><path d="M12,23C5.9,23,1,18.1,1,12S5.9,1,12,1s11,4.9,11,11S18.1,23,12,23z M12,3c-5,0-9,4-9,9c0,5,4,9,9,9c5,0,9-4,9-9 C21,7,17,3,12,3z"/><path d="M9,16c-0.3,0-0.5-0.1-0.7-0.3c-0.4-0.4-0.4-1,0-1.4l6-6c0.4-0.4,1-0.4,1.4,0s0.4,1,0,1.4l-6,6C9.5,15.9,9.3,16,9,16z"/><path d="M15,16c-0.3,0-0.5-0.1-0.7-0.3l-6-6c-0.4-0.4-0.4-1,0-1.4s1-0.4,1.4,0l6,6c0.4,0.4,0.4,1,0,1.4C15.5,15.9,15.3,16,15,16z"/></symbol><symbol viewBox="0 0 24 24" id="youtube" xmlns="http://www.w3.org/2000/svg"><path d="M12,20.5c-0.7,0-7.1,0-8.9-0.5c-1.3-0.3-2.3-1.3-2.6-2.6C0.1,15.4,0,13.6,0,11.7c0-1.8,0.2-3.7,0.5-5.5 c0.3-1.4,1.4-2.4,2.7-2.8C4.9,3,11.3,3,12,3c0.7,0,7.1,0,8.8,0.4c1.3,0.4,2.3,1.4,2.7,2.7c0,0,0,0,0,0.1c0.3,1.8,0.5,3.7,0.5,5.5 c0,1.8-0.2,3.6-0.5,5.4c-0.3,1.4-1.4,2.4-2.7,2.8C19.1,20.4,12.7,20.5,12,20.5z M12,5C9.3,5,4.8,5.1,3.7,5.4 C3.1,5.6,2.6,6.1,2.4,6.7C2.1,8.3,2,10,2,11.7c0,1.7,0.1,3.5,0.4,5.2c0.1,0.5,0.6,1,1.2,1.1c1.2,0.3,5.6,0.4,8.3,0.4 s7.2-0.1,8.3-0.4c0.6-0.2,1.1-0.7,1.2-1.3c0.3-1.6,0.4-3.3,0.4-5c0-1.7-0.1-3.4-0.4-5.1c-0.2-0.6-0.6-1.1-1.2-1.3 C19,5.1,13.9,5,12,5z"/><path d="M9.8,16c-0.2,0-0.3,0-0.5-0.1c-0.3-0.2-0.5-0.5-0.5-0.9V8.5c0-0.4,0.2-0.7,0.5-0.9s0.7-0.2,1,0l5.8,3.3 c0.3,0.2,0.5,0.5,0.5,0.9s-0.2,0.7-0.5,0.9l-5.8,3.3C10.1,16,9.9,16,9.8,16z M10.8,10.2v3.1l2.7-1.6L10.8,10.2z"/></symbol></svg>