<svg xmlns="http://www.w3.org/2000/svg" viewBox="0 0 315 108"><path d="M216.31 103.24c-.22-.18-.92-.59-1 .39.28.56.82.53 1-.39zm-4 .69c-.2-1.62-1.74-.75-2-.15.82-.3 1.22.45 2.02.15zm-5.5-3.09c-.39.21-.71.55-1.1.76-.29-.53-.27-1.88-.88-1.57a7 7 0 0 0-.5 2c2 .47 5.17 1.65 7 .34a14.05 14.05 0 0 1-3.11-1.36 4.09 4.09 0 0 0 .38-1.36c-.74-1-1.58-.8-2.37-.11-.07 1.37.66-.54.6 1.3zm-9.46.84A17.22 17.22 0 0 1 197 99h-.38c0 2.88-.9.58-1.19 2.23a1.3 1.3 0 0 0 1.94.45zm13-2.07c.32.21.95 1 1-.61-.35.33-.98-.46-1.02.61zm2-.69c-2.29.62-5.08-4.51-7-.15a5.86 5.86 0 0 0 6.98.15zm-10-1.84c-.05 1.37.58.79 1 .84.05-1.37-.58-.79-.99-.84zm-2-.16a3.39 3.39 0 0 0-4-.48 8.32 8.32 0 0 0 4.01.48zm-30.9 3c-.09-1.87-.61-1-.71-2.88 0 1.23-.35.63-.27 2.24.21.97.61.72.99.6zm39.88-5c-3.23-1.83-7.28-2.47-10-1.08 3.07.68 6.9 3.84 10.01.99zm-37.24 3.6c-.27-.06-.43.14-.45.77.78.8 2.31 1.3 2.8 0a3.38 3.38 0 0 1-1-2c-.47.56-.71 2.19-1.26.86a2.38 2.38 0 0 0 .43-1.47c-.29-.67-.79-.83-1.17-.21-.1 1.77.56.83.66 1.96zm28.26-5.5c-.45-.84-2.55-1.48-3-.23a6.09 6.09 0 0 0 3.01.14zm-7-.88c-.13 1.29 1 1.17 1 .23-.16-.5-.58-.37-.95-.32zm-15 1.56c.21.47.58.42 1 .32.25-1.48-.93-1.02-.92-.41zm-34.89 3c.33-.3.77 1.15 1-.18-.09-.62-.78-.77-.92.09zm91.71-8.54c.06 1.41.76 1 1 .27-.41.23-.42-.67-.92-.36zm-42.83 4c-.18 1.08.37 1 1 .91.08-.97-.34-1.16-.92-1.07zm-34 3a1 1 0 0 0-.93.29c.01.94 1.4.69 1.02-.45zm-3.92 0c0 1.15 1 1.37 1 .27a1.54 1.54 0 0 0-.91-.43zm75.73-6.89c-.6-.16-.38-.18-1 .06-.01.99 1.33.91 1.09-.21zM138.56 96a1 1 0 0 0-2-.07c.59.07 1.16.07 2 .07zm-3 1c.06-1.46-.91-1-1-.24.2.38.63.24 1.01.24zm7 0c-.19-2.84-1.13-2.62-1 1.06.44-.06.88-.06.99-1.12zm33.89-2c-1.17-3.37-3.14-1.12-4.77-1.79a15.11 15.11 0 0 0-6.2-1.12c0 1.06.15 1.52.46 1.4a26.83 26.83 0 0 0 10.5 1.44zm-53.83 1.32c-.38-.58-.93 0-1 .62.47.2.8.06.99-.69zm14-2.46c.07-1.21-.9-.82-1-.2.32.34.52.54.94.13zm-1-.34c-.32-.09-.44-.51-.85-.44 0 .33-.21.48-.12 1 .35-.08.93 0 .92-.63zm98.69-5.65c-.8-1.19-2.23-2.77-3-1 .19 2.64 2.43 2.7 2.95.93zm-4-1.13c0-1-1-.85-1 .11.17.38.75.04.96-.18zm-7-.61c-.12 1.28 1 1.16 1 .22-.22-.48-.64-.35-1.01-.29zm33.82-4c-.54-.17-.47.36-.93.29-.1.97 1.29.71.92-.42zM227.27 87c-.67-.53-2.83-2.17-3 .7.99.84 3.11 2.81 3-.7zm-56.81 2.14c.08 1.12.78 1.12 1 .47-.21-.79-.62-.61-1-.52zm-29.91 1.38c-.38-.37-1.75-.91-2 .14.45.68 1.45.23 2-.19zM264.16 79.4c-1.89-.78-4.94-.29-7 .37 1.73.61 4.71-.17 7-.37zM135.57 90.14a1.72 1.72 0 0 0 3 0 10.35 10.35 0 0 0-3 0zm116.66-8.36c1.21 1.23 3.44 2.61 4-1.78-1.07.64-2.72-.23-4 .5-.02.44-.01.86 0 1.28zM89.72 90.3c-.2-.38-1-.54-1 .4.19.38 1 .55 1-.4zm-2 .58c0-1.46-.92-.88-1 .12zm-14 0a80.68 80.68 0 0 0 13-.32c-.71-1-3-.57-4 0a19.1 19.1 0 0 0-8.95.34zm-3 1.34c-.51.19-.89-.92-1 .47.44.15.99.81 1.06-.45zm-2 .06c-.27-.45-1-.46-1 .41.34.45 1.08.47 1.06-.39zm-5 .5c-.56-.91-2.42-1.22-3 0 .92.46 2.07.04 3.08.02zm-21.85-9.61c-.5-.18-1-.5-1 .83.51 0 1 0 1-.83zm267-74.63a10.76 10.76 0 0 1 4.81 5.81c-.75 1.28-.05 2.72-.43 4.1.36 2 1.6 1.72 1.76 4.22-.9.39-1.74-1.39-2.32.21-.05 1.57.55 1.5.63 2.75-1.06.37-.05 1.68-.05 3.13-.18.5-.69.34-1.08.41-.3.8.05 1.83.08 2.8-.49.94-.89-.86-1.36.13.12 1.46 1.2.52 1.16 2.39-.13 1.57-1.19 1.49-.57 3.8a1.57 1.57 0 0 0-.08 2.2c-.57.38-.6 1.88-1.16 2.29 0 1.57 1 .55.89 2.42-.58.14-.7-.89-1.38-.5-.29 1.32.4 1.46.86 1.79-.28 1.37-.76 2.33-1.85 2-.22 1.2-.45 2.38-1.44 2 .05 4.11 2.5 2.11 3 5a12.09 12.09 0 0 1-3.5 1.88c-.26.83.12 3-.31 3.47-.43 1.21-1.22.12-1.75.78.73 2.35 2.11 3.09 3.39 4.07a2.59 2.59 0 0 1-1.17 1.44 2.12 2.12 0 0 0 .31 1.22c-.22.74-1 .21-1.49.45a13.5 13.5 0 0 0 .65 3.69 2.62 2.62 0 0 0-.8.7c0 1 .89 1 .47 2.14-1.73-.16-2.66.71-4.2 1 .21 1.45 1.48.24 1.56 2-2.21 1.78-5.12-2.31-6.39 1.19-1.18.85-2-.74-3.16-.65-.75.06-1.44 1.34-2.15 1.44s-1.41-1-2.19-.42-.38 1.5-.89 2.58c-.11.24-.46.09-.67.37-1.16 1.55-1.11 3.56-2.8 2.44-.4-1.63-.24-2.25.32-3.15-.34-2.17-2.27-2.47-2.74-.38-2.34-.66-4.2-1.45-6.14.24-1.11-1-3-.51-4.79-.2s-4 .39-6 .86a30.83 30.83 0 0 1-7.35 1.35c-2.71 0-5-1.27-7.07 1.27-2.57-.3-6-2.09-7.9.71-1.11-1.74-2.32-.2-3.55 0-1.39.23-3.08-2-4.09.37.16 1 .87.69.32 1.85 2.4 0 6.12.79 8.9.45-.61 2.75-2.09.6-3.12.91-.38.11-.78 1-1.2 1-1.05.17-2.25-1.29-3.41 0 .7 2.09 1.95.77 2.89.68 3.58-.33 7.53 1.63 11.06-.06.58.53 1.15 1.08 2.07.75 0 2.63-2.14 1.78-2.58.55-1 0-1.57.71-2.33-.11-.63.94-1.56 1.28-2.11 2.38-.66-.57-2.76-1.88-3 .58-.94-2.54-2.05-.59-3.42 0a11.89 11.89 0 0 1-4.36.39c-2.77 0-5.55 0-7.27-1.22-5.92 1.6-12.7-.81-17.9.06 4.44 1.91 10.37 1.28 15.25 3-4 2.06-8.87-1.16-12 .77 3.29 1.33 7.27.91 10.58 2.17-1 1.15-2.47.18-3.65 1.27-.52.58-.43 2.45-1.16 2.6 1.77 2.28 5.28-.95 7 1.87-1.82.27-3.71 1.61-5.05-.17-.62.1-.87 1-1.33 1.37-1-.44-2 .35-2.36-1-1.78 3.38-4.72-3.51-7.19 1.59-1.29-1.92-3-2-4.7-1.77s-3.27 1.35-4.88 1.07c-.52 0-.69-.92-1.13-1.15a2.56 2.56 0 0 1-2.3.83c-.32-.29-.41-1.17-.72-1.49-.91.5-1.45.18-2.2-.43-4.29 3.19-8.88-.52-13.54-.34.31-1.86-.45-1.91-1.15-2.08-.55-.07-.2 1.73-.63 1.93s-.88-.44-1-1.47c-.57-.2-.21 1.51-.78 1.31-2.55-.1-4.86-1-7.13-.92-.62-.31-.53-2.43-1.55-1.73-.24.57 0 1.08.43.9-.3 1.25-1.36.59-1.66-.79-.32.13 0 1.48-.51 1.29-7.45.42-14.46-1.51-22-1.45-.28-.29-.34-1.13-.58-1.51-.5-.07.13 1.26-.66 1-1.81-3.66-5.11 1.33-6.47-1.61-.41.12-.38 1.16-.63 1.63-1.07-1.48-2.89-1.5-3.67.64-2 .12-4.51-.5-6 .23-.34-.61.15-1.25-.19-1.86-2.36 1.11-4.63 1.56-7.09.33-.59-.14-.39 1.35-.63 1.93a3.49 3.49 0 0 0-1.77.16c-.13-1 .35-.64.22-1.59-7.7-.77-17 2.8-24.44.64 1-2 2.65-1.79 3.91-1.91 4.91-.46 9.56.13 14.7-2-.13-.79-.88 0-.85-1.17.78.1 1.18.28 1.91-.18.28.8-.33 1.09.18 1.86.95-.45 1.33-.22 2.32-.52-.2-1.47-.65-1-.62-2.44-7.54-.37-16.62 1.34-24.83 1.3 2.73-2.7 6.64-.82 10.2-1.86 4.8-1.4 10.41-1 15.49-2.64-3.47-1.93-7.08 0-10.78.34-9.67.87-20.21.47-30 1.77-7.75 1-16.54-1-24.2-.63 2.42-1.66 6.5-1.18 9-1.75-4.33-2.12-9 .64-13.67-.33a29.86 29.86 0 0 0-7.27-.91c-2.89.13-5.71 1.18-8.58.78 2-2 4.89-1.95 7.7-2.89a2.27 2.27 0 0 0 2-2c-1.49-.58-2.82.08-4.62.73-.29-.71-.53-1.55-1.27-1.14 1.37-2.76 3.35-1 5.13-2.33-7.29-1.63-18.65 3.18-26.8-.72-.33-1 .6-1.57.6-2.86-1-.87-1.15-3.76-2-4.81.58-3.11-.72-4.94-1.17-7.4a7.63 7.63 0 0 1 .49-2.23c-.88-2.86.43-7.74-1.24-9.88-.12-1.24.32-1.29.2-2.52a42.43 42.43 0 0 1-2.28-8.59c-1.94-2.09-1.95-9.07-4-10.89a25.12 25.12 0 0 0-2.43-8.53C.78 21.76.06 18.3 0 15.11c0-2.9.71-4.29.9-6.95C2.27 6.52 4 3.11 6.28 5.17c2.31-1.27 4.9.93 6.88 1.88a3.31 3.31 0 0 1 4.38.23c6.73-1.4 15.21-3.16 23.12-3.64 4.53-.28 9.06.55 13.54.34 20.17-.92 40.51-.49 60.14-3.86.77.87 1.52.22 2.46.1 4.09-.53 8.15.51 12.17.15C137-.36 145.13.11 153 .7c1.3.1 3.21-.4 4.91-.13 9.09 1.43 18.25 2 27.4 2.53 6.87.43 14.07 2.17 21 2.18 1 0 2.08-1.12 3 .35 12.26.12 24.93.45 37.42-.56C267.62 3.38 291-6.13 308.8 6.35a7.14 7.14 0 0 0 .06 2.19zM237.33 106c-.15-.33-.06-.41 0-.79a6.75 6.75 0 0 1 3.92.17c-1.08.71-2.66.33-3.92.62zm-9.91-.19c-.12-.25-.24-.49 0-.56 2.24-.64 4.79.14 6.86.14-1.68 1.38-4.57-.09-6.86.42zm-1.14-5.13c.22-1 .72-.72 1-.15a.52.52 0 0 1-1 .15zm5-2.86c.78-1.23 2.85-.73 4.36-.65 1 0 2.12 0 2.61.68-2.42 0-4.62.36-6.98-.03zm-5 .18c0-1.3.79-1.15 1-.57-.04 1-.71.27-1 .57zm27.91-4.3c.5-2.42 2.21-2.45 2 1.17-.93.53-1.36-.7-2-1.17zm23.28-1.42c-1.75-.74-3.46.25-5.37.49-.66.07-1.42-.59-2.14-.46-2.34.42-5.12 3.6-6.8 0a4.4 4.4 0 0 1 6.21-.89 18.6 18.6 0 0 1 9.74-1.19 16.53 16.53 0 0 0-1.64 2.05zm9.62-4.44c.31-1.63 1.44-.4 2-.33-.09 4.2-1.63 2.23-2 .33zm-6 1.29c1.75-.88 4.93-3 6.78-1.73 0 .91.39 1.64.07 2.36-2.03-1.66-5.02 1.73-6.83-.63zm-33.89-.91c.82.57 1.27-.48 2-.16.03 1.14-1.94 1.3-1.98.16zM90.71 100.63c.09-1.41.56.07 1-.48.05 1.33-.85.78-1 .48zm-9 .21c-.24.32-1 .17-1-.56.33-.08.51-.35 1-.26l.03.82zM285.09 84c-.71.14-1-.18-1-1 .31.36 1 .25 1 1zM83.73 101c1.88-1.9 5-.44 7-.64-2.25 1.18-4.26.31-7 .64zm-6.82 0c0-.31-.16-.36-.15-.69a.59.59 0 0 1 1 0c-.17.33-.3.77-.85.69zm-1.56.9c-1.89 2.81-4.23-1.11-6.09.86-.93-1.2-2.8-.08-3.47-1.94 3.3-.73 7.11-1.67 9.7.74.86-1.37 2.36-.08 3.26-.29-.51 2.73-2.44 1.73-3.4.62zm-8.56-2.52c1-.55 2.5-.55 3 .47-.79-.42-2.5.86-3-.48zm-3 .32c0-1 1.12-1 1 .26a.89.89 0 0 1-.99-.27zm24.93-3.4c0 1.1-1 .81-1-.22.46-.29.6.33 1 .22zm-5 .7c-.1-1.68.68-.6 1-1a1.28 1.28 0 0 1-.98 1zm-8-.24c.08-.82.76-1 1-.44-.2.42-.72 1.02-.96.44zm-13-.2c0-.2 0-.31.12-.35 3.41 0 7.62-.61 10.84.33-3.49.97-7.37.12-10.87.02zm-38.89-5.5c-4-.28-7.23-1.43-11-2.06v1.54c3.46 1.4 8.05 2.19 11.09.52z" fill="#05f" fill-rule="evenodd"/></svg>