<svg xmlns="http://www.w3.org/2000/svg" viewBox="0 0 24 24"><path d="M12,17c-2.8,0-5-2.2-5-5s2.2-5,5-5s5,2.2,5,5S14.8,17,12,17z M12,9c-1.7,0-3,1.3-3,3s1.3,3,3,3s3-1.3,3-3S13.7,9,12,9z"/><path d="M12,23C5.9,23,1,18.1,1,12c0-2.9,1.1-5.7,3.2-7.8C6.3,2.1,9.1,1,12,1c6.1,0,11,4.9,11,11v1c0,2.2-1.8,4-4,4s-4-1.8-4-4V8 c0-0.6,0.4-1,1-1s1,0.4,1,1v5c0,1.1,0.9,2,2,2s2-0.9,2-2v-1c0-5-4-9-9-9C9.6,3,7.3,3.9,5.6,5.6C3.9,7.3,3,9.6,3,12c0,5,4,9,9,9 c2,0,3.9-0.7,5.5-1.9c0.4-0.3,1.1-0.3,1.4,0.2c0.3,0.4,0.3,1.1-0.2,1.4C16.8,22.2,14.4,23,12,23z"/></svg>