<svg xmlns="http://www.w3.org/2000/svg" viewBox="0 0 24 24"><path d="M12,23c-0.5,0-1-0.1-1.5-0.4C10,22.3,9.7,22,9.4,21.5c-0.3-0.5-0.1-1.1,0.4-1.4c0.5-0.3,1.1-0.1,1.4,0.4 c0.1,0.1,0.2,0.3,0.4,0.4c0.5,0.3,1.1,0.1,1.4-0.4c0.3-0.5,0.9-0.6,1.4-0.4s0.6,0.9,0.4,1.4C14,22.5,13,23,12,23z M22,18H2 c-0.6,0-1-0.4-1-1s0.4-1,1-1c1.1,0,2-0.9,2-2V9c0-4.4,3.6-8,8-8s8,3.6,8,8v5c0,1.1,0.9,2,2,2c0.6,0,1,0.4,1,1S22.6,18,22,18z M5.5,16h13.1c-0.3-0.6-0.5-1.3-0.5-2V9c0-3.3-2.7-6-6-6S6,5.7,6,9v5C6,14.7,5.8,15.4,5.5,16z"/></svg>