<svg xmlns="http://www.w3.org/2000/svg" viewBox="0 0 24 24"><path d="M12,23c-0.5,0-1-0.1-1.5-0.4C10,22.3,9.7,22,9.4,21.5c-0.3-0.5-0.1-1.1,0.4-1.4c0.5-0.3,1.1-0.1,1.4,0.4 c0.1,0.1,0.2,0.3,0.4,0.4c0.5,0.3,1.1,0.1,1.4-0.4c0.3-0.5,0.9-0.6,1.4-0.4s0.6,0.9,0.4,1.4C14,22.5,13,23,12,23z M17,18H2 c-0.6,0-1-0.4-1-1s0.4-1,1-1c1.1,0,2-0.9,2-2V9c0-1.3,0.3-2.5,0.9-3.7c0.3-0.5,0.9-0.7,1.3-0.4c0.5,0.3,0.7,0.9,0.4,1.3 C6.2,7.1,6,8,6,9v5c0,0.7-0.2,1.4-0.5,2H17c0.6,0,1,0.4,1,1S17.6,18,17,18z M19,14c-0.6,0-1-0.4-1-1V9c0-1-0.3-2.1-0.8-3 c-1.6-2.9-5.3-3.9-8.2-2.3C8.6,4,8,3.9,7.7,3.4C7.4,2.9,7.6,2.3,8.1,2c3.8-2.2,8.7-0.8,10.9,3c0.7,1.2,1,2.6,1,3.9v4 C20,13.6,19.6,14,19,14z"/><path d="M23,24c-0.3,0-0.5-0.1-0.7-0.3l-22-22c-0.4-0.4-0.4-1,0-1.4s1-0.4,1.4,0l22,22c0.4,0.4,0.4,1,0,1.4 C23.5,23.9,23.3,24,23,24z"/></svg>