<svg xmlns="http://www.w3.org/2000/svg" viewBox="0 0 24 24" fill="currentColor" stroke-width="0"><path d="M13.07 11.58h-.64V9.5h1.71a.4.4 0 0 0 .43-.42.39.39 0 0 0-.43-.41h-1.71V7.42a.43.43 0 0 0-.86 0v1.25h-.64a1.88 1.88 0 1 0 0 3.75h.64v2.08H9.43a.4.4 0 0 0-.43.42.39.39 0 0 0 .43.41h2.14v1.25a.43.43 0 0 0 .86 0v-1.25h.64a1.88 1.88 0 1 0 0-3.75zm-1.5 0h-.64a1 1 0 1 1 0-2.08h.64zm1.5 2.92h-.64v-2.08h.64a1 1 0 1 1 0 2.08z"/><path d="M20.73 3H3.27A3.15 3.15 0 0 0 0 6v12a3.15 3.15 0 0 0 3.27 3h17.46A3.15 3.15 0 0 0 24 18V6a3.15 3.15 0 0 0-3.27-3zm1.09 15a1.05 1.05 0 0 1-1.09 1H3.27a1.05 1.05 0 0 1-1.09-1V6a1.05 1.05 0 0 1 1.09-1h17.46a1.05 1.05 0 0 1 1.09 1z"/></svg>