<svg xmlns="http://www.w3.org/2000/svg" viewBox="0 0 24 24" width="24" height="24" fill="currentColor" stroke-width="0"><title>contacts</title><path d="M12 7.5a2.25 2.25 0 1 0 2.22 2.25A2.22 2.22 0 0 0 12 7.5zm0 3.6a1.35 1.35 0 1 1 1.33-1.35A1.31 1.31 0 0 1 12 11.1zM16 15.15v.9a.45.45 0 1 1-.89 0v-.9a1.32 1.32 0 0 0-1.33-1.35h-3.56a1.32 1.32 0 0 0-1.33 1.35v.9a.45.45 0 1 1-.89 0v-.9a2.22 2.22 0 0 1 2.22-2.25h3.56A2.22 2.22 0 0 1 16 15.15z"/><path d="M12 7.5a2.25 2.25 0 1 0 2.22 2.25A2.22 2.22 0 0 0 12 7.5zm0 3.6a1.35 1.35 0 1 1 1.33-1.35A1.31 1.31 0 0 1 12 11.1zM16 15.15v.9a.45.45 0 1 1-.89 0v-.9a1.32 1.32 0 0 0-1.33-1.35h-3.56a1.32 1.32 0 0 0-1.33 1.35v.9a.45.45 0 1 1-.89 0v-.9a2.22 2.22 0 0 1 2.22-2.25h3.56A2.22 2.22 0 0 1 16 15.15z"/><path d="M20 3H4a3 3 0 0 0-3 3v12a3 3 0 0 0 3 3h16a3 3 0 0 0 3-3V6a3 3 0 0 0-3-3zm1 15a1 1 0 0 1-1 1H4a1 1 0 0 1-1-1V6a1 1 0 0 1 1-1h16a1 1 0 0 1 1 1zM4.5 0h15a.5.5 0 0 1 .5.5.5.5 0 0 1-.5.5h-15A.5.5 0 0 1 4 .5a.5.5 0 0 1 .5-.5zM4.5 23h15a.5.5 0 0 1 0 1h-15a.5.5 0 0 1 0-1z"/><path d="M16 15.15v.9a.45.45 0 1 1-.89 0v-.9a1.32 1.32 0 0 0-1.33-1.35h-3.56a1.32 1.32 0 0 0-1.33 1.35v.9a.45.45 0 1 1-.89 0v-.9a2.22 2.22 0 0 1 2.22-2.25h3.56A2.22 2.22 0 0 1 16 15.15zM12 7.5a2.25 2.25 0 1 0 2.22 2.25A2.22 2.22 0 0 0 12 7.5zm0 3.6a1.35 1.35 0 1 1 1.33-1.35A1.31 1.31 0 0 1 12 11.1z"/></svg>