<svg xmlns="http://www.w3.org/2000/svg" viewBox="0 0 24 24"><path d="M21,21H8c-0.3,0-0.6-0.1-0.8-0.3l-7-8c-0.3-0.4-0.3-0.9,0-1.3l7-8C7.4,3.1,7.7,3,8,3h13c1.7,0,3,1.3,3,3v12 C24,19.7,22.7,21,21,21z M8.5,19H21c0.6,0,1-0.4,1-1V6c0-0.6-0.4-1-1-1H8.5l-6.1,7L8.5,19z"/><path d="M12,16c-0.3,0-0.5-0.1-0.7-0.3c-0.4-0.4-0.4-1,0-1.4l6-6c0.4-0.4,1-0.4,1.4,0s0.4,1,0,1.4l-6,6C12.5,15.9,12.3,16,12,16z"/><path d="M18,16c-0.3,0-0.5-0.1-0.7-0.3l-6-6c-0.4-0.4-0.4-1,0-1.4s1-0.4,1.4,0l6,6c0.4,0.4,0.4,1,0,1.4C18.5,15.9,18.3,16,18,16z"/></svg>