<svg xmlns="http://www.w3.org/2000/svg" viewBox="0 0 24 24"><path d="M12,21c-7.5,0-11.7-8.2-11.9-8.6c-0.1-0.3-0.1-0.6,0-0.9C1.4,9.1,3.2,7,5.5,5.3C5.9,4.9,6.5,5,6.9,5.5 c0.3,0.4,0.3,1.1-0.2,1.4C4.8,8.3,3.3,10,2.1,12c0.9,1.6,4.5,7,9.9,7c1.9,0,3.8-0.7,5.3-1.9c0.4-0.3,1.1-0.2,1.4,0.2 c0.3,0.4,0.2,1.1-0.2,1.4C16.7,20.2,14.4,21,12,21z M20.8,16.2c-0.2,0-0.5-0.1-0.6-0.2c-0.4-0.4-0.5-1-0.1-1.4 c0.7-0.8,1.3-1.6,1.8-2.5c-0.9-1.6-4.5-7-9.9-7c-0.6,0-1.3,0.1-1.9,0.2C9.6,5.3,9.1,5,8.9,4.5s0.2-1.1,0.7-1.2 C10.4,3.1,11.2,3,12,3c7.5,0,11.7,8.2,11.9,8.6c0.1,0.3,0.1,0.6,0,0.9c-0.6,1.2-1.4,2.3-2.3,3.4C21.4,16.1,21.1,16.2,20.8,16.2z M11.9,16.1c-1,0-2-0.4-2.7-1.1c-0.8-0.7-1.2-1.7-1.3-2.8c0-1.1,0.3-2.1,1.1-2.9c0.1-0.1,0.1-0.1,0.2-0.2c0.4-0.4,1-0.4,1.4,0 c0.4,0.4,0.4,1,0,1.4c0,0-0.1,0.1-0.1,0.1c-0.4,0.4-0.6,0.9-0.5,1.4c0,0.5,0.2,1,0.6,1.4c0.8,0.8,2.1,0.7,2.8-0.1 c0.4-0.4,1-0.4,1.4,0c0.4,0.4,0.4,1,0,1.4C14.1,15.6,13,16.1,11.9,16.1z"/><path d="M23,24c-0.3,0-0.5-0.1-0.7-0.3l-22-22c-0.4-0.4-0.4-1,0-1.4s1-0.4,1.4,0l22,22c0.4,0.4,0.4,1,0,1.4 C23.5,23.9,23.3,24,23,24z"/></svg>