<svg xmlns="http://www.w3.org/2000/svg" viewBox="0 0 24 24"><path d="M16,17c-1.7,0-3.1-0.5-4.4-1.1C10.4,15.5,9.3,15,8,15c-2.4,0-3.3,0.7-3.3,0.7C4.4,16,4,16.1,3.6,15.9C3.2,15.7,3,15.4,3,15 V3c0-0.3,0.1-0.5,0.3-0.7C3.5,2.1,4.8,1,8,1c1.7,0,3.1,0.5,4.4,1.1C13.6,2.5,14.7,3,16,3c2.4,0,3.3-0.7,3.3-0.7 C19.6,2,20,1.9,20.4,2.1C20.8,2.3,21,2.6,21,3v12c0,0.3-0.1,0.5-0.3,0.7C20.5,15.9,19.2,17,16,17z M8,13c1.7,0,3.1,0.5,4.4,1.1 c1.2,0.5,2.3,0.9,3.6,0.9c1.6,0,2.6-0.3,3-0.5V4.6C18.3,4.8,17.3,5,16,5c-1.7,0-3.1-0.5-4.4-1.1C10.4,3.5,9.3,3,8,3 C6.4,3,5.4,3.3,5,3.5v9.9C5.7,13.2,6.7,13,8,13z"/><path d="M4,23c-0.6,0-1-0.4-1-1v-7c0-0.6,0.4-1,1-1s1,0.4,1,1v7C5,22.6,4.6,23,4,23z"/></svg>