<svg xmlns="http://www.w3.org/2000/svg" viewBox="0 0 24 24"><path d="M12,23C5.9,23,1,18.1,1,12S5.9,1,12,1s11,4.9,11,11S18.1,23,12,23z M12,3c-5,0-9,4-9,9c0,5,4,9,9,9c5,0,9-4,9-9 C21,7,17,3,12,3z"/><path d="M11.9 14c-.4 0-.8-.3-.9-.7-.2-.5.1-1.1.6-1.3.6-.2 2.3-1 2.3-2.1 0-.9-.5-1.6-1.3-1.9-1-.4-2.2.2-2.6 1.2-.2.5-.8.8-1.3.6C8.2 9.8 8 9.2 8.1 8.7c.7-2.1 3-3.2 5.1-2.4 1.6.6 2.7 2.1 2.7 3.8 0 2.6-3.3 3.8-3.7 3.9C12.1 14 12 14 11.9 14zM12 18c-.3 0-.5-.1-.7-.3C11.1 17.5 11 17.3 11 17c0-.1 0-.3.1-.4.1-.1.1-.2.2-.3.1-.1.2-.2.3-.2C11.8 16 12 16 12.2 16c.1 0 .1 0 .2.1.1 0 .1 0 .2.1 0 0 .1.1.2.1.1.1.2.2.2.3 0 .1.1.2.1.4 0 .3-.1.5-.3.7C12.5 17.9 12.3 18 12 18z"/></svg>