<svg xmlns="http://www.w3.org/2000/svg" viewBox="0 0 24 24"><path d="M12,23C5.9,23,1,18.1,1,12S5.9,1,12,1s11,4.9,11,11S18.1,23,12,23z M12,3c-5,0-9,4-9,9c0,5,4,9,9,9c5,0,9-4,9-9 C21,7,17,3,12,3z"/><path d="M12 17c-.6 0-1-.4-1-1v-4c0-.6.4-1 1-1 .6 0 1 .4 1 1v4C13 16.6 12.6 17 12 17zM12 9c-.1 0-.1 0-.2 0-.1 0-.1 0-.2-.1-.1 0-.1-.1-.2-.1-.1 0-.1-.1-.1-.1C11.1 8.5 11 8.3 11 8s.1-.5.3-.7c0 0 .1-.1.1-.1.1 0 .1-.1.2-.1.1 0 .1 0 .2-.1.3-.1.7 0 .9.3C12.9 7.5 13 7.7 13 8c0 .3-.1.5-.3.7C12.5 8.9 12.3 9 12 9z"/></svg>