<svg xmlns="http://www.w3.org/2000/svg" viewBox="0 0 24 24"><path d="M17,23H7c-3.3,0-6-2.7-6-6V7c0-3.3,2.7-6,6-6h10c3.3,0,6,2.7,6,6v10C23,20.3,20.3,23,17,23z M7,3C4.8,3,3,4.8,3,7v10 c0,2.2,1.8,4,4,4h10c2.2,0,4-1.8,4-4V7c0-2.2-1.8-4-4-4H7z"/><path d="M12 17c-2.4 0-4.6-1.8-4.9-4.3C6.7 10 8.6 7.4 11.3 7c.5-.1 1-.1 1.5 0 2.2.3 3.9 2 4.2 4.2l0 0c.2 1.3-.1 2.6-.9 3.7-.8 1.1-2 1.8-3.3 2C12.5 16.9 12.3 17 12 17zM12 9c-.1 0-.3 0-.4 0-1.6.2-2.8 1.8-2.5 3.4.2 1.6 1.8 2.8 3.4 2.5.8-.1 1.5-.5 2-1.2s.7-1.4.6-2.2l0 0c-.2-1.3-1.2-2.3-2.5-2.5C12.3 9 12.2 9 12 9zM17.5 7.5c-.3 0-.5-.1-.7-.3-.2-.2-.3-.5-.3-.7 0-.1 0-.3.1-.4 0-.1.1-.2.2-.3.4-.4 1-.4 1.4 0 .1.1.2.2.2.3 0 .1.1.2.1.4 0 .3-.1.5-.3.7C18 7.4 17.8 7.5 17.5 7.5z"/></svg>