 <svg xmlns="http://www.w3.org/2000/svg" viewBox="0 0 24 24" width="24" height="24" fill="currentColor" stroke="currentColor" stroke-width="0"><title>list-ordered-modified</title><path d="M3.06,20.2c-1.18,0-1.72-.54-1.76-1.46H2.37a.57.57,0,0,0,.62.59c.38,0,.56-.18.56-.48s-.18-.5-.56-.5H2.66V17.6H3c.38,0,.56-.17.56-.46s-.16-.42-.48-.42a.53.53,0,0,0-.56.53H1.42a1.46,1.46,0,0,1,1.66-1.4c1,0,1.58.45,1.58,1.16a.9.9,0,0,1-.71.91,1,1,0,0,1,.82.95C4.77,19.67,4.17,20.2,3.06,20.2Z"/><path d="M1.3,14l1.5-1.59c.43-.46.71-.83.71-1.19a.43.43,0,0,0-.46-.48c-.3,0-.5.19-.55.7H1.38A1.56,1.56,0,0,1,3.11,9.85c1.05,0,1.61.56,1.61,1.36a2.09,2.09,0,0,1-.81,1.49l-.6.58H4.75v.92H1.3Z"/><polygon points="2.83 5.08 2 5.59 2 4.55 3 3.85 4.08 3.85 4.08 8.2 2.83 8.2 2.83 5.08"/><path d="M21,17a1,1,0,0,1,0,2H8a1,1,0,0,1,0-2Zm0-6a1,1,0,0,1,0,2H8a1,1,0,0,1,0-2ZM7,6A.94.94,0,0,1,8,5H21a.94.94,0,0,1,1,1,.94.94,0,0,1-1,1H8A.94.94,0,0,1,7,6Z"/></svg>