<svg xmlns="http://www.w3.org/2000/svg" viewBox="0 0 24 24"><path d="M21 7H8C7.4 7 7 6.6 7 6s.4-1 1-1h13c.6 0 1 .4 1 1S21.6 7 21 7zM21 13H8c-.6 0-1-.4-1-1 0-.6.4-1 1-1h13c.6 0 1 .4 1 1C22 12.6 21.6 13 21 13zM21 19H8c-.6 0-1-.4-1-1s.4-1 1-1h13c.6 0 1 .4 1 1S21.6 19 21 19zM3 7C2.9 7 2.9 7 2.8 7c-.1 0-.1 0-.2-.1-.1 0-.1-.1-.2-.1-.1 0-.1-.1-.1-.1C2.2 6.6 2.1 6.5 2.1 6.4 2 6.3 2 6.1 2 6c0-.1 0-.3.1-.4.1-.1.1-.2.2-.3C2.6 5 3 4.9 3.4 5.1c.1.1.2.1.3.2C3.9 5.5 4 5.7 4 6c0 .3-.1.5-.3.7C3.5 6.9 3.3 7 3 7zM3 13c-.3 0-.5-.1-.7-.3C2.1 12.5 2 12.3 2 12c0-.1 0-.1 0-.2 0-.1 0-.1.1-.2 0-.1.1-.1.1-.2 0-.1.1-.1.1-.1.1-.1.2-.2.3-.2C3 10.9 3.4 11 3.7 11.3c0 0 .1.1.1.1 0 .1.1.1.1.2 0 .1 0 .1.1.2 0 .1 0 .1 0 .2 0 .3-.1.5-.3.7C3.5 12.9 3.3 13 3 13zM3 19c-.3 0-.5-.1-.7-.3C2.1 18.5 2 18.3 2 18c0-.1 0-.3.1-.4.1-.1.1-.2.2-.3.4-.4 1-.4 1.4 0C3.9 17.5 4 17.7 4 18c0 .3-.1.5-.3.7C3.5 18.9 3.3 19 3 19z"/></svg>