<svg xmlns="http://www.w3.org/2000/svg" viewBox="0 0 24 24"><path d="M5 16c-.3 0-.5-.1-.7-.3l-3-3c-.4-.4-.4-1 0-1.4l3-3c.4-.4 1-.4 1.4 0s.4 1 0 1.4L3.4 12l2.3 2.3c.4.4.4 1 0 1.4C5.5 15.9 5.3 16 5 16zM15 6c-.3 0-.5-.1-.7-.3L12 3.4 9.7 5.7c-.4.4-1 .4-1.4 0s-.4-1 0-1.4l3-3c.4-.4 1-.4 1.4 0l3 3c.4.4.4 1 0 1.4C15.5 5.9 15.3 6 15 6zM12 23c-.3 0-.5-.1-.7-.3l-3-3c-.4-.4-.4-1 0-1.4s1-.4 1.4 0l2.3 2.3 2.3-2.3c.4-.4 1-.4 1.4 0s.4 1 0 1.4l-3 3C12.5 22.9 12.3 23 12 23zM19 16c-.3 0-.5-.1-.7-.3-.4-.4-.4-1 0-1.4l2.3-2.3-2.3-2.3c-.4-.4-.4-1 0-1.4s1-.4 1.4 0l3 3c.4.4.4 1 0 1.4l-3 3C19.5 15.9 19.3 16 19 16z"/><path d="M22,13H2c-0.6,0-1-0.4-1-1c0-0.6,0.4-1,1-1h20c0.6,0,1,0.4,1,1C23,12.6,22.6,13,22,13z"/><path d="M12,23c-0.6,0-1-0.4-1-1V2c0-0.6,0.4-1,1-1c0.6,0,1,0.4,1,1v20C13,22.6,12.6,23,12,23z"/></svg>