<svg xmlns="http://www.w3.org/2000/svg" viewBox="0 0 24 24"><path d="M20,22.9c-0.1,0-0.2,0-0.3,0c-3.2-0.4-6.4-1.5-9.1-3.2c-2.5-1.6-4.7-3.8-6.3-6.3c-1.8-2.7-2.9-5.9-3.2-9.1 C1.1,3.5,1.3,2.7,1.8,2.1c0.5-0.6,1.2-1,2-1.1C3.9,1,4,1,4.1,1h3c0,0,0,0,0,0c1.5,0,2.8,1.1,3,2.6c0.1,0.9,0.3,1.8,0.6,2.6 c0.4,1.1,0.1,2.3-0.7,3.2l-0.7,0.7c1.2,1.8,2.7,3.4,4.6,4.6l0.7-0.7c0.8-0.8,2.1-1.1,3.2-0.7c0.8,0.3,1.7,0.5,2.6,0.6 c1.5,0.2,2.6,1.5,2.6,3v3c0,0.8-0.3,1.6-0.9,2.1S20.8,22.9,20,22.9C20,22.9,20,22.9,20,22.9z M7.1,3C7.1,3,7.1,3,7.1,3h-3 C3.8,3,3.5,3.2,3.3,3.4C3.2,3.6,3.1,3.8,3.1,4.1C3.4,7,4.4,9.8,6,12.3c1.5,2.3,3.4,4.3,5.7,5.7c2.5,1.6,5.3,2.6,8.2,2.9 c0.4,0,0.6-0.1,0.8-0.3c0.2-0.2,0.3-0.4,0.3-0.7v-3c0,0,0,0,0,0c0-0.5-0.4-0.9-0.9-1c-1-0.1-2-0.4-3-0.8c-0.4-0.1-0.8-0.1-1.1,0.2 l-1.3,1.3c-0.3,0.3-0.8,0.4-1.2,0.2c-2.7-1.5-4.9-3.7-6.4-6.4C7,10,7.1,9.5,7.4,9.2l1.3-1.3C8.9,7.7,9,7.2,8.9,6.9 c-0.4-1-0.6-2-0.8-3C8.1,3.4,7.6,3,7.1,3z"/></svg>