<svg xmlns="http://www.w3.org/2000/svg" viewBox="0 0 24 24"><path d="M18,10c-0.6,0-1-0.4-1-1V3H7v6c0,0.6-0.4,1-1,1S5,9.6,5,9V2c0-0.6,0.4-1,1-1h12c0.6,0,1,0.4,1,1v7C19,9.6,18.6,10,18,10z"/><path d="M20,19h-2c-0.6,0-1-0.4-1-1s0.4-1,1-1h2c0.6,0,1-0.4,1-1v-5c0-0.6-0.4-1-1-1H4c-0.6,0-1,0.4-1,1v5c0,0.6,0.4,1,1,1h2 c0.6,0,1,0.4,1,1s-0.4,1-1,1H4c-1.7,0-3-1.3-3-3v-5c0-1.7,1.3-3,3-3h16c1.7,0,3,1.3,3,3v5C23,17.7,21.7,19,20,19z"/><path d="M18,23H6c-0.6,0-1-0.4-1-1v-8c0-0.6,0.4-1,1-1h12c0.6,0,1,0.4,1,1v8C19,22.6,18.6,23,18,23z M7,21h10v-6H7V21z"/></svg>