<svg xmlns="http://www.w3.org/2000/svg" viewBox="0 0 24 24"><path d="M23,11h-6c-0.6,0-1-0.4-1-1s0.4-1,1-1h5V4c0-0.6,0.4-1,1-1s1,0.4,1,1v6C24,10.6,23.6,11,23,11z"/><path d="M12,22c-1.1,0-2.2-0.2-3.3-0.6c-5.2-1.8-7.9-7.6-6.1-12.8c1.8-5.2,7.6-7.9,12.8-6.1c1.4,0.5,2.7,1.3,3.7,2.4l4.6,4.3 c0.4,0.4,0.4,1,0,1.4c-0.4,0.4-1,0.4-1.4,0l-4.6-4.4c-0.9-0.9-1.9-1.5-3-1.9c-2-0.7-4.2-0.6-6.1,0.3C6.6,5.7,5.2,7.3,4.5,9.3 C3,13.5,5.2,18.1,9.3,19.5c4.2,1.5,8.7-0.7,10.2-4.9c0.2-0.5,0.8-0.8,1.3-0.6c0.5,0.2,0.8,0.8,0.6,1.3C20,19.4,16.1,22,12,22z"/></svg>