<svg xmlns="http://www.w3.org/2000/svg" viewBox="0 0 24 24"><path d="M7,11H1c-0.6,0-1-0.4-1-1V4c0-0.6,0.4-1,1-1s1,0.4,1,1v5h5c0.6,0,1,0.4,1,1S7.6,11,7,11z"/><path d="M12,22c-4.1,0-8-2.6-9.4-6.7c-0.2-0.5,0.1-1.1,0.6-1.3c0.5-0.2,1.1,0.1,1.3,0.6c1.5,4.2,6,6.4,10.2,4.9 c4.2-1.5,6.4-6,4.9-10.2c-0.7-2-2.2-3.6-4.1-4.6c-1.9-0.9-4.1-1-6.1-0.3c-1.1,0.4-2.2,1-3,1.9l-4.7,4.4c-0.4,0.4-1,0.4-1.4,0 c-0.4-0.4-0.4-1,0-1.4L5,4.9c1-1,2.3-1.8,3.7-2.3c2.5-0.9,5.2-0.7,7.6,0.4c2.4,1.2,4.2,3.2,5.1,5.7c1.8,5.2-0.9,10.9-6.1,12.8 C14.2,21.8,13.1,22,12,22z"/></svg>