<svg xmlns="http://www.w3.org/2000/svg" viewBox="0 0 24 24"><path d="M12,22.2c-0.8,0-1.6-0.3-2.1-0.9l-8.6-8.6C1.1,12.5,1,12.3,1,12V2c0-0.6,0.4-1,1-1h10c0.3,0,0.5,0.1,0.7,0.3l8.6,8.6 c1.2,1.2,1.2,3.1,0,4.2c0,0,0,0,0,0l-7.2,7.2C13.6,21.9,12.8,22.2,12,22.2C12,22.2,12,22.2,12,22.2z M3,11.6l8.3,8.3 c0.4,0.4,1,0.4,1.4,0l7.2-7.2c0.4-0.4,0.4-1,0-1.4L11.6,3H3V11.6z M20.6,13.4L20.6,13.4L20.6,13.4z"/><path d="M7,8C6.7,8,6.5,7.9,6.3,7.7C6.2,7.6,6.1,7.5,6.1,7.4C6,7.3,6,7.1,6,7c0-0.3,0.1-0.5,0.3-0.7C6.6,6,7,5.9,7.4,6.1 c0.1,0.1,0.2,0.1,0.3,0.2C7.9,6.5,8,6.7,8,7c0,0.3-0.1,0.5-0.3,0.7C7.5,7.9,7.3,8,7,8z"/></svg>