<svg xmlns="http://www.w3.org/2000/svg" viewBox="0 0 24 24"><path d="M18.3,23C18.3,23,18.3,23,18.3,23H4c-1.7,0-3-1.3-3-3v-7c0-1.7,1.3-3,3-3h2.4l3.7-8.4C10.2,1.2,10.6,1,11,1 c2.2,0,4,1.8,4,4v3h4.7c0.2,0,0.3,0,0.5,0c0.8,0.1,1.5,0.5,2,1.2c0.5,0.6,0.7,1.4,0.5,2.2l-1.4,9C21,21.9,19.8,23,18.3,23z M8,21 h10.3c0.5,0,0.9-0.4,1-0.8l1.4-9c0-0.3,0-0.5-0.2-0.7c-0.2-0.2-0.4-0.4-0.7-0.4c-0.1,0-0.1,0-0.2,0H14c-0.6,0-1-0.4-1-1V5 c0-0.9-0.6-1.6-1.4-1.9L8,11.2V21z M4,12c-0.6,0-1,0.4-1,1v7c0,0.6,0.4,1,1,1h2v-9H4z"/></svg>