<svg xmlns="http://www.w3.org/2000/svg" viewBox="0 0 24 24"><path d="M8.3,21.9c-2.6,0-5.3-0.7-7.7-2.1c-0.4-0.2-0.6-0.7-0.5-1.1C0.2,18.3,0.6,18,1,18c1.7,0.1,3.4-0.3,4.9-1 c-3.7-2.3-4.7-5.5-4.8-8C1,6.1,2,3.7,2.1,3.6C2.2,3.3,2.5,3,2.9,3c0.4,0,0.7,0.1,0.9,0.4C5.5,5.8,8.1,7.3,11,7.5 c0-1.6,0.7-3.1,1.9-4.2c2.1-1.8,5.2-1.8,7.2,0c0.8-0.3,1.6-0.7,2.3-1.2c0.3-0.2,0.8-0.2,1.1,0c0.3,0.2,0.5,0.7,0.4,1.1 c-0.3,1.4-1,2.7-2,3.8c0,0.2,0,0.3,0,0.5c0,5.5-2.4,10.1-6.7,12.5C13.2,21.3,10.8,21.9,8.3,21.9z M5,19.5c3.3,0.8,6.6,0.4,9.4-1.2 c3.6-2.1,5.7-6.1,5.7-10.8c0-0.2,0-0.4-0.1-0.6c-0.1-0.3,0-0.7,0.3-0.9c0.2-0.2,0.4-0.5,0.6-0.7c-0.2,0.1-0.5,0.2-0.7,0.2 c-0.4,0.1-0.8,0-1-0.3c-1.3-1.4-3.5-1.6-4.9-0.3C13.4,5.5,13,6.5,13,7.5v1c0,0.5-0.4,1-1,1C8.7,9.6,5.6,8.3,3.4,6 c-0.6,2.6-0.8,7.5,5,10C8.7,16.2,9,16.5,9,16.9s-0.1,0.7-0.4,0.9C7.4,18.6,6.2,19.2,5,19.5z"/></svg>