<svg xmlns="http://www.w3.org/2000/svg" width="24" height="24" fill="currentColor" stroke-width="0"><path d="M7.15 4a4 4 0 0 0-4 4 4 4 0 1 0 8 0 4 4 0 0 0-4-4zm0 6.4A2.35 2.35 0 0 1 4.77 8a2.39 2.39 0 1 1 4.77 0 2.35 2.35 0 0 1-2.39 2.4zM14.31 17.6v1.6a.8.8 0 1 1-1.59 0v-1.6a2.35 2.35 0 0 0-2.39-2.4H4a2.35 2.35 0 0 0-2.38 2.4v1.6a.76.76 0 0 1-.8.8.75.75 0 0 1-.82-.8v-1.6a4 4 0 0 1 4-4h6.36a4 4 0 0 1 3.95 4zM16.06 13.76a.79.79 0 1 0-.4 1.52 2.33 2.33 0 0 1 1.75 2.32v1.6a.75.75 0 0 0 .79.8.76.76 0 0 0 .8-.8v-1.6a3.72 3.72 0 0 0-2.94-3.84zM12.88 4.16a4 4 0 0 1 2.86 5A3.9 3.9 0 0 1 12.88 12h-.16a.78.78 0 0 1-.8-.64.76.76 0 0 1 .56-1 2.44 2.44 0 0 0 0-4.72.82.82 0 0 1-.56-1 .74.74 0 0 1 .96-.48zM23.25 9.25a.75.75 0 0 1 0 1.5h-1.5v1.5a.75.75 0 0 1-1.5 0v-1.5h-1.5a.75.75 0 0 1 0-1.5h1.5v-1.5a.75.75 0 0 1 1.5 0v1.5z"/></svg>