<svg xmlns="http://www.w3.org/2000/svg" viewBox="0 0 24 24"><path d="M12,20.5c-0.7,0-7.1,0-8.9-0.5c-1.3-0.3-2.3-1.3-2.6-2.6C0.1,15.4,0,13.6,0,11.7c0-1.8,0.2-3.7,0.5-5.5 c0.3-1.4,1.4-2.4,2.7-2.8C4.9,3,11.3,3,12,3c0.7,0,7.1,0,8.8,0.4c1.3,0.4,2.3,1.4,2.7,2.7c0,0,0,0,0,0.1c0.3,1.8,0.5,3.7,0.5,5.5 c0,1.8-0.2,3.6-0.5,5.4c-0.3,1.4-1.4,2.4-2.7,2.8C19.1,20.4,12.7,20.5,12,20.5z M12,5C9.3,5,4.8,5.1,3.7,5.4 C3.1,5.6,2.6,6.1,2.4,6.7C2.1,8.3,2,10,2,11.7c0,1.7,0.1,3.5,0.4,5.2c0.1,0.5,0.6,1,1.2,1.1c1.2,0.3,5.6,0.4,8.3,0.4 s7.2-0.1,8.3-0.4c0.6-0.2,1.1-0.7,1.2-1.3c0.3-1.6,0.4-3.3,0.4-5c0-1.7-0.1-3.4-0.4-5.1c-0.2-0.6-0.6-1.1-1.2-1.3 C19,5.1,13.9,5,12,5z"/><path d="M9.8,16c-0.2,0-0.3,0-0.5-0.1c-0.3-0.2-0.5-0.5-0.5-0.9V8.5c0-0.4,0.2-0.7,0.5-0.9s0.7-0.2,1,0l5.8,3.3 c0.3,0.2,0.5,0.5,0.5,0.9s-0.2,0.7-0.5,0.9l-5.8,3.3C10.1,16,9.9,16,9.8,16z M10.8,10.2v3.1l2.7-1.6L10.8,10.2z"/></svg>