<?xml version="1.0" encoding="utf-8"?>
<!-- Generated by IcoMoon.io -->
<!DOCTYPE svg PUBLIC "-//W3C//DTD SVG 1.1//EN" "http://www.w3.org/Graphics/SVG/1.1/DTD/svg11.dtd">
<svg version="1.1" xmlns="http://www.w3.org/2000/svg" xmlns:xlink="http://www.w3.org/1999/xlink" width="22" height="28" viewBox="0 0 22 28">
<path fill="#444444" d="M21.766 18.984q-0.609 1.953-1.922 3.906-2.016 3.063-4.016 3.063-0.766 0-2.188-0.5-1.344-0.5-2.359-0.5-0.953 0-2.219 0.516-1.266 0.531-2.063 0.531-2.375 0-4.703-4.047-2.297-4.078-2.297-7.859 0-3.563 1.766-5.844 1.75-2.25 4.438-2.25 1.125 0 2.766 0.469 1.625 0.469 2.156 0.469 0.703 0 2.234-0.531 1.594-0.531 2.703-0.531 1.859 0 3.328 1.016 0.812 0.562 1.625 1.563-1.234 1.047-1.781 1.844-1.016 1.469-1.016 3.234 0 1.937 1.078 3.484t2.469 1.969zM15.891 0.656q0 0.953-0.453 2.125-0.469 1.172-1.453 2.156-0.844 0.844-1.687 1.125-0.578 0.172-1.625 0.266 0.047-2.328 1.219-4.016 1.156-1.672 3.906-2.312 0.016 0.047 0.039 0.172t0.039 0.172q0 0.063 0.008 0.156t0.008 0.156z"></path>
</svg>
