<svg xmlns="http://www.w3.org/2000/svg" viewBox="0 0 656 272"><path d="M540.5 104.1c-.5.5-1 .9-1.2 1.3.4-.2 1.1-.9 1.2-1.3M537.1 107.9c.6-.7 1.5-1.5 1.9-2.2-.7.8-1.7 1.5-1.9 2.2M542.7 95.7c.4-.2 1.2-1 1.2-1.4-.3.5-1.2 1-1.2 1.4"/><path class="st2" d="M640.6 4.1V4h.1l-.1.1zm-.6.2c-.3.1-.6.1-.8.1l.9-.3c0 .1 0 .1-.1.2zm-.4.8c-.1 0-.2.1-.3.1-.1 0-.1.1-.2.1-.5.1-1 .3-1.6.5.1-.1.2-.3.4-.4.7-.2 1.3-.5 1.9-.7-.1.1-.1.3-.2.4zm-.3.5h-.1c.1 0 .1-.1.2-.1l-.1.1zM635.8 37c-.3 1.2-2.9 8.3-2.5 6.2-1.5 3.5-8.6 15.7-7.4 19.2.5-1.1 1.2-2.9 1.6-3.8-.1.7-1.1 3.1-1.5 4-.4.3-2.1 4.7-2.3 5.5.3-.7.6-1.5.7-1.4-.6 1.9-1.8 4.6-2.2 5.2-.4 1.1-.9 2.3-1.3 3.4-.1 1.3-3.3 9.2-4.5 12.1 0-.3.7-1.9.3-1.6-2.8 6.3-4.7 12.3-7 18.1.1.1-1 3.9-1.9 5.6.4-1.2 1.3-3.4 1.2-3.6-12.5 23.3-18 50.8-28.7 75 7.3-22 19-43.7 24.4-66.1-5.2 7.6-7.4 19.1-10.7 27.7-3.8 9.8-7.3 19.6-11 29.4-7.9 21.2-15.7 42.5-23.5 63.7-12.4-27.8-25.3-55.4-38-83.1.6-.4 1.2-1 1.8-1.6 6 12.9 11.6 26.3 18.4 38.7-6.2-13-12.1-26.2-17.9-39.3.2-.2.4-.4.5-.6 5.8-2 11.3-12.1 14.7-16.7 5.1-6.8 10.8-13.3 16.4-19.9 1.3-.7 2.2-1.6 2.8-2.8 2.3-2.6 5.6-4.7 7.6-7.7.2-.2.3.2.5-.2.1-.5.4-.8.9-.8.2-.4.6-.6.8-1.1 7.5-3.7 15.5-14.6 21.2-20.6 7.9-8.4 17.3-16.2 24.7-25 1.6-1 3.8-3.6 5.2-4.7 4.8-7.4 13.2-13.6 19.2-20-.9 2.5-1.8 4.8-2.5 6.8zm-24.1 62.2c.3-.8.8-2.2 1-2.4-.1.5-.9 2.7-1 2.4zm-11.2 29.9c.4-2 2.1-5.9 3.7-10-.5 2.1-2.6 7.1-3.7 10zm-2.2 6c-1.2 3.1-2.2 6.1-3.2 8.4 1.2-3.7 2.9-8.2 5.1-13.8 0 .9-1.3 3.8-1.9 5.4zm-7.3 19.1c0-.7.9-2.8 1.1-3.7.2-.1.7-1.6.8-1.3-.5 1.6-1.4 4.4-1.9 5zm-1.6 4.4c-.4.1.9-2.9 1.1-2.7-.1.5-.9 2.7-1.1 2.7zm-3.8 10.8c.1-1.1 1.8-5.4 2.3-6.7-.2 1.2-1.3 4-2.3 6.7zm-3.9 10.8c-.3.1.4-2 .6-1.7-.2.5-.4 1.1-.6 1.7zm-7.9 19c-4.4 12.1-9.5 26.6-13.8 37.7 0-.1-.1-.2-.1-.3 4.6-14.4 9.9-28.9 15.7-42.9.1 1.3-1.1 3.6-1.8 5.5zm-4.6 60.5c0-.1-.1-.2-.1-.3 0 0 .1.1.2.3h-.1zm-5.5-30.7c.3-.7.8-2.4.9-2-.3.9-.6 2.1-.9 2zm-4.1 9.1s0-.1-.1-.1v-.1s.1.1.1.2c0-.1 0 0 0 0zm-4.1-9.2c.2 0 .9 1.6 1 2-.2.1-.9-1.5-1-2zm-4.1 31.6h-.2c0-.1 0-.2.1-.3h.2c0 .1 0 .2-.1.3zm-27.8-135.6c-.1-.3.3-.8.7-1.2.3.4-.5.8-.7 1.2zm.9-1.2c-.1-.2.1-.4.4-.7.4.2-.2.6-.4.7zm1-1.3c0 .2-.3.4-.5.4-.1 0 .4-.6.5-.4zm64.4-69c-.1-.1.2-.4.4-.4.1.1-.2.4-.4.4zm4.7-4.6c-.7 1-2 2.4-3 2.9.8-.9 1.9-2.1 3-2.9zm2-1.8c-.1.2-.3.6-.6.6-.1-.2.4-.6.6-.6zm7-5.2c-.1.2-.3.5-.5.3.1-.1.3-.5.5-.3zm-3.1 1.6c1.3-2.7 6.4-7.1 9-8.8.2 1.9-7.6 7.7-9 8.8zm-80.4 84.7c0-.6 1-1.2.8-1.8-.4.2-.7 0-1 .1-2.1 3.2-5 6-7.9 8.5-.1-.1-.3-.1-.4-.2.2-.2 5.5-6.1 4.1-7-2.3.5-4.9 4.5-6.8 5.8-29-12.7-57.9-25.4-86.8-38 9.4-3.4 19.1-6.3 28.2-10.4-6.6 2.2-17.6 6.3-21.9 7.3 2.2-1.2 7.2-2.7 8.9-3.8 2.6-.7 7.1-2.3 9.3-3.4-4.8 1.6-9.6 3.5-13.4 4.5 13.3-5.7 27.3-9.9 40.8-15 10-3.7 26.8-8.7 33.6-12.6 1-.6 3.7-1.4 4.7-1.7.1-.4-2.5 1-3 1 7.1-3.9 16.1-6.9 23.8-9.5-2.1 1.2-7.9 3-9.9 4.2 13-4.8 28.3-13.9 42-16.1-1.7.9-5.9 2.3-7 3.1 8.1-2.4 15.8-5.6 23.7-8.7 6.7-2.6 17.6-9 24.9-8.9-1.9.8-32 13.7-32.2 13.4 15.6-3.8 32-11.1 46.9-17.2C598 46.8 572 69.8 547.8 94.2c-.8 3.4-6.8 6.2-8.3 9.3 1.4-1.1 3.4-3.5 4.6-3.9-.2.7-1.3 1.5-1.3 2.2-.6.4-1.5 1.3-1.7 1.9 1-.8 1.7-2 2.7-2.4-3.1 5.2-9.4 10.8-13.7 15.2-.3.1.2-.4-.2-.3-.3.3-.3.6-.7 1 .3.3.4-.6.7-.5-.1.5-.7 1.1-1 1.6-.2.2-.6-.2-.7.2-.1.2.4-.1.2.3-.8 1-1.5 2.3-2.5 3.1 0-.7 1.4-1.6 1.4-2.3-.7.8-5.8 8.4-7.2 8.5zm-.5 20.2c-.1-.2-.1-.3-.2-.5.2 0 .4 0 .4.1s-.1.2-.2.4zm-12.7-13.5c-.3.3-.5.5-.7.8-27.6-12.1-56.4-24.7-84.4-37 .3-.1.5-.2.7-.3-.2.1-.6.2-.9.3-1.2-.5-2.5-1.1-3.7-1.6 1-.4 2.1-.8 3.1-1.2 29 12.6 57.8 25.6 86.7 38.2-.2.3-.5.5-.8.8zm29-84.1c.5-.3 2-.8 2.4-.9.1.2-2.8 1.3-2.4.9zm6-2.3c-.4.3-1.5.7-2.9 1.2-.4-.1 2.2-1 2.9-1.2zm5.6-2.2c-.8.5-3 1.3-5 2.1.3-.5 3.4-1.4 5-2.1zm65.7-13.8l-.3.3c-.2-.2.1-.6.3-.3zm2.9-3.4c0 .5-.6 1-1.2 1.5 0-.4.9-1.2 1.2-1.5zm1.4-1.2c0 .2-.4.6-.6.5-.3-.3.4-.8.6-.5zm1.3-1.4c-.3.3-.7 1-1 1 0-.3.5-.7.5-1 .1.2.4-.2.5 0zm2.8-2.8c-.6.6-1.1 1.3-1.7 1.7.6-.9 1.5-1.8 2.6-2.8.1.4-.6.8-.9 1.1zm1.9-2.8c-3.5 3.7-7.1 8.7-11.5 11.3 2.9-3.8 6.8-7.2 10.1-10.8.4-.2.9-.3 1.4-.5zm.9-.4h.1c-.2.7-1.3 1.5-1.8 2 .1-.7 1-1.2 1.7-2zm8.9-10.9c-.1.1-.1.2-.2.3-.7.2-1.1.3-1.2.2.5-.2.9-.3 1.4-.5zm-6.4.3c2.6-.9 6.3-2.1 9.3-3.1-.4.5-.9.9-1.4 1.4-2.5.8-4.8 1.5-6.4 1.8.7-.5-2.1.3-1.5-.1zm8.7-.8c-.8.2-1.5.5-2.1.7.1-.1.3-.2.4-.4l1.8-.6c-.1.1-.1.2-.1.3zm.9-.5c0 .1-.1.2-.1.3-.2.1-.3.1-.5.2.2-.2.4-.5.6-.5zm-1.1-.7l1.4-1.4c.5-.2.9-.3 1.3-.5-.5.4-.9.9-1.3 1.4-.4.2-.9.4-1.4.5zm1.8-2.2c-.1.1-.2.2-.3.4-.9.3-1.7.6-2.6.8.9-.6 1.9-1 2.9-1.2zm18.7 4.7c-.3-.6-1-1-1.7-1.2V9c0-.1 0-.2.1-.4 0-.1.1-.1 0-.2.2-1 1.7-4.1 1.3-5.2-1 .7-1.7 1.7-2 2.9-.1 0 .8-2.6.6-2.3-.8 1.9-1.5 2.9-1.9 3-.1-.2-.1-.4-.1-.5h-.1c0-.1 0-.3.1-.5-.1.2-.2.3-.2.5-.5-.2-.9-1.1-1.6-1.1-.2-1.7-2.4-1.7-2.4-3.1-.4 0-1-.1-1.4-.3 1-.4 2.1-.7 2.8-1-.4 0-1.7.4-3 .9-.3-.2-.5-.5-.7-.9-.6-.1-1.3-.7-1.8-.6-.8 1-1.8 1.9-2.5 2.9-.6.1-1.1.3-1.8.5.4-.4.7-.8 1-1.3-.5.4-1 .9-1.5 1.4-82 22.5-161.4 53.6-241.9 80.9-.4-.2-.9-.4-1.3-.6v.7c.1.1.3.1.4.2-.1 0-.3.1-.4.1l-.1 2.2c-.1 0-.2-.1-.2-.1l.1-2c-15.9 5.4-17.9 15.2-.9 22.2l.1-2c.1 0 .2-.1.2-.1l-.1 2.2c.2.1.3.1.5.2-.2.1-.3.1-.5.2v.7c.5-.2 1-.3 1.5-.5 35.4 14.3 70 31.1 105.1 46.3 14.7 32 29.8 63.8 44.1 96 2.5 5.7 5.4 18.7 12.2 21.1 7.6 2.7 10.3-4.6 12.4-9.9 5.8-14 10.1-28.7 15.2-43 23.6-66.8 45.1-134.6 66.5-202.2 1.2-1.3 2.4-2.7 3.5-4.1-.2-.5.7-1.3.4-1.9z"/><path d="M544.1 94.2c11-9.8 29-22.7 35.8-36-10.6 12.3-27.1 22.1-35.8 36M532.4 110.9c-1.2 1.3-2.6 2.9-3 4 1.5-1.5 2.9-3.2 4.2-5-.4.3-.8.6-1.2 1M530.3 115.8c.3-.3.7-.6.6-.9-.4.4-.6.7-.6.9M531.3 114.5c.2-.3.8-.7.6-1-.3.3-.6.7-.6 1M536 109.1c.2-.3.8-.7.7-1-.2.3-.7.7-.7 1M532.4 113.2c.3-.4.9-.8.9-1.1-.4.2-.8.7-.9 1.1M524.5 120.8c-.4.6-3.6 4.2-3 4.9 1.6-2.4 4.4-5.2 5.7-7.7-.9.6-2.1 1.7-2.7 2.8M506.1 62.7c-1.6.6-3.4 1.2-3.9 1.6 1.8-.5 3-1.1 3.9-1.6M614.4 89.8c-3.1 7.7-6.8 16.6-8.6 22.4 2.6-6.6 6.8-17.1 8.6-22.4M495.7 67c1.6-.6 3.3-1.2 4.2-1.8-1.5.6-3.9 1.3-4.2 1.8M455.5 81.9c-1.6.5-5.2 1.8-6.5 2.4 2.4-.8 4.8-1.6 6.5-2.4M621.2 72.7c3-7.5 6-15 8.9-22.5 1.7-4.3 7.2-13 6.7-17.5-5.3 13.1-11.2 26.4-15.6 40M488.4 69.7c1.6-.5 3.8-1.4 5.2-2-1.7.6-4.2 1.4-5.2 2M536.9 51.7c3.5-1.4 15.7-4.1 17.7-7.3-11.8 4.8-23.8 9.1-35.4 14.2 6.1-2.1 11.8-4.6 17.7-6.9M395.8 84.7c-.1 0-.2-.1-.2-.1v.5c.1 0 .2-.1.2-.1v-.3zM473.7 75.2c-1.4.6-3.9 1.3-4.5 1.8 1.4-.6 3.8-1.4 4.5-1.8M467.8 77.3c-3.6 1.3-7.8 2.8-10.6 4 3.7-1.3 8.3-2.8 10.6-4M482 73.3c8-2.4 16.2-5.6 23.7-9.2-7.6 2.5-16.6 5.3-23.7 9.2M394.7 107.3v.6c.1 0 .2-.1.2-.1v-.4c-.1 0-.2 0-.2-.1M243.2 241.2c-3.4 1.1-6.8 2.1-10.1 3.4 5.4-1.6 10.8-3.3 16-5.3-1.9.6-3.9 1.2-5.9 1.9M215.3 249.6c1.7-.4 2.1-.6 2.7-.9-1.1.2-2.1.4-3.1.8-.1.1.4 0 .4.1M206.5 250.7c.8-.1 2.7-.6 3.5-.9-.8.1-3.2.7-3.5.9M221.1 247.9c0 .2 2.1-.3 2.8-.6l-.1-.2c-1.3.3-1.8.5-2.7.8M228.2 245.1c1.2-.4 2.4-.7 3-1-.9.3-3.2.9-3 1M175.4 256.8c.5 0 1.1-.1 2-.3.3-.2-2 .1-2 .3"/><path d="M200.6 251.9c-4 .7-24.2 7.3-27.7 4.8 10-1.3 21-3 31.2-5.5-1.1.2-2.3.4-3.5.7M49.5 253.2c-7.4-1.3-14.7-3.1-22-4.9l-.1.2c10.8 2.9 21.8 5.2 32.9 6.6-3.6-.6-7.2-1.3-10.8-1.9"/><path d="M183 255.7c3-.5 6-1.1 9-1.6-3.7.2-7.4 1.2-11.1 1.8.5 0 1.2 0 2.1-.2M245.1 239.7c-1.2.4-1.6.5-3.1 1 0 .2 2.9-.7 3.1-1"/><path d="M205.1 251.8c-9 1.5-17.9 3.5-26.9 4.9 10.2.1 27-2.3 35.9-7l-9 2.1M430.6 219.9c-4.5 2.4-12.2 7.2-16.6 9.7 2.5-1.1 16.8-8.4 16.6-9.7M258.5 238.6c-.4-.4-2.5-1.7-2.5-1.6.7.5 2.3 1.6 2.5 1.6M434.6 217.4c-.6.4-1 .7-1.3.9 1.7-.7 6.5-2.6 7.1-4.4-1.9 1.1-3.8 2.2-5.8 3.5"/><path class="st4" d="M357.9 249.8c-3.7.9-7.2 1.5-9.8 1.8 7-1.3 13.8-3.1 20.7-4.8-3.3 1.1-7.2 2.2-10.9 3m-10.5 2.3c1-.1.9-.2 2-.4.7.1-2.3.6-2 .4m-3.4.3c-3.3.6-6.7.8-10.1 1v-.1c4-.3 9-.8 12.2-1.4-.4.2-1.2.4-2.1.5m-62.7-4.4c1.2.4 1.1.5 2.4.8-.7 0-2.4-.6-2.4-.8m-4.3-1.7c-1.4-.5-5.4-1.8-6.5-3.1 2.3.9 6.2 2.8 8.5 3.7-.4-.1-1.2-.3-2-.6M265.9 216c-2.9 1.3-5.8 2.4-8.8 3.6-35.4-29.7-41.5-89.2 8.4-109.5 31.1-12.6 65 12.5 62.4 45.9-2.4 31-36.6 49-62 60m4.2 27.1c-1.6-.7-3.4-1.5-4.8-2.5 0-.2 4.9 2.2 4.8 2.5m-5-2.3c1.2.6.7.4 1.8 1 .3.4-2.2-1.1-1.8-1m-4.4-2.8c-1-.6-2-1.2-3-1.9.1 0 .3-.1.4-.1 1.4 1 2.8 1.9 3.5 2.4 0 .1-.3-.1-.9-.4m-3.4-2.1c-.1-.1-.3-.2-.4-.3.1 0 .3-.1.4-.1.2.2.5.3.7.5-.1.1-.3.1-.4.2 0-.2-.1-.3-.3-.3m-.9-.7c.1 0 .2-.1.4-.1.1.1.2.1.3.2-.1 0-.3.1-.4.1-.1-.1-.2-.1-.3-.2m-2.1 1.2c-.1-.1-.2-.1-.3-.2 0 0 .1.1.3.2-.3.1-.6.2-.8.3l-.3-.3c.6-.2 1.3-.5 1.9-.7.1.1.2.2.3.2-.4.2-.8.3-1.1.5m-9.1 2.5c0-.2 2.7-1.1 3.4-1.2 0 .1-2.8 1-3.4 1.2m-3.2-13.6c-7.3-7.2-13.9-15.6-18.3-24.9 4.9 9.1 11.1 17.5 18.6 24.8-.1 0-.2 0-.3.1m-3.6 15.9c.3-.3 3.7-1.5 3.8-1.2-1.3.3-2.6.8-3.8 1.2m0-17.8c1.5 1.5 1.7 1.4 2.7 2.2-.2.1-.3.1-.5.2-.9-.9-1.6-1.7-2.2-2.4m-10.2-14.3c4.1 5.8 8.6 11.2 13.5 16.2-.1 0-.2.1-.2.1-5-4.9-9.6-10.3-13.3-16.3m.7 2.7c1.2 1 2.4 3.1 3.4 4.4-.8-.8-2.6-3.2-3.4-4.4m-3.9-6.1l-2.1-3.9c.4.7 2.9 4.7 3 5.2-.4-.4-.7-.9-.9-1.3m-4.9-9.4c-2.4-5-4.2-10.5-5.2-15.9.8.3 1.9 6.5 2.3 7.5.4.2-.6-2-.3-1.7.8 2.4 1.7 4.8 2.5 6.9-.1-.1-.5-.7-.7-1.1 1 2.9 2.3 6.1 3.7 8.7-.8-1.3-1.5-2.8-2.3-4.4m-4.1-14.4c-.3-1.4-.9-3.6-.6-3.4.3 1.4.9 3.6.6 3.4m7.3 18.7c-3-5.4-5.3-11.1-6.8-17.1 2.2 5.8 3.7 11.7 6.8 17.1m-5.9-16.3c1.4 5 3.3 10 5.3 14.2-4.7-8.7-7.2-18.4-8.1-28.2.5 4 1.4 9 2.8 14m-2.8-25.3c-.2 2.6.1 5.3-.2 7.9-.1-3.3-.1-6.6.2-9.9.1.4.1 1.1 0 2m-.4 12.4c-.7-4.9-.5-10 0-14.9-.2 5.4-.1 10.7.2 16-.1-.4-.2-.8-.2-1.1m-.7-11.9v1.7c-.2.2-.3 1.1-.4 1.7 0-3.1.1-6.2.7-9.3-.1 1.6-.7 5.9-.3 5.9m2.3-10.3c.2-.8.4-1.5.4-1.3-.2 1-.4 2-.7 3 0 0 .2-.9.3-1.7m2.4-7.5c-.3 1.1-.6 1.8-.7 1.6.4-1 .7-2 .7-1.6m6 60.8c.3.5.6 1.2.9 1.5-.5-.2-1.3-2-1.5-2.6.1.1.3.6.6 1.1m13.8-91.6c.8-.8 1.5-1.4 2-1.7.2.5-1.8 1.4-2 1.7m25.3-14.6c-1.7.7-3.5 1.5-5.3 2 .5-.2 4.1-2.2 5.3-2m8.7-3.1c.9-.2 1.4-.2 1.3-.1-11.8 1.9-20.4 7.3-30.1 13.4 9.3-7.2 19.2-11.4 28.8-13.3m-18.3 5.6c2.5-1.3 5.1-2.5 7.8-3.4-.5.3-1 .6-1.6.7.2 0 2.7-1 2.2-.5-1.4.6-3.1 1.3-4.1 1.6.2-.2.7-.5 1.5-.9-1.5.5-3 1.2-4.4 2.1-1.1.3-2.2.8-3.2 1.4.4-.2 1.1-.6 1.8-1m13.1-5.2c.8-.2 1.6-.4 2.4-.5.4.1-1.6.5-1.7.7-.5-.1-3.5.9-3.9.9 1.1-.4 2.2-.8 3.2-1.1m36.7 1.6c.7.2 1.3.6 1.1.6-.7-.2-1.4-.5-2.1-.7-.3-.3.3-.1 1 .1m6.9 3.1s3.2 2.2 3.3 2.2c-1.4-.9-2.8-1.7-4.2-2.5.1 0 .4.1.9.3M296.7 217c-8.1 4.7-16.6 8.8-25.3 12.6-.1-.1-.3-.1-.4-.2 16.1-7 31.3-15.1 45-26.1-5.8 5.1-12.5 9.7-19.3 13.7m16.2-10c-3.6 2.8-2.3 1.6-3.3 2.1-1.5 1.2-3.1 2.3-4.7 3.3.8-.4 1.5-.8 2.2-1.2-10.8 7.8-22.7 13.5-34.9 18.8l-.6-.3c15-6.5 29.7-13.9 42.5-24.2 0 .3 1-.6 1.5-.8-1 1-1.9 1.6-2.7 2.3M200 251.3c11.2-2.7 22.8-6.8 34.1-8.8-10.3 3.3-21 6.1-34.1 8.8m-6.3 1.2c.3-.2 1.2-.3 2.3-.5-.1.2-1.4.4-2.3.5m-7.8 1.5c0-.1 1.4-.4 2-.4-.1.1-1.5.3-2 .4m-12.1 1.8c-2.4.3-4.9.6-7.4.9 2-.5 8.1-1.2 9.9-1.3-.8.2-1.6.3-2.5.4m-67.7 2.2c.1-.2 1-.1 2 0 0 .1-1 0-2 0m225.4-70.3c-.4.8-.8 1.5-1.4 2.1 0-.2.8-1.4 1.4-2.1m4.2-64.2c.4.8.8 1.6 1.2 2.3-.8-1.3-1.7-2.8-2.3-4.2.3.4.7 1.1 1.1 1.9m1.3 2.6c.7.8 1.1 2.2 1.6 3.1-.5.7-1.5-4.2-1.6-3.1m2.4 7.7c.5 1.4 1 2.9 1.3 4.4-.4-.8-1.5-4.7-1.8-5.7.1.3.3.8.5 1.3m2.2 8.5c.6 2.9 1.1 6.1.8 9.2-.1-3.9-.7-7.8-1.5-11.6.2.5.5 1.3.7 2.4m.1-3.5c.6 2.4 1 4.9 1.3 7.3-.2-.4-2-6.5-1.3-7.3m1.4 17.4c-.1.2-.1-.3-.2-.5 0-1.1.1-1.4.2-2.2.1.1 0 1.6 0 2.7m-.4-9.2c-.1-.8-.1-1.4 0-1.3.2 1 .3 2 .3 3.1-.2-.6-.3-1.2-.3-1.8m.7 4.8c.1 1 0 2.1-.1 3.1.1.3.2-3 .1-3.1m152.2 11.6c-.4-.2-3.3 2-4.1 2.3.8-.9-.8.1.8-1.5-2.8 1.5-6.7 4.2-11.2 7.2-.5.2-.2-.1-.2-.3-56.9 38.3-136.8 97.5-208.2 59 17.4-7.5 34.6-16.5 48.4-29.6.3-.1-.8.9-.4.8 21-19.9 29.6-46.9 17.6-73.8-11.6-26.1-38.8-41.3-67-35.6-1.3-.1-4 .6-5.3 1.2 1.4-.7 1.8-.8 1.3-.3-10.1 3.4-18.5 7.4-27 14.1-1.3.3-6.4 5.5-6.6 5.8-27.5 28.5-29.3 78.4.7 106.6 1.3 2.3 3.8 4.7 5.9 6.4-27.9 9.6-57.1 15.6-86.5 18.3-29.9 2.9-60.2 2.1-89.8-2-20.7-2.8-40.3-8.9-60.5-13.9-1.2-.1-2.3-.1-3.3.1.5.6.5 1.2-.2 1.6 2.4 1.2 4.9 2.4 5.5 3.2 3.4 1.3 6.2 3.5 9.6 4.7.9.8 2.8 1.8 4.9 2.7.2.3-1.1-.1-.9.2 4.4 1.5.1 1.2 2.3 2.2-.5 0-1.6-.2-1.6-.1 1 .7 4.4 1.9 2.4 1.8 2.4.8 2.6 1.3 5.2 2.1h-2c25.2 6.9 51.1 9.7 77.2 11.3-5.1 0-10.1-.7-15.2-.6 5.7.3 11.4.8 17.1 1.1-8 2.3-20.6-.9-28.7-1.4 28.9 3.1 57.4 2.4 86.3.2-8.8 1-17.5 1.5-26.3 2.2 40.1-1.7 79.5-9.3 117.2-23 .1.1.2.2.4.3-1.7.7-3.3 1.3-4.8 1.9 1.7-.5 3.3-1.1 5-1.7.2.2.5.3.7.5-1.5.6-2.8.9-3.1 1.2 1.1-.3 2.2-.7 3.2-1.1.2.1.4.3.6.4-.2-.1-.4-.3-.6-.4.3-.1.5-.2.5-.3-.2.1-.4.2-.6.2-.2-.2-.4-.3-.7-.5.3-.1.5-.2.8-.3 1.1.8 2.3 1.6 3.5 2.3-1.1-.8-2.2-1.6-3.4-2.3.3-.1.7-.3 1-.4 16.4 11.3 31.6 13.7 50.1 18.8 5.8-1.6 26.6 5.2 30.9 0-14.8 1.4-34.7 1.9-48.5-4.3 7.1 1.6 16.1 4.8 23.5 3.9-9-.7-18-2.5-26.7-5.2 1.8.4-.4-.2-.7-.5 26 5.3 49.4 7.4 75.7 1.1 21.2-5.1 40.4-14.6 59.6-24.6 1.2-1 6.1-3.8 7-3.9-1.4 1-1.8 1.3-.8 1 15.4-7.9 31-19.3 44.8-29.7-.2-.2-3.2 2.1-3.8 2.2 3.4-2.3 6.6-4.8 10-7.1.7-.6-1.1.5-1.2.4.6-.5 1.1-.9 1.9-1.5-.6.2-1.6.8-1.6.5 1.1-.8 3-2.1 3.5-2.6-.4.3-.7.3-.8.3 1.1-.8 2.2-1.7 2.8-2.2-3 2-6.3 4.2-8.1 5 4.4-3.5 8.5-6.9 12.9-10.4-.7.2-7.1 4.5-7.2 4.2 2.4-1.6 2.8-2.2 3.3-2.8 2.5-1.8 3.6-2.8 4.3-3.5-.6.8-1.2 1.2-2.1 1.2 1.1-.8 2.1-1.5 3.2-2.3.2-.5-2.1 1.4-2.1 1.1 1.3-1 1.3-1.4 2.6-2.4-.4.5-.9.8-1.5.7.5-.4 1-.8 1.6-1.2-1.5.7 1-1.1 1.2-1.6 0-.4-2.4 1.6-2.7 1.6 1.1-1 2-1.4 3.1-2.4-.6-.7 1.3-1.3 2.2-2.3 0-.3-2.4 1.3 0-.6-.2-.1-1.6 1-1.5.6 1.2-1.5 3.2-2.6 5.2-4.3"/><path d="M424.4 222.8c0-.1-1 .5-1.5.6-.1.3.4.1 1.5-.6M317.8 254.9s7 .7 7.1.1c-2.4 0-4.8 0-7.1-.1M338.2 254.9c1.9-.1 3.9-.3 5.8-.6.8-.5-4.2.2-5.8.6M284.6 250.9c2.4.7 4.8 1.4 7.2 2-5.9-2.2-12.5-4.5-18.6-6.2 3.7 1.6 7.5 3 11.4 4.2M400.5 236.3c-11.7 5.8-23.9 9.6-36.3 13.7 14.1-1.8 30.9-9.7 43-16.9-2.3 1.1-4.5 2.1-6.7 3.2M291.1 253.9c-3.1-.8-6.1-1.6-9.2-2.6 2.8-.2 10.8 3.2 14.5 3.9-1.7-.4-3.5-.8-5.3-1.3M262.4 242.5c-1.6-.9-4.2-2.1-5.4-3.2 4.6 3 9.3 5.8 14.4 7.9-3-1.4-6-3-9-4.7"/></svg>