<svg xmlns="http://www.w3.org/2000/svg" viewBox="0 0 288 144"><path d="M220 82.7c-.4.3-.6.4-1.2.7-.1.2 1.2-.6 1.2-.7M173.2 99.2v.1c.9 0 1.9-.2 2.8-.2-.7-.3-2 .1-2.8.1M236.7 68.5c-.3.3 0 .1 0 .3.2-.2.5-.4.7-.7-.2.1-.3 0-.7.4M224.4 79.4c-.3.1-.9.5-1.5 1l.1.1c.8-.5 3-2.1 2.7-2.2-.7.5-.8.7-1.3 1.1M226.9 77.4c-.2.2-.5.4-.5.4.3-.2.3-.1.8-.6.1-.1-.1.1-.3.2M246.9 56.7c1-1.1 2.1-2.2 3-3.3-1 1-2 2.2-3 3.3M239.4 63.9c0 .1.3-.1.6-.5 0-.2-.3.1-.6.5M236.4 68.1c.4-.4.8-.7 1.1-1.1-.3.1-1 .9-1.1 1.1M221.2 79.3c-.1-.1-.5.2-1 .6-.1.2.7-.3 1-.6"/><path class="st2" d="M270.8 21.6c.3-.5.8-1 .9-.9-.5.6-.8.9-.9.9zm-4.3 6.3c.4-.5.7-.8.8-.8-.3.6-1.3 1.6-.8.8zm-2.3 0c.5-.6.8-1 .9-1-.5.7-.9 1.1-.9 1zm-2.8 3.5c.2-.5 1.7-2.2 2.2-2.7-.3.5-1.7 2.2-2.2 2.7zm.5 3c-.1.1-.2.2-.2.3 0 0-.1 0-.1.1.1-.1.1-.1.1-.2-.1-.1 0-.2.2-.2-.1 0 0-.1 0-.2v.2zm-2-.4c-.1-.1.6-.9.9-1.2 0 .2-.7 1.1-.9 1.2zm.5 2.8c.1-.2.6-.8.8-1 .2.1-.6 1-.8 1zm-6 3c-.1.1-.2.1-.2.1 1.3-1.5 2.5-3.5 4.1-4.7-1.4 1.6-2.4 2.8-3.9 4.6zm-1.5 1.8c-.4.4-.8.9-.8.7.4-.5.9-1.2 1.2-1.4-.1.2-.3.5-.4.7zm-4 4.4c0-.2.7-1 .7-.8-.3.4-.4.5-.7.8zm2 3.5c.2 0-.1.4-.5.8 0-.1.1-.3.5-.8zm-1.3 1.1c.1-.2.3-.4.6-.7.2-.2-.6.8-.6.7zm-12 14.1c.1.4-1.1.8-1.1 1 .3-.3.7-.7 1.1-1zm-2.5 2.3c.5-.5.8-.7 1.2-1.2.1.2-1.3 1.5-1.2 1.2zm-3.8-2.6c-.7.8-1.5 1.3-1.9 1.5.2-.2 1.9-1.5 1.9-1.5zm1.4 5.3c-.4.4-.9.9-.9.7.4-.4.9-.8.9-.7zm-2.5-3.8c-.2.3-.4.4-.7.6 0 0 .8-.8.7-.6zm-2.4 7.6c.5-.6 2.3-2.1 3.1-2.6-1.1 1-2.2 1.9-3.1 2.6zm-2.8 2.2c0-.2 1.1-1 1.2-.9-.4.3-1 .8-1.2.9zm-10.2 7c.4-.3 1-.7 1-.6-.3.2-1 .7-1 .6zm-4 2.3c0-.1.9-.6 1.1-.7-.1.2-.6.5-1.1.7zm3.1 1c.9-.6 1.9-1.1 2.8-1.7 0 .1-.4.3-.4.4-1 .6-2 1.2-3.1 1.7.1-.1.4-.2.7-.4zm4.2-4.1c.4-.1-.4.6-1.5 1.2 0-.1-.1-.1-.1-.2l1.6-1zm2.4-1.6c.7-.5 1.5-1 2.2-1.6.9-.4 4-3.9 5.1-3.5l-.4.4c-1 .4-2.6 1.5-3.2 2.4-.9.6-1.7 1.4-2.7 1.9-.1 0 .1-.2.4-.4-.4.2-1.4 1-1.4.8zm5.1-2.9c-.1 0 1-.9 1-.9.3 0-1 .9-1 .9zm-2.2 1.6c.7-.5 1.3-1 1.7-1.2-.2.2-1.6 1.2-1.7 1.2zm7-6c.1.1-.7.7-1 .9-.1-.1.8-.9 1-.9zm1.2-1.4c.6-.5 1.1-1 1.5-1.2-1 1.1-1.7 1.5-3 2.6.3-.3.9-.8 1.5-1.4zM201.8 90l.3-.3c.7-.3 1-.4 1.3-.5-.1.2-1.3.7-1.6.8zm-3.4 1.4c-.2.1-.5.2-.7.3-.2-.1.8-.5.7-.3zm-9.2 2.9c.9-.7 2.5-.5 3.5-1.1-.2 0-.2 0-.2-.1.2-.1.4-.1.6-.2-.4.4 1.5-.2 1.3-.4h.8c-2.1.8-4.4 1.5-6 1.8zm4.1.8c.3-.1 1.1-.4 1.1-.3.2 0-1.4.5-1.1.3zm-2.7-.9s.5-.4.5-.2c-.2.1-.3.2-.5.2zm-3 .4c.5-.1.7-.1.8-.1-.3.1-.9.2-.8.1zm-7.6 4c-.5.1-.8.1-1 .1 0-.1 1.2-.2 1-.1zm-6.2 0c.4-.1 1.4-.2 2-.2-.3.2-1.4.2-2 .2zm.1.4h-1.3c.4-.3 1.9-.2 2.4-.2-.1.1-.6.1-1.1.2zm-1.2-2.4c.8-.1 1.6 0 2.3-.1-.3.2-1.7.3-2.3.1zm-.7 1.7c-.3.1-.7.1-1 0 .3-.2.6-.2 1 0 0-.1 0-.1 0 0zm-.2.8h-.8c-.1-.1-.4-.1-.4-.1h1.6s-.2 0-.4.1zm-7.1-7.2c-.4-.1-.9-.1-.9-.2.6 0 1.1.1.9.2zM133 74.4c-.5-.5-1-.9-1.4-1.4-.9-.4-2.1-1.8-2.5-2.7-3.4-4.1-6.5-9.3-7.9-14.4-.1.1-.1.2 0 .3 0-2.2-1.2-4.7-1.3-7.1-.1-3.9.1-7.7 1-11.4 1.6-6.3 4.6-11.9 8.7-16.9 2.8-2.3 5-4.7 8.2-6.6 3.6-2.1 7.3-2.8 11.4-3.4 4.1.3 7.7.5 11.6 2.2 3.7 1.6 7.3 4 10.1 6.9-.1 0-.1.1 0 .2 4.6 3.9 7.6 10.9 8.1 16.8.6 7-1.3 14.7-5.1 20.6-2.5 6.5-8.9 11-12.9 16.5-.9.3-2 1.8-2.7 2.5-1.1 1-2.5 2.1-3.4 3.2-2 1.7-4 3.3-6 5-5.9-2.6-11.4-6-15.9-10.3zm143.4-62.7c-.5.5-1.5 1.9-1.9 2.3 1.4-2.1 2.9-3.5 4.1-5.3-.4-.1-1.8 2-2.4 2.4.8-1.2 1.1-1.7 1.8-2.6-.5-.2-2.4 2.5-3.1 2.8.1-.3.6-.8.6-1-.7.8-2.1 3.6-3.2 3.9-10.5 13-21.4 26-32.9 38.1-13.3 13.9-28 26.3-46.4 32.6-4.5 1.6-9.2 2.8-13.9 3.4-4.9.6-9.6.4-14.5.4-1.3-.3-2.7-.4-4-.6 11-9.6 21.7-20.9 26.5-35 4.4-13.3 2.3-28.4-7.6-38.9-2.3-4.1-8.3-7.5-12.3-9.6-4.6-2.4-9.8-3.8-15-4.1-11.1-.6-21.7 4.3-29.3 12.2-13 13.6-17.3 33.9-9.8 51.2 4.9 11.4 13.8 21.2 24.9 26.8.5.4 1 .7 1.5.9-3.7 2.8-7.7 5.3-11.5 7.9-4.5 3-9.5 6.3-14.5 8.5-2.7 2.5-7.3 3.8-10.6 5.4-3.9 1.9-7.8 3.6-11.8 5.3-10.1 4.1-20.4 7.5-31 10.1-10.2 2.5-20.6 4.2-31 5.1-5.3.5-10.6.8-16 1-2.5.1-5.2.1-7.9.1-.7 0-4.3-.3-4.7.3.3 0 .5.1.7.2 0 .3-1.2.2-1.3.5 0 .4 6 1.4 6.5 1.6.1.2 1.3.3 1.3.5.8 0 1.9 0 2.2.1-.9.2.7.3.9.4-1.2.4.9 1-1.1 1.4.3 0 .6 0 .6.1-.3.1-.8.1-.9.2.3 0 .7.1.7.1-.6.1-1.6.1-1.5.3l3.3 1.1c.1 0-.5.2-.5.2.2-.2 2.4 0 2.7.1-.5.2-1.1.2-.5.4-.5.1-1.9.1-2.2.3.8.1 3.6-.2 4.1 0-.2.1-1.2.1-1.3.2 2.9-.1 5.8-.1 8.7-.3-1.2.1-2.7.2-3.3.3 2.4 0 4.7-.4 7.1-.3-1.7.2-4.4.3-5.2.5 1 0 2.7-.2 3.4 0-.2.2-1.8.3-3.1.4-.2.2.8 0 .9.1-.2.1-1.1.1-1.1.2 1.4-.1 2.9-.1 4.7-.3.2 0 .3.1.2.1 5.6-.1 11.1-1 16.6-1.7-1 .4 1.3 0 .2.4 4.9-.4 10-1.7 14.8-2.7 5.2-1.1 10.4-2.5 15.6-4 10.9-3.3 21.5-7.3 31.9-12.1 15.9-7.3 31-16.6 44.9-27.4 8.2 2.6 17.6 3.7 26.3 2.5.5.2 1.5 0 2-.1-.1.1 0 .1.2.1.7-.1 1.3-.2 2-.4.8.3 3.2-.2 3.9-.7 1.3 0 3-.5 4.3-.8 0-.6 6.4-2.1 7-2.2.7-.2 5.8-1.4 5.8-2.2-.1.1-.1.1-.1.2.5 0 2.5-1.1 3.1-1.4 1.3-1.1 3.1-1.6 4.5-2.3 1.1-.6 3.1-1.4 3.8-2.3-.2.1-.2.2 0 .2 1.1-.7 2.3-1.3 3.4-2l-.6.2c.5 0 2.2-1.4 2.7-1.8 1.1-.7 2.1-1.4 3.1-2.2-.4 0-1.6 1-2.1 1.4.3 0 2.5-1.9 2.8-2.1 1.7-1.2 3.4-2.5 5.1-3.8 2.7-2.1 5.6-4.3 8-6.8-.1 0 .3-.4.1-.4-1.5 1.5-3.2 2.8-4.8 4.2-.6.5-4 4-4.7 3.7 2-1.9 4.4-3.4 6.3-5.4 0 0-.7.5-.8.5.7-.3 2.1-1.9 2.6-2.5-.3.1-1.1 1-1.2 1 2.1-2.3 4.7-4.1 6.7-6.5-2.4 2-4.3 4.5-6.9 6.3 4.5-4.5 9-8.8 13.3-13.5-3 3.2-6 6.5-9.5 9.2 0 .1-.1.2-.3.5-1.8.9-3.2 3.1-4.7 3.9-.9 1.1-2.1 2.1-3.4 2.8-.6.5-1.1 1-1.7 1.5.2.3-6.4 5-7.5 5.7-.2-.1-.8.3-1.1.4-2.7 2.1-5.7 3.7-8.8 5.1.8-.6 2-1 2.5-1.8 3.3-2 6.4-3.4 9.6-5.9-.2.1-.6.4-.5.2 3.6-2.2 6.6-5.2 9.9-7.7.2 0-.2.2 0 .2.4-.4 2.4-2.5 2.8-2.5-.1 0-.8.5-.8.5.3-.7.8-1.2 1.3-1.6 0 .1-.4.4-.2.4 2.3-2 4.7-4.2 6.8-6.5.5-.4 3-2.9 3.2-3.4-1 1-2.5 2.5-3.7 3.8-.3.2-.9.6-1.7 1.5.2-.3.5-.5.8-.7-.6.3-1.9 1.7-2.5 2.2.2-.9 1.9-1.9 2.5-2.6l3-3c2.1-2.2 4.5-4.3 6.2-6.8-.2.1-2.6 2.6-2.6 2.6-.1-.4 1.2-1.4 1.2-1.3.4-.6 6.4-7.1 6.3-7.2h-.2c.1-.4.8-.7 1.1-1 0-.4 1-1.5 1.8-2.6-1.2 1.3-2.8 3-4.1 4.6-.4.1-1.6 1.8-1.9 1.8 3.7-4.1 7.6-8.8 11.1-13-2 1.8-3.6 5.4-6.1 6.6 1.2-1.5 2.5-3.1 3.8-4.6.5-.6 2.3-3.1 2.4-3.1.5-.2 1.4-2.2 1.9-2.6 0 0-.4.5-.5.4-.1-.1 2.8-3.5 3-3.8-.4.1-1.9 2.4-2.3 2.5.1-.2.8-1 .9-1.2-.2.2-.6.6-.6.5 1.9-2.5 3.1-3.7 5.3-6.5-.4.2.2-.8-.1-.8.7-.9 1.6-2 2.6-3.4.2-.4.5-.9.3-.9.2-.3.4-.5.7-.9-.4 0 1-1.6 1.2-1.9-.1-.2-1.1 1.4-1.2 1.2.3-.5 1-1.3 1.3-1.8.2-.3 1-1 1.1-1.5-.5.6-1.3 1.8-1.5 1.7.3-.6.8-1.4 1.5-2.3.1-.4.5-.9.8-1.5.4 0 1.2-1.1.7-.8z"/><path d="M243.9 58.3c-.1-.1-.4.3-.9.7 0 .2.4-.2.9-.7M275 28c.1.1.2-.1.1-.1 0 0-.1 0-.1.1M275 29.9v.1c.2 0 .2-.1 0-.1M275 26.6c0-.1.1-.1.1-.2-.2 0-.1.2-.1.2M275.8 32.5c0 .2-.1.5-.1.7.1-.3.1-.5.1-.7M275.8 19.2h-.1v.4c.1 0 0-.2.1-.4M276.5 30.9c-.1 0-.1 0-.1.1.1 0 .1 0 .1-.1M275.2 27.7c.1-.1 0-.2-.1-.3.1 0 .2-.1.1-.3h-.1c-.1.2-.2.6.1.6"/><path class="st4" d="M283 18.6c0-.1 0-.1.1-.1.1.1 0 .2-.1.1zm-1.2 11.8c-.1-.2.1-.3.2-.4.1.2 0 .5-.2.4zm-3.5-10.6c-.1-.1-.1-.3 0-.4h.1c0 .1-.1.3-.1.4zm3.2 10.3V30c.1 0 .1.2 0 .1zm-3.5-8.3c0-.1 0-.1.1-.1 0 .1-.1.1-.1.1zm0 .7h.1v.1c-.1 0-.2 0-.2.1s.1.1.2.1c-.1 0-.2.1-.3.1 0-.3 0-.7.2-.9.2 0-.1.4 0 .5zm-.3-.4h.1c0 .1-.2.1-.1 0zm-.8-2.9c-.1 0-.1 0 0 0-.2-.3.1-.2 0 0zm.8 4.2v-.1c.2-.1.2.1 0 .1zm3.5 11.2v-.2c.1.1.1.3 0 .2zm-3.5-10.4c-.1 0-.1-.2 0-.3 0 0 .1 0 .1.1s0 .1-.1.2zm3.3 11.3c-.1 0-.1-.1-.1-.1 0-.1.1-.2.2-.2 0 .1 0 .2-.1.3zm-.3 1.2c.1-.3.1-.6.2-1h.1c-.1.4 0 .9-.3 1zm-2.8-10.5c0 .1 0 .2-.1.2 0 0 0-.2.1-.2zm.1-.5c-.1 0 0-.1 0-.2.1.1 0 .2 0 .2zm-1.9-6.5c.1 0 0 .3 0 .4-.2-.1-.1-.4 0-.4zm-.1-.3c.1 0 .1-.1.2 0s0 .2-.1.2-.1-.1-.1-.2zm.3.8c-.1 0 0-.2 0-.3.1 0 .1.2 0 .3zm1.3 8.7c0-.1 0-.2.1-.2s0 .2-.1.2zm2.8 9.6c-.1-.1 0-.4.1-.5.1 0 0 .4-.1.5zm-.3-1.1c.1 0 .1.2 0 .2s-.1-.1 0-.2zm.1 1.4c0-.1 0-.2.1-.2.1.1 0 .2-.1.2zm-2.7-9.6c.1.1 0 .5-.1.6.1-.2.1-.5.1-.6zm-.2 1.7c-.1 0-.1-.3.1-.3-.1.2-.1.2-.1.3zm-.1.3c-.1 0-.1-.3.1-.2 0 0 0 .1-.1.2zm.6 3.1c-.1 0-.1-.2 0-.1v.1zm.6 3.1h-.1v-.1l.1.1c0-.1 0-.1 0 0 0-.1 0-.1 0 0zm-.1 1.4c-.1-.1.1-.3.2-.2 0 .2-.1.3-.2.2zm.3 1.3c0-.1.1-.2.2-.2 0 .1-.1.2-.2.2zm-.7-3c-.2 0-.1-.2 0-.2.1.1.1.2 0 .2zm-.5-2.7c-.1 0-.1-.1-.1-.2.1 0 .1.1.1.2zm-.3-4.3c0-.1 0-.2.1-.2 0 .1 0 .2-.1.2zm-1.4-9.4v-.1c.1 0 .1.2 0 .1zm.3 2.3c-.1 0 0-.2 0-.2s.1.2 0 .2zm.8 4.1c-.1 0-.2-.1-.2-.3h.2v.3zm-.1.9c-.1.1-.1 0-.2 0 0 .1.1 0 .2.1 0 .2-.1.4-.1.7-.1 0-.2.1-.3.1v-.1c.2-.1.4-.5.1-.6.1-.2-.1-.4.1-.5.1 0 .1 0 .1.1.1-.1 0-.3.2-.2-.1.1-.1.2-.1.4zm-.7.3c-.1-.1 0-.3.1-.3-.1.1-.1.2-.1.3zm.2 1.7c-.1-.2.1-.3.1-.6.1.1.1.5-.1.6zm0-.6c-.1 0-.1-.2 0-.2s.1.2 0 .2zm-.3-1c.1 0 .1.2 0 .2s0-.2 0-.2zm-.4-2.4c.1.1 0 .4-.1.6-.1 0-.1-.1-.1-.1.2-.1.2-.3.2-.5zm12.2-22.8c-1.1-2.7-3.9-3.2-6.3-2.2 0 0 0 .1-.1.2-.3 0-.3.2-.6.3-.3-.1-.9.2-1.1.4-.1 0-.1-.1-.2 0-.8.9-2.8.6-3.6 1.6-.7-.1-2.7 1-3.3 1.3-.3 0-.5.2-.8.3 0-.1 0-.1-.1-.1-.2.3-.7.2-1 .5h-.2c-.1.1-.5.3-.7.4-.9.4-1.7.5-2.6 1-.1 0-.2 0-.3-.1-.8.1-1.4.7-2.2.7-.2.4-.2-.1-.3.1-.1 0 0 .1-.2.2-.2 0-1.7.6-1.7.6h-.2c-.2.3-.7.1-.9.5-.1-.2-.4 0-.5.1-.1 0-.1-.1-.2 0-.2.2-.6.1-.6.4-.8.2-2.5 1.3-3.4 1.3-.1 0 0 .1-.1.1h-.2c-.3.2-1 .3-1.3.6-.7.2-1.5.5-2.1.9-.2 0-.2.1-.4.1 0 .1-.2.1-.2.2-2.6.5-5.2 2-7.7 2.8-3.1 1.1-6.3 1.7-9.3 3-.1.2-.4.3-.5.3-.1.1-.1.2 0 .3.1 0 .5.9.7 1.1.3.3.8.4 1.1.7.1.2.3.2.4.4.1 0 .3-.1.4 0-.1.2.2.2.3.4 0 .5.5.9.4 1.3.1 0 .1 0 .1.1s-.1.1-.1.2c.1 0 .1 0 .2.1-.3.5.5 1 .8 1.3-.1-.1-.3 0-.1 0 .1 0 .3-.2.4-.1 0 .2-.1.2.1.4 0 .1-.3.2-.2.3.2.1.5-.3.6-.1 0 .1-.2.1-.1.2.5-.2.9-.2 1.4-.3-.2.1-.4.2-.4.3.3 0 .8-.3 1.1-.2-.4.2-.8.2-.9.4.2 0 .4-.1.6 0 0 .2-.2.2-.4.3 0 .1.1 0 .2.1 0 .1-.2.1-.1.2.2 0 .5-.1.7-.2l.1.1c.8 0 1.7-.4 2.6-.5-.1.3.3.1.2.3.2 0 .3-.2.5-.3 2 0 4.3-1.2 6.3-1.9 1.9-.7 3.9-1.5 5.8-2.2l14.1-5.4c.2.1 2-.7 2.2-.9.1 0 .2.1.3 0 .1-.3 1.1-.5 1.3-.6.3.2 1-.4 1.2-.5v.4c-.1.1-.2 1-.2 1.1-.4.5-.3 1.5-.3 2.1-.3.3-.2.9-.2 1.2.3.4-.1.9 0 1.4-.1 0-.1.1-.1.3h-.1c0 .1.1.2.1.3-.3 0-.1.5 0 .6-.2.1-.1.4 0 .5 0 .1-.2 0-.2.1.4.1.1.2.1.3.1.2-.1.6-.1.8-.1.1-.3.3-.3.6 0-.2.3.4.2.2-.2.3 0-.1 0 .3 0 .1-.2.1-.2.2.1.1.2 1.2.2 1.4-.1.1-.1-.1-.2 0 0 .2-.1.3-.1.6.1 0 .1-.2.2 0-.1.3-.1.7-.1 1 .2 0 .1-.3.1-.4.2 0-.2 2.7-.2 2.9 0 0-.1 0-.1.1.1 0 .1.1.2.1 0-.2.2-1.8.4-1.8.2.3-.2.9-.1 1.3.4.1-.1.1.2.4.1 0 0-.2.1-.2.2.5-.3 1-.1 1.4.2-.3.1-1.1.3-1.4 0 .1.1.2.2.4-.2.8-.3 1.6-.4 2.6.2-.7.2-1.5.6-2-.1 0-.1 0-.1-.1.2-.1.2-.3.3-.5-.1-.1-.2-.2-.2-.4.1-.1.2 0 .3 0-.2-.2 0-.5.2-.7 0-.1-.1-.2-.1-.4-.1 0-.2 0-.2-.1 0-.3.1-.5.1-.8 0-.1.1 0 .2-.1 0-.2-.2-.2-.1-.5.2 0 .2-.1.3-.1-.1-.3 0-.6 0-.8.2-.2.2-.4.3-.7.1.2.1.4.2.5 0 0-.1.6-.1.7 0 0-.1-.1-.2 0 0 .4-.1.7-.1 1 0 0 0-.1.1-.1-.1.2 0 .2 0 .4 0 .1-.1.2-.1.3.1.1-.1 1.1-.1 1.2h-.1c0 .2-.1.3-.1.5 0 0 .7-.2.4.2-.1 0 0-.1-.1-.1-.1.2-.2.1-.3.2 0 .1.2.1.2.2 0 .4-.2.7-.1 1-.1.1-.2.6-.1.7.1-.2.1-.5.1-.8.1-.1.3-.1.2-.3 0 .1-.1.2-.2.1.1-.3.2-.2.3-.5.4.1-.5 2.3-.3 2.6-.1.1.5-1 .5-.4 0 .1-.1.1-.2.1.1.4-.3.9 0 1.3-.1.2 0 0 0 .2 0 .1-.2 0-.2.2.2.1.2.3.2.5.1-.3.3-.6.3-.9.2 0 0-.4.3-.4-.1.9-.3 1.8-.5 2.7.4-.3.2-1.2.7-1.3 0 .5-.2 1.1-.2 1.5 0 .1.1 0 .2 0 .1.2 0 .3 0 .5 0 .1.1-.2.2 0-.1.3-.1.5-.2.7.2 0 .1-.5.3-.5.1 0 0 .2 0 .2 0-.1.1-.1.2-.1 0 .5-.3.7-.4 1.3.2 0 .3.2.6.1 0 .2-.1.4-.2.7.1.1.1.2.3.2 0 .1-.1.1-.1.2.3 0 0 .2.1.4.2 0 .1-.3.3-.2 0 .1-.1.2 0 .4-.1 0-.2.2-.1.3.1-.1.1-.3.3-.3.1.1.1.3 0 .4.2 0 .2.1.1.3.2 0 .1.2.4.2.2-.1.2-.4.3-.4 0 .4-.4.7-.5 1 .4 0 .4-.4.6-.5 0 .2 0 .3-.1.5.5 0 .5-.5 1-.6.1.1-.1.2.1.2.2-.1.3-.4.2-.6 0-.1.1-.1.3-.2.9-1.8 1.3-4.1 2.2-5.8-.3-1.9.8-4.8 1.1-6.7.3-1.9.4-3.9.7-5.8.1-.2.1-.5.1-.8.3-.4.5-2.3.3-2.8.5-.5.4-2.6.5-3.3.1-1 0-2.1.4-3.1-.2-.1-.2-.6 0-.6 0-.1-.1-.1-.1-.2.3-.7.4-2 .4-2.7-.1-.1-.1.1-.2 0 0-.2.2-.6.2-1 .6-1.1.7-3.7.2-5.1z"/><path d="M277.1 31.9c-.1 0-.1.1-.1.2.1 0 .1-.1.1-.2M277.2 27.1c-.1-.1-.2.1-.1.2.1 0 .1-.1.1-.2M275.6 30c0 .1-.1.2 0 .2.2 0 .2-.1 0-.2"/></svg>