<svg xmlns="http://www.w3.org/2000/svg" viewBox="0 0 732 296"><path d="M55.1 288.6c.4.1 1.1.2 1.6.2-.1-.1.1-.1-.1-.2-.2.1-.6-.1-.7-.1 0 .1-.5.1-.8.1M58.5 288.6c.1.1.9.2 1 .2-.3-.2-.8-.2-1-.2"/><path class="st2" d="M64.2 291.6zm-.9 2l.5-1.1c.1-.1.1-.2.2-.2-.3.3-.5.8-.7 1.3zm-50.4-11.9c1.1.2 2.5.5 3.6.5.6 0 1.5.2 2 .3.4.1.8.1 1.2.1.2.1.4.1.8.2 1.1.1 2.5.3 3.7.5 1.6.2 3.5.3 4.8.6-.5-.1-1.2-.1-1.9-.1-.4 0-1.1-.2-1.2 0 .5.2 1.4.1 1.9.3-.8 0-2.5-.1-3.4-.4.3-.1.8.1 1.1 0-.1-.2-.6-.2-1-.2-1.4-.1-3.4-.6-4.7-.5.1.1.8.1 1 .2-.9.1-2.4-.2-3.8-.4-.9-.1-1.7-.3-2.4-.4.5 0 1.6.2 2 .2-.8-.3-2.8-.4-4.1-.7-.2 0-.2.1-.3 0-.6-.2-1.1-.1-2-.2-.2-.1-.7-.2-1.1-.3 1.4 0 2.6.1 3.8.3zm32.7 4.7c.2 0 .4 0 .4.1-.2 0-.4 0-.4-.1zm1 .6c-.1.1-.2 0-.3 0 0-.2.2-.1.3 0zm-.3-.5c.1 0 .2 0 .3.1 0 0-.4 0-.3-.1zm2.9 1.1c0 .1-.2 0-.3 0h.3zm.9.2c0 .1-.5 0-.4-.1.1 0 .3 0 .4.1zm.7.1c.1 0 .3 0 .4.1 0 0-.5 0-.4-.1zm1.7.3c-.2 0-.6 0-.6-.1.3 0 .6 0 .6.1zm8.3 1.7c-.1 0-.1 0-.2.1-.1 0-.2-.1-.2-.1h.4zm2.3 1.5h-.5c.1-.1.4-.1.5 0zm1 .1zM25.4 284c.1-.1.8 0 .8.1-.2 0-.4-.1-.8-.1zm.4.4c-.1.1-.6 0-.6-.1.2.1.5.1.6.1zm-4.2-1.1h.3c0 .1-.2 0-.3 0zm-4.1-.3c.1 0 .3 0 .2.1 0 0-.3-.1-.2-.1zm-4.9-1c0-.1.3 0 .3.1-.2 0-.3-.1-.3-.1zm50.7 8.3c-.9-.2-1.9-.2-2.4-.3H62c-.2-.1-.3-.1-.5-.2l.6.1c-2.7-.3-5.2-1-7.8-1.5-2.5-.5-5.1-.8-7.6-1.4 3.8.8 7.8 1.1 11.6 1.7-4.7-.9-9.4-1.8-14-2.8 1.4 0 2.8 0 4.3.1-7.2-.4-14.3-2.4-21.5-2.7-7.6-.3-15.1-1.8-22.5-2.8.3.2.7.3 1 .5-1.9.2-3.6.1-5.5.1-.1 0-.2 8.1-.2 8.8.1-1.6.3-3.2.4-4.8 0 1.1 0 2.2-.1 3.3 0-.1 0-.2.1-.4 0 1 .5 1.9 1.2 2.6.4.1.8.1 1.2.3-.4 1.1-.1 2.2 1 2.2l-.3.3c.1.1.2.3.3.4.1.1 0 .2-.1.2l.4.4c-.2 0-.3.1-.5.1.9-.1 1.7.2 2.6.3l3.9.3c2.5.1 5 .3 7.5.3-1.5-.1-2.9-.3-4.4-.4 1.7 0 3.3-.1 5-.1h3.2l-1.8-.3c1.6-.1 3.1-.2 4.7-.3-.1 0-.2 0-.4-.1h1.5c-.2 0-.4-.1-.7-.1 2.6.5 5.5.3 8.2.4 1.8.1 29.9 1 29.9 1.5 0-.6.8-1 1.2-.7-.3-.2-.4-.6-.3-.9 0-.3.2-.6.4-.9.3-.6 1.3-1.8.8-2.5-.3-.4-.9-.6-1.5-.7z"/><path d="M120.9 186h-.1.1zM118.1 174.4c0 .2-.5-.4-.8-.7.4.5 1 1.2 1.6 1.7 0-.1.2 0 0-.3-.4-.1-.7-.6-.8-.7"/><path d="M120.7 185.3c.4-.1.8-.3 1.4-.4.2 0 .3-.1.4-.1-.7.2-1.2.3-1.8.5m-46.9-53.6c1.3 1 2.7 2.4 4 3.2.7.5 1.6 1.3 2.2 1.8.4.4.9.7 1.3 1 .3.2.4.5.9.8 1.2 1 2.7 2.2 4.1 3.3.9.7 1.9 1.5 2.8 2.2.9.7 1.8 1.5 2.5 2.1-.5-.4-1.3-1-2.1-1.6-.5-.4-1.1-1.1-1.4-1 .5.5 1.6 1.2 2.1 1.8-1-.6-2.9-2.1-3.7-3 .4.1.8.7 1.3.9 0-.3-.6-.6-1-.9-1.6-1.2-3.6-3.1-5.2-4.1.1.2.8.7 1 1-1-.6-2.7-2-4.3-3.4-1-.8-1.9-1.6-2.5-2.2.6.4 1.8 1.4 2.3 1.7-.8-.9-3.1-2.6-4.4-3.7-.2-.2-.2-.1-.4-.2-.6-.7-1.3-1-2.3-1.8-.1-.3-.7-.7-1.1-1.1 1.3 1.1 2.6 2.1 3.9 3.2m34.7 31.5c.2.2.4.4.3.4-.1-.2-.4-.4-.3-.4m.7 1.3c-.1 0-.3-.2-.3-.3.1-.1.2.2.3.3m0-.6l.3.3c-.1 0-.4-.3-.3-.3m2.4 3.6s-.3-.2-.3-.3c0 0 .3.2.3.3m.4.4c.2.1.3.3.4.5 0 0-.5-.5-.4-.5m1.2 1.3l.4.4c-.1 0-.6-.4-.4-.4m1.1 1.2c.2.3.6.6.5.7-.2-.3-.6-.6-.5-.7m7.7 9.4c.3.3.6.6.8.9h-.2c-.3-.4-.7-.8-.6-.9m1.7 3.8c-.1-.2-.2-.3-.4-.5.1.1.3.3.4.5m-36.4-40c.1 0 1 .7.9.8-.3-.3-.5-.6-.9-.8m.2.6c-.1 0-.8-.5-.7-.6.3.2.6.5.7.6m-4.2-4.3c.1 0 .3.2.3.3-.1 0-.3-.2-.3-.3m-4.7-3.5c.1 0 .3.2.2.2-.1 0-.3-.2-.2-.2m-5.3-4.7c0-.1.4.2.3.3-.1-.1-.3-.2-.3-.3m51.4 52.1c-.1-.2-.2-.3-.2-.5.1.2.3.4.4.5-.7-1-1.3-1.9-2-2.9.3.2.5.5.8.7-.2-.4-.5-.7-.7-1.1.3.3.6.6.9 1-1.3-1.6-2.7-3.2-4-4.8-1.1-1.3-2.1-2.4-3-3.8-2.5-2.8-5-5.5-7.5-8.3.5 0 1.8 1.8 2.2 2.2.7.7 1.5 1.5 2.2 2.3.3.3.6.7.9 1 2.1 2.2 4 4.4 6.1 6.6-3.9-4.5-7.9-8.9-11.8-13.4l.6.3c-.6-.3-1.4-1.6-1.8-2.2 1.4 1.3 2.8 2.7 4.2 4.1-.5 0-1.9-2.1-2.3-2.5-.8-.9-1.7-1.8-2.5-2.7-1.7-1.9-3.5-3.7-5.2-5.5-3.2-3.4-6.9-6.5-10.6-9.3-.2-.1-.1-.2-.3-.4-.1-.1-.3-.1-.5-.3-3.9-3.2-7.6-6.1-11-9-4.8-4-9.8-7.9-14.7-11.7.4.4.8.9 1.2 1.3-.9 0-2.1-1.2-2.9-1.5-1.1-.4-1.3-.2-2.3.4-2.2 1.5-4.4 2.9-6.6 4.4 1.8-1.1 3.5-2.1 5.3-3.1-1.2.8-2.3 1.5-3.5 2.3l.3-.1c-1.5.7-2.3 2.5-1.8 4-.6.3-1.9 1.5-2.4 1.5.4.4.8.9 1.3 1.3-.2 0-.4 0-.6.1.2.5.5.9.7 1.4-.2 0-.3-.1-.5-.1l.8 1.5c-.2-.1-.4-.2-.7-.3 4.3 4.7 10 7.8 14.7 12l-4.5-3.9c1.9 1.4 3.7 2.7 5.6 4.1-.1-.2-.2-.3-.3-.5.7 0 2.2 1.8 2.9 2.2-.5-.5-.9-1.1-1.4-1.6 1.7 1.2 3.4 2.3 5.1 3.5.3.2.6.3.9.5-.2-.2-.3-.4-.5-.6 9.7 7.1 18.7 15.2 28.4 22.3.1 0 .1.1.2.1 3.4 2.5 6.9 5 10.3 7.5.9.6 1.7 1.3 2.6 1.9.6.5 1.4 1.3 2.1 1.4.9.1 2.2-.5 3.1-.7 1.1-.3 2.2-.5 3.3-.8-.7-.2-.9-.5-1-.8M60 124.1c-.1.1-.2.1-.2.1s.1-.1.2-.1l2.3-1-.4-.2-1.9 1.2z"/><path d="M62.3 123l2.1 1.3-1.7-1.5zM120.8 186s0-.1 0 0l-.1-.1c.1 0 .1 0 .1.1zM121.8 177.9c-.2-.3-.7-.8-1-1.1.1.2.8 1 1 1.1M274.7 18.3c-.2-.4-.6-1-.7-1 .2.4.6 1 .7 1M326.7 152.1v-1.3l-.1 1.3z"/><path d="M326.8 149.5v-.7-.7-1.3c0-.4-.1-.8-.1-1.2.1.8 0 1.6 0 2.4 0 .8-.1 1.7 0 2.8v.1-.1c0-.5 0-.9.1-1.3"/><path class="st4" d="M327.5 150.8l.1 1.9-2.1.4c-1.7.3-3.4.6-4 .4.9-.2 2.6-.4 4-.6l1.9-.2v-1.9c0-.9.1-1.7.1-2.1-.1.6 0 1.3 0 2.1M276.8 66c-.9-1.6-1.7-3.1-2.7-4.9-.1-.2-.1-.2-.1-.3l1.2 2.1 1.2 2.1c.1.2.1-.1 0-.3.6.8 1.6 2.8 2.3 4.4 0 .1-.3-.6-.4-.7.3.8 1.1 2.3 1.3 3-1.1-2.1-1.9-3.8-2.8-5.4m-17.5-38.3c-.6-.7-1.1-1.9-1.5-2.9.4.9.9 1.9 1.5 2.9m47.9 57.6c0-.1-.1-.3 0-.3.3.8.5 1 .7 1.8.2.4 0 .2 0 .3.5 1.2 1 2.8 1.2 2.6.2.6.6 1.3.7 1.7.2.6-.1-.1-.1-.1 1.1 2.7 2 5.1 3.1 8.1-.6-1.3-1.4-3.4-2.1-5.1-.2-.6-.5-1.5-.7-1.7.4 1.3 1.2 2.7 1.5 4-.9-2-1.9-4.7-2.9-7.1-.2-.6-.2-1-.6-1.8-.1 0 .2.6 0 .4-.3-.8-.6-1.5-.8-2 .1 0 .5 1.1.6 1.2-.8-2.5-2-4.9-2.7-7.1.7 1.7 1.4 3.5 2.1 5.1m9.9 26.4c.1.9 1 3.4 1.4 4.2 0 .3-.2-.2.1.4.1.4.2.3.3.6 1.3 3.7 2.1 6.7 3 10.4-.3-.4-.7-2.8-1.1-3.4-.1-.1.1.6-.1.3-1-3.1-2-5.9-3.1-9.5 0-.2.1-.1.1-.3-.2-.6-.4-1.3-.6-1.7.1.5.4 1.2.2 1.2-.5-1.4-1-3.1-1.4-4.4.3.3.6 1.7 1 2.7-.3-1.3-.9-3.1-1.4-4.6.5.8 1.2 3.3 1.6 4.1m7.6 27.9c-.1-.3-.4-1.7-.5-2.2.2.3.5 1.5.5 2.2m-18.2-55.2c.1 0 .4.7.5 1-.1.1-.4-.6-.5-1m-28-16.1c-.5-.9-1.3-2.4-1.8-3.5.4.7 1.3 2.3 1.8 3.5m-9.4-59.2c.2.2.5.6.6.9 0 .2-.8-1-.6-.9m58.3 132.2c0 2.2.1 4.4.1 6.6-.2-2-.3-3.9-.5-5.9.2 2.3 1.2 9-.4 10.5-2.1 2-9.4 1-12 .7-.3-.6-.7-1.1-1-1.7 2.6 2.2 6.5 2.7 9.6 1.3-1.6.1-3.2.2-4.8.2 2.6-.5 5.3-1 7.9-1.5-.3-17.3-6.6-34.2-12.4-50.3-6-16.3-12.9-32.4-20.7-47.9-4.3-8.6-8.8-17-13.7-25.3-2.9-4.9-5.8-9.8-8.8-14.7-.3-.4-.1-.4-.4-.9-.2-.3-.4-.4-.3-.8 1.1 1.2 2 2.7 2.9 4L269 9.3c.7 1.1 1.4 2.1 2.1 3.2-.1-.3-.3-.6-.4-.9 2.7 4 5.3 8.2 8.2 12.1-.2-.3-.3-.6-.5-.8-.2-.4-.1-.5-.4-1-2.6-4.8-5.6-9.3-8.8-13.8-1.6-2.3-3.3-4.6-5-6.8-1.8-2.3-2.6-1.3-4.6.3l-7.5 6.3c.3.2.6.3.8.5.1 1.5-.7 3-2 3.7 1 1.9 2 3.8 3.1 5.7-1.1-1.8-2.3-3.8-3.6-5.8 0 .3-.1.6-.1.9-.2 0-.4-.1-.6-.1.4 1.1.2 2.5-.6 3.4-.2 0-.5-.1-.7-.1-.5-.1 2 5.6 2.2 5.9 1.2 2.1 2.5 4.1 3.6 6.2 1.4 3.6 4.1 8.2 5.9 11.5 1.1 1.3 3.9 7.4 4.4 7.2.2-.1-.2-1.2-.4-1.9.1.2.4.8.5.8-.4-1.1.4 0 .4-.5.8 1.4 1.5 2.4 2.1 3.3.3.6.8 1.5 1 1.7-.5-1-1.2-2.3-1.1-2.6.2.3.5.8.7 1.2.1.1 0-.2.1-.2.8 1.2 1.9 3.2 2.7 4.8 0 .1 0 .2-.1.2.7 1.3.3 1.2.8 2.3.2.4.7 1.5 1 2 1.2 2.4 2.6 4.6 4 7.1 2.1 3.8 3.6 7.8 5.5 11.7.7 1.5 1.4 2.9 1.5 4.6.1 1.3-.5 2 0 3.3.3.9.7 1.7 1 2.5.4.8.7 1.6 1.1 2.4 1.5 3.1 3.2 6 4.7 9 1.7 3.3 3.1 6.8 4.6 10.3 5.5 12.6 10.3 25.6 16.1 38 1.9 4 2.7 8 7.6 7.4l5.7-.6c1.3-.2 2.9-.4 3.6-1.5.6-.9.6-2.2.4-3.3-.1-2.5-.4-5.1-.6-7.6"/><path d="M325.2 152.3c.1 0 .1 0 0 0l1.4-.1v-.1l-1.4.2c.1 0 .1 0 0 0M276.5 21.4c-.2-.3-.5-.9-.6-1 .1.2.5.9.6 1M451.2 72.1c.1 0 .1.1.2-.1-.1-.2.1-.5.1-.6-.1 0 0-.4 0-.6-.1.4-.3.9-.3 1.3M451 74.3c.1-.2.2-.6.2-.8-.1.1-.2.7-.2.8M448.6 77.9l.1-.5-.2.5z"/><path d="M458.5 47.8c.2-.1.2-.4.3-.8.2-1.1.8-2.7.8-3.7-.1.1-.2.6-.3.7 0-.7.3-1.9.6-3.1.2-.7.3-1.4.6-1.9 0 .4-.3 1.3-.3 1.6.3-.6.6-2.2.9-3.2 0-.2-.1-.1 0-.3.3-.5.2-.9.3-1.6.2-.1.2-.5.3-.8-.1 1-.3 2-.5 2.9-.2.9-.6 2-.7 2.9 0 .5-.3 1.2-.4 1.6-.1.3-.1.6-.2.9-.1.2-.2.3-.2.6-.2.9-.5 2-.7 2.9-.3 1.3-.5 2.8-.9 3.8.1-.4.1-.9.3-1.5.1-.3.3-.9.1-1-.2.4-.2 1.1-.4 1.5 0-.7.2-2 .6-2.7 0 .5-.2.9-.2 1.2m.7-3.2v.2c-.1 0-.1-.2 0-.2m.5-3.3c0 .1 0 .2-.1.2 0-.1 0-.2.1-.2m1.2-3.9c.1 0 0 .2-.1.2 0 0 .1-.1.1-.2M458 48.3c0-.2.1-.4.2-.7 0 .1-.1.7-.2.7m-.2-.5c-.1-.1 0-.5.1-.5 0 .2-.1.4-.1.5m-3.5 16c0-.1.1-.3.1-.3 0 .2 0 .3-.1.3m-.1.5c-.1 0 0-.3.1-.2 0 0-.1.1-.1.2m-.4-.1c0-.1 0-.2.1-.3.1.1 0 .2-.1.3m-.9 2c-.1 0 0-.2 0-.2.1 0 .1.2 0 .2m-.2.7c-.1 0 0-.4.1-.3.1.1 0 .3-.1.3m-.2.9c-.1 0 0-.4.1-.3 0 .1-.1.2-.1.3m-.4 1c.1-.2.1-.5.2-.4-.1.2-.1.5-.2.4m-6.5 7.1c.3.1.6.2.9.4.1 0 .2.1.2.2-.3-.2-.7-.4-1.1-.6m2.4.9c0-.1.1-.2.1-.3 0 0 0 .2-.1.3m10.7-49.2c-.1 0-.2 0-.3-.1-1-.1-2-.3-3-.4l1.6.7c-2.1.2-4.1.3-6.2.5l-.3.3c-.3-.3-.6-.5-1-.8-.1-.1-2.7 10.1-2.8 10.8.3-.9.6-1.7.9-2.6-.3 2-.6 4-.9 6.1l.6-.9c-.2 5.6-1.2 11.2-1.9 16.8-.7 5.2-1.2 10.4-1.6 15.6-.3 2.8 2.4 3.5 4.5 4.6.6-.9 1-2 1.4-3-.1.4-.2.7-.2 1.1 0-.2.3-.2.4-.1.1.2-.1.4-.2.3.2 0 3.9-11.1 4.1-11.9-.8 3-1.7 5.9-2.5 8.9 1.3-3.6 2.6-7.2 3.9-10.7-.1 1.1-.3 2.2-.4 3.3 1.8-7.3 4-14.6 5.7-22 .8-3.6 1.6-7.2 2.1-10.9.6-4.6.1-4.8-3.9-5.6M572.4 155.3l.3-.4-.4.3zM614.9 117.3c.1-.1.3-.3.3-.4-.1 0-.3.3-.3.4M575.5 151.8c-.6.3-1 .5-1.7 1 .5-.3 1.2-.7 1.7-1"/><path d="M593.7 135.1l-1.8 1.8c-.6.5-1.2 1.1-1.9 1.6l1.2-1.2-.9.6c1.5-1.3 3-2.7 4.5-3.9-.3.4-.7.7-1.1 1.1m-8.2 7.3c-.4.1-1.2.8-1.3 1.1-.1 0 0-.1-.2 0-.1.1 0 .2-.1.3-1.1 1-2.1 1.7-3.3 2.6.1-.2.9-.7 1-.9 0-.1-.2.1-.2 0 .9-.8 1.8-1.7 2.9-2.6.1 0 .1.1.2.1.2-.1.4-.3.5-.4-.2.1-.4.3-.5.2.4-.4 1-.8 1.4-1.1 0 .2-.5.5-.8.8.4-.2 1-.7 1.5-1.1-.1.1-1 .7-1.1 1m-8.8 7c0-.2.5-.5.6-.6 0 .2-.4.5-.6.6m14-28l.1-.1c1.1-1.1 1.8-2.1 2.8-3.2.1-.1.1-.1.1 0-.4.5-.8 1-1.3 1.6-.1.1.1.1.1 0-.1.4-.8 1-1.3 1.4-.1 0 .2-.2.2-.3-.2.1-.4.3-.6.5l-.1.1c-.1.2-.2.3-.3.4.1-.1.2-.3.3-.4m15.4-12.3c.1 0 .1 0 0 0l-.9.8c.3-.3.6-.6.9-.8M591.7 121c.3-.3.7-.9 1.1-1.2-.2.3-.7.9-1.1 1.2m1.8 14c-.1-.1.2-.3.3-.3l-.3.3M570 152.2c.2.2.5.5.7.8l1.2 1.8-1.4-1.6c-.3-.4-.6-.8-.5-1m47.4-41.2c.1.1.2.3.3.4 0 .1-.4-.4-.3-.4m-14 16.3c4.8-4.3 9.4-8.8 13.9-13.4.2-.2.5-.5.5-.8.1-.3-.1-.6-.3-.8.4.3.8.3 1 .8l-1.8 2.1c.7-.7 1.3-1.4 2-2-.3-.5-.7-1-1-1.5.5.2 1 .7 1.5 1.1-1.3 1.8-3 3.6-4.1 5.6 2-1.5 3.5-3.4 5.2-5.2.3-.3-4.3-5.5-4.8-6-1-1.1-2.1-2.1-3.2-3.2-.6-.3-1.1-.1-.7.6-.2 0-.1.4-.3.3 0 .5-.4.6-.6.8l-.4-.5-1.9 1.8c.3-.4.6-.7.9-1 .4-.5 1-1 1-1.7s-.8-1.1-.4-1.9c0-.1-.2 0-.2-.1.6-1-.2-1-.8-.9-1.1.2-3.7 3.1-4.6 3.8-1.6 1.3-4.1 2.6-5.2 4.4-.8 1.3-.1 3.4-1.8 4.2.4-.1.7-.2 1.1-.2-4.5 1-7 7.4-10.8 9.8-5.1 3.3-9.1 8.1-12.7 12.9-1.9 2.5-3.7 5.1-5.5 7.7-1.4 2-2.7 2.8-1.9 5.2 1.1 3.3 4.1 7.7 7.4 3.6-.7.7-1.4 1.3-2.1 2 .9 0 3.7-2.4 4.3-3-.6.2-1.3.7-1.9.9.6-.4 1.4-.8 1.9-1.3-.3 0-.9.5-1.2.7-.5.3-.9.4-1.4.8-.2.1-.4.3-.6.4l-1.6 1.4-1.4-1.8c-.7-.9-1.6-1.6-2.2-2.8.6.8 1.4 1.8 2.1 2.3-.1-.3-.6-.6-.7-.9.1 0 .2.2.3.1-.1-.3-.4-.5-.5-.8.8.5 1.4 1.3 2.2 1.8.8.7 1.5-.1 2.4-.7 1.7-1.1 3.2-2.4 4.8-3.6 2.3-1.8 4.6-3.6 6.8-5.5 4.5-3.8 8.8-7.8 13.1-11.7 1.3-1.2 2.8-2.5 4.2-3.8"/><path d="M616.2 115.9c-.1.1-.3.3-.3.4.1-.2.3-.4.3-.4M618.3 112.4l.3.7.1.1v.1l.1.1.1-.3zM714.4 212.8c.3 0 2-.7 2.3-.9-.6.2-1.7.7-2.3.9M591 276.4h.1l.8-.9z"/><path class="st6" d="M731 215.2zm-115.9 41.6c2.4-1.4 5.3-2.9 7.5-4.2 1.2-.8 3-1.7 4.3-2.3.8-.4 1.6-.9 2.4-1.3.5-.3 1-.4 1.8-.9 2.3-1.3 5.2-2.8 7.7-4.2 3.5-1.8 7.2-4 10.2-5.3-1 .5-2.5 1.4-3.9 2.1-.9.5-2.4 1.1-2.5 1.4 1.1-.5 2.9-1.6 4.1-2.1-1.6 1-5.1 2.9-7 3.7.5-.4 1.6-.9 2.3-1.3-.4 0-1.3.6-2.1 1-2.9 1.6-7.2 3.7-9.7 5.3.4-.1 1.6-.8 2.1-1-1.7 1.1-4.9 2.8-8 4.5-1.9 1.1-3.6 2-5 2.7 1-.7 3.3-1.9 4.1-2.4-1.8.8-5.9 3.2-8.5 4.7-.4.2-.3.3-.7.5-1.4.7-2.3 1.4-4.2 2.5-.4.1-1.4.8-2.3 1.2 2.4-1.6 4.9-3.1 7.4-4.6zm71.5-33.5c-.4.1-.9.4-.9.3.4-.1.9-.3.9-.3zm.7-.3c.3-.1.5-.2.6-.2 0 .1-.7.4-.6.2zm.1.4c.1-.1.5-.2.7-.3-.1.2-.4.3-.7.3zm6.8-2.3c0 .1-.5.3-.6.3-.1-.1.4-.3.6-.3zm.9-.4c.3-.2.7-.3 1-.4 0 .1-1.1.6-1 .4zm2.6-.9c.2-.1.7-.3.9-.3 0 0-1 .4-.9.3zm3.9-1.5c-.5.2-1.2.5-1.3.4.5-.2 1.2-.5 1.3-.4zm24.3-7.6c-.3.1-.7.3-1 .4.2-.1.7-.3 1-.4zm3.5.8c-.1-.1-.2-.3-.2-.4.1.1.1.2.2.4zm1.8 3.2zm-1.7-3c0-.1-.1-.1-.1-.2v-.1c.5.9 1 1.9 1.5 2.8l-1.4-2.5zm-87.7 31.2c.1-.1 1.7-1 1.7-.9-.4.4-1 .5-1.7.9zm1-.1c-.1.1-1.3.8-1.3.7.4-.2 1-.5 1.3-.7zm-9.2 4.2c0-.1.5-.3.6-.3 0 0-.5.3-.6.3zm-8.5 4.9c.1-.1.6-.4.5-.2-.1.1-.5.3-.5.2zm-9.8 5.3c-.2.1-.5.3-.6.3-.1 0 .6-.4.6-.3zM732 214.7c-.2-1.5-3.4-5.8-4.5-5.9-2.1-.2-5.4 2.1-7.3 2.9.8-.3 1.6-.7 2.4-1-2.4-.2-3.9 1.2-6 2-1 .4-2.1.8-3 1.1-8.4 3-16.7 6-25.1 9.1 8.5-3.3 17-6.5 25.4-9.8-1.6-.1-4.2 1.6-5.7 2.1l-6.8 2.5c-6.2 2.3-12.5 4.4-18.8 6.6 3-1.3 5.9-2.6 8.9-3.8-2.1-.1-6 2.5-8 3.3-2.6 1.1-5.1 2.1-7.7 3.1-6 2.4-12 4.8-18 7.5-21 9.3-40.5 21.1-60 33.2.9-.4 1.8-.8 2.6-1.3-2.7 1.3-8.2 6.5-8.4 9.7-.1 2.1 1.2 4.1 3 5-5.8-2.7-2.5-8.7 2-10.8-1.5 1.6-3.1 3.2-4.7 4.8.3-.2.5-.4.7-.6-.6.7-1.3 1.5-2 2.3.8.7 1.6 1.4 2.3 2.1l-.8-.3c2.2.9 4.4 1.8 6.6 2.8 1.9.8 4 1.7 5.2 3.4 0 0 2.5-1.2 2.8-1.3-.2-.4.3-1 .7-.8.4.2.4 1-.1 1.1.4-.1.7-.3 1.1-.4-.4.3-.7.5-1.1.8.8-.3 1.7-.5 2.5-.8-.6.4-1.1.8-1.7 1.2 4-2.9 9.2-5 13.5-7.4l15.7-8.7c-3.2 1.7-6.4 3.5-9.7 5 5.6-2.6 10.7-6.3 16-9.5-.9.5-2 1.1-3.1 1.6 3.4-1.9 6.4-4.4 9.8-6.4-.2.1-.4.2-.6.4 18.8-10.7 37.8-21 56.8-31.1 8.1-4.3 17.4-7.9 25-13.1.1-.2.1-.4.1-.6z"/><path d="M707.3 216.1c1-.4 2.5-.9 3.5-1.4-.2 0 .1-.2-.4 0-.3.3-1.3.5-1.6.6.2.1-1 .6-1.5.8"/></svg>