<svg xmlns="http://www.w3.org/2000/svg" viewBox="0 0 1484 200"><defs></defs><title>paint_top_white_Artboard 1</title><path class="a" d="M40.8 31.5c.5 2.8-3.2 3.1-3.2.5a5.16 5.16 0 0 1 3.2-.5zm26-7.1v.1c.1.6 1 .6 2 .5 1.8 2.9-2.6 1.8-3.3 0h-.1c.2-.2.4-.2.5-.3l.9-.3zm29.4 4c-2.2 3.8-3.9 3.6-9.8 4.1-8.8.9-13.9.7-23.4 2-1.6-1.9 3.2-.8 3.3-3.6 9.7-.9 20-6.5 29.9-2.5zm143-1.4c.5 1.9-4.1 3-3.9.5 1.5 0 1.9-.9 3.9-.5zm198.3-2.1c.2-1 2.9-.5 3.7-.1 0 .2.1.4 0 .5a16 16 0 0 1-3.1 0c0-.3-.1-.5-.6-.4z"/><path class="a" d="M343.2 31c-6.3 0-12.4-1.3-18.9-1-1.1 0-2.7 1-3.9 1-5.2.1-9.5-1-14.3-1-5-.1-9.6 2-13 0-5.2 2-13 .7-17.4-1a1.88 1.88 0 0 1 .2-.8 4.12 4.12 0 0 1 1.2-.1 3.81 3.81 0 0 0 1.5-.1.37.37 0 0 0 .2-.5.48.48 0 0 0-.6-.2 3.75 3.75 0 0 1-1.1.1 3.19 3.19 0 0 0-1.9.3l-.1.1a2.45 2.45 0 0 0-.4 1.2c-3.3 1.7-6.4 2.2-9.6.5.2-.7 1.1-.9 1.3-1.5-.1-1.3-1.1.7-2.6 0l.1.3a5.84 5.84 0 0 0-1.8-.4.45.45 0 0 0-.4.3c0 .2.2.3.4.3a2.92 2.92 0 0 1 .9.2c-.8 2-5.7 1.4-7.1.3l-.3.1a6 6 0 0 1 .8-.8 1.27 1.27 0 0 1 .6.1h.5c.3 0 .5-.1.5-.3a.43.43 0 0 0-.4-.4h-.4c-.3 0-.5-.1-.9-.1h-.2l-.1.1a8.18 8.18 0 0 0-.9.8c-1.8-.4-1.8 1.7-5 2.1-1-.4-2.1-.8-1.9-2-3.6 1.3-3.6.2-6.5-1 5.5-2.8 13.4.8 16.3-1.5 16.9 1.4 29-.2 45.3 0a.37.37 0 0 0-.1.3l.1.6.4.3a3.34 3.34 0 0 0 2.1.8h.4a.5.5 0 0 0 .5-.6.67.67 0 0 0-.7-.4c-.5.1-.9-.2-1.4-.6h-.1l-.1-.3c.2-.2.6-.2 1.1-.2 1 0 2.4.2 3.2.1 0 .6.8.7.6 1.5 6.3.1 12.9.3 18.2-1 8.6 3.2 22.3-1 28 1 3.4-1.9 7.5.4 9.8-1.5 8.4 1.3 18.4 1.3 25.4-1 3.4 1.7 4.1 1.6 7.8 0 2.8 1.2 7.8 2.1 10.4.5 2.7.1 3.9 1.4 6.5 1.5 0-.2 0-.4-.2-.5 3.3.3 8.2-.7 13.9-.6l-.1-.3a5.26 5.26 0 0 0 1.7.4h.1c.2 0 .4-.1.4-.3s-.2-.3-.4-.3a2 2 0 0 1-.7-.1 12.61 12.61 0 0 1 5.6-.9c-1.3 1.5-1.8 2.3 2 2l-.1-.1a15 15 0 0 0 2.2.2 19.42 19.42 0 0 0 2.4-.2l.4-.1.1-.3a2.27 2.27 0 0 0-.1-1.6h.2c3.9-.6 9.1.9 12.4-1 5.1 1.5 11.7 2 16.3.5 3 2.1 8.9 1.1 11.7 1 1.3 0 2.4 1 3.3 1 2.3 0 2.3-.8 3.9-.5 5.3 1 8.7-1.5 13 1 7.3-2.3 19.3 3 22.8-1 6.2 1.8 15 1.4 22.1 1 3.8-.2 9.4-2.5 10.4 1.5-9.3 1.9-17.9 1.1-27.5 2.1-.7.1-1.3.1-2 .2a28.91 28.91 0 0 0-5.8.8c-1.5-.1-3.1-.2-4.6-.2-8.7 0-17.7 1.4-26 1.1-2.6-.1-5.8-.1-7.8-1.5-2-.4-1.2 1.4-3.2 1-9.6-2.9-20.8-.6-30.6-2 .1.4.5.6 1.3.5-6.2 1.9-12.8-.5-19.5.5-3.8.6-9.1.9-12.4-.5-.9.5.3.8-1.3 1.5-2.7-3.3-17-2.8-20.2-1-18-3.3-36.7.7-55.9.6zm256.3 7.1l.3-.1a4.07 4.07 0 0 0-.6 1.1c0 .1 0 .1-.1.2h-3.2a.66.66 0 0 1-.1-.6.76.76 0 0 0 .4-.2v.1c1-.1 2.3.1 2-1 .7 0 .8.4 1.3.5zm13.6 1.3h-8.8c-.1-.1-.2-.1-.2-.2v.2h-4a1.08 1.08 0 0 1 .3-.7 19.46 19.46 0 0 0 5.3-.9 16 16 0 0 0 2.9.5c.2 1.7 3.9-.5 4.5 1.1zm14.4-20.7v-1c2-.6 5.9-1.6 6.5.5-3.1-.9-3 .7-6.5.5zm-9.8 5.2a203 203 0 0 1 23.4 0c.1.4-.3.5-.7.5.2.8 1.1-.4 1.3.5.2 2.1-1.3.3-2.6.5-2.9 2.5-7.4.8-10.4-.5-1.1.9.1 1.3-.7 3.1-6.7-.4-10.3-1-15-3.6-3.1 2.1-9.4-1.5-13.6 2-2.1.6-.5-1.6-2.6-1-1.5.3.8.8-.7 1.5a21.38 21.38 0 0 1-6.5-1.5c-6.8 3.4-13.7 2.4-23.4 1.5-.5-1.7 1.8-.8 2.6-1 3.3-1 6.1-2 9.8-1 2.2-1.7 8.1-1.3 10.4-1.5a1.5 1.5 0 0 1 1.3 1.5c2.2.2 3.8-1.4 6.5-1.5 1.3-.1 7.2 2.6 9.8-.5 5.6.9 7.7-1.6 11.1 1zm57.1.5c2.2 1 5.7-1.2 8.5-.5-1.2 2 .2-.1 2 0a.37.37 0 0 0-.1.3 3.39 3.39 0 0 0 .7 1.8c-.8 1.4-2.4-.4-3.2-.6a6 6 0 0 1-4.6 1c.9-1.3-7.9-1.1-2.6-2.5 0 .3-.1.6-.7.5zm12.5 1.1a2.57 2.57 0 0 1-.5-1.2c1.9-.8 6.9-.1 9.7-.5 1.3-.2 5.4-.4 5.8 1-3.7-.7-3.7.4-5.9 1.6-2.8.4-6.4-1.8-9.1-1zm20.6-.8c.1.2.2.5.3.7h-.1c-.7 0-1-.7-1.3 0-1.9-.6.4-1.4 1.1-.7zm1.6.3l-.3-.6h.1c4.4.4 9.1-1.8 11.1 1 2.4-.3 5.4-2.1 6.5.5-3 .5-6.3.3-12.3.5 0-.6-.8-.7-.7-1.5-2.3-.4-3.4.8-4.4.1zm24 .9c-.5-2.5 5.5 0 5.2-1 .9 1.5-3.4.3-5.2 1zm286.1-8.1c.2-1.5 5.9-.4 7.8 0-2.3 1.1-5.1.8-7.8 0zm11.1-1c1.8.7 3.3-1.3 3.9-.1v.7c-.2.5-.7.2-1.3-.1-.9.1-.7 1.1-1.3 1.5-.7.1-1-.7-1.3 0-1.9-.3.6-1.1 0-2zm24-2.5c2.8-.1 5.6.9 8.5.5 1-.1 2.1-1 3.2-1 3.5-.2 8.2.9 12.3.5 2.1-.2 3.9-1.5 5.9-1.5 3.8-.1 6.5 1.3 9.8.5.4-.1 1.6-1.1 1.9-1a22.54 22.54 0 0 0 7.1 1v.4h.1c-18.6 2.7-43.2 2.2-65 4.6-.2-.9-1.1-1.2-2.6-1v-.5c4.9-1.7 11.3-1 17.5-1.5.7-.1 1.6-1 1.3-1zm51.5 19.8c-.6.8-2.1.8-3.2 1 .1-1.8 1.6-1.3 3.2-1zm23.9-1.1a3.09 3.09 0 0 0 .2 1.1h-.1c-.1 2.2-1.9-1.1-3.9.5a.55.55 0 0 1 .3-.5c-3.2.2-12.2 2.3-16.5.5.2-1.1 1.3-1.4 1.9-2.1 3.5 2.1 5-.6 7.8 0-3.4 1.9 3.3-.2 3.2 1 1.2-.6 1.9-1.6 3.3-2 1 1.7 2.3 1.2 3.8 1.5zm32-18.3v.5h.1a4.76 4.76 0 0 1-1.8.5c-.2 0-.4.1-.6.1s-.2-.1-.3-.1c.4-.7 1.4-.9 2.6-1zm-.7-2c-1.2-.4-2.6-.7-3.2-1.5-2.7 4.5-9.6.5-13.7 2.5-1.5.1-2.5-.1-2.6-1-1.9 2-4.4 0-9.1.5-1.8 1.6-6.6 1-9.8 0-1.3-.2-1.3.7-2 1-1.7-1.1-11.2 1.2-15.6-.5v-.5c2.1-2.7 13-4.7 13.6-1 5.4-.8 11.5-4.1 15-1 1.5-1.5 4.1-.5 5.2-.5 1.3 0 3-1 3.9-1 2.1 0 3.8 1 5.8 1 .9 0 .8-.9 1.3-1 2.9-.4 6.3 1 7.2 1 3.5.1 7.2-1.6 7.8 1-2 0-3.4-1.1-3.8 1zm21.6 2c.1-.8 1.3-.3 1.9 0v.3a2.82 2.82 0 0 1-1.3 0 .44.44 0 0 0-.6-.3zm5 16.5c-.3.6-.8.9-.6 1.8-7.7 0-12.5.2-18.9 0 .3-.1.5-.3.8-.4a3 3 0 0 0 .8-.4.25.25 0 0 0 .1-.4c-.1-.1-.4-.2-.5-.1s-.5.2-.7.3a3.55 3.55 0 0 0-.9.4h-.1c-.6 1-2.5 1.1-4.6 1 .4-1.6-2.3-.7-.6-2-.1-1.1-1.6.7-3.2 0 .1.8 1.7.4 1.3 1.5-.7-.2-1.6-.6-.7 0-2.7.8-6.4.8-9.8 1 .1-.6.2-1.2 1.3-1-.2-1.3-3-.4-1.9 1-5.8-.9-12.5 2-18.2 0l-.2.1c-.1-.1-.2-.3-.2-1.1.6.1 1.2-.1 1-.9 1.1 0 1.7.4 1.9 1 1.3-1.6 5.4 0 7.2-2-3.5-1.6 10.1-1.7 16.2-1.5 4 .1 10.2 2 14.3.5v-.1c.3 0 .6.1.9.1h.4v1c2.6-.8 3.1 0 5.9-.5 0 .5-.5.6-.7 1 .8-.1 1.6-.1 1.3-1a21.75 21.75 0 0 0 5 .5c1.1 0 2.2.1 3.4.2zm9.9 2.4c.1-.7.8-.9 1.2-1.3a17.73 17.73 0 0 1 2.2-.1l-.2.4c1.5.4-1.7 1.3-3.2 1zm29.8-1.1c-.2.2-.2.4-.3.5-2.4.6-7.4 1.4-6.9 2.5-3.9 0-9.8 1.4-11-3.6 2.1.7 1.6.2 4 .1a10.47 10.47 0 0 0 3 .5 22 22 0 0 0 3.6-.4 13.68 13.68 0 0 1 4.5-.3l-.1.2c.8.1.4.6 0 1 1.6.2 1.4-.9 3.2-.5zm.8 1l-.3.1a1.63 1.63 0 0 0 .3-.6c1.6-2.3 1.6 2.8 0 .5zm116.3-1c-.4 0-.8-.1-.6-.5-.4 0-.7.4 0 .5-1 1.1-1.6-.4-3.2.5-.1-.4 0-.9-.5-1v-.1a.75.75 0 0 0 .5.1c1.7-.1.7-2.2 3.2-1.5 0 .3-.1.6-.7.5.1.8 1.7.4 1.3 1.5zm53.4-1.3c.6 1.5-2.3.4-2-.6a3.46 3.46 0 0 1 1.2.3 6.89 6.89 0 0 0 .8.3z"/><path class="a" d="M1484 0v7.8a15.81 15.81 0 0 0-1.8-1.3c-6 .4-13.8-2-20.2-.5-3.1-2.7-4.1-1-5.1-.1.9-.7-1.2 2.2-2.1 1.6-1.7-5.1-13.1-1.5-17.6-4.1-1.2.9.9 1.6-1.3 2-3.8-.9-7.9-1.6-11.7-2.5-1.2 0-.4 1.7-1.9 1.5-4.8 1.1-8.6-.4-12.4-.5-12.4-.5-25.8 1.8-34.5-1.5-.2 1.4-1.9 1.6-3.2 2-15.8 1.4-32.2-.7-44.9 2-5.5-2.6-10.7.9-13.7-2.6-2.6-.1-2 2.2-4.5 2.1-4-1.1-9.4 1.4-12.4-1-3.2 1.8-8.5 1.6-13 1.5-11.2-.1-20.7-.9-30.6 0 .8-1-1-2.4-1.3-1 1 .1.1.8-.7 1-7.7.3-21.7-.1-27.3-1.5.8-.1 1.9.1 2-.5-2.4-.5-1.8 1.3-3.9 1 .2-1.3 1.3-1.7-1.3-1.5.7 3.4-6.7 1-9.1 3.1-5.8-4.5-11.6 1.2-15.6-3.1-1.8.5-3.3 1.1-5.2 1.5-.2-.6-2-2.4-2.6-1-.1 1.6-6.1-.5-6.5-.5-5-.2-14.1 1.2-19.5 1-1.4-.6-3.3-3.9-4.6-1.5.5.1 1.3 0 1.3.5-2.8-.4-4.8.9-6.5 1-4.2.3-9.1-.5-13.7-.5-5.7 0-11.4 1-16.9 1-18 .1-36.5.6-53.3 1-1.5 0-2.7 1.2-4.6 1-3.3-.3-6.6-.2-9.8-.5-.9.5-1.3 1.4-2.6 1.5-9.5-2-17 1.5-25.4 0-1.1 2.2-7.9 1.3-9.1.5 2.4.2.9-.9-.6-.5-.4 0-.8.1-.7.5a2 2 0 0 1 1.3 1c-17.9.7-34.7.7-48.1 3.1-2 .4-1.2-1.4-3.2-1-4.3 1.7-7.9.5-12.4.5-10.8.1-21 3.8-28.6 1a14.84 14.84 0 0 1-3.9 1c-.1-1.4-2.8-1.5-3.9-1.5-3.6-.2-8.8 1-13 .5-.9.5-1.3 1.4-2.6 1.5-4.1-1.4-7.8-.1-11.7-1.5a1.43 1.43 0 0 1-1.3 1.5c-8.3-2.3-15.1.6-23.4-1.5-.9 1-2.9 1.1-4.6 1.5-.8-.7-2.8-.5-4.6-.5-5.7 2.2-10.8-.6-16.9 1-.8-.7-2.5-.8-3.2-1.5-.3.5-2.5 1.8-2 0-4.3 3.3-11.7 3-16.9 1.5-.6.8-1 1.6-2.6 1.5-4.1-1.5-8.1 1-13.6-1-11.6 1.8-27.6 3.2-36.4 2-.9.1-1.1.8-2 1-5-3.7-10 1.2-15.6.5-.9-.5-1.3-1.4-1.9-2-2.2 0-2.2 1.7-4.6 1.5 0-.5.5-.6.6-1-5.5 1.5-6.2-1.1-11.7 1-.1-.6.9-.8 0-1-7.9 2.1-16.5-.4-24.7 1.5-2.7-2.3-9.4-1.7-13-2-.1.9-7.6.9-11.1 0-.7-.2-1.7-1.3-2.6-1.5-4-.8-8.8-.2-12.3-.5-3-.3-5.6-1.4-8.5-1.5-1.6-.1-3.5.6-5.2.5-1-.1-1.6-1-2.6-1a152.51 152.51 0 0 0-27.4 1.9h-.5a7.6 7.6 0 0 1-1.4.1c-.2-.5-1.1-.4-1.9-.4l.1.3c-.1 0-.2 0-.2.1a5 5 0 0 1-2.2.4h-.3c-.2-1.1-4.5-.7-4.5.7v.2l-.9-.3a9.73 9.73 0 0 0-2-.5c-.2 0-.4.1-.4.3s.1.3.4.3a5.26 5.26 0 0 1 1.7.4c.2.1.5.1.7.2a5.26 5.26 0 0 0 1.2 1.4c.2-1.8 2.8.3 3.9 0 .1-.4 0-1 .2-1.3h.1a7.22 7.22 0 0 0 2.7-.5h.1l.1.2v-.2a7.72 7.72 0 0 0 1.5.2 4.1 4.1 0 0 0 1.1-.1v.1c2.4-.4 2.8.9 5.2.5v.5c-2.5-.6-5.1 2.7-7.1 0-1.3 2-7.5.5-11 1.5.7-2.1-2.1-1.5-3.6-1.9a6.28 6.28 0 0 0-4.7-.9c-.3.1-.5.4-.4.6a.63.63 0 0 0 .8.3 4.28 4.28 0 0 1 3.4.6c-.3.7-2.4 0-3.2.2-.2.9 1 1.3 0 1.5-10.3-.2-16.7 1-26-.5-2.4 2.5-12.1 1.5-15.6 1.5-.1.4 0 1-.6 1-1.2-.2-1.6-1.1-3.3-1-6.6 2.3-16.3-.2-27.3 2-.1-.6.1-1.4-.7-1.5a11.34 11.34 0 0 1-3.9 1.5c-5.2-.2-10.7.3-15.6 0-5.8-.3-10.8-1.9-15.6-2-7.5-.3-13.8 2.4-17.6-.5-.1.6-.2 1.2-1.3 1-6.7-2.9-13.9-2.2-22.1-3.6a5.41 5.41 0 0 1-3.9 1.5c-7.8-2-15 1.3-21.5-1-1.9.6-4.6.5-6.5 1-4.3-2.7-8.4 1-12.3-1a3.18 3.18 0 0 1-1.3 1.5c-.6-.8-2.1-.7-3.2-1-5.2 1.5-11.5.5-19.5-1-.9 1-1.8 2-4.6 1.5.1-.8 1.7-.4 1.3-1.5-2.8-1.1-3.9 1.5-7.2 1.5.2-1.3-.9-1.7-2.6-1.5-1.2.1-.5 1.7-2 1.5-5-1.4-14.3 1.3-20.8-.5-.1.8.1 1.8-1.3 1.5-.7-.5-1.3-1-2-1.5-6.4.3-10.9-.8-16.9-.5-7.3 3-17.6 1.8-24.7 1-8-.9-15.6 1.5-21.5.5-1.5-.2-1.3-.9-2.6-1-5.2-.5-11.4 0-17.6-.5-8-.6-14.2-1.9-22.1-2-2.5 0-6 .9-7.8.5-.7-.2-1.2-1.4-2-1.5-9.1-1.4-18.9-1.4-27.3-1.5-5.5-.1-10.6-.5-14.3.5-5.3-2.5-14.4 2.6-21.5-1.5.5-.1 1.3 0 1.3-.5-3-.5-3.4 1.5-5.9 2-2.8.6-6.2.4-10.4.5l-3.9 1.5c-8.6-1.2-16.4.9-26.7.5-2.9-.1-6.9-.4-8.4 0-1.9.5-2.2 1.7-3.9 2a5.71 5.71 0 0 0-2.6-.5c-1.3.2-1.9.9-3.3 1a22.06 22.06 0 0 1-5.1-.5 6.55 6.55 0 0 0-1.4 0c-3.7.2-7.2 2-11.7 2.5-4.3.5-11.8.3-16.9 1.5v.1a3.55 3.55 0 0 0-.9.4c-.2.1-.3.1-.4.2v-.1c-11.5-1.6-24.8 1.1-39 2-7.7.5-15.7 1.1-23.5 1.7H0V0z"/><path class="a" d="M1467.2 11.1c4.9.1 10.7.1 16.8.1v21.5c-2.9-.1-5.7-.1-8.3-.2 0-.5.5-.6.7-1-17.1-.4-32.5-1.2-53.8 0a.37.37 0 0 1-.1-.3c0-.2-.3-.3-.5-.3s-.4.2-.3.4a3 3 0 0 0 .4.8l-.3-.1h-3.9c.1-1.4-1.1-1 0-2-3.9.7-9.6-.8-8.5 1.5-1.8.1-1.5-1.5-3.2-1.5-.4 1.1-1 1.9-3.3 1.5-.1-.8.2-1.9-.7-2-.1 1.1-1.6-.7-3.2 0l.1.2-.9-.3a4.94 4.94 0 0 0-2.5-.3V29c-6.6 1.5-14.8-.5-19.5-1v-.5h1a8.6 8.6 0 0 0 1.6-.1v.1h1.3l-.1-.3c1.6-.1 3.3 0 5 0 1.1.1 2.2.1 3.3.1a17.7 17.7 0 0 0 2.3-.1l-.1.2c1-.1 2.4.2 2.6-.5l-.1-.1c3.8-.1 7.6.1 11.3.3 3.1.2 6.2.3 9.4.3 1.5 0 2.9 0 4.4-.1a.71.71 0 0 0 .8-.7c0-.4-.4-.6-.9-.6a123.08 123.08 0 0 1-13.6-.2c-3.7-.2-7.6-.4-11.5-.3l.1-.1c-2.4-.7 1.9-.1 1.3-1-2.6.7-1.3-1.7-3.9-1-2 .9 1.8 1.6 0 2-1.3-.6-1.4-.6-.7.5a37.26 37.26 0 0 1-4.7-.1c-1.4-.1-2.9-.1-4.3-.1.3-.6 1.6-.3 1.2-1.4-3.7.5-4 .1-3.9 1.5h-.9a10.28 10.28 0 0 0-1.7.1v-.1h-2.6c-.3 0-.6-.1-.9-.1a.8.8 0 0 0-.9.5c-.1.3.2.6.7.7s.8.1 1.1.2h.1l-.1.2v1c-2.7.1-13.1.7-11.7-2.5-1.7.6-4.5.2-5.2 1.5-4-1.9-12.5-1.1-16.3.5-2.9.6-8.9-1.2-9.8 1 2.3.1 1.2 1.6.8 1.5 2.5 1.3 5.4.6 8.4.5a.37.37 0 0 0-.1.3c.1.2.1.5.2.7h-.1c-4.3 1.6-8 1.4-16.9 1.5.1-.6 1-1-.6-1-.2.4 0 1-.7 1-.8-1.9-8 1.2-7.2-1-4.2 1-7.5 1.3-11 0-4.8 1.4-10.9 2.2-15.6 1.5-.9-.1-1.2-1-1.9-1 .1 0-.4 1-.7 1-2.9.6-6.6-1-8.5-1a8 8 0 0 0-2.6.5c-1.1.3-4.5-.4-7.2 0-.8 2.1-10.5-.4-11.7-.5-2.6-.2-6.9 1.1-8.5.5-.5-.2.2-1-.7-1-2.8-.1-5.2 1.1-7.2 1-.9 0-.2-.9-.6-1-1.2-.4-2.9 1.7-3.3 0 .5-1 3.6.1 3.9-1l-.3-.1a2.51 2.51 0 0 1 1.6-.3c.1 1.8 3 1.1 4.5.3.8 0 1.7-.1 2.6-.1a24.37 24.37 0 0 1 2.7.1c1.1 0 2.2.1 3.2.1a16.72 16.72 0 0 0 5-.6h.4a.9.9 0 0 0 .5-.1l.6-.3c.6.1 1.2.1 1.8.2a47.48 47.48 0 0 0 5.3.5 10.39 10.39 0 0 0 6.4-1.8c.1 0 .2 0 .2.1s-.2.3-.3.4a.61.61 0 0 0 .3.9.6.6 0 0 0 .4.1.78.78 0 0 0 .7-.3l.2-.2c1.3.4 2.7 1.7 3.1 0l-.1-.2c.5.2.9.4 1.2.5h.2a.76.76 0 0 0 .4-.2c.1-.2 0-.4-.2-.4a6.89 6.89 0 0 0-.8-.3 2.35 2.35 0 0 1 .7-1.9c-1.4.3-4.3-.6-4.6.5v.4a3.77 3.77 0 0 0-1.6-.4h-.3l-.2.2c-2.9 2.3-6.7 1.8-10.7 1.2a11 11 0 0 0-1.8-.2 4.88 4.88 0 0 1-.3-.7c.3-.1.7-.1 1-.2a.54.54 0 0 0 .5-.5c0-.2-.3-.4-.6-.4a8 8 0 0 0-1.5.3 2 2 0 0 0-1.1-.1c-.1 0-.1 0-.2.1-.4-.1-.8-.2-1.1-.3a.89.89 0 0 0-1.1.5.78.78 0 0 0 .7.9 3.09 3.09 0 0 1 .8.2c0 .1 0 .1.1.2a22.43 22.43 0 0 1-6.9.2 33.67 33.67 0 0 0-5.5 0 2.14 2.14 0 0 0-1.2-.8 2.36 2.36 0 0 1-.6-.9c-.1-.2-.3-.2-.5-.2s-.3.2-.2.4a4.18 4.18 0 0 0 .8 1.2h-.1c-.2 1.1-1.8-.8-1.9 1a3 3 0 0 0-1-.2 4.71 4.71 0 0 0-1.7.4l.1-.2c-2.9-2.7-9.2-.5-12.1-1.4a4.29 4.29 0 0 1-.6-2.4 2.49 2.49 0 0 0-.1-.8h.1a.55.55 0 0 0 .5-.3c.7.1 1.5.1 2.2.2a35.73 35.73 0 0 0 4.7.4h1.1a.47.47 0 0 0 .5-.5c0-.2-.3-.4-.6-.4a35.05 35.05 0 0 1-5.6-.3 16.35 16.35 0 0 0-2.2-.2 1.38 1.38 0 0 0-.4-.3 3.54 3.54 0 0 1 .1-.6c1-.1 2.1 0 3.1 0a15.35 15.35 0 0 0 5.2-.3c.3-.1.4-.3.3-.5a.78.78 0 0 0-.7-.3 19.39 19.39 0 0 1-4.8.3 20.44 20.44 0 0 0-3.5 0h-.2c-.3.1-.6.4-.6 1.3h-.1a.76.76 0 0 0-.4.2c-.4 0-.7-.1-1.1-.1a9 9 0 0 0-4 0c-.4.1-.6.4-.4.7s.5.4.9.4a7.43 7.43 0 0 1 3.3.1c.4.1.8.1 1.2.2a1.63 1.63 0 0 0 .6.3c0 .2.1.5.1.7a4.53 4.53 0 0 0 .9 2.9l-.3-.1a1 1 0 0 1-.4.7 15.33 15.33 0 0 0-4.3.4 12.63 12.63 0 0 1-5.8 0h-.1c-.2-.1-.4-.1-.5-.2a1.09 1.09 0 0 0-.5-.1c-2.4-.6-5.3-1.2-7.2-.8a.37.37 0 0 0 .1-.3c0-.3.2-.5.7-.7s1.2-.6 1.2-1.3a.51.51 0 0 0-1 0c0 .2-.2.3-.7.6s-1.3.6-1.3 1.4c-1.5 1.3-3.5.3-4.3 1.7a11.24 11.24 0 0 0-2 .2V31c-3.1-1.7-5.8-.6-9.8-1.5v.1a28 28 0 0 0-4-.3 27.22 27.22 0 0 1-4.2-.4 35.13 35.13 0 0 1 5.4-1.9c-.8.4 4 2.3 5.4.1a.76.76 0 0 1 .5.2.9.9 0 0 0 .5.1 1.14 1.14 0 0 0 .8-.3.62.62 0 0 0-.2-1 4.55 4.55 0 0 0-2.1-.5h-.1l.1-.2c-7.7-.7-9.9.1-17.6 0 1.1 1.3 1.6.9-.6 2.5h-.1c-.8-2.2-4.8-.8-2.6-3.5-17.2-.5-49.2.4-68.3 2a2.88 2.88 0 0 0-2.6-1c-10.3 1.9-23.5 1.3-35.1 2.5-8 .9-16.4 0-24.1.5-9.4.6-18.7 2.2-27.3 2.5-1.6.1-2.3-.4-3.9-.5-5.2-.2-14.2 2.8-18.9.5-3.7 2.2-8.3.7-13 1-8.4.5-16.4 1.4-24.7 2-4.8.4-10-.2-15 0-1 0-1.6.9-2.6 1-2.6.2-5.5-.8-7.8-.5-5 .7-13.2 1.9-16.9 0-.1 2.4-3 .1-4.6.5-3.1 2.5-8.7.3-15 1.5-2.1-.2-2.3-1.9-4.5-2-4 .8-5.8.1-10.4 0-2.4 1.9-12.5 3.1-17.6 1-1.6.3-1.4 2-3.9 1.5-4.7-1.4-8.7-1.2-13-2-1.8.3-2.7 1.3-4.6 1.5-8.2-.7-19-2.3-24.1 1-7.4.1-15.9.2-22.8 1.2h-2.2c-2.9-2.5-4.2-2-9.4-2.2-.6.5-1.3 1-2 1.5a23.87 23.87 0 0 0-4.4.7h-6.5a.22.22 0 0 0-.2-.2 1.48 1.48 0 0 0-1.3.2h-2c-1.2-.6-2-1.5-3.8-1.7a10.89 10.89 0 0 0-7.2 1.5c-1.6.2-1.4-.9-3.3-.5-.2.5-.5.7-.8.7h-.5a5 5 0 0 0-2.7 0h-1c-5.3-3.1-13 .8-19-1.2-2.1-.4-2 .8-3.2 1-.3-1-2.5-.4-1.9-2-2.9.7-7.7.5-7.2-.5-8.1 1.8-15 .8-21.4 1 .6 0 .4.5-.7.5-4.6.2-10.1-1.2-15.6-1-2.7.1-4.9 1.4-7.2 1-.9-.1-1.6-1-2.6-1-4.4-.1-9.1 1-13.7 1a32.78 32.78 0 0 1-8.4-1c-10.1 3.1-20.3-.8-31.9-.5v.1a12.82 12.82 0 0 1-3.2-.6.85.85 0 0 0-.7 0 3.87 3.87 0 0 0-2.6-.6 46 46 0 0 1-5.2.1v.2a206.92 206.92 0 0 0-32.4.4.88.88 0 0 0-.9.8 1 1 0 0 0 1 .7h.1a220.16 220.16 0 0 1 31.4-.4c-.1.5-.9.4-1.2.8-.2.1-.3.1-.5.2l-.1.1v.1a1.38 1.38 0 0 0 0 .9h-19.6V38H574v.7h-1.6c.1-.1.2-.1.3-.2-1.1.2-3.3-.4-3.8.2H346.3c-.4-.8-1.3-1.1-1.2-2.2 4.5.4 6.2-1.3 9.1-2 2.7.3 1.5 1.3 3.2 1.5 3.9-.3 5.5-2.5 9.1-3.1 1.5.8-1.3 1.6 1.3 1.5 1.8-.1 3.1.9 5.2 1 2.5.1 5.3-1.2 7.8-1 1.8.2 3.4 1.4 5.2 1.5a27.05 27.05 0 0 0 10.4-1.5c1.3 0 .8 1.4 2.6 1-.5-1.4 1.3-1 2-1.5 8.1.3 19.9-1.4 29.3.5 12.6-2.2 26.6-.5 39.7-1 3.9-.1 6.3-1.1 9.8-.5a94.62 94.62 0 0 0 11 .5c6.5.2 14.4-.4 15 1 4.2-1.8 11.3-1.3 17.6-1.5a.78.78 0 0 0 .7-1h-.1a30.51 30.51 0 0 1 5.4-.8 11 11 0 0 0 1.8-.2c4.6 4.4 16.9-1.8 22.1 1.5-.4.7-2.5.1-2.6 1 19.5.4 35-3.8 53.3-1a20.15 20.15 0 0 0 3.9-1c3.2 2.2 6.6-.4 9.1 2 4.8-2.2 9.7 1.8 13.7-.5 1.3 0 .8 1.4 2.6 1 .9-.9 2.9-.8 3.9-1.5 5.2 2.3 12.7-.4 19.5.5 1.3.2 1.8 1 3.2 1 5.2-.1 10.7-2 16.3-2 2 0 4 1.1 5.8 1s3.5-1 5.2-1c5.4-.1 9.5.4 13.7-1 .4 2.1 3 0 6.5.5 3 2.1 7.4 0 11 0v1c5.5 0 12.2-1 16.3-.5 7.6.9 18.1.6 26.7.5 4.1 0 9.2-.1 13-.5 5.9-.6 13.3 0 18.9 0 2 0 3.4-.8 5.2-.5.7.1.7 1 1.3 1-.2 0 .5-.9 1.3-1 1.2-.2 2 .5 2.6.5 1.2-.1 2.3-1 3.2-1a28.29 28.29 0 0 1 8.9 1 .61.61 0 0 0-.2 1 1.14 1.14 0 0 0 .8.3.9.9 0 0 0 .5-.1 3.92 3.92 0 0 0 1-.8l.2.2c4-2.1 9.4-.8 14.3-2 2.2 1.6 4.9.1 7.8 0 8.3-.4 15.7-.4 21.5.5 1.8-2.2 5.6-.9 8.5-1 17.4-.7 32.4-2.3 45.5 1 .3-2.3 5.4-.9 6.5-2.5.1.4 0 1 .6 1 4.7.2 8.6-1.3 10.4-1.5 4.3-.5 8.5.2 13 0 1.3-.1 2.6-.9 3.9-1a34.71 34.71 0 0 1 12.4 1c.1-.6-.1-1.5.7-1.5 10.6-1.6 23.3.1 35.1-2 .8-.1.6-.8 1.3-1a27.73 27.73 0 0 0 2.6 1c1.8-2.1 5.9-1.6 9.8-1a4.71 4.71 0 0 1 2.6-1c2.3-.5 3.4.6 3.9.5.2 0 1-.9 1.9-1a50.54 50.54 0 0 1 5.2-.5c1.3 0 3 1.1 3.9 1s1.8-1.5 1.9-1.5c2.8-.3 6.6.3 10.4 0 1.5-.1 2.4-.9 3.9-1 6.1-.3 11.1-.7 15-1 5.9-.5 11.6.9 13 .5-3.1-1.8 6.6-.8 10.4-1 5.6-.3 14.2-.5 20.2-.5 15.8.1 35.4-3.1 50.7 0 .1-1.5 2.6-.5 3.9-2v.4l.2.1c.9.8 2.4.9 3.8.9h2.2a.84.84 0 0 0 .7-.4c0-.3-.2-.5-.6-.5h-1.5a10.23 10.23 0 0 1-3.2-.3h.2a4.1 4.1 0 0 0 2.2-.7c4.4-.5 6.6.2 9-2h.3c0 .1.1.2.1.3a2.53 2.53 0 0 0 .6 1.5c.1.1.2.1.4.1a.37.37 0 0 0 .3-.1c.2-.1.2-.4.1-.6a2.82 2.82 0 0 1-.4-1.1v-.1a12.31 12.31 0 0 0 2-.2l-.1.1c3.5 1-1.5.2.7 1.5.9 1 5.5.6 6.5 0 0 .3.1.5.4.5h.2v-.1h.1a3.75 3.75 0 0 0 1.1.1 5 5 0 0 0 1.6-.3l-.1.3c5-.8 7 .5 9.1-1.5.1.8-.1 1.8 1.3 1.5a2.29 2.29 0 0 0-.6-1.5v-.2a3.92 3.92 0 0 0 1.8.4c.6 0 1.2-.1 1.7-.1.2 0 .3 0 .4-.1v.1c.2 1-.9 1-1.3 1.5 4.7-.2 3.4-.1 5.2-3-1.4-1.1-1.9.3-3.9 0l.1.2c-.2 0-.5.1-.7.1a7 7 0 0 1-2 .1c-.4-1.6-4.2-.6-5.8-1.4-3.9 2.4-10.6-1.2-15.7.8a9.75 9.75 0 0 1-2.5.2h-1a.37.37 0 0 0-.3.1 7.15 7.15 0 0 0-2.9-.8c-1.1-.1-2.1-.4-2.3-1.2 7.3-2.1 14 .3 20.8-1 4.1-.8 2.8-.2 5.8.5 3.6.8 5.8-.2 9.1-1 1.5.1 1.2 1.8 3.2 1.5 3.6-1.7 8.7-.2 14.3 0h.2c-.1.3-.2.7-.3 1-1.2 0-4-.3-4.5 1l.2.1a5.29 5.29 0 0 1-3.9.4l.1-.1.3-.1a.46.46 0 0 0 .3-.7.85.85 0 0 0-.9-.3l-.6.2-.1.1c-.3.3-.4.7-.6.9l-.2.4.5.2a6.3 6.3 0 0 0 2.6.5 5.92 5.92 0 0 0 2.9-.7c2.9 0 .3 2.2 2.5 2-.1-2 3.3 1.4 4.6-1l.3-.1a2.67 2.67 0 0 0 0 2.6 21.2 21.2 0 0 1-4.3-.6h-.2c-.3-.1-.6.1-.6.3s.1.4.4.5h.2a21.21 21.21 0 0 0 4.4.6 3.75 3.75 0 0 0 1.1-.1l.8-.1-.5-.5a1.86 1.86 0 0 1-.4-2.3 21.14 21.14 0 0 1 3.6-.2h2.7c.1 0 .2 0 .2-.1.7.4 1.2.9 2 1.3a5 5 0 0 0 2.6.7v-1l-.1-.1h.2a9.06 9.06 0 0 0 3.2-.6.61.61 0 0 0 .3-.9 1 1 0 0 0-1.2-.2 9.35 9.35 0 0 1-2.5.4V14c-1-.1-.6-1.2-.7-2h-3.2l.1.1a2.77 2.77 0 0 0-.9-.1c-.4 0-.8.1-.8.5s.2.6.6.6a.6.6 0 0 1 .4.1.52.52 0 0 1-.2.4h-.2a20.83 20.83 0 0 1-2.5 0 23.58 23.58 0 0 0-3.7.2l.1-.1v-.2a5.9 5.9 0 0 0 .8-.4.69.69 0 0 0 .4-1 1.2 1.2 0 0 0-1.4-.3 4.69 4.69 0 0 0-1.6 1l-.1-.1c-.9-.1-1.1-.8-1.8-1a4.33 4.33 0 0 1 .1-.5c12.3-.5 19.1-.9 30.3-.5.2.4 0 1 .6 1v.3c0 .2.2.3.4.3s.4-.1.4-.3v-.3c8.4-2.6 23.7-.1 32.4-1.5 1.1.5 1.4 1.6 2 2.5a19.75 19.75 0 0 1 5.2.5c.9-1.5-.5-2.7 3.2-2.6 0 .6-.8.7-.7 1.5 5.6 1 5.2 0 9.8-1.5-.1.6-1.2 1.2 0 1.5 4.9-2 17.2-3 20.2-.5 1.3-1.2-.2-.6-.6-1.5 10.3 0 17.5-1.8 24.7 1 10.1-3.1 19.5-.7 26.7-1v.2a.37.37 0 0 1-.1.3c-3.6-.1.1 1.7-1.2 2-27.4.7-53.4.6-76.8 1.5v.1a13.4 13.4 0 0 0-4 0v-.1c-4-.3-10 .3-13 .5l.1.2a52.62 52.62 0 0 0-11.9 0l.1-.2c-1.2 0-1.4-.4-.6-1-1.5-.3-1.4.6-2.1.9h-.1c-2.2-.1-4.4 0-6.5.1-1.6.1-3.3.1-4.9.1h-.3c-.4 0-.8.3-.8.6s.3.6.8.6h.3c1.7 0 3.3-.1 5-.1 2-.1 4.1-.2 6.1-.1-.1.5-.8.6-.6 1.4 1.1-.3 3.8.6 3.9-.5l-.1-.3a7 7 0 0 0 1.2.3.6.6 0 0 1 .4.1h.1c.2 0 .4-.1.4-.2s-.1-.3-.3-.4-.3-.1-.4-.1-.4-.1-.6-.1v-.1a60.2 60.2 0 0 1 10.4 0c-.1.3-.4.4-.5.7a16.22 16.22 0 0 1-2.3.1c-.2 0-.4.1-.4.3s.2.3.4.3h.8a6.82 6.82 0 0 0 2.1-.2v.2c6 .2 11.4-1 14.3-.5-.7-.1-.4-.5-.1-.9a11.29 11.29 0 0 1 2.6 0c-1.8 1.9 4.8 1.1 5.2 1.4a.76.76 0 0 1-.2.5.49.49 0 0 0 .1.7c.1.1.2.1.4.1a.76.76 0 0 0 .5-.2 1.43 1.43 0 0 0 .4-1v-.1h.1c2 .7.5 1.2 2.6 1.5 1.7.2 2.5-1.2 4.6-1.5 2.9-.4.3 1.6 2.6 0 2.9-2 9.6.9 14.8-.5a.37.37 0 0 1 .1.3c0 .2.2.3.4.3h.1c.2 0 .4-.2.3-.4a3 3 0 0 0-.4-.8l.3.1c2.8.8 9.6-1.3 8.4 1.5 2.8-1.5 4.2-1.3 7.8-1.5v1.5c4.8 1 10-3.9 9.1 0a17.82 17.82 0 0 1 7.8-1c0 3.3 4.1.1 5.9 0-.1 0-.5 1-.7 1 2.7-.1 6.8-2.1 10.4.5 3.9-2.9 10.4-.5 15-1 3-.3 5.3-2.4 7.2-.5 2.9-1.8 6.4-1.5 7.8 0 7.3-1.8 15 .8 22.7-1.5h2.7c1.1 2.2 5.9 1 6.5 1 0 .6-.8.7-.7 1.5 2.9-.1 4.1-1.9 6.5-1.5.7.1.8 1.1 1.3 1 .1 0 .3-.9 1.3-1 1.7-.1 3.7.9 5.8 0a2 2 0 0 1-.7 1.5c2.5.2 3.4-.8 4.8-1.4 1.8 0 3.7.1 5.5.2s3.7.1 5.6.2h.3v1.6h4.6c.2-1-.9-1-1.3-1.5h.2c3.5.2 6.7.4 9.7.4h2.3v-1.6c-3.5.1-7.4 0-11.6-.3.1-1.9-.5-.2-1.9-.5-.2-1.2 1.9-.6 1.9-1.5-4.8-.7-1.5 1.8-4.6 2-1.7 0-3.5-.1-5.2-.1-1.9-.1-4-.1-6-.2l.1-.2c-2.9-2.1-5.8-1.3-8.5-.5.9-2.6-3-.5-5.9-.5-4.4 0-8.4-2.8-10.4 0h-3.2a3.18 3.18 0 0 0-1.3-1.5c-8.9 1.7-16.1-.8-26 .5-.1-.6.1-1.5-.7-1.5a9.34 9.34 0 0 1-2.6 1.5c-6.1-2.9-15.4 1.2-21.5-1.5h-.1a2 2 0 0 0 .1-.7c.1-.2.2-.3.4-.3h.2c.1.6.7.3 1.3 0l.1-.2a2.74 2.74 0 0 0 1.3 1.7l-.1.1h.4c.1 0 .2 0 .2-.1 1.7-.3 1.6-1.2-.3-.5a2.55 2.55 0 0 1-.7-1c.3 0 .5-.1.5-.5 2.5 2.3 7.4-1.6 7.8 1 11.8-2.6 31.2-1.1 41 .5 1.3-2.4 7.3.2 11.1 0 1.9-.1 2.4-1.3 3.9-1a9.31 9.31 0 0 1 3.3 2c4.7-.5 8.3-2.8 13.6-2.5.2-.2-.4.8-.5.8 1.5.6 5.5.5 7.2.5z"/></svg>