<svg xmlns="http://www.w3.org/2000/svg" viewBox="0 0 1484 192"><path d="M413 108.3c-.4-.8 2.8-1.3.7-1.6 1-.8 1.6 0 4.3 0v1.6c-3-.1-2.8.7-5 0zm65.6-17.1c-.4.2-.9.4-1.5.3v-.3h1.5zm1.3 22.9h1.4v1h-1.4v-1zm13.7-13.7h1.4v1h-1.4v-1zm9.4-4.7h1.4v1H503v-1zm3.5 11.6c1.6-.3 1 1 2.2 1-.3 1.3-3.3.4-2.2-1zm27.4-6.9v1c-3.5.6-1.3-2.7 0-1zm31 18.4h1.4v1h-1.4v-1zm96.4 45.2c2.7-.4 3.5-.4 5.8.5.1.6-.1 1.5.7 1.6-.5 2-2.4-.4-2.9 1.5-.3 0-.7-.1-1.1-.2-.5-.1-1.1-.3-1.8-.3-.2-1.9-1.9-1.3-.7-3.1zm97.9-25.2c2.8-.8 5.9-.1 7.8 0 0 .1 0 .2.1.2-.4 1-2.1 1-2.8 1.8-.6.1-1.3.1-1.9 0h-1.7c.9-1.6-2.4-.3-1.5-2zm9.5.2c0-.3-.1-.5-.2-.8h2.4v1.1h-2.2c-.1-.1 0-.2 0-.3zm-68.5 11.8c2.5.2 4-.2 5.8-.5-.1-1.3-.1-2.5.7-3.1 11.9 1.2 22.3 1.1 38.9 0V144c4.9-2.2 11.5-1 15.7-1.5h1.8c.6 0 1.3 0 1.9-.1v.1h5c0 1.7 3.1 1.2 2.9 3.2 3.9-1.2 15.9.8 22.3-2.1.8 6.6-17 4.2-23.8 4.7-.5 1.8-4.2 3-5.8 1l-.2-.1.1-.1c.5-.1.9-.3 1.2-.4.3-.1.5-.2.8-.3s.4-.2.3-.4c-.1-.2-.3-.3-.6-.2-.4.1-.7.2-1 .3s-.5.2-.9.3c-.1-.1-.2-.1-.3-.2-.4-.2-1.2-.4-2.1-.6-.6-.1-1.1.2-1.3.6-.1.4.2.8.8.9.4.1.8.2 1.1.3h-.1c-2.1 4-8.9 1.5-12.2 4.2-10.3-3.1-19.7-2.1-33.8-2.6-1.5.1-1.4 1.4-2.2 2.1-1.6-2.3-6.8 1.4-7.2-2.1-1.9 1.2-7 2.7-7.8-.2zm95-11c.1-1 2.4-.4 2.2-1.6.9.2 1.5.7 1.4 1.6-2.2.4-1.4.4-3.6 0zm59.1 31.5c0 .1-.1.1-.1.2s-.1.2-.1.4-.1.3-.2.5c-2-.1-2.6 1.1-4 0 .1-1.4 2.4-1.1 4.4-1.1zm10 2.1l.1.1c-1.1.2-2.2.1-3.3-.1-1.5-.2-3.1-.3-4.8.2l.1-.2c-.5-.1-1.4 0-1.4-.5l-.4.1c.2-.3.3-.7.4-1v-.1c2.9-.3 11.5-1.7 12.9 1.6-1.8-.2-2.2-1.1-3.6-.1zM801 148.7v-4.2c5.3-2.1 10.6.4 15.1.5 9 .3 13.8-3.2 24.5-1.6 5.4 5.2 12.8-1.8 18.7 1.1 0-.7-.9-.7-.7-1.6 6.8 1 14.9-1.8 19.4.5 11.2-1 21.8-2.1 30.2.5.1.6-1 .8 0 1.1-2.3 4.9-13 .3-13.7 6.3-3.8.1-2.1-2.7-2.9-3.7-8.1.7-16.7 0-23.8-1h-.1v-.1c-.1-.4-.3-.8-.8-1.3-.2-.2-.7-.2-1-.1-.3.2-.3.5-.1.7.3.2.4.5.5.8-.9 1.6-5.6.4-7.1 1.5l.1.2c-.9-.3-1.6-.5-2.7-.4-.3 0-.6.2-.5.5 0 .2.3.4.6.4.8 0 1.3.1 2 .3h-.2c.1 1.2 3 .2 4.3.5-5.2 1.8-12 1.4-18 1-8.3-.4-18.4-1.4-25.2-1.6-.3-1-1.5-1.3-1.4-2.6-6.3 1.5-9.6 3-17.2 2.3zm115.9 25.8h-4.3v.1c-.5-.1-1-.1-1.5-.1-.1-.8-1.8-.4-1.4-1.5 2.9 0 7.1-.8 7.2 1.5zm4.3-4.8c-2.3.9-9.3 1.9-9.4-1.6 3.9 1.5 7.9-2.3 9.4 1.6zM907.5 113c-.1-1.9 3.2-.9 4.3-1.1 3.9-.4 9.1-1.2 12.2.5-2.7 2.8-6-.5-10.1 1.6-1.3-1.9-2.4-.8-6.4-1zm26.7 2.1c-3.2-1.6-4.2-1.5-8.6-2.1 1.8-1.4 3.8-1.5 6.5-1.6.8 0 1.1-1 1.4-1.1 1.2-.1 5.9.8 8.6.5 4.1-.4 4-1.4 6.5.5-3.1.1-8.3 5.2-13 2.1-.9.4-1.5.8-1.4 1.7zm28.8 54.6l-.1.3-1.6-1.1c-.3-.2-.7-.2-.9 0s-.3.5 0 .7l1.2.9v.9h.1c-1.3.3-2.7.5-3.9.1l.3-.1c-.8-.8-.8-1.3 0-2.1-3.4-.8-10.2-.2-13-1 7.3-2.6 11.3-1 19.4-1.1v1.4c-.2.2-.4.4-.5.7l-.1.1-.1-.1c-.6-.1-1 0-.8.4zM947.8 143c1.8 0 1.2-2 2.2-2.6 4.9.4 5.8-2 10.8-1.6l.3.1c-.5.5-.7 1-.9 1.5l-.3.6c-.7.1-1.5.1-2.2 0-1 0-2.1-.1-3.2.2-.4.1-.7.4-.5.7.1.2.4.4.8.4h.2c.8-.2 1.7-.2 2.7-.1 1 0 2 .1 3.1-.1l.4-.1.1-.3c.2-.4.4-.7.5-1s.2-.6.4-.8c8 .5 18.8.8 26-1.1 1.3.5 2.8 1.2 1.4 2.1 1.4-.2 3.1-.2 2.9-1.6 2.9 1 3.9.4 6.9 1 .2.3.4.7.5.9l.1.2h-.2c-3 0-2.2.8-5.8 1l.1.2c-.2 0-.4-.1-.7-.1-1-.2-2.1-.3-3.1 0-.5.2-.7.6-.4 1 .2.4.9.5 1.3.3.4-.1 1.1 0 1.8.1h.3c5.2 4.6-11.4 5.6-12.2 2.1-2.7 2.3-6.1.1-10.8 0-3.4 1.3-6.7 1-10.1 0-2 .3-3.1 1.3-5 1.6-1.4-.2-7.1-1.7-7.2.5-3.7-1.5-4.3-3.1-9.4-2.1 1.5 1.9-.7 1.6-2.9 2.1.2-1-.8-1.2-.7-2.1-3.8.6-5.5-.1-8.6-1 .6-4.8 13.6-.4 16.6-3.2 1.2.7 3.2.8 4.8 1.2zm52.9-2.1c-.1-.3-.3-.8-.7-1.2l.4.1c6.6.5 13.7 1 18.7.5.6-.1.8-.5.7-1 2.8 1.1 4.1 1.6 7.2 1.6-.1.1-.1.1-.1.2-.1.4-.2.7-.3.9l-.2-.1c0 .7-.9.7-.7 1.6-10 .8-15.9-1.7-25-2.6zm30.7 3.3c2.4.1 4.2.4 5.8 1h.4l.2.4c.9-.7 2.6-.7 3.6 0-.7 3.7-9.9 1.7-11.5 1-.5-1.5 2.3-.7 1.5-2.4zm8.6 9.3c-7.6-.5-16.2.8-24.5-1.1 7.1-2.9 15.3-1.1 24.9-1.1.1.2.2.4.4.6l.3.6-.5-.1c-.4.1-.7.4-.6 1.1zm-12.2-11.6c0-.2.1-.3.1-.5 7.2-.8 11.2-.4 17.9.5-.5 2.4-6.6.8-8.6 2.1l.1.3c-1.8-.5-4.1-.8-6.8-.9l.2-.4c-.5-.8-2.9-.1-2.9-1.1zm13.9 9.8c-.2-.3-.4-.6-.6-1l.4.1h2.2v1h-1.8c-.2 0-.2 0-.2-.1zm5.5 2.8c1.9.7 5.8-.1 5 2.6-3-.6-4.9 1.1-6.5 0-1-2 2-1 1.5-2.6zm6.5-21c-2 1-6.5 2.4-8.6 1.6-.2-3.6 4.5-.8 8.6-1.6zm5 42.5l.2.3h-2.8c-3 0-6.2.1-9-.8l.1-.1c.6-.9 2.3-1 3.4-1.5.6.2 1.2.3 1.9.3.8 0 1.7-.1 2.7-.4v.1c.9.7 3.4.3 4.3 1-.1.6-.7.7-.8 1.1zm.7-34.1c.1 2.5-3.2.4-4.3.5-2.4.2-5.1 1.8-8.6 1 1.8-5.9 8.1-1.3 12.9-1.5zm-5 30.4l.2.1c-1.5.4-2.7.5-3.6 0-.1 0-.1 0-.2-.1v-.1c0-1.5-2.7-1.1-2.2-3.1 5.6-.6 9.2-1.1 13 1.6-1.5 3-6.7-2.2-7.2 1.6zm16.5 0c-3.4.3-4.7.6-7.2-.5 1.5-1.3 6.5-1.4 7.2.5zm14.9-25.3c-1-.1-2.1-.2-3.1-.6-1.3-1 2.4-2.1 3.2-.9v.1c.1.5.1.9-.1 1.4zm-38.6-55.5l-3.6-.3h30c5.5.6 10.9 1.2 14.8 0h1.1c.6.4.2 1.5 1.6 1.4-5.8 1-12.5.2-18-.5-2.6-.3-9-.8-11.5-.5-1.3.2-1.9 1.1-2.9 1-1 0-1.1-1-2.2-1-3.1-.3-6.1.2-9.3-.1zm46.1 56.2l.1.1c-1.1-.2-2.2-.3-3.3-.4-.7-.1-1.3-.1-1.9-.2.1-.5.1-1 .2-1.5v-.1c1.9-1.5 9.2.8 4.9 2.1zm3.5-55.1v.2c-.4 0-1.4.2-3.6.8-2.2-.9 3-2.1 3.6-1zm-3.5 58.2c1.8.1 3.7.1 3.6 1.6-2.2.4-2.1-.9-4.3-.5h-.1c0-.3 0-.5.1-.7.2-.1.4-.2.7-.4z"/><path d="M1069.5 157.7c-4.2-2.2-10.4-2.9-15.8-4.2-.1-.8.3-2-.7-2.1 2.2-2.4 8.8-4.6 14.4-4.2 1.6.1 2.8 1.3 4.3 1.6 3.4.5 7.9-.3 10.7-1 1.3.4 2.5.5 3.7.6.1.1.3.1.5.2h.6c.9.2 1.8.2 2.8.3s2 .2 2.9.4l-.2.1v.5l.3.1c-.4.2-.8.4-1.1.5l-.5.2-.1.2c-.1.3-.1.6-.1.9-.6 0-1.3-.1-1.9-.1-.7-.1-1.3-.1-2.1-.2-.6 0-1 .3-1 .7s.4.7 1 .7 1.2.1 1.8.1c.7.1 1.4.2 2.2.2-.2 3.5 8 1 7.2 5-10.4 1.2-19.9-1.4-28.9-.5zm2.9 5.2c-.4-.4-.8-.9-.7-1.6 9.5.2 22.6 1.2 33.1 2.6-6.6 2.8-15.4.2-23-.5-3.4-.3-6.6.4-9.4-.5zm25.2-70.3V92c.9.2 4.2.8 15.8 1.2.1.6 1.1.6 2.2.5-3.9 2.7-12.6-1-18.7.5 2-3.6.7-1.6.7-1.6zm21.6.5l.5.1c-.3.3-.6.6-.8.9-1.6-.3-2.7-.4.3-1zm.5 1.6c.2-.2.3-.4.5-.6 1.1 0 1.6-.5 1.9-1 .6 1.8 3.6-.3 4.3 2.1-2.2-.6-4.6-1-6.5-.5h-.2zm10.3 1c.1-2.4 3.3-.1 5-.5-1.4 1.3-3.1-.7-5 .5zm12.2 78.2c2.3-.5 2.2.8 3.6 1h.2c-.2.3-.3.7-.3 1-1.7-.2-1.5 1-3.5.5-1.3-.9.4-.8 0-2.5zm4.4 2.2c0-.2.1-.5.2-.7 1.3-.4 4 .5 6.8.1v.6c-2.5.8-5 1.2-7 0zm20.8 3.1c.9 2.3.6 1.6-1.4 2.1.2.7 1.6.6 2.2 1-.1.5-.7.8-1.2 1h-.1c-1.1.3-1.8-.1-2.8-.9-.8-.6-1.9-1.4-3.5-1.3-.1 0-.2 0-.3.1-.7-1-2.8-1.1-5-1v-2.6l-.1-.1c.8-.6.9-1.7.7-2.5h.1c3.3-.7 6.3.1 8.6 1.6.6-4.3 11.4.7 2.8 2.6zm-17.3-20c3-.6 4.3 0 5.8 1.1 1.5-1.7 6.1-.8 6.5-2.1 1.4.3 6.5 2.5 7.2 0 2.6 1.4 10-2.8 9.4 2.1-6.1.9-13.2 1.9-19.4 1.6-1.4-.1-1.5-.9-2.2-1-2-.4-6.5.9-7.3-1.7zm33.1-62.4c1.5.9 1.4-.4 2.9.5.2.9-4 .9-2.9-.5zm4.8-5.6h1.6c-.1.1-.9.1-1.6 0zm15.4 7.1c-1.5-1.6 3-.4 4.3-1-.3 2.4-3.4-.6-4.3 1zm-6.5 80.9c9.1-1.1 14.4-.3 25.2-1.6 0 2.8-6.7.7-6.5 3.7h-.7l.1.1h-.2c-.4-.1-1-.2-1.7-.2-.3 0-.5.2-.5.4s.2.4.5.4c.6 0 1.1.1 1.5.2.2 0 .3 0 .5.1l-.1.2c.6.9 2.9.7 2.2 2.6-2.2-.4-2.1.9-4.3.5l.1.3c-2.4-.3-4.8-.2-7.1 0-.4 0-.7 0-1.1.1l.1-.3c-1.2-1.7-2.7.1-4.3-1 0-.7.3-1.1.6-1.5.3 0 .5-.1.8-.1.6-.1 1.1-.1 1.5-.3.3-.2.4-.5.2-.8-.2-.2-.7-.3-1-.1-.1.1-.6.1-.9.2-.4 0-.8.1-1.2.2l.1-.2c.3-2.4-4.4-.7-3.8-2.9zm25.9-15.8c.3-2.8 5.8 1.2 5.8-1.6 1.2-.1 1.2.5 2.2.5-.6 1.9-3.4 2.1-5 3.2-1.8-.1-1.7-1.6-3-2.1zm13.7-1c2.2 0 5.9-1.6 5.8 1-2.6-.1-2.6 1.6-5 1.6.2-1.3-1.4-1.1-.8-2.6zm9.3 21.4c0 .5.1.9.2 1.1h-.1c-2.8-.2-3.7 1.1-5-.5-.6-1.9 3.9-1 4.9-.6zm10.1-25.6c.7-1.4 1.6-2.7 2.2-4.2 2.7-.4 3.4.6 5.8.5h.1c-.1.1-.1.3 0 .4.2.7.5 1.3.8 1.7.1.2.4.3.6.4v.1c0 4.6-7.3 3.1-9.5 1.1zm-8.8 26.8c-.1-.1-.2-.4-.3-1.3 2.2-2.2 9.2-.8 12.1-2.4.5-1.6-2-1-1.4-2.6 2.6-.3 2.6-2.5 5.8-1.1-.6 2.7 1.4 4.1-.7 5.2.6 1.1 1.8 1.9 4.3 1.6l.2-.1-.3 1.5c-1 .4-2.3.4-3.6.3l.1-.2c-2.2-.4-1.5-.4-2.8.5-2.1-.4-4.2-.4-6.2-.3-.9 0-1.8.1-2.6 0l.1-.2h-3.6c0-.5-.6-.6-.7-1l-.4.1zm31.2-11.1c-.5.7-1.5 1-2.9 1-.6-.6-1-1.4-.7-2.6 2 0 1.6 1.6 3.6 1.6zm-11.9-18.3l-.3-.6c2.3-2.8 6.2-.5 7.8-.5 3.2.1 3-2.1 6.5-2.6 1.4.3-.9 2.8.7 1.6-.1 1.2-4.6 3.6-7.2 4.7-2.3.2-2-1.3-2.9-2.1-2.6.6-2.8-.3-4.6-.5zm23.3-3.7h-2.8c.2-1.1 1.6-1.2 2.6-.7.1.2.1.4.2.7zm4.4-1.1c.5 1.8-2.4 1.9-3.5 1.1-.1-.4-.2-.8-.3-1.1h.2c1.4-1 1.8 0 3.6 0zm-7.2-58.2c2.4-1.7 6.4.1 7.9-.5 1.4 1-5.5 1-7.9.5zm-6.5 92.9l.1.2c-2.1-.2-4.3 0-6.4.1-1.9.2-4 .3-5.9.2 0-.3.1-.7.2-1 4-1 7.8-2.2 11.3-3.6 3.6 3.1 6.3 1.9 12.2.5 1 .9 2.9 1.2 4.1 1.9 0 .4-.1.9-.2 1.3 0 0-.1 0-.2.1l-.2-.2c-2.1-.1-2.2 1.2-4.3 1-3.3-1.4-5.8-.3-10.7-.5zm25.7-14.2c.1.4 0 .7-.2 1.1v.1c-1.7 1.9-6.3 2.8-8.9.9 1.2-1.8 5.6-1.9 9.1-2.1zm-9.8-14.7c5.2.6 9.6-4.2 11.5 2.1-4.5-.1-10.7 1.6-11.5-2.1zm-14.4 7.4c2.1-1.1 2.2 1.3 3.6 1.6 1.3.2 12.3-2.3 9.4-2.1 6.6-3 13.9.9 17.3.5 1 .3 1.3 1.1 1.4 2.1-.3.2-.6.3-.9.6-.8.2-1.3.7-1.3 1.5-.5 0-1 0-1.5-.1-.3-.7-.8-.8 0-1.5-9.1-.7-23 2.3-33.8.5 1-1.7 3.5-2.4 5.8-3.1z"/><path d="M1484 145v47H0v-43h.5c8.6-.1 16.5 2.5 23 3.2 6.3.7 12.1-.5 18.7 0 8.2.6 18 2.8 24.5 3.7 10.8 1.4 23.2 1.3 33.8 3.7 3.6.8 9.2 3.2 12.2 3.7 6 .9 11.9-.3 18 0 5.7.3 11.2 2.1 17.3 2.1 8.2 0 16.7 2.1 25.2 1.6 3.8 2.1 12.5 2.9 18 2.1-.2 1 1 1 1.5 1.6 18.1.5 38 1.4 54 2.1 5.8.2 11.4 1.6 15.8 0 4.1 1.4 13.3 2.2 17.3.5 3.1 2.2 8.2 1.3 13 1.6 7.3.4 14.9 1.9 22.3 2.1 2.6.1 5.4-.6 7.9-.5.8 0 2.2 1 2.9 1.1 8.3.7 17.7.6 22.3-.5 4.1 1.5 10.6.1 16.6.5 5.5.4 10.4 2.7 13.7.5 1.4.4 2.6.9 4.3 1 1.9-.2 6.4-1.2 8.6-1 .4 0 2.6 1.5 2.9 1.6 2.3.4 7.5-.5 9.4-.5 5.7-.1 12.9 1.6 15.8 1.1 3-.6 4.2-2.8 6.5-3.2 4.2 1.6 7.7-1.2 12.2-.5 2.4.3 4 2.4 6.5 2.6 4.8.4 8.4-2 13.7-2.6 6.9 4.5 22.5 2.4 28.1-1.6-2.6-.5-.1-1.3-.7-3.2 5.1-3.3 16-.6 20.9-1 1.5 1.1-.3 1-.7 2.1l.1.1c-.7.2-1.2.4-1.7.5-.5.2-.8.7-.5 1 .2.3.6.4 1 .4.2 0 .3 0 .5-.1.4-.1.8-.3 1.3-.5 5.4-1.1 10.1-.5 16.6 0 1.6-2.3 5-2.5 7.9-2.6.5-4.2 12.7-2.6 17.3-2.1-.3 2-4.9 1-6.5 2.1 2.1 1.8-3.3 2.8-5 3.7-1 .5-1 1.7-1.5 1.5 4.6 2.9 14.5-2.2 21 .1 1.1-2.3 6.8-1.4 8.6-3.2-.8-.3-1.6-.6-2.2-1 3.7-3.5 8.5-2.9 14.4-4.7 1.6 1.2 0 2.6-.7 3.7 2.9.4 2.5-1.7 5.8-1 1 .9 1.9 1.8 1.4 3.7 3.9-.3 5.8.4 9.4 0 1.4-1.8-3.1-4.7.7-6.3h2.2l.1-.3c.6.2 1.2.3 1.8.3.9 0 1.7-.2 2.4-.3.2 0 .4-.1.5-.1h.1c.3.2.8.1 1-.1.2-.2.2-.6-.2-.8l-.6-.3-.3.1c-.3 0-.6.1-1 .2-.9.2-1.7.4-2.5.3-.8-1.2-4.8 0-4.3-2.1 4.9-1.4 12.2-1.5 17.3-2.1s13.4 0 13 4.7l.1.1c-.3-.1-.7-.1-1-.1-.4-.1-.8.1-.9.5s.2.6.6.7c.2 0 .4 0 .5.1.6 1.1 2.1 1.5 3.5 2 2.3-2.7 10.2-.7 15.1-.5 1.7-2.1 6.2-2.2 7.9-4.2 4 2.1 9.3.1 12.9-1 .3 0 .7.1 1.1.2.6.1 1.2.3 1.9.3.2 0 .4 0 .6-.1 6.5 1.6 10.6-.7 16.5-.5.1-.6-.1-1.5.7-1.6 4.4-.4 6.8 1.1 9.4-.5-3.5-1.2 1.3-4.8 4.3-4.7.1 2.1.9 2.2 2.9 3.7 9.7-.8 20.8-4.3 30.2-1.1 12.3-.8 23.4-2 35.3 0 6.9-.9 14.5-.5 21.6-.5 5 0 10.2 0 14.4 1 2.5-1 6.4-1.5 7.9 0 7.8-1.5 15-.5 21.6-1 2.5-.2 4.7 1 7.2 1 6.6.2 14-1.4 21.6 1-6.2 4.2-19.1-1.6-25.6 2-4.5-.2-9.1-.3-13.5-.4l-13-.3c-.2 0-.3 0-.5.1-9.7-1.5-24.1.2-30.9-1.3-3.2 2.9-8.7-3.1-10.8 3.2v.1h-.1c-1.3.7-2.6.7-4.2.6h-2.3l.1-.2c-2.5-.1-3.7-1.1-3.6-3.1-3.7.6-4.5-.2-6.5.5 2.6 1.6-3.3 1.4-2.2 3.7 3.8 1 9.7-.7 12.2 2.1-.2-.9.7-1.1.7-1.9h1.5c1.5 0 3 .1 4.6-.6 1.8.9 3.8 1.5 6.2 2 1.4-.2.6-2 2.9-1.6 12.4 2.6 19.5-3.2 29.5 0 1.6 0 1-1.7 2.7-1.7.1 0 .3.1.5.1h.5c4.2.2 8.5.2 12.6.3 4.5.1 9.1.2 13.6.4h.5c.2.8 2.3.3 2.1 1.5-1.6.8-3.9 1-5 2.1.9.1 1.7.2 1.4 1 3.3-.2 7.3-1.2 9.4.5-1.1 3.4 2.8 3.2 4.3 4.7 5-.4 5.1-4.3 9.5-5.1h.5c.1 0 .2-.1.2-.1h.6l-.2-.1c1.3-.4 2.6-.2 4-.1 1.1.1 2.3.2 3.5.1.3 1.7-1.3 1.9-.7 3.7 5.5 4.4 19.1 5.3 26.6 1.6-1.8.1-2.2-.8-2.9-1.6.5-2.7 6.1-3.1 7.2-3.7-1-.5-2.3-.8-2.2-2.1 3.8-1 8.6-1.9 13 .5.9 2.1-2.4 1.1-1.4 3.2 1.3.8 5.8.8 7.2 0 .3 0 .7 0 1.1.1 3.5 1.1 10.6-1.2 7.6 3h.1c-2.3.5-4.7.5-7.2.5h-2.7c-.6 0-1.1.4-1 .8 0 .4.5.8 1.1.8h2.6c2.6 0 5.3 0 7.8-.6 3.6.7 8.2-1 11.5 0 .5-1.6-2-1-1.4-2.6 4.9-1.5 11.8-1.5 14.4-4.7 5.6.1 8.4.7 12.2-1.1l-.1-.2c.7.2 1.4.3 2.2.3 1.1 0 2.2-.2 3.2-.5l-.1.2c-.1.1-.2.3-.2.5 0 .5.1 1.1.2 1.7-1.3.4-2.8.6-4.3.7-1.6.2-3.2.3-4.7.8-.6.2-.9.7-.6 1.1.2.3.6.5 1.1.5.1 0 .3 0 .4-.1 1.3-.4 2.7-.5 4.2-.7 1.8-.2 3.6-.4 5.3-1 .7-.1 1.6-.2 2.6-.2.7 0 1.2-.4 1.1-.9 0-.5-.6-.8-1.2-.8s-1.4.1-2.2.2c-.1-.5-.1-.9-.2-1.4.4-.5 1.8-.2 2.8-.3.5-1.4-.8-1.4-.8-2.4.2-.3.5-.6.7-.9l.1.1c4.9.1 9.4-1.5 13.7-2.1 1.3-.2 2.3.6 2.9.5 1.2-.1 1.9-1.1 2.9-1 7.6 0 13.2 2.6 20.2 1.6 1-.1 1.2-1 2.2-1.1 1.6-.1 4.6 0 6.5 0 1.4 0 1.4.9 2.9 1.1.6 0 2.1-1.2 2.9-1.1.6.1.8 1 2.2 1.1 3.2.2 6.7-.7 10.1.5-.6.8-1.8 1.1-3.6 1l.1.3c-.4-.2-.7-.3-1.1-.3-.2 0-.5.1-.5.3-.1.2.1.4.4.4.1 0 .3.1.5.1.3 1.5 1.1 2.5 2.1 3.5-1.3.3-3 .3-3.6 1-.3 0-.5.1-.8.1v-.1c-4.6-.6-5.8 1.3-9.3 1.6-1.2-.7-2.8-.7-4.2-.6h-.5c-.3 0-.5.2-.5.4s.2.3.5.3h.5c1.4 0 2.7-.1 3.6.5h-.2v1.6c-2 .1-6.1.4-7.9 0 .5 1.9 1 4 2.9 4.7 2-.1 6.6.1 9.3-1.5.8 0 1.6-.1 2.2-.2v.2c.8-.1 2 .1 2.2-.5-1.3.5-2.3-1.4-2.8-.2-.4.1-1 .1-1.5.1.2-2.9 3.9-3.3 6.3-4.6h.9c1.8 2.9 6 .7 9.4.5 3.8-.2 7.8 1.4 10-.5 2.2.6 4.5.7 6.8.7h4.8c6.2 1.7 11.3 1.3 17.2-.2 3.9 1.5 8.7.6 13 1.6 1.1-2.5-.6-1.3-.7-3.7 4.6-2.3 9.9-3.6 18-2.6 2.1 3.2 9.6 8.4.7 9.5-1.5-.1-1.4-1.4-2.9-1.6 0 .9-.6 1.3-1.5 1.6-1.8-.4-2.3-1.8-3.6-2.6-2.5 1.4-5.6.8-6.5 4.2 4.7 3.8 14.3 4.1 22.3 3.2-.7-.5 3.2-2.7 5-1.6 2.7-3.8 14.9-1.7 20.2-1 1.7 1.2-1 1.4-1.4 2.5-.6.1-1 .2-1.5.4-.3.2-.4.5-.2.7.1.2.4.3.6.3.1 0 .3 0 .4-.1.4-.2.8-.2 1.5-.4l-.1.2c2 .3 3.7.8 5.8 1 1.7-4.7 12.2-2.9 15.8-6.2.7 0 1.2.3 1.9.9.8.6 1.8 1.3 3.3 1.3.4 0 .8 0 1.3-.2h.1c1.3 2.3 1.6 3.8 3.6 6.3 7.9 1.3 18.2 1.3 26.4.1-1.7 0-1.2-1.5-1.2-2.8 2-1.2 6.3-.6 8.8-1.4h.9c2-.1 4.2-.2 6.2 0 .8 1.5 2 2.7 1.4 5.1 5.7 2.9 15.6 4.2 21.6 2.6.8-3.2 7.5-2 8.6-3.7-.7-.6-2.6-.2-2.2-1.6 4 .6 8 .2 10.5-1.4h2.2c1.9-.1 3.7-.1 5.3.2.1.3.1.7.6.7v.1c0 .5 0 1.1.1 1.7-1.4.8-2.7 1.2-4 1.1-.6 0-1.1.3-1.2.7s.4.8 1 .9h.7c2.1 0 3.7-.7 5-1.5h.5c.4 0 1 .1 1.8.1.7 0 1.2-.4 1.2-.9s-.5-.9-1.2-.9h-1c-.1-.4-.1-.7-.1-1.1v-.2c.1-.3.4-.5.6-.7h.6c1.2 0 2.5-.1 3.7-.7.6 0 1.2.1 1.9.1 1.5 0 3-.1 4.4-.2 1.9-.1 3.7-.3 5.5-.2.3.3 1.2.3 2 .3-.8.8-.8 1.3 0 2.1 2.6-.4 6.3.1 8.6-1.6.3.6.8 1.2 1.4 1.6 1.2-1.2 3.7-1.5 5-2.6.5 0 .9.1 1.3.1.3 0 .5.1.8.1h.1c.5 0 .9-.3 1-.6.1-.4-.3-.8-.9-.8-.2 0-.4 0-.6-.1-.4-.1-1-.1-1.6-.2.1-.7.2-1.3.2-1.8l.5.1c2.5-.8 2.2-3.6 6.5-3.2 2.3 0 .5 3.1 3.6 2.6 2.8-.4 1.9-3.5 5.8-3.1 1.2 2.6 4.7 2.2 7.9 2.1-.4-1.9.6-2.7 2.2-3.1h4.3c1.2 1.4-.5 2 1.4 3.1 2.2.4 2.1-.9 4.3-.5 1.4-1 .1-1.3 0-2.6 5.9-3.1 8-.5 15.1-1.1 1 .3.1 2 1.4 2.1 1.4-1.9 4 .4 5.8-1-1.9-.5.6-1.9 1.4-2.1 4.2-.4 4.9 1.7 7.9 2.1 3.1-.5 6.1-2.2 9.4-1.1 2.5-3.1 9.5 0 10.1-4.7.3 0 .6-.1.9-.1.6 0 1.2-.1 1.9-.3.4-.1.5-.4.4-.7s-.6-.4-.9-.3c-.5.1-1 .2-1.5.2s-1 .1-1.6.2l.1-.2c-1.3-.1-2.4-.3-2.9-1 .4-.9 2.2-.9 2.9-1.6v-.1c.8.2 1.6.2 2.3.2 1.7 0 3.1-.5 3.9-1.4.3 0 .6.1.9.2.8.2 1.8.5 2.8.3.5-.1.8-.4.7-.7-.1-.3-.5-.6-1-.5-.6.1-1.2-.1-2-.2-.6-.2-1.2-.3-1.8-.3h-.6l-.2.4c-.8 1.4-3.2 1.1-4.6.9-3.5-2.1-8.8-1.4-13.3-.3-.2-1.2-.9-2.2-1.4-3.2-2.3 1.3-3-.7-5.8-.5-2.2.1-4.4 2.1-7.2 2.6-4.2.8-10.9-.4-11.5 1.6-.7-.7-.7-2-2.2-2.1-.1 1-.5 1.8-1.4 2.1-7.1-.5-8.2-1.8-14.4 0v.1c-.5-.1-1-.2-1.4-.2-.6-.1-1.2.2-1.3.6s.3.9.9 1c.4.1.9.1 1.3.2 3.9 1.3 11.1-.3 12.7 1.5-4.9 3-15.8 1-20.2 3.2-3.1-1.9-8.6.8-11.5-1.6l-.3-.1c.4-.7.3-1.4.1-2.1h.2c.1-.6.8-.8 1.4-1.1v-.1c.7.1 1.4.1 2.1.1h.8c1.4-.5 3.1-.9 3.6-2.1-1 0-1.6-.2-2.2-.5h-.2c.2-.2.5-.4.8-.6 0 0 .1 0 .1-.1v.1c14.9-.6 29.1-2.8 37.4-5.2 2.2-.4 1.4 1.4 3.6 1 6.6-1.5 12.6-.4 17.3-1 1.1-.2 2.5-1 3.6-1 2.8 0 5.1 1 7.9 1 6.1 0 15-.5 20.2-3.2 4.8-.1 5.8-.6 12.2-1 3.7 1.2 3.7 3.9 5 5.8 4.5-.8 8.1-2.7 12.2-1.1 2.6-3.7 7.9-2 13-2.1 4.1-.1 8.6-1.3 10.8-2.1 2.7-1 4.7-1.5 7.2-3.2 5.8 3.2 8.9-6.1 15.8-2.1 1.6-1 1.5-3.1 3.2-3.8z"/><path d="M1475.557 156.099l.1.2c-.6 0-1.1.2-1.5.4-.7.2-1.1.3-1.3.2-.4-.2-1-.1-1.2.2-.3.3-.1.7.3.9s.8.3 1.2.3c.7 0 1.3-.2 1.9-.4.2-.1.5-.2.7-.2v.1c2.4 1.1 5.2-.4 8.5-.6v-2.6c-3.7 0-7.1 0-8.7 1.5zm-995.6-42v1h1.4v-1h-1.4zm13.6-13.7v1h1.4v-1h-1.4zm9.4-4.7v1h1.4v-1h-1.4zm61.9 23.1v1h1.4v-1h-1.4zm-84.9-4.7v1h1.4v-1h-1.4zm13.6-13.7v1h1.4v-1h-1.4zm9.4-4.7v1h1.4v-1h-1.4zm61.9 23.1v1h1.4v-1h-1.4z"/></svg>