<svg xmlns="http://www.w3.org/2000/svg" viewBox="0 0 1999 96"><path d="M0 30.5h.5v-1.3H0zM.3 73.6h.2v-.8H.4M.4 47.4s.1 0 0 0l.1-3.1M.4 3.4v9.8m.1 9.3V.2h1998.4V0H.4M387.7 94.4c7.4 4.1 3.5-2.9 0 0M353.1 94.4h1.7c0-.7.7-.8.9-1.3-1.4 0-3-.1-2.6 1.3M489 91.7c0 .9-1.5.6-1.7 1.3 1.1 0 1.2.9 2.6.7-.2-.7.1-1.9-.9-2M328 92.4c2.9 2 2.6-2.5 0 0M244.9 89.7c-.6 2.3 1.4 2.5 3.5 2.7-.4-1.5-1.5-2.4-3.5-2.7M550.4 91.7c2.1.1 4.2.1 4.3-1.3-2.1-.1-3.5.3-4.3 1.3M291.7 91.7c1.3-.1 3.2.2 3.5-.7-1.2-.8-3.3-.8-3.5.7M284.7 91.1c1.2.2 1.7 1 3.5.7.6-2.4-3.3-2.7-3.5-.7M282.1 91.1c-4.7-1.8-4.3 2.3 0 0M221.6 90.4c-1.3 2 4.5 1.8 4.3.7-1-.6-2.3-.9-4.3-.7M445.7 89c-1.3 2 4.5 1.8 4.3.7-1-.6-2.3-.9-4.3-.7M521 87c-.9 1.7-1-.6-.2-1.2-1.8.8-5.8 0-7.3 1-1.8-.5-2.9-.1-3.3 1.2 1 .5 2 .5 3.1-.1-.2 3.1 10.2 1.8 7.7-.9M496.8 89.7c2 .2 3.2-.2 3.5-1.3-1.6.1-4.4-.7-3.5 1.3M480.3 87.7c0 2 4 2.3 5.2 1.4.8-2.5-3.4-1-5.2-1.4M475.1 89c1.2.2 1.7 1 3.5.7v-2c-2-.2-3.3.2-3.5 1.3M505.4 87.7h-1.7c-1.3 1.7 2.9 2 2.6.7-.5-.1-1-.1-.9-.7"/><path class="st4" d="M116.8 89h2.6v-1.3h-2.6z"/><path class="st6" d="M87.4 88.4c1.6-.6 2.9 2 3.5 0-.6-.2-3.4-1.7-3.5 0"/><path class="st8" d="M79.6 89c-1.3-3.6-5.5-.3 0 0"/><path class="st10" d="M67.5 86.3c-1.4-.2-9.8-1-10.1.5-.3 1.5 9.1 1 9.3 1 .7 2.1 5 .8 6.9.5 1-2.5-6-2.4-6.1-2"/><path class="st12" d="M323.7 86.3h-6.1c.8 2.4 5.8 2.3 6.1 0"/><path class="st14" d="M189.5 87.7c2 .2 3.7 1.4 4.3-.7-2.7.4-3.5-1.6-4.3.7"/><path class="st16" d="M568.6 82.3v2l.1.1c-4.7-.1-9.6.1-14 1.8-1-1.7-5.9-2.8-6 .1.8 1.4 3.3 1.5 6 1.3l-.1-.2c4.6-1.7 9.2-2 14.1-2l-.1.1c2.7.9 6.1 2 6.9-.7-3.1-.1-2.3-3.4-6.9-2.5"/><path class="st18" d="M308.1 85.7h-1.7c-1.4 1.7 2.9 2 2.6.7-.6-.1-1.1-.1-.9-.7"/><path class="st20" d="M245.8 86.3c-2-.2-3.6-.8-5.2-1.3-.6 1.9 4.3 2.8 5.2 1.3"/><path class="st22" d="M232.8 86.3c-1.1-.9-4.2-1-4.3.7 1.2-.3 4.5.8 4.3-.7"/><path class="st24" d="M7.8 85.7c2 .2 3.3-.2 3.5-1.3-2-.3-3.3.1-3.5 1.3"/><path class="st26" d="M589.4 83c.3 1.8-4.8-.6-3.5 2 1.3-.2 6.3-.9 3.5-2"/><path class="st28" d="M1.7 85c1.3-.4 4.5.8 4.3-.7-1.2.4-4.4-.8-4.3.7"/><path class="st30" d="M593.7 83.7c1.1 0 1.2.9 2.6.7 1.4-1.7-2.9-2-2.6-.7"/><path class="st32" d="M1115.6 81.6c2.2 1.2 2.6-.3 5.2.7.4-2.2-5-2.8-5.2-.7"/><path class="st34" d="M1129.4 81.6c3.1-.1 7 .5 6.9-2-2.9.2-7.5-.9-6.9 2"/><path class="st36" d="M354.8 81.6c1.3-1.7-2.9-2-2.6-.7 1.2.1 1.2.9 2.6.7"/><path class="st38" d="M344.4 81c4 0 4.4 1.3 6.9-.7-3.7.5-5.3-1.5-6.9.7"/><path class="st40" d="M336.7 80.3c1.9.6 3 1.7 6.1 1.3-.1-2.6-5.1-3.2-6.1-1.3"/><path class="st42" d="M221.6 79h-4.3c-.8 2.2 2.8 1 3.5 2-.1-1 .3-1.5.8-2"/><path class="st44" d="M204.2 80.3c2.2.5 3.6.7 5.2-.7-2.1-.4-3.5-.6-5.2.7"/><path class="st46" d="M188.7 80.3c.5 1.4 5.6.8 5.2-.7-1.5.1-5.5-2.2-5.2.7"/><path class="st48" d="M184.3 80.3c1.1.9 3.2.9 3.5-.7-1.3.1-3.2-.2-3.5.7"/><path class="st50" d="M678.1 76.7c-2.6 0-27.7.2-27.3 2.4.3 1.5 25.5-.4 27.8-.4l-.1.2c3.8.7 9.4 2.9 9.5-2-1.6-.8-7.7-1.2-9.9-.2"/><path class="st52" d="M335.8 79.6c-4.2-1.7-8.9 2.3 0 0"/><path class="st54" d="M320.2 79.6c.3 0 4.1 1.3 5.2 0-2 .5-5.5-2.8-5.2 0"/><path class="st56" d="M317.6 80.3c.4-2.1-1.9-2.1-4.3-2-.4 2.1 1.8 2.1 4.3 2"/><path class="st58" d="M298.6 80.3c2.5-.1 5.9.6 6.1-1.3-2.1-.5-6.5-1.8-6.1 1.3"/><path class="st60" d="M272.6 79.6c4.8 1.8 4.4-2.4 0 0"/><path class="st62" d="M267.4 79.6c5.6.8 1.9-2 0 0"/><path class="st64" d="M1662.5 77.6c1.3 0 3.5 2.5 4.3.7-.9-.2-3.2-2.7-4.3-.7"/><path class="st66" d="M916.5 76.9c-2.2.1-4.1.4-5.2 1.3 2 1.6 3.8-.4 5.2-1.3"/><path class="st68" d="M791.9 74.9h-6.1l.1.2c-6 .5-13.3-1.6-19.2.2-3.4-1-9.2-.3-10.3 1.7 1.6-.1 2 .7 1.7 2 3.5-.4 9.2.9 11.2-.7-.9-.1-1.8-.2-1.8-1 5.8-.6 11.6.3 17.4 0 .5 1.9 7.8 1.1 8.6.3-1-.4-1.5-1.4-1.6-2.7"/><path class="st70" d="M1659.1 77.6c1.1 0 1.2.9 2.6.7 1.3-1.7-3-2-2.6-.7"/><path class="st72" d="M1644.4 76.9c1.6 1 2.9 1.8 4.3 0-.5-.4-4.1-1.5-4.3 0"/><path class="st74" d="M934.7 78.3c2.3-.3 4.7-.4 6.1-1.3-2.7 0-6.2-2-6.1 1.3"/><path class="st76" d="M830 75.6c-2-.2-3.2.2-3.5 1.3 1.3.3 2.2 1 3.5 1.3.1-1.8-1.5-1.3 0-2.6"/><path class="st78" d="M1636.6 75.6c-.9 2.3 1.2 2.2 3.5 2 .2-1.8-1.3-2.2-3.5-2"/><path class="st80" d="M848.2 74.3c-4.5-.1-8.5.1-11.3 1.3-.9 2 8.6 2.9 12.1 1.3.6-2.1-3.1-.9-.8-2.6"/><path class="st82" d="M1595 74.3l.1.2c-1.8.2-14-.1-13.7 1.6.3 1.8 11.8.4 13.7.2v.1c.7 1.3 6.4 1 6.1-.7-2-.7-3-1.8-6.2-1.4"/><path class="st84" d="M1518.9 75.6c-1.1 2.2 5.8 1.7 6 .7-2.3 0-4.9.2-6-.7"/><path class="st86" d="M997.9 76.9c1.3-.4 4.5.8 4.3-.7-1.3.4-4.5-.7-4.3.7"/><path class="st88" d="M830.8 76.3c2.2-.7 4.1 2 5.2 0-.6-.6-4.8-1.5-5.2 0"/><path class="st90" d="M609.3 74.3c-2.3-.2-2.8.9-2.6 2.7 2.3.1 2.8-1 2.6-2.7"/><path class="st92" d="M1343.2 75.6c8.3 1.9 5.4-1.7 0 0"/><path class="st94" d="M529.7 75.6c-.7.2-1.7 0-1.7.7 3.1-.1 7 .5 6.9-2-3 .3-4.9-.3-6.9-.7-.3 1.3 1.1 1.3 1.7 2"/><path class="st96" d="M906.1 73.6c3.6-.1 12.3 3.6 14.7 0 1.9-2.9-13.6-3-14.7 0"/><path class="st98" d="M185.2 75.6c1.3-2.1-5.7-2.1-4.3 0h4.3z"/><path class="st100" d="M258.8 74.3c8.5 0-4.2-.1 0 0"/><path class="st102" d="M207.7 74.9c.8-1.8 3.2 1.3 3.5-1.3-1.8-.4-6.5.2-3.5 1.3"/><path class="st104" d="M438.8 72.9c-2.3 0-4.9.3-6.1-.7-.1 2.1 5.8 2.9 6.1.7"/><path class="st106" d="M393.8 72.2c-1.6.3-5.2-.9-4.3 1.4 1.5-.4 3.6-.4 4.3-1.4"/><path class="st108" d="M1414.2 72.9h1.7v-1.3h-1.7z"/><path class="st110" d="M1407.2 70.2c-1.3 3.6 5.2 3.1 6.1 1.3-1.9-.5-2.9-1.7-6.1-1.3"/><path class="st112" d="M694.1 70.2c-.2 1.4-3.2.6-3.5 2 1.6-.6 2.9 2 3.5 0-3.1-.2 3.7-1.3 0-2"/><path class="st114" d="M346.2 71.6c-1.5 0-2.7-.2-3.5-.7-1.4 1.9 3.8 1.8 3.5.7"/><path class="st116" d="M1506.8 71.6h3.4v-1.4h-3.4z"/><path class="st118" d="M722.7 68.9c.8-1.2-3.2.2-2.6.7.7.5 2.4-.5 2.6-.7"/><path class="st120" d="M127.2 68.9c.1-.9 1.1-.9.9-2h-1.7c-1 .9-1 1.6.8 2"/><path class="st122" d="M121.2 68.9c.1-1.3 2.9-.5 2.6-2-1.1-1.7-5.5.8-2.6 2"/><path class="st124" d="M923.9 63.8c-1.2-.4-3.7.2-3-1.7 1.8-.2 3.1.1 3.4 1.1-.2.2-.3.4-.4.6m9.9 1c-1.8-.8 2.4-1.8 2.6 0 .3-1.6 1.4-2.5.9-4.7 1.1-.2 5.3.5 5.9-.6 1.3-2.3-6.3-1.2-6.8-1.1l.1-.3c-12.1 1.1-19.8.8-29.4 2.7-.8 0-1.8.3-2.6.5-.1.6-.9 2.3.3 2.4.8-.2 1.2-.7 1-1.5.4-.1.8-.2 1.3-.2l-.1.1c-.6 3.1 3.3.9 3.5 2-.6 1.4-4 .4-4.3 2 3.6 2.9 14.7 1.4 18.2 0l-.1-.1c1.2-.3 2-1.5 2.5-2.6h.2c2.4-.7 5.3 2.2 6.8 1.4"/><path class="st126" d="M893.2 66.9c1.7.3 2.2 1.4 4.3 1.3 1-2.7-4-3.6-4.3-1.3"/><path class="st128" d="M872.4 67.5c2.1-.9 3.6 2 4.3 0-1.6-1-2.9-1.8-4.3 0"/><path class="st130" d="M517.5 66.2c.1 1.9-5.3-.6-5.2 1.3 1.1 1.5 8 0 5.2-1.3"/><path class="st132" d="M114.2 66.9c-2.3 1.1-4.1-1.1-5.2 1.3 1.8-.4 6.1 1.1 5.2-1.3"/><path class="st134" d="M105.6 68.2c.5-2.7-3.6-2.1-4.3-.7 2.4-.5 2.2 1 4.3.7"/><path class="st136" d="M1409.8 65.5c-.1-1.7-1.3-2.6-3.5-2.7.9 2.5-3.2 1.1-2.6 3.4 3.3.3 4.1.9 6.1-.7"/><path class="st138" d="M1402 65.5c-.7-2.3-3.7-3-6.1-4 .2 1.5-.2 2.5-1.7 2.7l.1.1c.2 0-4-.9-4.1.5-.1 1.1 4.5 1.2 4.1 1.1l-.1.3c1.8.9 5.9-1.1 7.8-.7"/><path class="st140" d="M1029.9 65.5c.5.4 4.1 1.6 4.3 0-2.1.9-3.6-2-4.3 0"/><path class="st142" d="M938.2 62.8v3.4c3.2.5 2.2-2.4 3.5-3.4-2.4 0-1.8 1.1-3.5 0"/><path class="st144" d="M612.7 65.5c-1.9-.5-5.5.7-1.7.7 1.8.6 5.4-.6 2.6-1.3 0 .3-.1.7-.9.6"/><path class="st146" d="M274.4 65.5c-2 0-2.6-1.2-5.2-.7-1.3 2.2 5.1 1.7 5.2.7"/><path class="st148" d="M958.9 64.2c-2.7.1-5.2-1.8-5.2 1.3 2.5.1 4.4-.2 5.2-1.3"/><path class="st152" d="M1381.3 64.8c3.2.3 2.7-2 .9-2.7.1 1.3-1 1.5-.9 2.7"/><path class="st154" d="M1372.6 62.1c0 1.2.7 1.7 1.7 2 1.3-.9 1.3-2.5-1.7-2"/><path class="st156" d="M.9 63.5H.5v.7c.3-.2.5-.4.4-.7"/><path class="st158" d="M993.5 62.1c-1.4.1-3-.1-2.6 1.3h1.7c.1-.6.8-.7.9-1.3"/><path class="st160" d="M888 63.5c5.5.8 1.9-2.1 0 0"/><path class="st162" d="M887.1 63.5c.1 0-.1-.6 0-.7 4.1-3.6-4.2 1.3 0 .7"/><path class="st164" d="M1834.8 62.8c2 .2 3.3-.2 3.5-1.3-1.7.1-3 .4-3.5 1.3"/><path class="st166" d="M899.2 61.5c1.2 0 1.9.3 2.6.7v-1.3c-1.2-.9-2.1-.8-2.6.6"/><path class="st168" d="M648.2 61.5c.4-1 1.3-1.7 1.7-2.7-2.6-.5-2.5 1.2-5.2.7-.7 2.1 2.9.9 3.5 2"/><path class="st170" d="M946 60.1h3.4v-1.3H946z"/><path class="st172" d="M1323.3 56.8c-2.4-.1-1.7 1.1-3.5 0 .4 1.5 1.5 2.4 3.5 2.7 1.4-1.4-.1-.9 0-2.7"/><path class="st174" d="M748.6 59.5c1.5-.2 4.3.7 3.5-1.3-2-.3-3.3.1-3.5 1.3"/><path class="st176" d="M1184 58.8c1.4-1.6-2.9-2-2.6-.7 1.1 0 1.1.9 2.6.7"/><path class="st178" d="M673.3 58.8c0-.7.7-.8.9-1.3-1.4.1-3-.1-2.6 1.3h1.7z"/><path class="st180" d="M1196.1 56.8c1 .6 2.3.9 4.3.7 1.3-2.1-4.5-1.8-4.3-.7"/><path class="st182" d="M810.1 56.1c-1.4 1.7 2.9 2 2.6.7-.5 0-1-.1-.9-.7h-1.7z"/><path class="st184" d="M1887.6 55.4c1.2.2 1.6 1 3.5.7.2-2-3.4-2.6-3.5-.7"/><path class="st186" d="M1100 56.1c1.8-.4 5.7.8 6.1-.7-2.3-.6-4.9-1.1-6.1.7"/><path class="st190" d="M1131.2 55.4c5.5.8 1.9-2 0 0"/><path class="st192" d="M888.8 54.7c1.4-.1 3 .1 2.6-1.3-1.5 0-2.2.5-2.6 1.3"/><path class="st194" d="M1423.7 52.1h-2.6v2h1.7c.1-.9 1.1-1 .9-2"/><path class="st196" d="M1029.9 54.1h1.7v-1.4h-1.7z"/><path class="st198" d="M1934.3 50c-2-1.9-8-3.1-9.5 0-1.8-.2-3 .5-3.4 2.1 1.4.8 2.8.7 4.3-.2v.1c3.1-.4 7.4 0 8.6-2"/><path class="st200" d="M242.3 50.7c-1.1 2.2 5.8 1.6 6.1.7-2.8.4-4-.5-6.1-.7"/><path class="st202" d="M1538.8 50.7c.9 0 1 .5 1.7.7 2.4-1.1-1.2-2.3-1.7-.7"/><path class="st204" d="M954.6 50.7c-3.3-1.8-3.8 2.5 0 0"/><path class="st206" d="M301.2 50.7c1.3.9 6.9 1.4 6.9-.7-2.1.4-6.3-.8-6.9.7"/><path class="st208" d="M1594.2 48.7c-3.5.6-3 .1-6.9 0-.3 2.7 7.1 2.7 6.9 0"/><path class="st210" d="M973.6 49.4c-2-.2-3.3.2-3.5 1.3 2.1.2 3.3-.2 3.5-1.3"/><path class="st212" d="M1012.6 49.4c-2.9-2.1-2.6 2.5 0 0"/><path class="st214" d="M386.9 49.4c.7-2.4-6.5-1.6-6.1 0 3.1-.6 4.2 1.5 6.1 0"/><path class="st216" d="M1487.7 47.3c-1.3-1.1-4-.3-5.2.7 1.6-.4 5.1.8 5.2-.7"/><path class="st218" d="M1433.2 47.3c-1.3.4-4.5-.8-4.3.7 1.2-.3 4.5.8 4.3-.7"/><path class="st220" d="M1427.1 47.3c-.5-.2-3.3-1.7-3.5 0 .6.3 3.4 1.7 3.5 0"/><path class="st222" d="M1974.9 46.1c.3 0 .7-.1 1-.1 2.6 1.7 7.2-.6 10.3-.7-1.2-3.1-7.4-2.9-10.3-1.4-.6 0-1.2.1-1.8.1v-.1c-2.6 0-4.4.6-5.2 2 .7.7 5.3 1.5 6 .2"/><path class="st224" d="M1558.7 46c.6-2.3-3.3-2.6-3.5-.7 1.7-.1 1.9.8 3.5.7"/><path class="st226" d="M341 44.7c-1.1-1.3-5.4-1.7-6.1.7 3.3-.8 5.4 1.7 6.1-.7"/><path class="st228" d="M399.8 43.3c-1.7.3-3.7.2-3.5 2 2.3.2 2.8-1 3.5-2"/><path class="st230" d="M1942.1 42c-1-.1-2-.2-1.7-1.3-3.9-.1-6.8.5-8.7 2 3 1.1 9.9 3.4 10.4-.7"/><path class="st232" d="M315.9 44c4.1 1.9 2.1-2.2 0 0"/><path class="st234" d="M218.1 43.3c-1.5.4-5.1-.8-5.2.7 1.4 1.1 4 .3 5.2-.7"/><path class="st236" d="M45.9 44c5.5.8 1.9-2.1 0 0"/><path class="st238" d="M1212.5 43.3c1.8-.4 5.7.8 6.1-.7-1.8.4-5.7-.8-6.1.7"/><path class="st240" d="M144.5 42.7c-.5-.4-4.1-1.6-4.3 0 .5.3 4.1 1.5 4.3 0"/><path class="st242" d="M313.3 42c5.5.7 1.9-2.1 0 0"/><path class="st244" d="M235.4 42c2 .2 3.2-.2 3.5-1.3-1.6.1-4.4-.7-3.5 1.3"/><path class="st246" d="M181.8 42c4.4-1.7-3-1.8 0 0"/><path class="st248" d="M154.9 40c-4.4-1.9-3.2 2.3 0 0"/><path class="st250" d="M123.8 39.3c5.5.8 1.9-2.1 0 0"/><path class="st252" d="M448.3 35.2c-1.2-.9-3.2-.9-3.5.7 1.3-.1 3.2.3 3.5-.7"/><path class="st254" d="M103.9 35.2c4.7 1.8 4.3-2.3 0 0"/><path class="st256" d="M1145.9 35.2c5.5.8 1.9-2 0 0"/><path class="st258" d="M97.8 33.9c-1.5.4-5.1-.8-5.2.7 1.4 1.1 4.5.6 5.2-.7"/><path class="st260" d="M385.1 34.6c7.4.8 3.7-2.1 0 0"/><path class="st262" d="M377.3 33.2c-1.3-1.1-4.9-1-4.3 1.3 1.6-.3 3.6-.3 4.3-1.3"/><path class="st264" d="M314.2 34.6c5.5.8 1.9-2.1 0 0"/><path class="st266" d="M1391.7 32.6c2.2.1 4.2.1 4.3-1.3-1.6.2-5.2-1-4.3 1.3"/><path class="st268" d="M31.2 31.9c1.4-.1 3 .1 2.6-1.3-1.5-.1-2.3.5-2.6 1.3"/><path class="st270" d="M225 30.5c5.6.8 1.9-2 0 0"/><path class="st272" d="M.5 30.5h3v-1.3h-3z"/><path class="st274" d="M333.2 29.9c1.3-1.7-2.9-2-2.6-.7 1.1 0 1.2.9 2.6.7"/><path class="st276" d="M80.5 28.5c-2.7-.1-5.2 0-6.1 1.3 2-.4 6.8 1.3 6.1-1.3"/><path class="st278" d="M51.1 28.5c0-.7.7-.8.9-1.4-1.3.1-3-.1-2.6 1.4h1.7z"/><path class="st280" d="M28.6 28.5c.1-.8 1.5-1.5 0-2-.2.8-1.6 1.5 0 2"/><path class="st282" d="M17.3 27.8c.2 1 1.4.1 1.7-.7-2-1.5-9.8 1.4-1.7.7"/><path class="st284" d="M36.3 27.2c-.9 0-1-.5-1.7-.7-2.3 1.1 1.3 2.3 1.7.7"/><path class="st286" d="M32.9 27.2c0 .1-2.9-.4-2.6-.7-2.1 1.6 2.8 1.7 2.6.7"/><path class="st288" d="M5.2 27.8c7.4.9 3.7-2 0 0"/><path class="st290" d="M1241.1 17.8c4.1 1.8 2.1-2.2 0 0"/><path class="st292" d="M753.8 75.6c-3.2-1.5-6.9-.2-10.4.7l.1.1c-10.5 2.1-21.8-2.7-32-.3-5.1-.6-12.8-.9-14.6 1.4-.7 0-1.2.3-1.5.9.7.7 1.4.8 2.3.4l-.1.1c3 .5 11.3 1.7 14.7-.7l-.1-.2c10.6-.4 21.3 2.4 31.9.3 3 .6 8 3 12.3.6-2.9-.4-3.5-3.7-2.6-3.3"/><path class="st294" d="M1488.6 76.3l.1.2c-2.4-.4-21.1-.6-21.4.7-.3 1.4 19.1.5 20.8.7 1.8 1.1 7 .4 7.4-.9-1.7-.9-4.8-2.3-6.9-.7"/><path class="st296" d="M822.2 74.3c-4 .2-7.6.7-13 0v.1c-1.1-.2-9.6 0-9.6 2 .1 2 8.2-.1 8.7 0 3 3.4 11.1 2 15.5.6-2.4-.7-.1-2.5-1.6-2.7"/><path class="st298" d="M462.2 78.3c2.3 0 4.9.2 6-.6.5 0 1.2.1 1.8-.1 1.6.7 6.2 1.8 7.7.1.3 0 .6-.1.9-.1 2.2.2 20.7-.5 20.7-2.3 0-1.6-18.2.7-19.7.6.9-1.2-1-1.3-1.7-.2-.3 0-.7.1-1 .1v-.1c-1.6.1-4.8-.7-6.9-2-.1.7.1 1.8-.7 2-.6 0-1.3-.1-1.9.1-1.3-.6-6-2-6.9-.7 4.1-.8 1.9 1.8 1.7 3.2"/><path class="st300" d="M776.3 66.9c2.6-2.5 2.9 2 0 0M747 70c-.2 0-.5 0-.8-.1.7-1.8-.1-1.4-.1-3.7 1.6-.1 1.9.8 3.5.7-.8 1.1-2.1 1.8-2.6 3.1m-12.2-3.8c-1-.1-1.5.2-1.7.7-1 .2-1-1.5-.9-2 1.3.3 2.2 1 3.5 1.3-.2.7-.9.3-.9 0m105.6 0c3.9-2.7 11.7.5 18.2-2.7l-.4-.2c.8-.1 3.5.4 4-.2-.3.4-23.3-1.7-26.6-.4-.7.1-1.4.2-2.2.3v-.1c-35.7-3.8-70.9 1.8-103.9-1.3-7.9 2.3-22.5.5-26.6 3.8 0 0-2 .1-2.7.4l-.1-.2c-7.7-4.4-21.1-.5-29.7-.5-12.3.1-24.6-.4-36.7 1.5-5.1-1.9-18.5.7-24.3 1.5-4-.6-16.7 1.6-15.7-.5-1.6 3.3-5.2.3-6.6 2.1-5.1-.2-10.5.4-15.6.8-3.9-1.1-6 .4-10.7.5l.1.2c-4.9.7-11.2 1.6-17.6 2.1-1.4-1.8-5.1.9-7.6-1-.6 3.6 3.3 4.9 6.9 3.4l-.1-.2c6.4-.5 12.7-1.3 17.7-2.1 1.8 1.6 7.4-.2 11-.4 3.6.6 14.3.7 17.6-.8 6.8-.6 14.6-.4 20.5-1.7 14.1 2.4 31.7-1.8 46.1-2.1 15.2-.3 30.4-.4 45.5-1.5l-.1-.1c1-.2 1.9-.3 2.9-.3l-.2.4c6.5 1.1 13 .2 20.8.7.8 2 .8 2.1 0 4 7.6.2 12.4.4 20.8-.7l-.2-.4c1.1.4 2 .5 2.8.2v.2c16.2-.5 42.6.2 59.7-1.3 1.6.3 2.2 1.5 4.3 1.3 2.1-.8 5.1-1 7.8-1.3l-.1-.2c-2.9-1.2 7.4 1.4 7.2-.5 0-.7-7.2-.5-6.2-.3.5-2.1-3.3-.9-2.7-3.1 7.4-.6 12.8 1.6 16.3-.6.7-.1 1.3-.2 2-.2v.1c3.3-.9 1.7 1.9 4.4 1.4"/><path class="st302" d="M1328.5 74.9c-2.1-.8-2.7-1.7-3.5 0 .1-.1 6.1 1.1 3.5 0"/><path class="st304" d="M408.5 72.9c-1.1 0-1.2-.9-2.6-.7-1.1 2 4.7 1.2 2.6.7"/><path class="st306" d="M697.6 70.9c-.1 1.1-2.2.5-1.7 2 1.7.6 3.2-2.2 1.7-2"/><path class="st308" d="M1131.6 68zm-109.5-5.9c-1.1-.3-1.8-.9-1.7-2 .5 0 1-.1.9-.6 3.1-.4 6.5-.3 9.7-.1.5 1.6 1.9 2.5 4.2 2.8 2.4-.4 3.6-1.7 6.1-2 .7.8 1.1 1.8.9 3.4 6.7.9 15.8-3 18.2 2.7h-.5c-2.3-2.5-2.7-.5-1.2 1.8.9 0 1.8.1 2.7 0l-.1.3c4.9 2 18.6 2.3 20.8-2-2.1-1.5-4.6-2.7-6-4.7 2.6-.3 3.3 1.4 5 .1.4.1.8.3 1.2.4l-.2.1c1.2 1.6 4.7 4.1 5.2-.6.6 0 1.2 0 1.8.1.3.6 1.4.6 2.5.5.6.2 1.2.3 1.9.5l-.1.2c.9 2.7 3.5-.1 6.9.7 1.8 1.7 2.6 4.3 5.2 5.4 3.1-3.4 6.1 2.8 8.7-.7.5 4.4 10.8 1.8 18 .8v.1c.7-.1 1.3-.2 2.1-.2 6.7 1.6 13.1.4 19.8-.8v.1c7.2-.2 16.8 1.4 17.3-4-4.8.7-7.5-.2-7.8-2.7-2.7-.1-5.2 0-6.1 1.3 1 .1.9 1.1.9 2-2.2.1-4 .4-5.1 1.3-.3.1-.6.1-1 .2v-.1c-2.6-2.7-11.9.4-14.7.7-1.6.6-2.9-2-3.5 0-.6 0-1.2.1-1.8.2v-.1c-3.1-.3-5.5-1.1-6.1-3.4 3.1-3.3 10.7.9 13.8-2l-.1-.1c-.3 0 4.2-1.4 4.1-2.3 0-2.2-3.8.7-4.2.6l.1-.2c-14-1.4-17.7 1.3-26 1.3 0-.7.7-.8.9-1.3-9.5 1-9.9 1.3-21.6 1.3-.6-.2-1.2-.4-1.8-.5l.1-.2h-1.7l.1.2c-1-.2-2-.3-3.1-.2-1.3-.3-.9-1.8-3.1-1.3-.2.5 0 1.2-.7 1.3-.6-.2-1.3-.4-1.9-.6v-.1h-.8c-4.8-.1-7.2-3.6-13-3.3-2.4.1-4.7.8-7.1 1.1-4.4.5.1-1.4-1.7-1.2-2.4.2-2.7 1.8-6.3 2-4.6.2-8.9-1.4-13.6-.6 0-1.2-.7-1.7-1.7-2-1.7.9-3.1 2.2-5.2 2-3.7-.3-7.7-.4-11.3.2l.1-.2c-3.5-3.1-5.2.5-11.2 0v.1c-2.3-.3-4.6-.3-7 .2-1.8-.2-5.5-.6-7.2.2-3.1-1.9-6-.1-11-.5l.1.3c-3.2.2-33 .2-32.9 1.8.1 1.8 30.6.2 32.2.2 3.3 2.6 9.4 2.3 12.3.1 2-.1 4-.1 6-.1.1 0 .1 0 .2.1.1.2.8 2.7 1.7 2.5 1-.2-.5-2.3-.5-2.5 1.4-.3 3.1-.3 5.1-.1.1.7.9.8.9 1.6-2.1 1.7 1.1 2.2 2.3.7l.2.2c3.2 1.3 7.9 2.4 10.4-.4z"/><path class="st310" d="M475.1 67.5c-.2.8-1 .4-1.7 0 1.3 2.4-2.9.4-2.6 2 2.7.7 6.2-1.4 4.3-2"/><path class="st312" d="M463 69.5c.3-2.3 2.3.1 2.6-1.4-1.1-1.6-5.2.6-2.6 1.4"/><path class="st314" d="M864.6 66.2c-.6 1.1-4.2-.2-3.5 2h2.6c-1.5-1.8 3.8-1.3.9-2"/><path class="st316" d="M521.9 66.9c0 .4-.1.8-.9.7 0-.4-.7-.8-.9 0 .8 1.3 4.4.1 1.8-.7"/><path class="st318" d="M1451.4 62.1zm-37.2 1.4c4.1 5.6 35.1 5.6 39.8 1.3.4-1.9-.9-2.6-2.2-3.2-.1-.2-.1-.5-.1-.8.9-.1 1.4-.5 1.4-1.3-.7-.6-1.9.6-2.4.8-.2.6-.2 1.2.1 1.8-12 .1-24.8-1.4-36.6 1.4z"/><path class="st320" d="M1186.5 62.8c-1.4.4-4.6-.6-5.1.4l-.9.3c-.1-.4.3-2.1-.5-2.1-.9 0-.5 1.7-.5 2.1-3.5.2-5.5 1.5-6 4 3.4 0 6.1-.6 7.8-2 .6-.2 1.2-.4 1.7-.7 1.7-.2 3.8-.2 3.5-2"/><path class="st322" d="M1459.2 63.5c-1.2.4-2.1-2.6-2.6-.7.9-.1 1.7 2.9 2.6.7"/><path class="st324" d="M619.7 63.5c.2-2.3 2.3.1 2.6-1.3-.5 0-1-.1-.9-.7.5 0 1-.1.9-.7-1.9-.3-4.8 2-2.6 2.7"/><path class="st326" d="M489.5 21.8h-.5.5"/><path class="st328" d="M1786.3 51.4c.3.8 5.4.6 3.5 0-.8-.5-5.6-.5-3.5 0"/><path class="st330" d="M283 50c2.3.3 2.6 2 5.2 2v-2c-2.7 1.8-3.4-1.8-5.2 0"/><path class="st332" d="M1020.4 46.7c-2.7-.1-4.8.3-6.1 1.3 3.3-1 5 .7 6.1-1.3"/><path class="st334" d="M331.5 48v-.7c4.6-2.1-2.9.4 0 .7"/><path class="st336" d="M411.1 44c.7-.3.7-.2 0-.7-.6-.3-4.3 2.5 0 .7"/><path class="st338" d="M158.4 37.3c7-1.8-5.7 1.1 0 0"/><path class="st340" d="M327.1 35.9c1.6.1 1.9-.8 3.5-.7 0 .4.7.8.9 0-1.6-1.3-2.2-.1-4.3 0-.4-1-1.1 0-.1.7"/><path class="st342" d="M242.3 31.2c0 1.1-2.4.4-2.6 1.3 1.8.6 4.8-1 2.6-1.3"/><path class="st344" d="M739.2 57.1c12.4-.9 24.7-2.8 37.2-1.9l-.1.3h.9l.6-.1c-.4.6-.6 1.2-.7 1.7-1.8-.5-3.3-.1-4.5 1.1 1.3 1.4 3.1 1.6 5.2.5 1.3.7 2.3.5 3-.6-.7-.7-1.5-1-2.5-1-.1 0-.1-.1-.2-.1 0-.3.1-.6.3-.9 6.2.1 11.7-1.3 16.9 0v.3c-.7.1-7.6 0-7.7 1.4-.1 2.1 8.2.5 8.7.4 2.2 1.2 6.5.1 8.6-.7-1.2-.7-2.6-1.1-3.5-2 4.1-.9 9.5-.7 14.7-.7h.1c-.1.5-.1 1 0 1.5v.1c-.5.2-2.2.3-1.7 1.4.8 1.9 3.9-.6 4.2-.7 0-.5-.1-1.1-.1-1.6h.1c-.6-1.8 4.1.5 3.5-1.3 1.7-.2 14.5-.6 14.6-2 .1-2.3-14.6.2-15.5.3l.1-.3c-11.7-.4-26.2-.7-44.3 1.2-6.4-1.2-14-.2-20.4.3-4 .3-8.8.3-12.7 1.1-.5 0-9.1 2.6-4.8 2.3"/><path class="st346" d="M1370.3 54.3c.2-.4.4-.7.7-.9 1-.1 2.3 0 3.2 0 .2.1.4.2.7.3.2.4.4.8.6 1.1l-.1.1c-1.8.4-3.7 0-5.2-.4 0 0 0-.1.1-.2m32.9 1c-1.5.5-3.9.8-5.5.2v-.7l-.3-.1c1.9-.6 4.1-.1 5.8.6m-75.6-.6c12.2 1 25.1 1.6 40.5 1.6 2.9 1.1 5.7 1.4 8.2.8 1.4.4 7 1.6 8.4.6 12 1.5 26.3 1.6 34.7 1 3 .4 6.6.6 9.5-.1l.1.2c0 .2 2.4 2 2.6 2 0-2.2 4.7-.7 6-2 .4 0 .7 0 1.1.1 1.7 1.4 5.2 1.4 7.6.5.7-3.6-3.9-3.8-6.9-2.7v.1c-.7-.1-1.4-.1-2.1-.1h-.5c-2.8-2.3-5.4-.7-8.7 0l.1.1c-3 .3-6.7-.7-9.5 0l-.1-.2c-3.3-1-7.8-1.1-12.1-1.3 0-.9.4-1.5.9-2h-3.4c-2.8-1.1-5.6-1.2-8.3-.1-2.2-1.1-4.6.4-2.7 1-2.3.8-5.8.6-8.7 1-2.1-.6-5.1-1.1-7.3-1-.3-.5-.5-1-.8-1.4-.5-.2-.9-.4-1.4-.6-1.4-.1-2.9-.1-4.3 0-.6.5-1.2 1.2-1.7 1.9-.2 0-.3 0-.5.1-15.2 0-27.9-.6-39.8-1.7-2.3-3.4-7.9-1.1-12-.5v.1c-2.4-.1-29.5-1.2-29.3 1 .1 1 26.9.7 29.3.9v.1c4.4.7 5.2 1 11.1.6"/><path class="st348" d="M457.4 93.8c-4.9.1-9.8-.1-14.6-.3-1.3-.4 2.1 1 4.8 1.4 1.6.3 11.9-1.2 9.8-1.1"/><path class="st350" d="M401.3 94.4c-1-.1-4.4-.9-5.2-.1-3.2 3.5 8.8.5 5.2.1"/><path class="st352" d="M383 93.4c-6.1-.4-13.6-1.4-19.7-.4-.3 0-6.8 1.5-3.7 1.5h10.2c3.1 0 7.5.9 10.5.2-3.1.7 7.5-1 2.7-1.3"/><path class="st354" d="M347.5 92.4c-.5.1-3.5-.4-3.5.7 0 2.7 6.4-.7 3.5-.7"/><path class="st356" d="M321.7 91.5c1.3.4-8.9-1.9-7.8.4.8 1.7 9.5-.1 7.8-.4"/><path class="st358" d="M266.6 90.5c-.1 0-.1 0 0 0-.6 0-4.4.1-4.6.8-.6 3 6.8-.8 4.6-.8"/><path class="st360" d="M236.6 90.4c-.1 0-3-1.1-3.6-.4-3.1 3.2 7.6 0 3.6.4"/><path class="st362" d="M470.4 88.1c-1.8 0-18 .2-17.6 1.8.4 1.3 10.3.5 11.8.3 1.4-.2 9.2-2.1 5.8-2.1"/><path class="st364" d="M431 89c-1.3.5-6-1-6.6.5-2.2 5.6 11.4-2.3 6.6-.5"/><path class="st366" d="M375.3 87.8c-1.9 0-15.7-1.9-16 .1-.1.4 38.1 4 38.5 2.3.6-1.9-20.7-2.4-22.5-2.4"/><path class="st368" d="M112.1 87.3c-1.6 0-6.6-.2-7 1.2-.9 3.4 10.4-1.2 7-1.2"/><path class="st370" d="M543.1 85.5c-5.3 0-10.5.9-16 .7-3.2 0 6.8 2.2 8.6 2.1.9-.1 11.1-2.8 7.4-2.8"/><path class="st372" d="M354.3 88.3c-.1-.7-10.3-2.1-10.3-.6.1 1 10.5 2.1 10.3.6"/><path class="st374" d="M182.4 86.3c-1.7-.2-22.4 0-22.8.9-1.2 2.9 25.7-.5 22.8-.9"/><path class="st376" d="M129.4 87.3c-.3 0-3.4.2-3.1 1.2.5 2.4 6-1.2 3.1-1.2"/><path class="st378" d="M336.7 86.4c-.2 0-3.1-.6-3.2.6 0 2.2 5.8-.1 3.2-.6"/><path class="st380" d="M301 86.4c.5.1-5.7-1.7-5.4 0 .6 3.3 6.9.4 5.4 0"/><path class="st382" d="M263.6 86.7c1.2 1 2.3 1.1 3.4.2.3-1.1-2.8-1.6-3.5-1.9-.5 0-6.4.6-6.6 1.3-.3 1.9 6.5.3 6.5.3.1 0 .2 0 .2.1"/><path class="st384" d="M289.6 85.6c-.7-.1-4-.4-4 .7-.1 2.7 6.8-.4 4-.7"/><path class="st386" d="M645.4 79c-4.5-.6-44 1.4-43.8 4 .1 2.3 22.8-1.5 25.3-1.8 4.3-.5 8.7-.2 12.9-.7.2 0 9.6-1 5.6-1.5"/><path class="st388" d="M564.1 77.9c-.2-1.6-141.6 6-141.7 5.2.2 4 141.9-4 141.7-5.2"/><path class="st390" d="M414.7 83.1c.2-1.4-9.2-1.5-9.3-.2-.2 1.3 9 1.5 9.3.2"/><path class="st392" d="M145.8 79.8c-5.3.2-60 .5-59.9 1.9.1 1.4 30.6.4 34.2.3 5.2 0 10.3-.1 15.5-.2 1.2 0 13.9-2 10.2-2"/><path class="st394" d="M1107.8 81.1c-.4-.2-7.3-2-8.1-.7-1.7 2.5 10 1.5 8.1.7"/><path class="st396" d="M79.4 80.8c-2.4-.4-24.5-1.9-24.7.1-.2 1.9 13.6.9 15.1.9.9 0 12.9-.4 9.6-1"/><path class="st398" d="M1094.4 80.3c-1.8-.1-13.8-1.6-14.3-.2-.7 2.8 16.7.4 14.3.2"/><path class="st400" d="M170.5 80.3c-.1-2.2-13.9.4-13.9.8.2 1 14 .2 13.9-.8"/><path class="st402" d="M48.8 80.5c2.3.3-4.8-2.8-4.9-.2 0 1 4.7.2 4.9.2"/><path class="st404" d="M1162.3 78.3c.3 0-7.4.4-7.4 1.4.3 3 10.2-1.4 7.4-1.4"/><path class="st406" d="M1149.9 79.4c-.3 0-5.1-.2-5.1.8-.2 2.2 7-.5 5.1-.8"/><path class="st408" d="M257.9 79.5c-.3-1.9-7.6-.6-7.7.4-.4 2.6 7.9 1.2 7.7-.4"/><path class="st410" d="M294.7 78.5c-1.7 0-11.5-1.3-12.2.2-1.5 3.8 15.7-.2 12.2-.2"/><path class="st412" d="M243.9 80.2c3.2.5-9-3.4-8.8-.5.1 1 7.9.4 8.8.5"/><path class="st414" d="M412.6 79.2c5.3-.8 10.6.2 15.9-.5l-.1.2c3.1.4 4.9-.2 5.2-2-1.5 0-5-1.8-6.1 0-3.5.4-7.7-.6-11.1.1-.9.2-7.7 2.7-3.8 2.2"/><path class="st416" d="M373 75.8c-1.5-.5-1.3.9-.9 1.6 1.3 2.3 12 1.4 13.8 1.2.1-.9 21.2 1 21.3.1.1-1-14.1-2.4-16-1.7v-.1c.1-1.5-3.1-.3-4.3-.7l.1.4c-5 .9-9.5.6-14-.8"/><path class="st418" d="M1435.6 77.2c-.5-.1-10.6-1.3-10.7.3-.2 2.5 13 .2 10.7-.3"/><path class="st420" d="M1040.4 77.8c.1 0-13.4-2.1-13.3-.5.2 1.7 14.1.6 13.3.5"/><path class="st422" d="M436.3 77.4c.3 1.4 17.2.8 19 .6l-.1.3c1.6.9 4.9.4 6.1-2-.9-.7-6.2-1.4-6.9 0-1.5.1-18.4-.8-18.1 1.1"/><path class="st424" d="M950.7 76.8c-.2 0-3.1-.3-3.1.4 0 1.9 4.9-.4 3.1-.4"/><path class="st426" d="M577.5 77.1c-.6-.2-2.8-1.2-3.4-.5-1.5 2.2 5.4 1.2 3.4.5"/><path class="st428" d="M1630.8 75.1c-.4 0-24.8-.9-24.2 1 .3.9 12.3.4 13.7.4 1.9.1 13.7-1.7 10.5-1.4"/><path class="st430" d="M1547.4 75.3c-1.1 0-13.2-1.2-12.4 1.2.4 1.1 8 .6 8.4.5.4 0 8.1-1.6 4-1.7"/><path class="st432" d="M1515.9 76.2c-.4 0-7.4-.4-7.4.4-.1 1.9 8.7-.4 7.4-.4"/><path class="st434" d="M1016.1 76c-.4-.1-3.1-1-3.4.4-.6 2.9 6.7.7 3.4-.4"/><path class="st436" d="M963.7 75.9c-.4 0-2.7.3-2.6 1.1.4 2.1 5-1.1 2.6-1.1"/><path class="st438" d="M586.3 76.3c4.3.4-6.1-2.8-3.3.4.6.6 2.9-.4 3.3-.4"/><path class="st440" d="M357.7 75.9c1.5.6-3.7-1.2-3.8 0-.1 1.3 5 .5 3.8 0"/><path class="st442" d="M113.7 74.9c-.8 0-1.4.2-2 .4.2.4.5.8.8 1.2 1.3-.4 3-.3 1.2-1.6"/><path class="st444" d="M882.8 73.9c-1.3.2-14.8-1.3-14.1 1.3.6 2 16.2 1.3 15.8-.3-.5-.4-1.1-.7-1.7-1"/><path class="st446" d="M622.2 75.3c.4-.2 5.4-1 5.4-1.3.6-3.2-8.3 3-5.4 1.3"/><path class="st448" d="M520.6 75.6c1.4.6 2.6.4 3.8-.4 1.7-5.1-8.6.7-3.8.4"/><path class="st450" d="M166.5 75.3c.4 0 11.4 1.6 9.5-.7-1.4-1.8-11.3.6-9.5.7"/><path class="st452" d="M157.9 75.6c2.9.1-.9-2.2-3-1.9v-.1c-2.5.1-5.7-.4-6.9.7-1 2.8 6 2.5 7.6 1.5.8-.2 1.5-.2 2.3-.2"/><path class="st454" d="M120.6 75.9c1.4.1 23.9 1.7 23.8-.6 0-1.9-22.2-1.2-23.6-1.3-.3-.1-3.1 1.7-.2 1.9"/><path class="st456" d="M903.7 73.5c-.8-.4-6.2-.2-6 1.5.3 2.1 7.7-.7 6-1.5"/><path class="st458" d="M1156.6 73.6c.2-1.4-7.8-.8-7.7.3.2 1.1 7.6.8 7.7-.3"/><path class="st460" d="M295.6 73.5c-.2 0-4-.3-4 .4 0 2 5.7-.4 4-.4"/><path class="st462" d="M248.8 72.7c-1 .1-13.2.2-13.2 1.5-.3 3.7 16.6-1.5 13.2-1.5"/><path class="st464" d="M222.8 74c-2.3.2 4.2 2.7 4.4.3 0-1.4-4-.4-4.4-.3"/><path class="st466" d="M218.2 74.6c0-.7-3.7-.7-3.7 0s3.7.7 3.7 0"/><path class="st468" d="M945.8 71.9c-1.3-.2-16.9-1.5-17.2.6-.6 3.5 21 .1 17.2-.6"/><path class="st470" d="M655.6 72.6c3.2-.1-10.4-2.7-8.7 1.5.5 1.2 9.2-1.5 8.7-1.5"/><path class="st472" d="M277.4 73.5c-.3.1-2.3-.3-2.3.4 0 1.7 4-.4 2.3-.4"/><path class="st474" d="M1501.1 70.2c-6-.1-74.9-.2-74.9 1.7s38.1.6 41.5.6c6.8-.1 13.6-.2 20.5-.2 2.9 0 7.5.8 10.3 0-2.1.6 8.4-2.1 2.6-2.1"/><path class="st476" d="M1178.5 71.8c-.9-.1-15.6-.5-15.9 1-.7 3 18.6-.6 15.9-1"/><path class="st478" d="M972.3 70.3c-1.2 0-17.6.7-17.5 2.1.3 3.9 20.7-2.1 17.5-2.1"/><path class="st480" d="M1189.6 70.6c-.9-.1-5.8-.1-6 .9-.6 3.5 8.6-.9 6-.9"/><path class="st482" d="M702.9 71.3c-2 .5 7.6.2 8.6 0l-.1.3c1.6.1 5.6 1.7 6.9.1 1.1-.2 1.2-.5.1-.8.3-.9 1-1.1 0-1.9-4.1.7-7.2-1-7.8 1.3h.1c-2.7.2-5.2.6-7.8 1"/><path class="st484" d="M687.6 71.5c-.5.2-2.7-.5-2.7.7.1 2.5 5.6-.7 2.7-.7"/><path class="st486" d="M1402 70c-4.5.2-70.2-2.8-70.3-1.9-.1 1.3 34.4 2.8 37.2 3 6.8.4 13.6.7 20.4.8 2.9 0 7.4.8 10.2-.1-2.4.8 7.8-2 2.5-1.8"/><path class="st488" d="M1199.1 70.4c-.8 0-4.1 0-4.1.8 0 2 6.4-.8 4.1-.8"/><path class="st490" d="M1011.4 69.6c-2.5-.2-32.3-.3-32.5 1.2-.4 2.4 19.2.9 20.2.9 2.8-.1 7.1.6 9.7-.2-2 .5 8-1.6 2.6-1.9"/><path class="st492" d="M850.3 66.1c-.8 0-12.2 2.7-12.2 2.8.1 4 15.3-2.8 12.2-2.8"/><path class="st494" d="M416.3 69.7c2.3 0 24.6 1 24.9 0 .4-2-13.1-1.7-14.4-1.7-1.6-.1-13.9 1.7-10.5 1.7"/><path class="st496" d="M400.2 68.8c.6 0 6.5.4 5.5-.9-1.4-1.9-7.1.8-5.5.9"/><path class="st498" d="M498.4 68.1c1.1.1 12 .6 11.7-1-.5-2.6-13.2.9-11.7 1"/><path class="st500" d="M480.5 67.9c.9.4 6.6.4 6.9-.6.5-1.4-8.1.1-6.9.6"/><path class="st502" d="M446.8 68.7c3.7.7 9.1-1.1 9.6-1.4-1.9.1-10.4 1.3-9.6 1.4"/><path class="st504" d="M370.4 68.2c1.3 0 14.5 1.2 14.3-.4-.4-2.7-16 .3-14.3.4"/><path class="st506" d="M149.4 68.4c4-.3-4.4-3.8-2.9-.2.9.6 1.9.7 2.9.2"/><path class="st508" d="M1051.1 65.7c.8.1-4.5-1.3-4.6.5 0 1.5 5.8 2.1 6.1.6-.2-.8-.8-1.2-1.5-1.1"/><path class="st510" d="M222 67c1.1.4 2.2.4 3.2 0 1.9-3.1-5.9-.1-3.2 0"/><path class="st512" d="M209.1 67.3c3.1-.2-16.3-3.7-16.2-1.1.1 1.4 15.1 1.1 16.2 1.1"/><path class="st514" d="M169.5 68.3c.8-.3 7.3-.1 7.3-1.1 0-3-9.9 2-7.3 1.1"/><path class="st516" d="M158.5 67.8c.3-.2 5.5 1.3 4.7-.6-.5-1.1-5.1-1.2-5.9-.7-.6 1.2-.2 1.6 1.2 1.3"/><path class="st518" d="M537.1 67.6c2.2 0 2.9-.7 2.1-2-1.5-.7-4.1 2.2-2.1 2"/><path class="st520" d="M342.3 66.9c.4 0 4.4.5 4.4-.7 0-3-7.4.7-4.4.7"/><path class="st522" d="M253.9 67.2c-.5 0 12 .4 11.3-1.6-.8-2.5-13.2 1.5-11.3 1.6"/><path class="st524" d="M233.1 66.9c-.1 0 5.6.8 6.2.1 2.5-2.5-9.1-1.5-6.2-.1"/><path class="st526" d="M320.7 67.1c1 0 15.9.2 15.9-1-.1-2.4-18.6 1-15.9 1"/><path class="st528" d="M316 66.5c0-.7-6.3-.7-6.3 0s6.3.7 6.3 0"/><path class="st530" d="M282.6 66.2c1.7 0-4-2-4-.4 0 .8 3.8.4 4 .4"/><path class="st532" d="M966.3 65.7c.4-.1.8-.2 1.1-.2.4-1.3.1-1.8-1.1-1-1 .2-4.4-.4-5 .4-1.4 1.6 5.4.7 5 .8"/><path class="st534" d="M291.7 66.2c.4 0 4.4.5 4.4-.7-.1-3-7.4.7-4.4.7"/><path class="st536" d="M609.8 63.4c1.6.5 2.7.1 3.3-1.1-.7-1.9-5.6 1.1-3.3 1.1"/><path class="st538" d="M634.8 62.9c.5 0 4.2.4 4.4-.6.4-3-7.6.6-4.4.6"/><path class="st540" d="M1145.5 61.8c6.4-.4 12.8-.4 19.1-1.8.2-.5 1.4-1.7.4-2.2-.8-.4-1.4.4-1.7 1v.1c-4.5 1-9.2.4-13.6 1.4-.3 0-7.5 1.7-4.2 1.5"/><path class="st542" d="M766.4 57.2c-3.1-.2-4.4.6-3.8 2.3.5.3 5.2-1.1 5.3-1.6-.3-.6-.8-.9-1.5-.7"/><path class="st544" d="M1881.6 56.7c-.9-.1-5.7-.6-5.8.7 0 2.9 8.6-.5 5.8-.7"/><path class="st546" d="M879.7 54.6c-.2 0-2.3-.1-2.2.5 0 .7 3.5.7 3.7.1-.3-.6-.8-.8-1.5-.6"/><path class="st548" d="M1439.9 53.6c1.5.3 2.7-.1 3.7-1.2 0-1.9-5.7-1.5-5.3.4.6.3 1.1.6 1.6.8"/><path class="st550" d="M997.5 52.3c4 .2-6.4-1.5-6.7.4-.2 1.2 13.5 2.3 13.7.9.3-1.6-6.7-1.3-7-1.3"/><path class="st552" d="M1914.9 52.1c-.4 0-5.9-.2-5.6 1.4.5 3.2 9.2-1.2 5.6-1.4"/><path class="st554" d="M1867.2 51.4c-.7.3-3.1-.7-3.1 1 .1 3.4 7.3-1 3.1-1"/><path class="st556" d="M1018.2 52.5c.2 0-3.7 0-3.7.9 0 2.6 4.5-1.9 3.7-.9"/><path class="st558" d="M848.6 52.6c.9 0 15.2.9 13-1.7-1.4-1.5-15.8 1.6-13 1.7"/><path class="st560" d="M1088.4 50.5c4.5-.2 51.3 2 51.2.5-.1-1-27.5-1.5-29.3-1.6-4.8-.3-9.6-.5-14.4-.6-2.3 0-10.6 1.8-7.5 1.7"/><path class="st562" d="M870.6 53.1c1.2-.2 17.8-.3 17.5-2.2-.4-2.4-20-.5-19.3 1.5.6.2 1.2.5 1.8.7"/><path class="st564" d="M1876.4 52.1c.5-.1 4.4.1 3.9-1.3-1.1-2.5-6.5 1.4-3.9 1.3"/><path class="st566" d="M958.5 50.8c2.2-.2 4.3-.6 6.4-1.1.2.1.4.2.5.3.8 1.5 1.5 1.3 1.8-.3-.5-.6-1.3-1.1-2-1.4-.9 0-9.4 2.4-6.7 2.5"/><path class="st568" d="M1940 49.4c.2 2.1 13.5.1 13.2-1.3-.5-2-13.3.5-13.2 1.3"/><path class="st570" d="M1045 48.7c2 .1 24.6.4 24.8-.6.3-1.7-11.9-1-12.5-1-2.8 0-6.9-.5-9.5.2 3.3-.8-7.6 1.2-2.8 1.4"/><path class="st572" d="M1031.2 49.3c2.7.8 4.4.3 5.1-1.6-1.1-2-7.4 1.6-5.1 1.6"/><path class="st574" d="M1959 48.1c.5-.1 5.1.1 4.4-1.4-1.2-2.7-7 1.5-4.4 1.4"/><path class="st576" d="M1469.1 47.9c.7 0 9.1.5 8.4-.8-1.1-2-10.2.8-8.4.8"/><path class="st578" d="M1491.8 48c1-.2 12-.6 11.9-1.7-.3-3.1-15.4 2.4-11.9 1.7"/><path class="st580" d="M1527.1 47.4c.4 0 4 .4 4-.7 0-2.9-6.9.7-4 .7"/><path class="st582" d="M345.3 43.3c.4 0 5.5 1.4 4.8-.2-1.1-2.5-7 .1-4.8.2"/><path class="st584" d="M1982.8 37.9c-13 .7-30.4-1.1-39.8 4 2.7 2.6 15.3-.1 19.1-.1 7 0 14.5.6 21.1-1.8 4.7-.3 9.8-.9 15.8-1.7v-2c-6.2.9-11.4 1.5-16.3 1.8l.1-.2z"/><path class="st586" d="M287.8 42.6s9.7.3 9.8-.5c.6-3.7-12.5.7-9.8.5"/><path class="st588" d="M60.1 33.3c.4 0 7-.1 6.7-1.2-.5-1.4-8.2 1-6.7 1.2"/><path class="st590" d="M44.7 32.5c.2 0 7.8.9 7.6-.3-.5-2.8-9.9.4-7.6.3"/><path class="st592" d="M1376.5 28.5c-3.9-.6 3 2.4 3 2.5 1.3-.4-3.5-.2-3.6.6 0 1.6 4.4-.1 4.9-.2-.7-2.2-2-2.6-4.3-2.9"/><path class="st594" d="M20.3 31.3c.6 0 4.9.4 4.9-.4 0-1.8-6.5.4-4.9.4"/><path class="st596" d="M65.4 29.3c1.7.6 2.8.2 3.1-1-.9-1.5-4.8 1.2-3.1 1"/><path class="st598" d="M427.5 94.2c-1.4-.6-13.7-1.5-14.4-.9-2.5 2.1 16 1.7 14.4.9"/><path class="st600" d="M534 91.3c-2.6-1-21.8-1.4-22.2.6-.4 1.9 23.3-.2 22.2-.6"/><path class="st602" d="M414.1 89.6c-1.8 0 4.9 2.2 4.9.4 0-.8-4.3-.4-4.9-.4"/><path class="st604" d="M491.9 86.8c-1-.8-4.3 1-3.4 2 1 1.2 4.5-1.1 3.4-2"/><path class="st606" d="M49.2 86.4s-2.7-1.4-3.5-.8c-3.2 2.7 7.1.4 3.5.8"/><path class="st608" d="M35.8 85.6c-1.2.2-4.8-1.1-5.5-.5-3.2 2.8 8.7-.3 5.5.5"/><path class="st610" d="M21.8 85.1c-.3-.2-7.3-2-8.2-.8-2.1 2.4 9.9 1.9 8.2.8"/><path class="st612" d="M398.5 83.4l1.5-1.1c.1-1.5-41.7-3.2-41.8-1.1-.1 2.2 35.8 2.1 40.3 2.2"/><path class="st614" d="M6.1 75.6l-.1-.2c1.5-.2 3-.3 4.5-.2l-.1.3h5.2c.1.8.3 1.6 1.6 1.4-.3.4-.6.9-.8 1.3-.1.1-.3.1-.4.2-3 .7-6.8-1.3-9.8-1.4-.3-.4-.4-.9-.5-1.5h.4zm-4.6-1.8c-.8.9-.2 1.8 1.9 1.8.2 1.4.8 2.5 1.8 3.3 3.6.4 8.1 2.2 11.8 1.3 1.3.3 2.7.4 4 .1 1.4.1 16.2 2.3 16.8 1.6 2.1-2.5-15.5-3.2-16-3.2 1-1.3-.9-1.4-1.7-.3h-1.5c.2-.3.3-.5.6-.8 2-.4 3.8-1 5.2-1.8 1.2.3 1.5.8 2.6 0l-.1-.2c2.8.8 5.5 1.5 8.4.8 1.2.3 2.5.2 3.8 0v.1c4.4.6 6.5-.2 12.1 0l-.2-.4c4.2 0 47.7 1.5 47.7-.5 0-1.8-42.9-1.6-46.7-1.6.1-.5.7-.6.8-1.1-5.2-.4-11.8-1.7-14.6 1.2-.7.1-1.3.1-1.8 0 .4-1.8-.9-1.7-1.3 0-.3.1-.5.2-.6.4-2.4.6-4.7-.1-7-.8l.3-.2c-.8-.7-1.7-1.4-2.6-2-.1 1.1-2.2.5-1.7 2-3 0-7.4-1.3-8.6-2.7.4 2.3-2.1 1.6-4.8 2.5-1.3-.1-2.6 0-3.9.1.2-2.7-1.8-.3-3.5-.6l.2.4c-.6-.2-1.5-.4-2.3-.5v.8c.2.2.5.3.9.3z"/><path class="st616" d="M1070.4 79.4c-.4-.1-.8 0-1 .3-1.7-.5-23-2.9-23.4-1.6-.1.4 21.8 2.4 24.3 3.1.3-.3 1-1.5.1-1.8"/><path class="st618" d="M229.8 79.4c-.7-.9-5.5 0-6.1.6-.6.7 6.7.2 6.1-.6"/><path class="st620" d="M602.3 75.4c-1.3-1.7-10.9.5-10.2 1.9 1 1.5 11.9.2 10.2-1.9"/><path class="st622" d="M362.9 76.9c1.6 1.4 3.1 1.6 4.6.6 1.1-3.2-6.6-1.8-4.6-.6"/><path class="st624" d="M1840.4 59.4c-.1-.2-.2-.4-.2-.6 1.9 0 2.5-1.1 5-.7.7 2.3-2.9 1.1-4.8 1.3zM1711 66.9c.2-1.2 1.5-1.5 3.5-1.3v-1.3c1 .2-.2 3.3 4.3 2.7-2.1 1.3-4.8-1.1-7.8-.1zm-10.4.6c.2-2.4 6.6-2.5 8.6-1.3-2.4.3-6.6 2.8-8.6 1.3zm-43.2.7c-9.3-.3-20 .7-27.7-.7 1.6-1.2 5.2-.9 6.9-2v-.1c2.2.9 3.9.6 5.3-.9 0-1.6-4.6-1.1-4.5-1.1-3.3-3.4-12.4-2.1-17.2-2.6v.1c-.3-.3-.6-.7-.9-1-.1-.8.1-1.7-.8-1.8 8.6-1.1 17-.2 25.5 1.4 1.9.3 18.6 3 18.6 2.9l-1.5-1.8c-.7-2.1 4.9 2.9 4.2 2.2 3.7.7 8.5.5 9.5 3.4-3.2 4.2-11.1 2.2-17.4 2zm-45.9-15.5c-.1 2-5.7 1.6-6.9.7v-.3c2-.3 4.2-.4 7-.5l-.1.1zm-42.4-.6c0-.6.6-.8.8-1.2 1.1 0 2.2.1 3.3.2.1.2.1.5.1.7-.4.8-3.1-.1-4.2.3zm-55.4 4c-2.8-.8-5.7-1.4-9.5-1.3 2.2-2.5 5-.7 6.9-2.7V52c2.5.1 7.1.6 9.5-.1l.1.1c-3.4.6-4.9 2.6-7 4.1zm342.3-2.9c-.5 0-.9.1-1.4.4l.1-.2c-8.1.8-23.8 3-36.3 2-6.4 2.6-23.6 3.3-30.3.7-1.2 2-7.2 1.1-8.6-.6 1.1-.5 9.2-.7 9.1-1.4-.4-1.6-9.4.4-10 .7v-.1c-28.8-4.5-58.2-1-87.1-3.7-14.4-1.3-29.1-2-43.6-2-10.8 0-26.5-3.6-36.3 1.7l.1.1c-3.1 0-5.6.2-7.9.6-8.4-.5-18.9 1.4-27.7 0 0-.3-.1-.5-.2-.8.6-.1 9.6.5 8.8-1.6-.7-2-10-.3-10.4-.2-1.7-.2-3.5-.5-5.2-.2-8.2-2.2-14.3 1.6-21.6.7.1 2.3-2.5 2.5-4.3 3.4-6.6-1.6-11.1 1.4-16.4-.7v-.7l-.1-.1c.6 0 7.3.5 5.9-1.4-.7-1-5.9-.5-6.7-.4l.1-.2c-1.2-1-4.1.1-6 .6-2.9-.5-5.8.2-8.8.1v-.1c-18.8.5-33.2.6-52.8 1.4l.1.3c-1-.2-3.4-1.5-4.2-.6-.9 1 2.9 1.6 3.2 1.7 1.3 1.2 4.7.8 4.3 3.4-1.2.1-3-.2-3.4.6-1.3-.3-2.3.1-3.1 1.1 1 1.3 2.3 1.6 4 .9v.1c.8 1.5 4.2-.1 5.2 1 1.7 1.8-.5 2.7 0 5.1 7.7 1 16 2.3 24.2.7 1.4-2.3-3.7-2.9-.9-4 8.7-1.6 8.3 3.8 14.7 4 2.4-2.4-1-4.7-3.5-5.4 2.8.1 3.7-1.2 6.9-.7.6 2.1-1.5 2-.9 4 4.3 1.1 16.7 4.1 18.2-.7-1.3-1.5-6.9.4-6.9-2 4-2.2 9.2.4 10.4 4 3.3.4 4.2-1.2 7.8-.7 5.4 2.8 32.8 5.3 36.4-.7-.3-3.6-8.2-1.2-8.7-4.7 6-.5 12 3.3 18.2 4.7 1.1-2.7-2.8-1.4-1.7-4 2-.5 4.4-.6 6.1-1.3 1.9 4.6 8.6 8 14.7 5.4v-.1c.8.1 5.9 1 6.6.5 2.5-2.1-5.2-2.4-5.7-2.5.2-1.5-2.5-.7-2.6-2 5.2-3.6 16.3-2 19.9 1.3v-.1c.3.3.6.7.9 1 .5 1.7-1.3 1.6-.9 3.1 4.1 1.6 6.8.1 8.7 3.4-3.1.2-7.5-.5-9.4.6-9.3-.3-103.3-1-103.1 1.8 0 .7 103.7.3 114.2.7 18.2.7 36.4 1.4 54.6 2.4 10.1.6 20.2 1.2 30.3 2 5.2.4 11 1.8 16.1 1.3 1.9.2 3.7.3 5.6.5.7-.6 1.2-1.3 1.7-2 9.2 1 17 .6 25.1 1.3l-.1-.3c.9.1 12 1.3 11.8-.5-.1-.9-11.4-.9-11.1-.8-4.5-3.7-17.6-.9-23.1-3.8 5.4-.9 9.9-1.5 17.3-2 9.7 5.2 23.8.7 34.2.3 11.5-.4 23.8.9 35-2.3.5-3.1 5.9-4 3.5-7.4 3.1-1.8 7.6-2.2 10.3-1.4.1.5.3 1 .6 1.5l-.6-.1c0 .9.4 1.5.9 2 4.7 1.4 6.8-1.4 12.1-1.3.9-2.2 1.2-4.9 3.5-6.1l-.5-.1c-.5.4 2.9-1.1.7-1.1z"/><path class="st626" d="M985.5 75.5c-.3 0-3.3 0-3.4.7-.1 1.1 6.2.7 5.5.1-.7-.3-1.4-.5-2.1-.8"/><path class="st628" d="M861.5 75.4c.2 0-5.7-.9-5.8.1-.2 2.6 8.3-.3 5.8-.1"/><path class="st630" d="M1141.8 72.7c-10.8 1-120.9-1.5-120.9-1.8 0 1 58.9 3.6 64.2 3.9 10.9.6 21.7 1 32.6.8 5.4-.1 10.8-.2 16.2-.6 2.6-.1 11.2-2.6 7.9-2.3"/><path class="st632" d="M504.7 76c1.4-.7 10.6-.7 10-2.3-.7-1.7-5.2-.3-6.5-.1-2.8.4-6 3.5-3.5 2.4"/><path class="st634" d="M630.7 74.7c.7.5 1.3.5 2 0l-.1.2c1 1.2 6.2 0 7.8-.7-1-.1-.5-.7 0-1.3v-.2c.4.1 5.8.3 5.3-.9-.2-.4-5.4.1-5.5.1-2.8-.8-4.7-.1-8.4 1.7l.5.1c-.8 0-1.3.4-1.6 1"/><path class="st636" d="M197.6 73.9c-.4 0-10.4-.9-9.3.9 1.7 3 11.4-1.1 9.3-.9"/><path class="st638" d="M667.5 72.5c1.8-1.1-6-2.8-6-.7-.1 1.8 5.4 1.1 6 .7"/><path class="st640" d="M1094.4 64.8c-1 0-4.8 2.9-2.5 3.3 1.1.2 4.5-3.3 2.5-3.3"/><path class="st642" d="M358.7 67.6c.3-.1 2.3.3 2.3-.4 0-1.7-4 .4-2.3.4"/><path class="st644" d="M93.6 66.8c-5.3-.5-58.4-4.2-58.7-2-.1 1.4 29.4 1.8 32.8 1.9 5.2.2 10.3.4 15.5.7 1.2.1 13.4-.3 10.4-.6"/><path class="st646" d="M1303.6 66.3c-1.1-.2-13.5-1.2-13.4.2 0 1.6 14.5 0 13.4-.2"/><path class="st648" d="M1039.1 65.5c-.3 0-4.4 0-4.4 1-.1 1 6.4 1 6.8.4-.1-1.2-.9-1.7-2.4-1.4"/><path class="st650" d="M547.4 67.2c5.5 0 57.2-2.3 57.2-3.4 0-1.9-30.9.8-34 1-4.4.3-19.1-1.4-22.4.9 0 .1-3.8 1.5-.8 1.5"/><path class="st652" d="M869.4 63.1c1.7.6 2.7.3 3-.8-.6-1.1-6.2.8-6.1 1 1 .3 2.1.2 3.1-.2"/><path class="st654" d="M626.5 63.1c0 1.5 2.7-2 .7-2.4-1.2-.1-.7 1.8-.7 2.4"/><path class="st656" d="M841.1 57.5c.2-.1 2.9-2.2 1.3-1.6-2.3.4-2 2-1.3 1.6"/><path class="st658" d="M932.1 54.7l-.1-.3c3.6.1 40.1.4 39.8-2.1-.2-1.1-34.8.5-38.8.4v-1.1c.3-.4.6-.9 1-1.1 2 .5 3.8.3 5.6-.5 1.1-2.3-6.6-1-6.5-1-.7.4-1.3 1-1.8 1.7-3.6-.6-11.1 3.4-14.7-.7-1 3.5-24.8-2.8-20.8 4 9 .7 25.8 1.6 36.3.7"/><path class="st660" d="M979.5 51c2.1-.5 29.9-2.1 29.1-3.6-.3-.5-15.2 1.3-16.3 1.3-2.8.1-6.2-.4-8.9.3 2.8-.7-7.8 2.9-3.9 2"/><path class="st662" d="M384.7 31.4c2.6.6 3.8 0 3.5-1.6-1.4-1-5 1.7-3.5 1.6"/><path class="st664" d="M84.3 30.1c1.4.2 2.9.6 4.3 1 .1 0 3.1-.6 2.5-1.5-.5-.7-1.8.1-2.2.3-2.9-1.6-5.4.1-4.6.2"/><path class="st666" d="M228 26.8c.8.1 1.5.2 2.3.3l-.1.1c-.3 2.7-3-.7-2.6 2 8.5 1.4 13.3 2.1 21.6-.7 1.8.4 2.8 1.4 4.3 2 .2-1.3-1-1.5-.9-2.7.5 0 1-.1.9-.7 1.4-.5 3-.7 4.3-.5v.4c-1.2.3-1 .6.2.8.5.6.5 1.1.1 1.7.5 1.7 3-1.1 3.2-1.1.2.9 1.9.8 2.6 1.3.3-.8 1.1-1.2.9-2.3 1.8-.7 3.5.2 5.1-.4l.1.1c0 3 6.8 3.3 9.5 2V29c1.1.4 2 .1 2.7-.8-.4-.8-1-1.2-1.8-1.1-.4-2.6 2.3.7 2.6-2-6-.2-8.1-1.1-13.8.7-1.8 0-3.6-.2-5.3.6-1.3-1-3.7-2.4-5.1-1.3v.1c-2.1-.4-4.2-.2-6.2.6-4.1-.5-13.7.8-18-1.3.9 2.3-2.7 1-4.3 1.3v.1c-1-.1-4 .7-2.3.9"/><path class="st668" d="M652.4 63.4c2.9-.5 5.8-1.1 8.7-1.6 15.4 0 30.7-.9 46-1.2l-.1.2c5.9-.3 13 .5 16.5 0v-.1c.3 0 7.4-.2 7.8-1.3.8-2.5-6.4-.7-6.9-.7 0-1.7-5.3.6-5.2-1.3 1-.1 2.3.1 2.6-.6-.8.1 7.5-.1 7.3-1.2-.2-1.6-9.2.2-8.3 0l.1-.3c-4.8-1.6-10.5 1.5-14.2 3.1-14.6.3-29.2 1.4-43.9 1.2.6-2.7-2.3-1.4-2.7.2-1.7.5-11.7 4.5-7.7 3.6"/><path class="st670" d="M130.7 26.4c-.9-.2-1.8-.4-2.7-.8-.6-2 3.2-.6 2.7.8zm68.4-2.6c.5 0 1 .1.9.7.5 0 1-.5 0-.7 1.3-1.4 2.1.5 4.3-.7.2.5 0 1.2.7 1.3v.1c-2.6-.4-2.1 2.7-5 1.9 0-.4.1-.8.9-.7-.2-.9-2.3-.4-1.8-1.9zM354 22.5l.4-.1c-.2.3-.3.5-.4.8-2.2 3-2.2-3.8 0-.7zm.9 1.1l.3-.6c3.2-.8 9.8-1.9 9.2-3.3 5.2 0 13-1.9 14.7 4.7-2.7-.8-2-.1-5.2 0-5-1.7-9.8.9-14.9.3l.1-.3c-1-.1-.5-.8 0-1.4-2.1-.3-1.9 1.2-4.3.7.1 0 .1 0 .1-.1zm39.8-1.1c-.2.8-1.1 1.1-1.6 1.7-.9.2-2.3.2-3 .2l.2-.5c-2-.6 2.3-1.8 4.4-1.4zm13.8.6c10.2 0 16.6-.3 25.1 0h.1c-.1 0-2.7 1-2.2 1.5.5.6 2.7-.7 3-.9h.1c.8-1.4 3.3-1.5 6.1-1.3-.5 2.2 3.1.9.9 2.7.1 1.5 2.2-.9 4.3 0-.1-1.1-2.2-.5-1.7-2 .9.3 2.1.8.9 0 3.5-1 8.5-1 13-1.3-.1.8-.3 1.6-1.7 1.3.3 1.7 4 .5 2.6-1.3 7.8 1.2 16.7-2.6 24.2 0l.3-.1c.2.5.3 1 .3 1.5-1 .1-1.8.3-1.5 1.3-1.5 0-2.2-.5-2.6-1.4-1.8 2.1-7.1-.1-9.5 2.7 1.9.9-12.3 2.1-14.1 2.1-8.2.1-18.8-3.5-26.5-.7v.1c-.4-.1-1.2-.2-1.8-.1v-1.3c-3.5 1-4.2 0-7.8.7 0-.7.7-.8.9-1.4-1.2.1-1.7.3-1.7 1.4-3.7-.9-7.5-.5-11.2-1 .1-.8.8-1.2.5-2.5zm76.2-1.3c.2-2.9 2.6 1.5 5.2-.7 0 .3-.1.6-.4.7 4.3-.2 16.3-3 22-.7-.3 1.4-1.7 1.8-2.6 2.7-4.7-2.8-6.6.8-10.4 0 4.5-2.5-4.3.3-4.3-1.3-1.6.8-2.5 2.1-4.3 2.7-1.3-2.2-3.1-1.5-5.1-2-.1-.7-.1-1.1-.1-1.4zm36.3-1.4c-.3 2.4-2.3 1.7-4.3 1.4.7-1 2.8-1 4.3-1.4zm663.5-5.6l.3.3v-.3h5.3c-.1.3-.3.6-.5.9-2.9 0-5 .6-7.1 1.2-1.3-.4-2.6-.6-3.8-.7-.2-2.2-5.2.7-6-1.5h11.8zm6.8.2c0-.1.1-.2.1-.2h4.2c.1.3.2.5.2.9l-.6.3v-.2c-1.4.1-3-.1-2.6 1.4-.9 0-1-.5-1.7-.7l-.4.1c.3-.6.6-1.1.8-1.6zm340.6 10.8c11.1.1 21.8.5 32.8.1 5.5-.2 11 1.3 16.5 1.3 5.2 0 12.4-2.9 17.3 0 6.9-2.6 17.3-.9 23.2 1.3 0 .4-.2.8-.3 1.1-.2.1-4.4-.1-4 .8.4.8 4.9-.2 4.8-.1.5-.4.8-1 .7-1.8 4.3-2.2 8.5-2.9 12.8-.6-.2 1-1.4 1.1-1.7 2 .2 1.7 1.5-.9 3.5 0l-.2-.4c1.2.9 2.2 1 2.9.1-.5-.4-1.1-.6-1.7-.6 1.1-2.7 7.5-1.8 9.4-.4l.4-.1c-.4.4-.7.8-1.1 1.1-.3 0-2-.4-2 .3-.1.8 2.4.6 2.5.6.5-.3 1-.7 1.4-1.2 2.4.5 2.4-2.2 6.6-2.8 1.3.6 2.8 1 2.6 2.7 4.8-1.7 4.8-.3 8.7 1.4-7.3 3.7-17.8-1.1-21.6 2-22.5-1.9-38.5.3-60.3 0 .2-.4.2-.8-.1-1.2-.1 0-4.9-2.6-4.5-.6.1.5 2.5 1.1 2.9 1.3 0 .1.1.3.1.4-1.1.7-4.2-.2-5.7.2 0-.9-1.1-.9-.9-2-8.4-.1-17.1-.4-24.2 1.3-11.5-4.2-29.7 1.3-37.2-1.3-4.5 2.4-10-.5-13 2-11.2-1.7-24.5-1.7-33.8 1.3-4.5-2.2-5.5-2.1-10.4 0-3.7-1.5-10.3-2.8-13.8-.7-3.6-.1-5.1-1.8-8.7-2 0 .2.1.5.3.6.2 0 .4 0 .6.1-.3 0-.5 0-.6-.1-4.4-.4-11 .9-18.4.7l.2.4c-.8-.4-1.6-.6-2.4-.5-2 .1 1.3 1.1 1 1-1.8.9-4.4 1.2-7.4 1.1 1.7-2 2.4-3.1-2.6-2.7l.1.2c-2.1-.4-4.5-.3-6.7.1-.3.8-.3 1.6-.1 2.5l-.2-.1c-5.2.8-12.1-1.2-16.4 1.3-6.7-2-15.5-2.7-21.6-.7-11.1-7.7-30.9 3.3-42.4-3.4-9.8 3-25.7-4-30.3 1.4-6.6-1.8-41.9 2.1-43.3-3.4 12-2.5 23.5-1.3 36.3-2.7 3.5-.3 7-.4 10.4-1.3 13.3.9 39.5-7.2 51.1.7 1.5.3 2.8-1.2 4.3-1.4 3.7-.3 8.6 1.6 12.5 1.9 9.4.6 18.8-.5 28.2.8-.2-.5-.7-.8-1.7-.7 7.4-2.3 15.8-.3 23.3-.5 6.2-.2 13.1-2.1 19.1.5 1.2-.7-.4-1.1 1.7-2 3.6 4.3 22.6 3.6 26.8 1.4 23.9 4.5 48.7-.8 74.3-.7zm143.6 4.7c-2 0-2.5 1.2-5.2.7-.6-2.6 5.6-4.1 5.2-.7zM1401.4 34c-.1-.3-.1-.5-.1-.7 1.6-.2 3-.2 4.2 0 .1.3.2.6.8.5-.3 1.5-3.8.8-4.9.2zm472.3-10.2c11.7-1.1 18.5-.9 31.2-2.7 2.1 2.6-4.2 1-4.3 4.7-13 1.2-26.6 8.5-39.8 3.4 2.8-5 5-4.6 12.9-5.4zm27.2 10.4c-.4.2-.8.3-1.2.5l-.1-.1c-.1-.8-1.4-.7-2.6-.7-2.5-3.8 3.4-2.3 4.3 0h.1c-.1.1-.3.2-.5.3zm37.7-9.7c-1 .6-2.3.9-4.3.7-.6-3.7 4.3-4.2 4.3-.7zm-707.1 8.1c-4.4 1.3-8.2 2.6-13 1.3-3 2.2-10.8 1.7-13.8 2-1.1-.3-1.8-.9-1.7-2-3.1-.4-7.2 1.6-10.4 1.7-3.8.2-8-2.9-11.3 1-7.5-1.1-10.2 2.1-14.7-1.3-10.4.7-20.5.5-31.2 0-.2-.6.3-.6.9-.7-.6-.1-1.2-.3-1.7-.7-.2-2.5 2.3-.5 3.5-.7 3.8-3.3 9.8-1 13.8.7 1.5-1.2-.1-1.8.9-4 8.9.6 13.8 1.3 19.9 4.7 4.2-2.8 12.5 2 18.2-2.7 2.7-.8 2.1.4 4.3-.7 4 .5 5.3.7 8.6 2 9.1-4.4 18.3-3.2 31.2-2 .7 2.3-2.4 1.1-3.5 1.4zm-77.9 9.7v1c-2.6.8-7.9 2.2-8.6-.7 4.1 1.2 4-.9 8.7-.7-.1.2-.1.3-.1.4zm-64-7.1c0-.4.1-.8.9-.7-3-1.4-7.6 1.6-11.3.7 1.6-2.7-.3.2-2.6 0 .3-1 0-1.9-.8-2.8 1.1-1.9 3.3.6 4.3.8 1.5-.9 2.9-1.8 6.1-1.4-1.2 1.8 10.5 1.5 3.4 3.4zm-27.7 0c-1.8.3-7.2.5-7.8-1.3 4.9 1 4.8-.4 7.8-2 3.7-.5 8.5 2.3 12.1 1.4l.1-.2c.4.5.5 1 .7 1.6-2.5.9-9.2 0-12.9.5zm-15.4-1.1c-.1-.3-.3-.6-.4-1l.2.1c1-.1 1.4 1 1.7 0 2.6.8-.4 1.9-1.5.9zm-1.9.5c-5.9-.6-12.1 2.4-14.7-1.3-3.2.4-7.2 2.8-8.7-.7 4-.6 8.5-.4 16.5-.7 0 .9 1.1.9.9 2 3 .6 4.5-1 5.9-.1.1.3.2.6.4.8h-.3zm-38.9-.7c-1.3-2 4.5-.4 6.9-1.3.6 3.2-7.3-.1-6.9 1.3zm-384.3 9.4c3.1-1.5 6.9-1.1 10.4 0-.3 2-7.9.5-10.4 0zm-4.3 1.4c-2.4-.9-4.3 1.7-5.2.1v-.9c.2-.6 1-.2 1.7.1 1.2-.2 1-1.5 1.7-2 1-.1 1.3 1 1.7 0 2.7.4-.7 1.4.1 2.7zm-7 0c-6.5 2.2-18.8 3.1-25.1 3.3-21.7.9-43.6 1.5-64.9 1.3v-.7c24.7-3.6 57.5-2.9 86.5-6 .2 1.2 1.5 1.5 3.4 1.3v.8zm-92.6 4.7c-2.7 3.5-17.3 6.2-18.1 1.3-7.2 1.1-15.3 5.5-19.9 1.3-3.3 3.4-40.9 2.5-41.5-.7 2.8 0 4.7 1.4 5.2-1.4 1.6.5 3.5.9 4.3 2 3.6-5.9 12.7-.7 18.2-3.4 2-.2 3.3.2 3.5 1.3 2.5-2.7 5.8 0 12.1-.7 2.4-2.1 8.8-1.3 13 0 1.7.2 1.7-.9 2.6-1.3 2.3 1.5 14.9-1.6 20.7.7v.9zm-73-3.4c.3 0 .5-.1.8-.1.1.1.2.1.4.1-.6.9-1.9 1.2-3.5 1.3v-.7h-.2c.7-.3 1.6-.4 2.5-.6zm-29.9 1.3c-.2 1-1.9.5-2.6 0V47c.7-.2 1.3-.1 1.8-.1 0 .3.2.5.8.4zM1998.9.2H.5v22.3c8.8.3 17.3.6 24.6.7 0 .7-.7.8-.9 1.4 22.7.5 43.2 1.6 71.5 0 .7 1.2 1.8.6.7-.8l.5.1h5.2c-.1 1.8 1.4 1.4 0 2.7 5.2-.9 12.8 1.1 11.3-2 2.4-.1 2 2 4.3 2 .5-1.4 1.3-2.5 4.3-2 .1 1-.3 2.5.9 2.7.1-1.5 2.2.9 4.3 0l-.1-.3c1.4.5 2.9.8 4.5.8l-.1.1c8.8-2 19.8.7 26 1.3v.6c-1.2 0-2.3.1-3.5.1v-.1h-1.7l.1.3c-4.7.4-9.4-.5-14.1-.1l.1-.3c-1.3.1-3.2-.2-3.5.7l.1.1c-2.8.1-34.7-1.7-34.5.3.2 1.5 31.5 1.5 34.5 1.5l-.1.1c3.2.9-2.5.1-1.7 1.3 1.5-.4 4 2.3 5.2 1.3 1.5-1.2-1.4-2.3 0-2.7 1.8.7 1.8.7.9-.6 4-.2 8 .3 12 .2-.3.8-2.1.4-1.7 1.8 4.9-.7 5.3-.2 5.2-1.9 1.2 0 2.3-.1 3.5-.2v.1h3.5v-.1c.9.4 1.7.2 2.3-.5.2-1-1.9-1.1-2.4-1.2l.1-.3v-1.3c3.6-.1 17.4-.9 15.6 3.4 2.2-.8 6-.3 6.9-2 5.4 2.5 16.6 1.4 21.6-.7 3.9-.8 11.9 1.6 13-1.3-3.2-.2-1.5-2.3-.9-2-3.4-1.8-7.1-.8-11.2-.7.2-.5.1-.9-.2-1.4l.2.1c5.7-2.1 10.6-1.8 22.5-2-.2.8-1.3 1.4.9 1.3.2-.5 0-1.3.9-1.3 1.1 2.5 10.6-1.5 9.5 1.3 5.7-1.3 10.1-1.7 14.7 0 9-2.6 15.2-.7 23.4-.7 6.4 0 17.4.4 25.1-.7 1-2.5 42.4 1.3 42.4 1.3-.6 1.3-4.8-.2-5.2 1.4l.3.1c-.9.3-1.5.5-2.1.3-.2-2.3-4-1.4-6.1-.4-6 .6-12.2-1-18.1.6-.7-.1-1.5 0-2 .5-5.8-.7-12.8-2.2-17.9 1.5-.1 0-.2-.1-.3-.1 1.1-1.4-.6-2.5-1.7-1.2-1.7-.5-3.6-2.2-4.2 0l.1.3c.1 0-1.9-1.3-2.4-.5.2.7.6 1 1.4 1 0 1.1-.2 1.9-.9 2.5 1.8-.4 5.7.8 6.1-.7V28c.8.4 1.7.6 2.5.6 5-3.7 11.3-2.2 17-1.6.1.2.2.6.4.9-.9-.1-1.6.2-2 .9.8.7 1.8.8 2.9.1.6.2 1.2.3 1.7.1 1.1.6 2 .5 3-.4-.3-.9-1-1.4-2-1.4 0-.1-.1-.2-.1-.2 5.4-1.2 11 .1 16.5-.3.3.6 1 .8 1.6 1.1v-.1c.2.8.7 1.3 1.5 1.5.6-.7.4-1.4-.8-2.1h.2c.1-.5 2-.5 2.6-1.3 1.2.6 2.5.1 3.6-.3l-.1.3c3.9 3.5 12.2.6 16.1 1.9.6 1.4.9 2.8.9 4.2-.3.1-.6.2-.8.4-.9-.1-11.5-1.6-11.4-.1.1.8 9.9 1.1 11.2 1.2.1.2.3.3.5.4 0 .4-.1.7-.1.7-.6.1-12.2-.5-11.5 1.1.4.9 12.9 1.2 13.1-1.8.2 0 .4-.1.6-.3.8.1 8 .9 7.3-.7-.5-1.1-6-.6-7.1-.7-.2-.2-.4-.3-.7-.4-.1-1.7-.5-3.3-1.2-4.8l.4.1c0-.4.3-.6.5-.9 4.4.2 9-1.9 13.3-.5.5.1 1 .5 1.5.4 3.2.8 7 1.6 9.6 1-.6.6-2.7 2-2.7 3s4.1-1.4 4-2.6c2-1.7 4.7-.4 5.7-2.3 1 0 1.9-.1 2.7-.3v.2c4.1 2.3 7.8.8 13 2l-.1-.1c3.6.6 7.4.2 11 .9-1.8.8-6 2.3-7.3 2.5 1.6-.3-5.2-3.2-7-.2-.8-.1-1.6-.9-2.4 0-1.5 1.6 2.9 1.8 3.3 1.9l-.1.3c10.2 1 13.2-.1 23.4 0-1.4-1.7-2.1-1.2.7-3.3h.2c1 3 6.3 1.1 3.4 4.6 22.9.7 65.4-.6 90.9-2.7.6.9 1.9 1.2 3.5 1.3 25.7-4.8 52.8-2.6 78.8-4 13-.7 25.9-3.1 38.9-3.1 8 0 20.3-3.8 27.7-.3 6.8-4 20.7-1.5 28.3-2.2 11.5-.9 22.7-2 34.3-1.9 12.1.1 32.7-6.2 43.9-.6.1-3.1 3.9-.1 6-.7 4.1-3.3 11.5-.4 19.9-2 2.8.3 3 2.6 6.1 2.7 5.3-1.1 7.7-.1 13.8 0 3.2-2.5 16.7-4.1 23.4-1.3 7.5-1.3 14-.9 22.5.7 2.4-.4 3.6-1.7 6.1-2 10.9.9 25.2 3 32-1.4 11-.2 22.4-2 33.3-1.6 3.8 3.3 5.6 2.6 12.5 3 .8-.7 1.7-1.4 2.6-2 2.4-.1 4.2-.5 5.9-.9h8.6c.4.7 1.1.7 2 0h2.7c5 2.5 9.2 3.5 14.6.3 2.1-.3 1.9 1.2 4.3.7.6-1.8 4.8-.7 5.4-.9h1.3c7 4 22.3 1.6 29.6.3.4 1.3 3.4.5 2.6 2.7 3.8-.9 10.2-.7 9.5.7 10.8-2.4 20-1.1 28.6-1.3 8-.2 21.3-.7 31.2-.7 9.9 0 23-1.4 32.9 1.4 13.4-4.1 27 1.1 42.4.7l-.1-.2c1.7.5 3.5.8 5.2.8 1.8 1.5 7.2.2 10.4.7l-.1-.2c4 .3 44.6 1.2 44.2-1.6-.2-1.2-39.2-.1-43.3-.4.2-.6 1.3-.5 1.6-1 .3-.1.5-.3.8-.4.2-.4.2-.9 0-1.4h26.1v.9h1.7v-.9h2.1c-.1.1-.3.2-.4.3 1.4-.3 4.3.5 5.1-.3h296.2c.5 1 1.7 1.5 1.6 3-5.9-.6-8.2 1.7-12.1 2.7-3.6-.4-2-1.7-4.3-2-5.2.4-7.3 3.3-12.1 4-4.8-2.4-8.4-2.4-15.6-2.3-8.5.2-15.5-3.3-24.2.2-1.7 0-1.1-1.8-3.5-1.3.6 1.8-1.8 1.3-2.6 2-10.8-.4-26.5 1.8-38.9-.7-18.8 3.2-38.4.8-57.4 1.8-4.9.3-41.2 2.4-43-1.8-2.5 1-24.4 2.5-24.2 3.4h.1c-3.1.8-6.4.9-9.7 1.2-6.1-5.7-22.4 2.4-29.4-2 .5-.9 3.3-.1 3.5-1.3-25.9-.6-46.5 5-71 1.3-2 .2-3.6.8-5.2 1.4-4.3-2.9-8.7.5-12.1-2.7-6.4 3-12.9-2.3-18.2.7-1.7 0-1.1-1.8-3.5-1.3-1.2 1.1-3.9 1-5.2 2-6.7-3-14.4 0-21.4-.4-7.3-.4-12.1-1.2-19.6-.2-14 1.9-30.3-2.1-43.9 2.7-.5-2.7-4.1 0-8.7-.7-4.6-3.2-12.3 1.9-14.7-1.4-35.8.3-73.3-.9-108.2 0-6.6 0-13.4 3-21.4.8 1.1-.6-.8-2.5-2.6-.5l-.2-.2c-5.3 2.8-12.4 1.1-19 2.7-3.6-2.7-14.6.2-18.4.3-6.8.1-13.8.1-20.5-.9-4 4.8-28.4 2.2-34.2 2.4-12.5.5-25.4.7-37.6-2.4-.5 3-7.1 1.2-8.7 3.4-1.1-3-46.7 2.6-53.7.7-.9 5.1-42.4 3.7-49.3 6.1-1.3-.4-2.2-1-3.5-1.3-2.4 2.8-7.8 2.1-13 1.3-2.3 1.5-11.6 2.4-14.8 2.5-6.8.1-11 .5-17.7.9-8.5.5-16.9 1.5-25.5 2.1-7.3.5-17.5-1.7-24.2-.1 2.2 1.2-12.1 1.3-13.8 1.3-9.7.2-19.4.5-29.1.7-21.5.3-43.9 4.3-65.2 0-.1 2-3.5.6-5.2 2.7V45c-.7-.4-8.8-2.9-9.1-.8-.1.9 7.9 1.6 7 1.1-1.1.2-2.2.5-3.2.9-5.8.7-8.8-.3-12 2.6h-.4c-.2-.8-.5-3.2-1.8-2.4-.5.3.3 1.9.4 2.3-.9 0-1.8.1-2.7.2l.1-.2c-4.7-1.3 1.9-.2-.9-2-1.2-1.3-7.3-.8-8.7 0 0-.4-.1-.8-.9-.7v.2h-.1c-1.2-.3-2.4-.2-3.6.2l.2-.4c-6.6 1-9.3-.6-12.1 2-.1-1.1.1-2.3-1.7-2 0 .9.4 1.5.9 2v.3c-1.6-.8-3.6-.4-5.3-.2l.1-.1c-.3-1.3 1.2-1.3 1.7-2-6.2.2-4.5.1-6.9 4 1.8 1.5 2.5-.3 5.2 0l-.1-.2c1.2-.2 2.4-.3 3.6-.2.6 2.2 5.6.9 7.8 1.8 6.2-3.9 17.3.6 24.5-1.3.4 0 1 .1 1.4-.1 1.5 1.5 6.4.4 6.9 2.7-15.4 4.5-32.4-1.6-47.6 2-2-.2-1.6-2.3-4.3-2-5.6 2.6-13.4.4-19.3 0 .2-.4.3-.9.4-1.3 1.6 0 5.3.4 6-1.4l-.3-.1c1.6-.8 3.5-1 5.2-.5 0 .1-.1.1-.1.2-1.3 1.3-.4 1.4 1.1 1.1.5-.6.8-1.2 1.1-1.9-2.5-1.1-5.5-1.3-8-.1-3.9-.1-.4-2.9-3.4-2.7.1 2.6-4.4-1.9-6.1 1.3l-.4.1c.6-1.2.6-2.3 0-3.4.8 0 6.3 1.6 6.7.4.5-1.6-8-1.4-9.1-1.2 1 .9 1.8 2.4 1.2 3.8-1.9.4-6.6-.4-8.7.4-1.7-1.1-3.2-2.4-6.1-2.7V46l.1.2c-.4 0-6.1.4-4.9 2 .7.9 4-.1 4.9-.2v.1c1.3.1.8 1.6.9 2.7h4.3l-.1-.1c1.7.4 3.3-1 .9-1.3 0-.2.1-.4.3-.5 2.3.3 6.6.1 8.4-.2l-.1.2v.1c-1 .2-1.5.8-1.6 1.9 1.5.8 2.9.5 4-.9l.1.1c1.2.2 1.4 1 2.5 1.3 0 .2-.1.5-.2.7-16.4.7-25.5 1.2-40.4.7-.2-.5 0-1.3-.8-1.3-.3-.9-.7-.9-1.1 0-11.2 3.4-31.6.1-43.2 2-1.5-.6-1.9-2.1-2.6-3.4-4.1-.1-4.9-.1-6.9-.7-1.2 2 .6 3.5-4.3 3.4 0-.9 1.1-.9.9-2-7.4-1.3-6.9 0-13 2 .1-.8 1.5-1.5 0-2-6.5 2.6-22.8 3.9-26.8.7-1.7 1.5.2.7.9 2-13.7 0-23.2 2.4-32.9-1.4-13.4 4.2-25.9 1-35.5 1.4.1-.2.1-.4.1-.7 4.7.1-.2-2.3 1.6-2.7 36.5-.9 71-.7 102.1-2V48c1.8.2 3.6.2 5.3 0v.1c5.3.5 13.3-.4 17.3-.7l-.1-.3c5.1.5 10.6.7 15.8 0l-.1.3c1.6 0 1.8.5.9 1.4 2 .4 1.9-.8 2.8-1.2.5.1 16.9.5 16.9-1.1 0-1.7-15.5-.5-16.2-.5.1-.7 1.1-.9.9-1.9-1.5.4-5.1-.8-5.2.7l.2.4c.1 0-2.6-1-2.9-.2-.2.6 1.7.7 1.8.8v.2c-4.5.5-9.3.3-13.8 0 .1-.4.5-.6.7-.9 1.5.5 2.7.3 3.7-.6 0-1.2-5.5.2-4.4-.1V44c-8-.2-15.2 1.3-19 .7 1 .1.6.7.1 1.2-1.1.1-2.3.1-3.5 0 2.4-2.5-6.3-1.5-7-1.9.4-2.4-.8-1.7-1.7 0-3.2-3.3-7.6-.9-11.5-.2-5.2.9-14.9-.8-21.2.8-.7-1.2-1.7-.4-.7.9-1.5-.2-12.9.8-11.7-2.1-3.7 2-5.6 1.7-10.4 2v-2c-6.4-1.3-13.3 5.2-12.1 0-3 .8-5.7 1.8-10.4 1.3-.1-4.3-5.5-.2-7.8 0 .1 0 .6-1.3.9-1.3-3.6.1-9 2.8-13.8-.7-2.9 2.2-27.1 4.3-29.4 2-3.9 2.4-8.6 2-10.4 0-9.7 2.4-19.9-1-30.2 2h-3.6c-1.4-2.8-7.8-1.4-8.6-1.3.1-.9 1.1-.9.9-2-3 .1-7.6.8-10 1-1.6.1-8.2.3-9.9 1 0-.9.4-1.5.9-2-3.3-.3-4.6 1-6.4 1.8-4.5-.1-10.8-1.5-15.2-.4v-2.1h-6.1c-.3 1.3 1.1 1.3 1.7 2C21.8 42.6 10 44 2 45c.2-.2.3-.5.2-1-.7.2-1.4.3-2.1.3v3.1c9.8-.3 19-1.4 28.9-.7-.1 2.5.7.2 2.6.6.3 1.6-2.5.8-2.6 2 6.3.9 2-2.4 6.1-2.7 4.9.1 9.9.4 14.8.4l-.1.3c4.2 2.8 8.1 1.7 11.6.7-.1.2 19.2 4 21.6.7 1.4 0 3 .3 4.3-.1.3.8.9 1.5 1.7 2 11.9-2.2 21.4 1.1 34.6-.7.1.8-.1 1.9.9 2 .9-.9 2.3-1.3 3.5-2 8.1 3.9 20.4-1.6 28.6 2h.1c-.1.5 0 1.5-1 1.4-.2-.8-1-.4-1.7 0l-.1.3c-.2-.9-.8-1.9-1.7-2.2l.1-.1h-.2c-.2-.1-.4 0-.5.1-2.3.4-2.1 1.5.4.7.4.3.7.7.9 1.3-.4 0-.7.2-.6.6-3.3-3-9.8 2.1-10.4-1.3-15.7 3.4-41.5 1.5-54.5-.7-2 3.5-21.3.8-24.2-1.3-4.3.4-8.9 3-13.2 3.1-2.9 0-4.8-1.3-4.1-1.1-12.6-4.4-32.2-.7-45.4-.8v4.7c1.2.3 2.4.5 3.8.8 4.8-3.9 7.8-1 12.1.7 8-.5 18.3 2.6 26.8.7 4.2 3.7 5.6 1.1 6.9 0-1.5 1.3 1.3-2.8 2.6-2 2.3 6.7 17.4 1.9 23.4 5.4 1.6-1.2-1.2-2.1 1.7-2.7 5.1 1.2 10.5 2.2 15.6 3.4 1.6-.1.6-2.2 2.6-2 9.3-2.2 21.8.8 31.5.6 10.1-.3 21.2-1.5 30.8 2.1.2-1.9 2.6-2.1 4.3-2.7 21-1.8 42.8 1 59.7-2.7 7.3 3.4 14.2-1.2 18.2 3.4 3.4.2 2.6-2.9 6-2.7 5.3 1.5 12.5-1.8 16.4 1.4 7.7-4.2 19.6-2 28.1-1.8 10 .2 19.9.6 29.9-.2-1 1.4 1.4 3.2 1.7 1.3-1.3-.2-.1-1.1.9-1.3 10.2-.3 28.9.1 36.3 2-1 .1-2.5-.1-2.6.7 3.2.7 2.5-1.7 5.2-1.3-.2 1.8-1.8 2.2 1.7 2-.9-4.4 9-1.3 12.1-4 7.7 5.9 15.5-1.6 20.8 4 2.3-.7 4.4-1.5 6.9-2 .3.8 2.7 3.2 3.5 1.3-.1.9 32.3-.7 34.6-.7 1.8.8 4.4 5.2 6.1 2-.7-.2-1.7 0-1.7-.7 4 .6 9-1.3 13-1.4 4.6-.2 9.2.7 13.8.7 13.9 0 27.9-1.4 41.9-1.6 23-.3 47.9-4.2 70.6-1.8 1.2-.7 1.7-1.8 3.5-2 12.7 2.6 22.6-2 33.8 0 1.5-2.9 10.6-1.8 12.1-.7-3.1-.3-1.2 1.2.9.7.5 0 1-.1.9-.7-1-.1-1.3-.7-1.7-1.3 22-.9 43.9-2.6 65.7-3.8 7.1-.4 16.5.7 24.4.2 10.6-.6 22.4-4.9 32.7-1.1 1.6-.5 3.2-1.1 5.2-1.4.4 4.3 20.5 1.1 22.5 1.4 1.2-.7 1.7-1.8 3.5-2 5.5 1.9 10.4.1 15.6 2 0-1.2.7-1.7 1.7-2 11.1 3 20.1-.8 31.2 2 1.2-1.4 3.8-1.5 6.1-2 1.1.9 3.8.7 6.1.7 7.6-2.9 14.3.9 22.5-1.3 1.1 1 3.3 1 4.3 2 .4-.7 3.4-2.4 2.6 0 5.8-4.3 15.5-3.9 22.5-2 .7-1 1.3-2.1 3.5-2 5.5 2 10.8-1.4 18.2 1.3 15.4-2.4 36.7-4.2 48.5-2.7 1.2-.2 1.5-1.1 2.6-1.3 6.6 4.9 13.3-1.5 20.8-.7 1.2.7 1.7 1.8 2.6 2.7 2.9 0 2.9-2.2 6.1-2 0 .7-.7.8-.9 1.3 7.3-1.9 8.3 1.4 15.6-1.3.1.8-1.3 1 0 1.3 10.6-2.8 21.9.5 32.9-2 3.5 3.1 12.5 2.2 17.3 2.7.1-2 38.5 3.6 40.3 3.8 17.4 1.7 34.6 1.7 52.3-.9.9 0 1.7 0 2.6-.1.3.6 1.4.6 2.5.5l-.1-.4c1.2-.2 2.5-.4 3.6-.7.4 2.7 5.4-.1 6.1-1.1.5.1 4.3 1.6 4.4.6 0-.6-3.2-1.1-3.7-1.2-.4-.7-.9-1.4-1.6-1.8-.3 2.4-3.7-.4-5.2 0-.1.6 0 1.3-.3 1.7-1.3-.1-1.7-.1-3.7.6-.1 0-.1 0-.2-.1l-.1-.3v.2c-1.1-.2-2.3-.3-3.5-.2V44c-3.2.5-3.7-1.1-6.9-.7v-.6c3.3.8 6.8-3.6 9.5 0 1.7-2.7 9.9-.7 14.7-2-.9 2.8 2.8 1.9 4.7 2.5-.1 0 7.8 2.6 6.9.3-1.7-.8-3.5-1.2-5.5-1.2.4-.9 3.1 0 4.3-.3.3-1.2-1.3-1.7 0-2 13.7.3 22.2-1.4 34.6.7 3.2-3.3 16.1-2 20.8-2 .2-.5 0-1.3.9-1.4 1.7.3 2.2 1.5 4.3 1.4 8.8-3.1 21.8.2 36.3-2.7.1.8-.1 1.9.9 2 1.6-.7 3-1.7 5.2-2 12.1.5 23.6.8 35.6 2.1 7.9.8 22.8-3.6 29.3 1.3.1-.8.3-1.6 1.7-1.3 8.9 3.8 18.5 3 29.4 4.7 1.1-1.2 2.8-1.8 5.2-2 10.4 2.6 20-1.7 28.6 1.3 2.5-.7 6.1-.6 8.7-1.3 5.7 3.5 11.1-1.3 16.4 1.3.4-.8.9-1.5 1.7-2 .7 1 2.8 1 4.3 1.3 6.9-2 15.3-.7 26 1.3 1.2-1.3 2.4-2.6 6.1-2-.1 1.1-2.2.5-1.7 2 3.8 1.5 5.1-2.1 9.5-2-.2 1.4 29.4-.5 33.8.7.1-1.1-.1-2.3 1.7-2 .9.7 1.8 1.3 2.6 2 8.6-.4 14.5 1 22.5.7 14.7-5.9 32.8-.7 48.2-1.8 13.7-1 28.8.8 42.6 2 8.1.7 16.2 2.2 24.3 2.3 3.2 0 6.7-.8 9.9-.6 3.8.3 2.8 1.6 5.6 2.1 15.8 2.6 39.8 5.5 55.4 1.3 7.1 3.4 19.2-3.4 28.6 2-.7.1-1.7 0-1.7.7 3.5.6 4.7-2.1 7.8-2.7 4.5-.9 9.3-.6 13.8-.7 1.8-.6 3.4-1.4 5.2-2 9.4 1.3 18.8-.4 28.2-.6 4.4-.1 9.2.7 13.6.2 3.9-.4 6.6-2.3 10.2-2.9 17.3-2.5 36.9-1.1 54.5-5.4v-.1c.6-.2 1.2-.5 1.8-.7l-.1.1c15.3 2.1 31-1 46.3-2.3 16.8-1.4 33.6-2.3 50.4-3.8l-.2-29z"/></svg>