<svg xmlns="http://www.w3.org/2000/svg" viewBox="0 0 2000 96"><path d="M588.3 83.3c1.2 0 2.3.2 3.3.3 1.9.3 3.6.5 4.3-.2.3-.2.4-.7.5-1.2-2-.4-5.4.2-8.1 1.1zm-6 1.8l2.9-1.5c2.6-1.4 8.8-3.3 11.9-2.1l.3.1v.3c0 1.1-.2 1.8-.8 2.3-1.1.9-2.9.7-5.1.4-1.9-.2-4-.5-6-.1l-3.2.6zM967.9 76.6c.4 0 .8.1 1.3.1 2.4.3 5.4.6 8.2-.1.1-.2.1-.3.1-.3-.1-.1-.5-.2-.8-.2-.6-.1-1.2-.2-1.5-.7-.1-.2-.1-.4-.1-.6-.7.1-1.5 0-2.3 0h-1.6c-.5.5-1.1.7-1.8 1-.6.2-1.2.5-1.5.8m5.6 1.4c-1.6 0-3.2-.2-4.5-.3-.6-.1-1.2-.1-1.8-.2h-.3l-.1-.3c0-.1-.1-.3-.1-.4v-.1l.1-.1c.4-.9 1.4-1.3 2.2-1.7.6-.3 1.2-.5 1.5-.9l.1-.2h.2c.6-.1 1.3 0 2 0 1 0 2 .1 2.8-.1l.4-.1.3.6-.1.2c-.2.4-.2.5-.2.5.1.1.5.2.7.2.6.1 1.2.2 1.5.7.2.4.1.8-.2 1.4l-.1.2-.2.1c-1.3.4-2.8.5-4.2.5M578.2 72.3c1.9 0 4 .6 6 1.1 4.5 1.1 8.4 2.1 10.1-2.3-2.8-.4-5.2.2-7.3.8-1.2.3-2.4.6-3.5.7-.5 0-1.2-.2-2-.4-1-.3-2.5-.7-3-.4-.1.1-.2.3-.3.5m11.5 3c-1.8 0-3.8-.5-5.7-1-2.1-.5-4.3-1.1-6.3-1h-.5v-.5c0-.8.2-1.4.6-1.8.9-.7 2.5-.2 3.9.2.7.2 1.3.4 1.7.4 1-.1 2.1-.4 3.3-.7 2.4-.6 5.1-1.4 8.4-.7l.5.1-.2.5c-1 3.5-3.1 4.5-5.7 4.5M560.5 59.9zm-6.3-.6c.8.5 2.8 1.2 4.5 1.2.6 0 1.1-.1 1.4-.3-1.1-.4-4.6-1-5.9-.9zm4.6 2.1c-.7 0-1.3-.1-1.8-.2-1-.2-3.8-.9-4-1.9-.1-.3.1-.5.3-.7 1.1-.7 7.1.3 7.9 1.1.2.2.3.5.1.8-.5.7-1.5.9-2.5.9zm12.5-1.4v.2c0 .1.4.3 1.1.4h1c-.2-.1-.5-.2-.7-.2-.5-.2-.8-.4-1.4-.4zm1.5 1.6c-.9 0-1.9-.2-2.3-.7-.2-.2-.5-.8.1-1.6l.1-.2h.2c.9-.1 1.5.2 2 .4s1 .4 1.8.3h.4l.1.4c0 .2.1.7-.7 1.1-.3.2-.9.3-1.7.3zm-19.4 2.3c3 0 6.1.3 9.1.6 8.5.9 17.3 1.8 23.1-4.2-.6-.5-.6-1.4-.6-2.1v-.5c-1.9-.5-4-.9-6-1.3-5.3-1.1-10.7-2.2-14.8-4.2-5.7.6-11.4.1-17.4-.4-6.6-.5-13.3-1.1-20.4-.3 0 .5 0 .9.3 1.2.6.9 2.4 1.2 4.1 1.5 2.4.4 5 .8 5.2 3.1 2.5 0 5.3.2 6.2 1.1.3.3.3.6.3.8 0 .3-.1.6-.4.8-1 .8-3.5.6-6.1.2h-.2c0 .4-.1.8-.2 1.1l-.1.2-.2.1c-.5.2-.9.4-1.3.6v.4c2.3.3 4.5.6 6.8.8.5-.1 1.1 0 1.5.3 1.8.1 3.3.4 4.7.8 2.1-.4 4.2-.6 6.4-.6zm18.3 2.3c-3.1 0-6.2-.3-9.4-.7-5.5-.6-10.7-1.1-15.1 0h-.2c-1.3-.4-2.9-.6-4.7-.8h-.1l-.1-.1c-.3-.2-.6-.2-1-.2h-.2c-2.5-.3-5.1-.6-7.6-.9l-1.4-.2 1.2-.7-1.3-.3 1.2-.6 1.8-.9c.1-.4.1-.8.2-1.2v-.5h.5c.1 0 .4 0 .8.1 1.1.1 4.5.6 5.3 0 .1 0 .1-.1.1-.1-.4-.4-2.2-.8-6-.8h-.5l-.1-.5c.1-1.7-1.6-2.1-4.4-2.6-1.9-.3-3.9-.6-4.8-1.9-.4-.6-.6-1.4-.4-2.3l.1-.3h.4c7.3-.8 14.2-.3 21 .3 6.1.5 11.8 1 17.4.4h.1l.1.1c4 2 9.4 3.1 14.6 4.2 2.1.4 4.3.9 6.4 1.4l.3.1v.3c.1.3 0 .7 0 1 0 1.1.1 1.3.5 1.4l.9.1-.6.7c-3.9 4.4-9.3 5.5-15 5.5zM969.2 63.9c-1.3.3-2.1.6-2.5.9.3 0 .9-.2 1.9-.6.3-.2.5-.3.6-.3zm.4-.1l.2.2c.4.4 2.5 1.1 3.5.9.2 0 .3-.1.4-.2-.4-.7-1-1.1-1.9-1.1h-2v.2l-.4.1.2-.1zm-5.9 7.8h7c3-.3 6-.2 9-.2 5.3.1 10.8.3 15.7-1.8v-4.3h.5c20.8-1.3 35.3-1.7 51.7 0 .8-.7.7-2.1.6-3.7v-.4l.4-.1c.3-.1.7-.1 1-.2 1.7-.3 3.5-.7 6-.6-.3-.4-.6-.7-1.2-.9-2.3-.8-6.4.5-8.3 1.8l-.7.5-.1-.8c-.1-.6-.3-1-.6-1.3-.7-.6-2.1-.4-3.5-.2-1.8.2-3.8.5-5-.7-8.3 7-36.8 2.4-47.8-.9-2.1 1.6-5 1.8-7.8 2-3.2.3-6.3.5-7.9 2.7.9.2 1.6.8 2 1.8l.1.2-.1.2c-.1.3-.4.8-1.2 1-1.3.3-3.3-.3-4.2-.9-.1 0-.1.1-.2.1-1.2.5-2.3.9-3 .6-.2-.1-.4-.3-.5-.5-.1-.2-.1-.4 0-.6.1-.2.4-.7 2.9-1.4-1.1-1.1-2.7-.9-3.4-.8-1.6.3-2.9 1.3-3.2 2.3l-.1.3h-.4c-2.2.2-5.3.1-8.5.1-8.4-.2-18.7-.4-21.8 3-.5.6-.8 1.3-.9 2 5.3-2.2 13.2-2.1 19.5-2 4.1 0 7.7.1 9.6-.5l.7-.2-.1.7c-.1.9.5 1.2 1.6 1.7.9.5 2 1 2.2 2zm5.5 1.2l.1-.2h-6.5v-.5c0-.8-.6-1.1-1.6-1.5-.9-.4-2-.9-2.2-2.1-2.1.4-5.5.4-9.3.4-6.5-.1-14.6-.1-19.7 2.2l-.6.3-.1-.7c-.2-1.4.2-2.5 1.1-3.5 3.4-3.7 14-3.5 22.6-3.3 3.1.1 6 .1 8.1 0 .5-1.2 2.1-2.3 3.9-2.6 1.8-.4 3.5.1 4.5 1.3l.8.4-.5.5v.1l1.8-.9c1.7-3.1 5.4-3.3 8.9-3.6 2.7-.2 5.6-.4 7.4-2l.2-.2.3.1c5.3 1.6 15.4 3.6 24.9 4.3 11.5.8 19.3-.4 22.5-3.5l.4-.4.3.5c.8 1.2 2.6.9 4.4.7 1.7-.2 3.2-.4 4.3.4.4.3.7.7.8 1.2 2.3-1.3 6.2-2.4 8.6-1.5 1.1.4 1.8 1.2 2.1 2.2l.2.7-.7-.1c-2.7-.3-4.6.1-6.5.5-.2 0-.4.1-.6.1.1 1.7 0 3.3-1.2 4.2l-.2.1h-.2c-16.3-1.7-30.6-1.3-51.2 0v4.1l-.3.1c-5.1 2.2-10.9 2.1-16.4 2-3.2-.1-6.6-.2-9.7.3l-.7-.1zM925.4 76c.1.4.3.8 1 1 .3-.7 1.2-.9 1.8-1 .2 0 .4-.1.5-.1h-.2c-1.2-.2-1.2-.2-2.3 0-.2 0-.5.1-.8.1zm2.1 2.4l-.8-.2c-1.6-.4-2.3-1.3-2.3-2.6v-.4l.4-.1c.5-.1.9-.1 1.2-.2 1.3-.2 1.4-.2 2.7 0 .3.1.7.1 1.2.2l.5.1v.4c-.1 1-1.1 1.2-1.8 1.3-1 .2-1.1.3-1 .6l-.1.9zM843 62.7l1.4 1c1.6 1.1 2.6.9 3.2.4-.8-.5-1.6-.6-2.7-.5l-.1-.5h-.1c0-.1 0-.1-.1-.1-.1-.3-.8-.3-1.6-.3m-63.2 7c10.7 3.2 24 2 38.1.7l1.7-.2.1.1c3.3 1.7 8.2 1.3 13.3.8 3.9-.4 8-.7 11.8-.2l-.3-.3c-.3-.3-.6-.6-.6-1.2v-.8l.8.4c3.4 1.6 7.3.7 11.1-.2 4.8-1.1 9.7-2.3 13.9 1.6 6.3.9 11.9.1 17.9-.8 2.3-.3 4.6-.7 7.1-.9 3.7-.4 7.7.2 11.5.7 5.3.8 10.7 1.5 15.5-.2v-4.8c-7.5-.6-11.8.4-17.2 1.7-1.6.4-3.3.8-5.2 1.2l-.7.1.1-.7c.1-.8-.3-1.2-.9-1.8-.3-.3-.7-.7-.9-1.2-5.3-.2-10.9-.8-16.8-1.5-12.6-1.4-25.5-2.9-36.6-.2.9 0 1.6 0 2.1.4.1.1.2.2.3.4 1.2 0 2.2.4 3.1 1.1l.4.3-.3.4c-.8.9-2.2 1.7-4.3.5-1.1.7-2.8.7-4.7.8-1.7 0-3.6.1-4.4.7.5.7.6 1.4.4 2.2l-.1.2-.1.1c-.4.3-.9.4-1.3.2-.8-.2-1.2-1.1-1.5-1.8-.1-.1-.1-.2-.2-.3-8-1.2-20-2.3-31.4-1.4h-.3l-.2-.2c-.4-.5-.4-1.3-.4-2 0-.8 0-1.6-.5-2.1-.4-.4-1.1-.6-2-.6-.7 4.2-5.1 4.5-9.4 4.8-3.5.2-7.1.5-8.6 2.9.2.1.3.2.4.4.1.4-.1.7-.3.8-.4-.2-.4-.1-.4-.1m16.6 3c-6.3 0-12.1-.6-17.4-2.2l-.3-.1v-.3c-.1-.4.2-.8.4-1l-.6-.1.3-.5c1.6-3.3 5.7-3.6 9.7-3.9 4.3-.3 8.1-.6 8.5-4.3v-.4h.4c1.5 0 2.5.3 3.2.9.8.8.8 1.9.8 2.8 0 .5 0 .9.1 1.2 11.5-.9 23.3.3 31.3 1.4l.3-.1.2.3c.1.2.3.4.4.7.2.5.5 1.1.9 1.2h.3c.1-.5 0-1-.5-1.4l-.3-.3.2-.3c.8-1.4 3-1.5 5.4-1.5 1.5 0 3 0 3.9-.4l-.7-1.5c-.3 0-.6 0-.9.1-1 .1-2 .2-2.7 0l-1.6-.4 1.6-.5c12-4.1 26.6-2.5 40.7-.8 6 .7 11.7 1.3 17.1 1.5h.4l.1.3c.1.4.5.8.8 1.1.5.5 1 1 1.1 1.9 1.7-.3 3.2-.7 4.6-1 5.6-1.3 10-2.4 18-1.6h.5v6.4l-.3.1c-5.1 2-10.8 1.2-16.3.4-3.8-.5-7.7-1.1-11.3-.7-2.4.2-4.7.6-7 .9-6.1.9-11.9 1.8-18.4.8h-.2l-.1-.1c-3.8-3.6-8.3-2.6-13.1-1.4-3.4.8-6.9 1.7-10.2.7.2.3.3.7.2 1.2l-.1.4-.5-.1c-3.9-.6-8.1-.2-12.2.2-5.2.5-10.2.9-13.8-.8l-1.4.1c-7.5.4-14.7 1.1-21.5 1.1M851.8 33.2h.5c2.1 0 3.7 0 4-.7-.8-.5-1.3-.3-2.1-.1-.6.2-1.3.4-2.2.4-.1.1-.2.2-.2.4m1.6 1h-2.5l-.7-.5.5-.4c.1-.1.2-.5.2-.7 0-.2.1-.3.1-.4l.1-.3h.4c1 0 1.7-.2 2.3-.4 1-.3 1.9-.6 3.3.4l.2.2v.3c-.1 1.5-1.9 1.8-3.9 1.8"/><path d="M833.9 31.5c2.6 2.6 10.7 1.6 14.8 1.2.4 0 .7-.1 1-.1 0-.1.1-.3.1-.4h-.2v-.6c-.1-.1-.6-.1-.8-.1-.2 0-.5 0-.7-.1l-.5-.1c-1.8.4-3.6.2-5.3 0-1.4-.1-2.8-.3-4.2-.1l-.2.1c-1.4 1-2.2.7-3.2.4-.2-.1-.5-.2-.8-.2m7.2 2.7c-3.9 0-7.6-.7-8.7-3.1l-.3-.7h.8c.9 0 1.6.2 2.2.4.8.2 1.2.3 1.9 0l-.3-.4.8-.1c1.7-.3 3.4-.1 5 .1 2 .2 3.8.4 5.8-.2l1-.3-.3.7c.5 0 1.2.1 1.5.5l1.2-.3-.5 1-.6 1.5-.1.3h-.3c-.4 0-.8.1-1.4.2-2.1 0-5 .4-7.7.4M542.8 67.9c.4.3 1.1.5 2 .3 1-.2 1.6-.6 1.6-.8 0 0 0-.1-.1-.1-1-.3-2.1-.5-3.4-.7 0 .4-.1.8-.1 1.3m1.3 1.3c-1 0-1.8-.3-2.2-.9l-.1-.1V68c0-.7.1-1.3.2-2l.1-.4h.5c1.6.1 3 .4 4.2.8l.2.1c.6.5.6 1 .5 1.2-.2.8-1.4 1.3-2.4 1.5h-1M528.4 59.3c0 .2.1.3.2.4.6.7 2.4.7 3.9.8l.6-.3v-.1c-1.3.1-2-.2-2.6-.5-.6-.2-1.1-.5-2.1-.3zm4.3 2.1h-.1v-.5l-.1.5c-1.9-.1-3.8-.1-4.7-1.1-.4-.4-.5-.9-.5-1.5v-.4l.4-.1c1.6-.3 2.4.1 3.2.4.7.3 1.2.5 2.5.3l.2-.1.6.3v.3c0 .4 0 .7-.1 1.1v.3l-.2.1c-.3.1-.6.3-1 .4h-.2zM533.1 65.5l-.3.1c-1.1.3-1.4.7-1.5.8 0 .1.1.3.6.6 1.7 1 5.3 1.4 6.9.6 0-.5.1-1 .2-1.4-2-.2-4-.4-5.9-.7m3.5 3.6c-1.9 0-4-.5-5.1-1.2-1-.6-1.2-1.2-1.1-1.6.1-.6.6-1.1 1.7-1.5l-.2-.5.8.1c2.3.3 4.6.6 7 .8h.5l-.1.5c-.1.7-.2 1.4-.2 2.1v.2l-.2.1c-.8.8-1.9 1-3.1 1M768.2 29.9c.1.1.1.3.3.4.9.8 3.3.8 5.6.7h2.7c-.1-.1-.2-.2-.6-.3-.4-.1-.9-.3-1.2-.8-.3 0-.6 0-.9-.1v.1h-5.9zm4.1 2.2c-1.9 0-3.6-.2-4.5-1-.4-.4-.7-.9-.7-1.6V29h5.5l-.1-.2.8.1c.8.1 1.4.1 1.9.2h.4v.4c0 .1.2.2.7.4.5.2 1.7.6 1.2 1.9l-.1.4h-.4c-.9-.1-2 0-3.1 0-.4-.2-1-.1-1.6-.1zM1327.2 91c-.1 0-.2 0-.3.1-.2.1-.3.3-.3.4 0 .1.2.2.7.3.1-.5 0-.7-.1-.8.1 0 0 0 0 0zm.9 1.9h-.4c-1.2-.1-1.9-.4-2.1-1.1-.1-.5.1-1.1.6-1.4.5-.4 1.1-.4 1.5-.1.6.4.7 1.1.4 2.3v.3z"/><path class="st2" d="M210 15.796c2.8.5 7.5.3 12.4.1.9 0 1.8-.1 2.6-.1-.1-.4-.1-.7 0-1 .2-.6.8-.9 1.3-1.1.2-.1.3-.1.5-.2l-.6-.4 1.3-.2c2.3-.4 4.6-.6 6.8-.8h.5c3.2-.6 6.3-.7 9.4-.8 4.1-.1 8-.2 11.5-1.7-.5-1.5-.5-2.5-.5-3.3 0-.8 0-1.4-.3-2.3-5-2-11-1.7-14.6.9-1.9 1.3-2.8 3.1-2.7 5v.5h-1.8c-.8 0-1.8 0-2.1.3l-.1.2-1.4.1c-2.1.1-4.2.3-6.2.9h-.1c-1.5.2-3.1.3-4.6.5-4.2.4-8.4.9-11.9 1.9.6.3.6.9.6 1.5zm4.7 1.3c-2.2 0-4-.1-5.4-.4l-.4-.1v-.4c.1-1.2 0-1.5-.5-1.6l-2.2-.2 2.1-.7c3.7-1.3 8.5-1.8 13.1-2.2 1.5-.2 3-.3 4.5-.5 2.1-.6 4.3-.8 6.4-.9l.9-.1c.6-.5 1.6-.5 2.7-.5h.7c0-2.1 1.1-4 3.1-5.4 4-2.8 10.3-3.2 15.8-.9l.2.1.1.2c.4 1.2.4 2 .4 2.9 0 .9 0 1.9.6 3.4l.1.4-.4.2c-3.9 1.8-8 1.9-12.4 2-3.2.1-6.5.1-9.8.9l-.9.2.1-.2c-1.9.1-3.8.4-5.7.7-.3.4-.8.6-1.2.8-.4.1-.7.3-.8.5-.1.2 0 .5.2.9l.3.7h-.8c-1.1 0-2.2.1-3.3.2-2.5-.2-5.2 0-7.5 0zm-42.2-.7h.9v-.4h-.9v.4zm-1 .9h2.9v-2.4h-2.9v2.4zm76.8-2.8v.4c0 .7 0 1 .2 1.2.3-.6.9-.9 1.5-1.2.3-.2.6-.3.8-.5h-2.5zm.9 2.9l-.5-.1c-1.4-.2-1.4-1.5-1.3-2.4v-.8l-.1-.6h5l-.1.6c-.2.9-1 1.4-1.7 1.7-.7.4-1.1.6-1.2 1.1l-.1.5zm-45.1 1.4h-.5l-.4-.1v-.4c.1-1 1.1-1.2 1.8-1.4 1-.2 1.1-.3 1-.6l-.1-.6.7.1c.6.1.9.3 1.1.6.1.2.1.6-.2 1-.6.6-2.1 1.4-3.4 1.4zm361.8-.2s-.2 0-.6.4c.2-.1.5-.3.6-.4zm-1.3 1.5c-.3 0-.6-.1-.8-.3-.1-.1-.2-.2-.2-.5l-.1-.1.3-.4.4.2-.2-.3.1-.1c.7-.6 1.5-1.2 2.1-1 .2.1.5.2.7.7.1.2.1.8-.7 1.3-.4.3-1.1.5-1.6.5zm-368.8-1.5c-1 0-1.3.5-1.7 1.1.9-.1 1.9-.3 2.3-.7.1-.1.1-.2.1-.4h-.7zm-3.9 2.4l.8-1c.2-.2.3-.4.4-.7.5-1 1.2-2.1 3.9-1.6l.3.1.1.3c.1.6 0 1-.3 1.4-.6.8-1.9 1-3.1 1.1-.3 0-.6.1-.8.1l-1.3.3zm489.3 5.9c.2.8 6.1 2.5 8.9 2 .5-.1.8-.2.9-.4-1.4-.5-8.8-2-9.8-1.6zm7.8 3.1c-3 0-7.6-1.2-8.6-2.5-.3-.4-.3-.9 0-1.3 1-1.3 9.4.9 9.5.9 1.9.5 2.1.7 2.1 1 .1.6-.3 1.2-1 1.5-.4.3-1.2.4-2 .4zm211.7-.1c2.9.9 10.4 1.2 14.5.7-.1-.1-.2-.3-.2-.4-.6-1.4 0-3.6.6-4.6l.1-.2h.2c3.7-.5 7.7-.1 10.5.2.3.1.5.1.6.1 0 0-.1-.1-.1-.2-4.6-.6-8.2-.6-11.4-.2l-.6.1v-.3c-6.9-.9-10.7-1.4-15.4.3.4.5.3 1.3.1 2-.1.4-.2.9-.1 1.2l.1.5-.5.1-3.6.9c1.7 0 3.6 0 4.4-.3l1-.3-.2.4zm9.6 1.9c-4 0-8.4-.4-10.4-1.1-1.8.3-8.6.4-9.1-.2l-.2-.2.1-.3c.1-.3.5-.4 1-.4 2.2-.2 4.5-.7 6.8-1.3 0-.4.1-.7.1-1.1.1-.5.2-1.1 0-1.3-.1-.1-.2-.1-.5-.1l-2.9.2 2.7-1.1c5.6-2.3 9.6-1.8 17.5-.7l.4.1c3.2-.4 6.7-.3 11.3.3h.2l.1.2c.3.4.7 1 .4 1.5-.3.5-1.1.4-1.7.3-2.6-.3-6.4-.6-9.9-.2-.5 1-.8 2.6-.4 3.5.1.3.3.6.6.6l1.9.6-1.9.4c-1.4.1-3.7.3-6.1.3zm-263.5.9c.1.1.3.1.4.2.2.1.3.2.5.2.4-.2.4-.3.4-.3-.1 0-.6-.2-1.1-.2 0 .1-.1.1-.2.1zm1 1.5h-.1c-.4-.1-.7-.3-1-.4-.3-.2-.5-.3-.9-.3h-.7l.2-.6c.2-.8 1-1.2 2-1.1.8 0 1.6.4 1.7 1 .1.4-.1.9-1.2 1.4zm28.3-2.2v.1c0 .4 0 .6.1.8.1-.1.1-.2.3-.3.1-.1.3-.2.5-.2 0-.1 0-.2.1-.3v-.1h-1zm.9 2.2h-.5c-1.3-.1-1.3-1.3-1.4-1.9v-.6l-.1-.6h3.9l.1.4c.1.4 0 .7-.1.8-.1.1-.1.2-.2.2h.5l-.1.6c-.2.7-.7.9-1 .8-.3 0-.6-.2-.8-.5h-.1s0 .1-.1.3l-.1.5zm-551.3-1.6c.7.3.8 1.1.8 1.9.9-.1 1.8-.1 2.5-.1 2.3-.1 3.8-.1 4.9-1.8-.4-.1-.8-.3-1.2-.4-2.7-.9-4.8-1.7-7.7-.5h-.2c-1.3-.1-2.5.2-3.7.7 2-.3 3.7-.6 4.3-.4l.6.1-.3.5zm-.2 3v-.6c.1-1.2 0-1.5-.5-1.6l-.7-.1.2-.5c-1.5.1-4.6.7-7.1 1.3-1.4.6-2.8 1.2-4.4 1.2h-.3l-.3-.5.2-.2c.2-.2 2.2-.8 4.6-1.3l1.2-.6c1.9-1 3.9-2 6.3-1.9 3.2-1.3 5.6-.5 8.4.5.6.2 1.1.4 1.7.6l.5.2-.2.5c-1.3 2.7-3.5 2.8-6 2.9-.9 0-1.9.1-3 .2l-.6-.1zm527.2-2.3c.4.1.7.3 1 .6.3.3.4.7.4 1.2 1.5-.4 2.7-.3 3.7-.1.6.1 1 .1 1.4.1-.2-.2-.3-.5-.3-.8 0-.8 1-1.2 2.1-1.7.6-.3 1.7-.8 1.8-1.1 0 0 0-.3-.8-.8l-.8-.5.8-.4c1.1-.5 2.4-.9 3.6-1.2 1.6-.5 3.2-.9 4.3-1.7-.3-.2-.5-.6-.5-1-1.7 0-3.3.2-5 .5-3.1.4-6.3.8-10.6.3-.8 1.4-.5 2-.2 2.8.5 1 .7 2-.9 3.8zm.1 3.2l.2-.9c.1-.4.1-.9-.1-1.2-.3-.3-.9-.3-1.3-.3l-1.4.1 1-.9c2.1-1.9 1.8-2.6 1.4-3.6-.4-.9-.9-2 .4-4l.2-.3h.3c4.2.6 7.5.2 10.6-.2 1.9-.2 3.7-.5 5.6-.5h.6l-.1.6c-.1.5 0 .7.6.8l.9.2-.7.6c-1.3 1.2-3.3 1.8-5.3 2.4-.9.3-1.8.5-2.7.9.3.3.6.7.6 1.1-.1.9-1.2 1.4-2.3 2-.5.2-1.4.6-1.5.9 0 0 .1.1.6.4l.7.4-.6.5c-.9.7-1.8.6-2.8.4-1.1-.1-2.3-.3-4 .3l-.9.3zm357.2-.9c.1 0 .2.1.3.1.2.1.7.2 1.3.1-.8-.2-1.4-.3-1.6-.2zm1.1 1.2c-.9 0-1.7-.3-2-.7-.3-.3-.3-.7-.1-1.1.6-.9 2.7-.3 4.4.3l1 .4-1 .5c-.8.4-1.6.6-2.3.6zm4.7-1.3c.6.2 1.7.5 2.5.5-.3-.1-.6-.2-.8-.3-.6-.2-1.2-.5-1.6-.3 0 .1-.1.1-.1.1zm2.6 1.6c-1.4 0-3.2-.6-3.6-.9l-.3-.2.1-.4c.2-.5.5-.8.9-1 .7-.3 1.5 0 2.3.3.7.3 1.4.5 1.9.4l.7-.2-.1.7c-.1.5-.4.9-.9 1.1-.2.1-.6.2-1 .2zm6.9-1.8c-.1.3-.1.3 0 .4.8.9 6.8.2 10-.5l.9-.2-.1.3c2.9 0 4.7-.9 5.4-2.7-.8-.3-1.2-.8-1.5-1.2-1.5.1-2.4.8-3.3 1.5-.4.3-.7.6-1.2.8l.4.2-1.2.3c-.5.1-1.6.2-2.9.3-2.2 0-6.1.3-6.5.8zm2.4 1.8c-1.5 0-2.7-.2-3.2-.8-.2-.3-.4-.7-.1-1.4.4-.9 2.4-1.1 7.1-1.4.9-.1 1.8-.1 2.4-.2l.2-.1c.7-.3 1.2-.7 1.8-1.1 1-.8 2.1-1.6 4.1-1.7h.3l.2.2c.4.6.7 1.1 1.6 1.2l.6.1-.1.5c-.7 2.7-3.1 4-7.2 3.9h-.5c-1.6.2-4.7.8-7.2.8zm-29.9-1.8c.4.6 2.8 1.7 3.6 1.9l.1-.1c.9-.7 1.1-1 1.1-1.1 0 0-.1 0-.2-.1-.6 0-1 .1-1.2.6l-.2.3-.3-.1c-.4-.1-.8-.4-1.3-.8-.4-.3-1-.8-1.3-.8-.2.1-.3.2-.3.2zm3.9 2.9h-.2c-.4 0-4.7-1.6-4.8-3 0-.4.2-.9 1.3-1.1.7-.1 1.4.5 2.1 1 .2.1.4.3.6.4.5-.5 1.1-.8 2-.7h.1c.6.2.8.6.9.9.1.8-.8 1.5-1.5 2-.1.1-.2.2-.3.2l-.2.3zm-375.9-18c.1.1.2.1.3.2v-.2h-.3zm.6.3c.2.1.4.2.5.2 0 0 .1 0 .2-.2v-.1c-.1 0-.2 0-.3.1h-.4zm9.1 6.1c1.5.4 4.3.8 5 .5-.6-.2-1.9-.3-2.8-.3-.9-.1-1.6-.1-2.2-.2zm432 11.1zm.1.1c.1 0 .1.1.3.2.3-.1.5-.2.7-.3-.4 0-.8.1-1 .1zm-4.9.2c.3 0 .8 0 1.8-.2-.7-.1-1.2 0-1.4 0-.2.1-.3.2-.4.2zM10.9 64.196h-.1c-3-.9-7.1-2.4-8.9-5.8l-.2-.3.3-.3c2.2-1.8 6.4-2 10.8-2.2 4-.1 8-.3 10-1.8l-.2-.5.7-.1c.4 0 4.5-.7 5.1-1 .1-.1.1-.2.1-.2-.4-.3-3.7.1-5 .3l-1 .2.2-.5c-1.8-.6-3.8-.2-6 .3-2 .4-4.3.9-6.8.6h-.3l-.1-.3c-.5-1.5.6-2 1.2-2.3.6-.3.9-.5.8-.9-.5-.1-1-.3-1.4-.4-1.4-.5-2.7-.9-4.6-.9-1.1 1.3-3.1 1.8-5.2 2.3l-.2-1c2-.4 3.9-.9 4.7-2.1l.1-.2h.3c2.2 0 3.8.4 5.2.9.5.2 1.1.4 1.6.5l.3.1.1.3c.5 1.5-.6 2-1.2 2.3-.6.3-.8.5-.8.9 2.2.2 4.2-.2 6.1-.7 2.5-.5 4.9-1 7.1 0 1.2-.2 5.1-.9 5.8.2.2.3.3.7-.3 1.4-.3.4-3.8.9-5.2 1.2l-.2.2c-2.1 2-6.4 2.1-10.9 2.3-3.8.1-7.8.3-9.9 1.7 1.3 2.1 3.9 3.7 8 5 1.6-.3 2.2-1.2 2.9-2.3.6-1 1.3-2 2.7-2.5l.2-.1.2.1c4.6 2.6 7.7.7 11.1-1.3 2.9-1.8 6-3.6 9.7-1.7 5.1-3.3 12.3-5.6 19.8-6.6 1.8-.2 4.1-.1 6.6.1 5.5.4 11.8.8 14.5-3l.2-.3.4.1c3.9 1.6 7.4.7 11.5-.4 1.5-.4 3-.8 4.6-1.1l.3-.1.2.3c.5.7.9 1.6 1.3 2.4.9 2 1.9 4 5.1 5.1 3.9-.3 6.2-.5 8.3-.8 2.5-.3 4.4-.5 7.8-.6 9.9-4.9 23.4-4.5 30.6-3.8 7.4.7 15.1.1 22.6-.5l4.5-.3c2.4-.2 4.5-.3 6.5-.4 5.5-.3 10.2-.5 16.5-1.8 11.9-2.4 24.7-3.9 39.2-4.4h.1c-.5-.2-1.2-.4-2.1-.4h-.8l.3-.7c.7-1.5 2.4-2.1 4.2-2.7l.9-.3.4-.2v.1c.7-.1 1.8 0 3.2.1h.1c.9-.3 1.5-.6 1.6-1.1l.1-.3c-.1-.6-.1-1.2.1-1.9-1.9-1.5-4.6-1.3-7.6-1.1-2.6.2-5.4.4-7.5-.8-2.8 1.2-7.1 1.4-11.7 1.5-5.2.2-10.6.4-14.1 2.1 1.5.4 5 .6 8 .8 6.3.3 10.3.6 11.2 1.9.2.3.3.6.2 1v.1l-.1.1c-1.2 1-2.5 1.3-3.9.8-5.8 1.7-8.3 1.3-12.4.8-1.8-.3-3.9-.6-6.8-.7-.9.4-1.4 1.1-1.5 2.4v.5h-.5c-1.6-.2-2.1-1.2-2.5-2-.1-.2-.2-.3-.3-.5-1.5 1.6-6.3 1.8-12.4 2-2.1.1-3.9.1-4.7.3-1.2.3-2.2.8-3.4 1.3-1.4.7-2.8 1.4-4.5 1.6-1.3.2-2.4-.2-3.5-.6-1.4-.5-2.6-1-4-.1l-.4.3-.5-.9c-.6-1-1.2-2.1-1.6-3.4-8 1.9-13.8 1.7-17.6-.5-2.6-.5-4.4 0-5.8 1.6l-.2.2h-.2c-7.2-.4-7.5-1.4-7.6-1.9-.1-.4 0-.8.2-1 .7-.7 2.4-.7 5.9.1 2.2-2.2 6.4-1.8 8.1-1.5.5-.4 1.2-.7 1.9-.9.6-.2 1.2-.4 1.6-.7-.6-.5-1.6-.8-3.2-.9h-.7c-2.8.5-4.5.4-4.9-.3-.2-.3-.2-.6 0-.9.4-.8 2-1 4.2-1.1.7-3.5 4-3.8 7.1-4 2.5-.2 5-.4 6.3-2.1l.2-.3.3.1c2.9 1.1 5.7.3 8.6-.5 1.2-.3 2.4-.7 3.6-.9h.2c1.3.2 2.6.8 3.8 1.4 1.6.8 3.2 1.6 4.9 1.3.8-.2 3.7-1 4.2-1.6-.1-.1-.3-.1-.6-.2l-.9-.2.7-.6c1.3-1.1 2.8-.8 4.2-.6 1.4.2 2.6.4 3.4-.7l.2-.2h.3c1.4.1 1.5 1.2 1.6 1.9.1.6.1.8.4.9 3.6-.3 6.2 0 8.5.3 3.7.4 6.5.8 11-1.5-.1-.4-.2-.7-.4-1-.5-.9-.7-1.6.6-2.6l.2-.1h.2c1.3.2 1.9 0 2.6-.3.7-.3 1.5-.7 3.2-.4l.2.1c1.6.9 1.6 1.7 1.5 2.6 0 .5-.1.9.4 1.5h5.4c2.1-.6 2.9-1.7 2.5-3.6l-.1-.6 1.8-.1c3.9-.2 8-.4 9.7 2.9 2 .1 2.4-.5 2.8-1.4.4-.7.8-1.7 2.4-1.9 2-.3 2.8 0 3.5.2.4.1.8.3 1.4.3.7 0 1.1.4 1.5.8.7.6 1.5 1.4 3.7 1 1-.2 1.7-1 2.5-1.8.8-.9 1.6-1.8 2.8-2.1h.1l.2.1c0-.4.1-.9.1-1.3-2.1-.1-3.3-.5-3.8-1.1-.2-.3-.3-.6-.3-.9.1-.4.3-.7.6-.9.9-.6 2.4-.4 3.7-.1h.2c.9-.7 2.1-1.1 3.2-1.6 1.3-.5 2.6-1 3.3-1.8l.3-.3.3.2c.9.5 1.4 1.2 1.8 1.8 2.3-1.4 5.4-1.5 8.1-1.7 1.1 0 2.2-.1 3.1-.2h.2l.2.2c.7.6 1 1.2 1 1.8 0 .3-.1.6-.3.9.7 0 1.4.1 1.8.4 2.5.1 5-.1 7.4-.2 2.6-.2 5.3-.4 8-.2 1.5-.6 4.1-.9 5.5-.9.1-.1.2-.1.2-.2l.3-.3c0-.4 0-.8-.1-1.2-1.2.1-2.2-.5-2.9-1.5l-.1-.1v-.2c0-.4.2-.8.5-1.1.9-.8 2.7-.6 4-.5h.1c.2 0 .4-.1.6-.1 1-.5 6.9-3 8.8-1.7.5.3.7.8.6 1.5-.1.7-1.2 1.1-5.6 2.3-.5.1-1 .3-1.3.3.1.6.1 1.1.1 1.7.5.2.7.6.8 1 2.2.4 4.5.3 6.8.2.9 0 1.8-.1 2.7-.1 3.2-2 8.1-2.7 13.8-1.9v-.2c-.1-.2-.7-.3-1.2-.4-.6-.1-1.2-.2-1.6-.6l-.3-.3.2-.4c.7-1.1 2.7-1.4 4.9-1.7 2.8-.4 6-.9 6.6-3.1l.1-.3.3-.1c8.1-2.1 21.4-.5 29.1 3.5l.3.2.7-.1c-.6 2.5.3 3.9 1.2 5.4.2.3.3.6.5.9 2.5.2 5.1.1 7.6-.1l1.4-.1c1.5-.4 3.4-.5 5.3-.7 2.3-.1 4.6-.3 6-1v-.2c0-1.1 0-2-.4-2.4-.3-.3-.9-.3-1.9-.2l-.2-1c13.3-3.1 28.7-1.3 36.6 0h.2l.1.1c1.8 2.3 2.6 4 3.5 5.7.4.7.7 1.5 1.2 2.3 2.2-.6 3.8.4 5.2 1.4 1 .7 2 1.4 3.2 1.4 2.2-2 6.2-2.6 10-3.2 4.7-.8 9.6-1.5 10.7-4.7l.1-.4.4.1c1.4.2 2.6.5 3.9.7 1.2.2 2.5.5 3.8.7l.4.1c1-.3 2.5-.7 3.2.1l.1.2v.2c-.1.7-.3 1.2-.7 1.5-.4.3-1 .5-1.8.5-.4.6-1 .9-1.5 1.3-.3.2-.9.5-.9.7 0 0 0 .2.4.5.6.1 1.3.2 2 .3 7.4 1 21.1 2.9 24.3-1.5l.3-.4.4.2c.8.5 2.3.5 3.8-.1 1.2-.4 1.9-1 2.2-1.3l-.9-.6 1.3-.2c6.5-.8 22.5-1.9 30.1 4.3l.2.2-.1.3c-.9 3.3-3.3 4-5.7 4.7-1.1.3-2.2.6-3.2 1.2l-.3.1-.3-.1c-.7-.4-1.3-1-1.8-1.6-.8-.8-1.5-1.5-2.7-1.9-1.3.4-1.4 1-1.4 1.6v.6l-.6-.1c-1.2-.1-1.7-.7-2.2-1.2-.4-.4-.8-.8-1.6-.9-2.9.3-4.6 1-5 2.1-.6 1.6 1.7 4.2 3.7 6.4 1 1.1 1.9 2.2 2.6 3.1 9.3 1 16.4 0 23.2-3.3-.1-1-.4-1.3-.8-1.6-.7-.6-1-1.2-.1-3.2l.2-.4.4.1c2.5.6 5.1.7 7.7.8 3.2.1 6.5.2 9.5 1.3 8.9-2.2 15.5-2.3 23-.3h3.5c3.9-.1 8-.1 11.9.9 2.8-1.8 15.6-2.4 22.1-1.3 2.1.3 3.4.8 4 1.5.3 0 .5 0 .8-.1.9-.4 1.8-.8 2.8-1.2 2.5-.9 4.8-1.8 5.2-4-.4 0-.7 0-1.1.1-.2.3-.4.5-.6.5-.5.2-1-.1-1.6-.4-.6-.3-1.1-.6-1.7-.4l-.8.3.2-.9c.2-1 1.5-1 2.5-1.1h.8l.5-.1v.2c.7-.1 1.6-.2 2.3-.2 3.2-1.9 8.3-2 11.4-2H642.3c2.6 1.1 3.4 3.9 4.1 6.4l.3 1-.8-.2c-1.9-.4-6.2-.2-8.9-.1h-1v1.3c.6.1 1.4.1 2.1.2 2.5.2 3.8.3 3.8 1.2 0 .4-.2.7-.5.9-1.4.8-5.9-.3-7-.7-1.7.1-3 .6-4.4 1.1-2.1.7-4.2 1.5-8 1h-.7c-.8.8-2.1 1-3.5 1.2-.2 0-.4.1-.6.1 1 1.1 1.9 2.3 2.3 4 .6.3 1 .6 1 .9 0 .2-.1.5-.3.6-.3.2-.8.3-1.3.2l.1.1h-.8c-1.7-.1-3 .2-3.8.7 9.6 3.1 22.2 1.7 32.3.6l2.2-.2c5.1-.5 10.2.1 15.2.7 4.4.5 9 1.1 13.5.8 3.2-.2 6.4-.8 9.9-1.3 4.7-.8 9.5-1.6 14.2-1.5.2-.2.4-.5.5-.7 0-.3-.2-.4-.5-.7-.4-.5-1.1-1.1-.5-2.5l.1-.3h1.5c.7 0 1.6 0 2-.1 0-.3-.1-.6-.1-1-1.7.5-3.3.1-4.5-1.2l-.1-.1v-.2c0-.4 0-.8 4-1.9.2 0 15.2-4.1 16.6-1.4.2.3.2.6 0 .9-.6 1.2-4.2 1.9-10.6 2.8-.8.1-1.5.2-2 .3.3.7.3 1.3.1 2 1.9-.4 3.8-.4 5.7 0l.1-.1c4.2-1.9 7.6-1.8 12.7-1.6 1.1 0 2.3.1 3.6.1 2.5-2.9 7.6-3.8 12.5-4.7 2.2-.4 4.5-.8 6.5-1.4.1-.5-.2-.6-.8-.9-.6-.3-1.7-.9-1.2-2.3l.2-.5.5.1c2.3.7 5 .4 7.8.1 2.5-.3 5.1-.5 7.5-.1h.1c1.9-.3 12.6-2.1 15.1-.3.5.4.6.8.6 1.1 0 .2 0 .4-.3.6-1 1-5.7 1.3-11.2 1.4-1.3 0-2.5.1-3.1.1-.7 1-.9 1.7-.7 2 .4.7 2.7.7 4.7.7s4.2-.1 5.9.5c.4 0 .8.1 1.2.1 2.1-1 8.1-1 9.9.1l.1.1.1.1c.8 1.8-.5 2.4-1.2 2.7-.8.3-1.1.5-.8 1.3 5.3 2.9 11 2.1 16.4.7-.1-.9-.9-1.3-2.1-1.8l-1.4-.6.9-.5c.5-.3 1.3-.5 2.4-.7 2.5-.6 6.3-1.5 6.9-3.6 0-.1-.1-.1-.1-.2-.7-.9-1.3-1.6-3.1-1.6l-2.3.1 2.1-1c10.2-5.1 28.3-4 36 2.2l.1.1v.1c.5 1.5-.1 2.3-.5 3-.3.5-.6.9-.5 1.5 1.3-.1 2.6 0 3.9.2.9.1 1.8.2 2.7.2l-.9-.2 3.4-.2h.7c.3-.1.7-.2 1-.2 2.5-.5 3.9-1.8 5.4-3.2 1.8-1.6 3.6-3.3 7.3-3.6h.2l.2.2c.6.6 1.5 1 2.5 1.4 2 .8 4.4 1.8 3.5 5.1 2 1.4 5.5 1.1 8.8.7 1-.1 2.1-.2 3.1-.3h.7l-.2.7c0 .1-.1.3 0 .4.2.3 1.1.3 1.5.3l1.1.1-.8.8c-1 .9-2.6 1.4-4.2 1.9-.8.3-1.7.5-2.4.8.1.1.3.3 1 .4.6.1 1.2.3 1.6.7 7.2-1.5 16.6-.6 24.9.1 3.4.3 6.7.6 9.6.8l-.1-.2.9.2c.4 0 .8 0 1.2.2.8 0 1-.4 1.3-.9.3-.6.8-1.3 2.2-1.4h.2c6 1.9 11.6 1.1 17.6.2 2.1-.3 4.2-.6 6.4-.8 2.2-.2 4.5-.1 6.7.1 2.1.1 4.2.2 6.1.1 1.6-.1 2.6-.5 3.6-.9.8-.3 1.6-.6 2.6-.8h.2c3.1.6 5.9 1.5 8.2 2.6 2-.8 4.1-.8 6.1-.7h1.5c.1-.4.3-.6.5-.9.3-.4.5-.6.4-1.1l-.3-1.6 1.1 1.2c2 2.2 5.8 2.1 9.5 2.2 2.3 0 4.6 0 6.6.5l.2.1.1.2c.3.5.3 1 .1 1.5-.4 1-1.5 1.5-2.6 1.9-.5.2-1.2.5-1.3.7 0 0 .1.2.7.5l.9.5-1 .3c-1.4.5-2.4.5-3.6.4-1.2 0-2.7-.1-5.1.3l-.6.1v-.6c.1-1-.2-1.8-.7-2.4-.7-.8-1.9-1.2-3.6-1.3h-.7l.1-.2c-.7 0-1.3 0-2 .1-1.9 0-3.6.1-5.6.7-1.8 5.1-5.3 4.4-8.4 3.7-2.3-.5-4.4-.9-6 .6l-.2.2-.3-.1c-4.4-1-11.5-.9-18.9-.9-7.6.1-15.6.1-22.1-.9-7.1 1.9-17 .9-25.7 0-3.6-.4-7.1-.7-10.1-.8-4.4 2.3-10.7 1.7-16.8 1.1-6-.6-12.1-1.2-16.2.9 6.7 1.9 14.2 1.9 21.5 1.8 3.6 0 7.4-.1 10.9.1 11 .7 22.7 1.2 33.4-.8h.3l.2.2c1.7 1.7 6.4 1.3 10-.1l-.5.1h.2c15.5 3.9 36.6 2.1 47.8.7h.2c13.6 2.3 26.5 1.4 40.2.4 2.2-.1 4.4-.3 6.7-.4h.2c8.9 3.1 19 1.5 28.7 0 4-.6 7.7-1.2 11.4-1.5h.2l.2.1c.5.4 1 .7 1.4 1 1.6 1.1 2.4 1.7 2.6 3.8 2.7-.1 6.1-2.4 6.4-3.9 0-.2.2-.9-1.2-1.4l-1-.3.9-.5c.3-.2.7-.4 1.1-.5l-.1-.1c-.2-.1-.8-.4-1-.9l-.5.2c-2.3.9-3.9 1-4.4.2-.2-.3-.2-.8.1-1.1.6-.6 2.2-1.1 4.3 0l.4.2v-.1c.2-.7 1.5-.8 2.2-.8.9.1 1.2.5 1.2.8.1.5-.4.9-1.6 1.4 1.5-.3 3.3-.2 5.1 0 3.7.3 6 .3 6.4-1.8l.1-.4h.4c3 .1 5.7-.3 8.4-.7 4.3-.7 8.4-1.3 13.8.1h.1c1-.1 2 .1 2.9.3.6.1 1.2.3 1.7.3l.9-.3c4.7-1.5 11.1-3.6 16.2-1.2 1.3-1.3 3.2-1.9 5.2-2.6 2-.7 4.1-1.4 5.1-2.7l.2-.2h.3c1.8 0 3.9.3 6.1.5 5.4.6 11.6 1.3 13.7-1.1l.2-.3.3.1.9.3c1.5.5 3.1 1.1 4 2.3.8 0 1.4.5 1.7 1.3l.2.3-.3.2c-.7.6-1.5.9-2.3.7 0 1.3.5 2.3 1.6 3.1 6.7 5.4 32 1 37.8-.6 0-.3-.1-.4-.1-.4-.3-.4-1.4-.5-2.4-.6-1.2-.1-2.4-.2-3-.9-1.1-.1-2.8.3-4 .5l-.8.2-.2-.1c-.6-.4-1.3-1-1.1-1.7.2-.6 1.1-.8 1.8-.8l.5-.1c1.8-.3 3.7-.7 5.6-.2l.1-.2h3.1c.9-.4 1.4-.8 1.6-1.3.3-.8-.1-1.8-.6-2.8-.6-1.3-1.3-2.8-.3-4l.1-.2h.2c2.4-.3 4.3-.2 6.2 0 1.8.1 3.8.2 6.3 0l.7-.1-.2.7c-.5 2.2.5 3.2 1.7 4.3 2 .4 2.8-.1 3.6-.6.9-.5 1.8-1.1 3.9-.8l.8.1-.4.6c-.2.3-.4.5-.6.8-.6.8-1.3 1.7-1.2 2.4 0 .3.2.6.5.8 2.6-.8 5-1.2 7.4-1.7 4.2-.8 7.9-1.4 10.9-4.1-.6-.4-1.5-.7-2.3-1l-.8-.2.6-.6c1.2-1.2 3.5-1.5 5.8-1.8 2.4-.4 5-.7 5.7-2.2l.2-.4.4.1c4.1 1.4 9.3.6 14.3-.2 5.3-.9 10.4-1.7 13.7.3.3.1.6.3 1 .7l-.7.7c-.2-.2-.4-.3-.6-.5-1.3.4-7.9 4.1-8.4 5.8v.2l.5.4-.5.4c-1 .7-2.6.8-4.2 1-2 .2-3.5.3-4 1h.1c5.8.7 21.1 2.4 21.7-2.5v-.4h.6c3.8-.2 8.1-.4 10-3.3l.2-.2h.3l3.3.3c7 .6 12.5 1 18.6-.3h.1c.1 0 .2-.1.3-.1 1-.4 2.9-1.1 3.8.2l.1.2v.2c-.2 1.1-.9 2.3-2.8 2.5-.3.6-.8.9-1.1 1.2-.2.1-.4.3-.4.4l.4.4c2.1-.2 5.1.1 8.2.3 6.4.5 14.3 1.2 18.9-1.5-.2-1.1.2-1.9.5-2.5.1-.2.3-.5.2-.6 0 0-.1-.2-1.2-.4l-1.1-.2.9-.7c7.3-5.3 28.3-8.3 37.8-2.2 2.5-.3 4.9-.9 7.2-1.4 4.6-1.1 8.9-2.1 14-1.1 1.5.3 2.7.8 3.9 1.2 1.7.7 3.3 1.3 6 1.3 1.5 0 2.9-.3 4.3-.6 2.4-.5 4.9-1.1 7.7-.1 2-.3 3.6-1.1 5.3-2 2.1-1.1 4.3-2.1 7.2-2.2 3.1-.1 6.2.3 9.3.7 3 .4 6.1.8 9.1.7 4.1-.1 7.8 0 11.4.2 5 .2 9.7.4 15.1-.1 2.1.2 3.8.7 5.3 1.2l.4.1c3.6-2.2 8.7-1.1 13.2-.1 1.9.4 3.6.8 5.1.9 2.6.2 5.5 0 8.2-.2 4.7-.3 9.5-.6 13.8.9 8.5-2.1 17.1-1.3 25.4-.6 5 .5 10.1.9 15.1.8 6.4-.2 12.8.5 19 1.2 1.5.2 3 .3 4.5.5 2.3.2 5.1.2 8.2.2 6.8-.1 14.5-.2 19 2.8 5.7-2.1 17.6-1.1 23 .7 8.5-3 20.6-1.5 31.4-.2 4.5.6 8.8 1.1 12.5 1.2 15.8.7 32.6 1.4 49.2 1.8h.2l.1.2c.1.2.4.3.7.4.5.3 1.2.6 1.4 1.4 7.2-.9 18.3.1 23.6 2.9 11.7-.7 23.5.8 34.9 2.3 10.2 1.3 20.8 2.7 31.2 2.4 10.8-.2 21.3 2 31.5 4.2 7.8 1.7 15.9 3.4 24.1 4 8.3.6 16.7 2 24.9 3.2 10.9 1.7 22.1 3.5 33.1 3.6h4c9.4.1 18.2.2 28 1.9l1.8.3c3.9.7 7.9 1.4 11.9 1.6 1.9.1 4-.2 6.2-.5 3.2-.4 6.5-.8 9.3-.1l-.3.9c-2.6-.7-5.8-.3-8.9.1-2.2.3-4.4.6-6.4.5-4-.2-8.1-.9-12-1.7l-1.8-.3c-9.6-1.7-18.5-1.8-27.8-1.9h-4c-11.1-.1-22.4-1.9-33.3-3.6-8.1-1.3-16.5-2.6-24.8-3.2-8.3-.6-16.4-2.4-24.2-4-10.1-2.1-20.6-4.4-31.2-4.1-10.4.2-21.1-1.1-31.3-2.5-11.4-1.5-23.2-3-34.9-2.3h-.1l-.1-.1c-5-2.8-16.6-3.7-23.7-2.7l-.7.1.1-.7c.1-.5-.1-.7-.8-1-.3-.1-.6-.3-.8-.5-16.5-.5-33.3-1.2-49-1.8-3.7-.2-8-.7-12.6-1.2-10.7-1.3-22.8-2.8-31.1.2l-.2.1-.2-.1c-5.8-2-17.6-2.8-22.7-.7l-.3.1-.2-.2c-4.2-2.9-11.8-2.8-18.6-2.7-3.1 0-5.9.1-8.3-.2-1.5-.2-3-.3-4.5-.5-6.2-.7-12.5-1.4-18.9-1.2-5 .2-10.2-.3-15.2-.8-8.3-.8-16.9-1.6-25.2.6h-.1l-.1-.1c-4.2-1.5-9-1.2-13.6-.9-2.8.2-5.6.4-8.3.2-1.6-.1-3.4-.5-5.3-.9-4.4-.9-9.4-2-12.6.1l-.2.1-.9-.3c-1.6-.5-3.1-1-5-1.2-5.5.5-10.2.3-15.2.1-3.6-.2-7.3-.3-11.3-.2-3.1.1-6.3-.3-9.3-.7-3-.4-6.1-.8-9.1-.7-2.7.1-4.7 1.1-6.8 2.1-1.7.9-3.5 1.8-5.7 2.1h-.2c-2.6-1-4.9-.5-7.3.1-1.4.3-2.9.6-4.5.7-2.9 0-4.7-.7-6.4-1.4-1.1-.4-2.2-.9-3.7-1.2-4.9-1-9.1 0-13.6 1.1-2.4.6-4.9 1.2-7.5 1.5h-.2l-.2-.1c-8.8-5.8-28.1-3.3-35.9 1.5.4.2.6.4.8.6.3.5 0 1-.2 1.5-.3.6-.6 1.3-.3 2.1l.1.4-.3.2c-4.8 3.1-13.1 2.4-19.8 1.8-3.2-.3-6.2-.5-8.2-.3h-.2l-.2-.1c-.7-.5-.9-.9-.9-1.3 0-.5.4-.8.8-1.1.2-.2.5-.3.7-.6l-1.4-.8 2 .1c1.3 0 2-.4 2.3-1.5-.5-.4-1.5-.1-2.5.3-.2.1-.4.1-.5.2l-1 .3.1-.1c-5.9 1.1-11.3.7-18 .1-1-.1-2-.2-3-.2-2.2 3-6.7 3.3-10.4 3.5-1.4 5.4-15.7 3.7-22.7 2.9l-1.3-.1.1-.5c.3-2 2.8-2.2 5.1-2.3 1.2-.1 2.5-.2 3.3-.6-.1-.3-.1-.7.2-1.1.9-1.6 5.6-4.6 8-5.7-3-1.2-7.5-.5-12.1.3-5 .8-10.1 1.6-14.4.3-1.1 1.6-3.7 2-6.2 2.4-1.6.2-3.3.5-4.5 1.1.8.3 1.6.7 2.1 1.2l.4.4-.4.4c-3.3 3.1-7.3 3.9-11.9 4.7-2.4.4-4.8.9-7.5 1.7l-.2.1-.2-.1c-.6-.5-1-1-1.1-1.6-.2-1.1.6-2.2 1.4-3.2 0 0 0-.1.1-.1-1.1 0-1.7.3-2.3.7-.9.6-2 1.2-4.5.7h-.1l-.1-.1c-1.2-1.1-2.5-2.3-2.2-4.7-2.3.2-4.1 0-5.8-.1-1.8-.1-3.6-.2-5.8 0-.4.7-.1 1.6.5 2.9.5 1.2 1.1 2.4.6 3.6-.3.8-1 1.4-2.2 1.9H1196.6l-.2.5-.4-.2c-1.7-.7-3.6-.3-5.5.1l-.6.1c-.5 0-.8.1-.9.1.1.1.2.2.5.4l.4-.1c1.5-.3 3.4-.7 4.6-.5h.2l.1.2c.3.5 1.4.6 2.4.6 1.3.1 2.6.2 3.1 1 .3.4.4.9.2 1.5l-.1.3-.3.1c-3.5 1-31.4 6.6-39 .5-1.4-1.1-2-2.6-1.9-4.3l-.5-1.2 1.2.5c.6.3 1.2.2 1.7-.1-.2-.3-.5-.4-.9-.4h-.3l-.2-.3c-.6-1.1-2-1.6-3.6-2.1-.2-.1-.4-.1-.6-.2-2.5 2.5-8.5 1.8-14.3 1.1-2.1-.2-4-.5-5.8-.5-1.2 1.4-3.4 2.1-5.4 2.8-1.9.7-3.9 1.3-5 2.6l-.3.3-.4-.2c-4.8-2.5-11.1-.4-15.8 1.1l-1.1.4h-.1c-.7 0-1.3-.2-2-.3-1-.2-1.9-.4-2.8-.3l-.8.1.1-.3c-4.9-1.1-8.8-.5-12.9.1-2.5.4-5.2.8-8.1.8-.8 2.7-4.1 2.4-7.3 2.2-1.9-.2-3.9-.3-5.3.1 1 .7 1 1.5.9 2-.4 2.2-4.8 4.9-7.8 4.8h-.5v-.5c-.1-2-.6-2.4-2.2-3.5-.4-.3-.8-.5-1.2-.9-3.6.3-7.2.9-11.1 1.5-9.8 1.5-20 3.1-29.1-.1-2.2.1-4.4.3-6.5.4-13.8.9-26.7 1.8-40.4-.4-11.3 1.4-32.3 3.2-47.9-.7-3.1 1.2-8.3 2-10.7 0-10.8 2-22.4 1.5-33.4.8-3.5-.2-7-.2-10.8-.1-7.7.1-15.8.2-22.9-2.1l-.9-.3.8-.6c4.4-3 11.2-2.3 17.8-1.6 6 .6 12.3 1.3 16.4-1l.1-.1h.1c3.1.1 6.6.5 10.3.8 8.7.9 18.6 1.9 25.5 0h.2c6.4 1 14.4.9 22 .9 7.4-.1 14.4-.1 18.9.8 2-1.6 4.4-1.1 6.7-.6 3.1.6 5.7 1.2 7.3-3l-.3-.4.6-.2c2.3-.8 4.2-.8 6.2-.9.9 0 1.8 0 2.7-.1l.8-.1-.2.5c1.6.2 2.9.7 3.6 1.5.6.7.9 1.5.9 2.5 2.2-.3 3.6-.3 4.7-.2.9 0 1.6.1 2.3-.1-.2-.2-.3-.5-.3-.8.1-.7.9-1.1 1.9-1.5.8-.4 1.8-.8 2-1.4.1-.2.1-.3 0-.5-1.8-.4-4-.4-6.1-.4-3.5 0-7.1 0-9.4-1.8-.1.3-.3.5-.4.7-.2.3-.4.5-.4.8v.5h-2.4c-2.1 0-4.1-.1-5.9.7l-.2.1-.2-.1c-2.2-1.1-4.9-2-8-2.6-.8.1-1.5.4-2.3.7-1 .4-2.2.9-3.9 1-2.1.2-4.2 0-6.3-.1-2.2-.1-4.4-.3-6.5-.1-2.1.2-4.3.5-6.3.8-6.1.9-11.8 1.7-17.9-.3-.7 0-.9.4-1.2.9-.4.6-.8 1.4-2.2 1.4h-.1c-.3-.1-.7-.1-1-.1h-.2c-3.2-.1-6.7-.4-10.4-.8-8.4-.8-17.9-1.7-25-.1l-.5.1-.1-.5c-.1-.2-.6-.3-1-.4-.8-.2-2.1-.4-1.8-1.8v-.2l.2-.1c.9-.4 1.9-.7 2.8-1 1-.3 2-.6 2.8-1-.4-.1-.7-.3-.9-.6-.1-.2-.2-.4-.2-.6-.8.1-1.6.2-2.4.2-3.7.4-7.5.8-9.8-1.1l-.2-.2.1-.3c.8-2.5-.6-3.3-2.9-4.2-.9-.4-1.9-.8-2.6-1.4-3.2.3-4.8 1.8-6.4 3.3-1.5 1.4-3.1 2.9-6 3.4h-.2-.1l-1 .3c-1.9.5-3.9.3-5.8.1-1.5-.2-2.9-.3-4.2-.1l-1.1.1.5-.8c-.2-1.1.3-1.8.6-2.4.4-.6.7-1.1.4-2.1-7-5.4-23.3-6.6-33.2-2.7 1.1.4 1.6 1.1 2.1 1.7l.3.3.1.2v.2c-.5 2.9-4.9 3.9-7.7 4.6-.3.1-.7.2-1 .2 1.1.5 2.1 1.2 2 2.8v.3l-.3.1c-5.5 1.4-11.8 2.5-17.6-.8l-.1-.1-.1-.1c-.8-1.8.5-2.4 1.2-2.7.8-.3 1.1-.5.8-1.3-1.7-.9-7.3-.9-8.9 0l-.1.1h-.1c-.5 0-.9-.1-1.5-.1h-.1c-1.5-.5-3.7-.5-5.7-.4-2.6 0-4.9.1-5.6-1.2-.4-.7-.2-1.5.5-2.7l-.6-.4 1.2-.3c.4-.1 1.6-.1 3.6-.2 3-.1 9.9-.3 10.5-1.1 0 0 0-.1-.2-.2-1.9-1.4-12.2 0-14.5.5l-.9.2.1-.4c-2-.3-4.4 0-6.6.2-2.6.3-5.3.6-7.7 0 0 .3.3.4.8.7.6.3 1.7.9 1.2 2.3l-.1.2-.2.1c-2.1.7-4.5 1.1-6.9 1.6-4.8.9-9.8 1.8-12 4.6l-.2.2h-.2c-1.4 0-2.7-.1-3.8-.1-4.9-.2-8-.3-11.8 1.3l.3.7-1-.3c-2.3-.6-4.6-.6-6.8.2l-1.5.5 1.2-1.5c.5-.7.5-1.5 0-2.4l-.3-.5.6-.2c.4-.1 1.2-.2 2.8-.5 2.4-.3 9.5-1.4 9.9-2.3 0 0-.1-.2-.8-.3-3.9-.7-15.3 2.2-17.6 3.2 1 .8 2.2 1 3.6.4l.6-.2.1.6c.1.7.2 1.3.2 1.9v.2l-.1.2c-.6.6-1.7.6-2.9.6h-.8c-.1.5.1.8.4 1.1.3.4.8.8.7 1.6v.2l-.1.1c-.3.4-.6.7-.9 1.1l-.3.5-.4-.4c-4.5 0-9.3.8-13.9 1.5-3.3.6-6.8 1.1-10 1.3-4.6.3-9.2-.2-13.7-.8-4.9-.6-10-1.2-15-.7l-2.2.2c-10.5 1.1-23.6 2.5-33.5-1l-.6-.2.4-.5c.8-1 2.3-1.6 4.4-1.6l-.4-.8 1.2.5c.1.1.3.1.4.2v-.2c-.4-1.9-1.5-3.2-2.7-4.4l-.6-.6.9-.2c.5-.1 1-.2 1.6-.3 1.1-.2 2.1-.3 2.7-.7l-.2-.4.8-.1c.3 0 .7-.1 1-.1l.8-.1-.1.3c3.2.3 5-.3 6.9-1 1.4-.5 2.8-1 4.8-1.1h.2l.1.1c.1 0 .2.1.4.1-.1 0-.1 0-.1-.1l-2.6-1.6 2.6.6v-1.9h.5c.4 0 .9 0 1.5-.1 2.7-.1 6.2-.3 8.4 0-.6-2.2-1.3-4.4-3.3-5.2h-1.1c-2.9 0-7.9.1-10.9 1.9h.1v.5c-.2 3.2-3.1 4.3-6 5.3-.9.4-1.9.7-2.7 1.2l-.2.1c-.4.1-.8.1-1.2.1h-.3l-.2-.3c-.1-.2-.8-.8-3.5-1.3-6.7-1.1-19.6-.3-21.5 1.3l-.2.2-.3-.1c-3.8-1-7.9-1-11.8-.9h-3.7c-7.4-2-14-1.9-22.7.3h-.2l-.1-.1c-2.8-1.1-6-1.2-9.3-1.3-2.5-.1-5-.2-7.5-.7-.5 1.2-.3 1.4.1 1.7.4.4 1 1 1.1 2.6v.3l-.3.1c-7.1 3.6-14.5 4.7-24.3 3.6h-.2l-1.5.6c-.6-.9-1.6-2-2.6-3.2-2.3-2.6-4.7-5.3-3.9-7.4.6-1.4 2.5-2.3 5.9-2.7h.2c1.2.1 1.7.7 2.2 1.2.3.3.6.6 1.1.8.2-1 .9-1.6 2.3-2h.2c1.6.4 2.5 1.3 3.3 2.2.4.5.9.9 1.4 1.2 1-.5 2.1-.8 3.1-1.1 2.2-.6 4.1-1.2 4.9-3.7-7.2-5.6-21.9-4.7-28.6-4 0 .1-.1.2-.2.4-.8 1.2-4.6 2.9-7 1.9-3.9 4.5-17 2.6-25 1.6-.8-.1-1.5-.2-2.1-.3h-.1l-.1-.1c-.4-.3-1-.8-1-1.4 0-.7.7-1.1 1.4-1.5.5-.3 1.1-.7 1.3-1.1l.1-.4h.4c.6.1 1.1 0 1.4-.2.2-.1.3-.3.3-.6-.3-.1-1.1 0-2.2.4-.2.1-.4.1-.5.1l-1 .2.3-.6c-1.1-.2-2.2-.4-3.2-.6-1.1-.2-2.2-.5-3.4-.6-1.5 3.4-6.5 4.2-11.3 5-3.8.6-7.7 1.2-9.6 3.1l-.1.1h-.2c-1.6 0-2.8-.8-3.9-1.6-1.4-1-2.7-1.8-4.7-1.1l-.4.1-.2-.4c-.6-1-1-1.9-1.4-2.8-.8-1.7-1.5-3.3-3.2-5.4-7.4-1.2-21.1-2.8-33.5-.5.7.6.7 1.7.7 3.1v.8l-.2.1c-1.6.9-4.2 1.1-6.7 1.2-1.8.1-3.7.2-5.1.6h-.1l-1.5.1c-2.6.1-5.4.3-8.1 0h-.3l-.1-.2c-.2-.4-.4-.7-.6-1.1-.9-1.5-1.9-3.1-1.3-5.7-7.4-3.7-20.2-5.2-27.8-3.4-.9 2.6-4.3 3.1-7.3 3.5-1.4.2-2.9.4-3.7.8.2 0 .4.1.5.1.7.1 1.5.3 1.9.9.2.4.2.8 0 1.4l-.1.4-.4-.1c-5.7-.8-10.7-.2-13.7 1.8l-.1.1h-.4c-.9 0-1.9 0-2.8.1-2.4.1-4.9.2-7.3-.3l-.3-.1-.1-.3c-.1-.6-.1-.6-.4-.6h-.5v-.5c0-.8-.1-1.6-.2-2.4v-.3l.3-.2c.2-.1.5-.2 1.8-.5s4.3-1.2 4.9-1.6c0-.3-.1-.4-.2-.4-1.3-.9-7.3 1.4-7.9 1.8l-.1.1h-.1c-.2 0-.4 0-.5.1h-.4c-2.1-.3-2.9 0-3.2.2l-.2.2c.6.8 1.4 1.1 2.3.9l.5-.1v.5c.1.6.1 1.2.1 1.8v.2c-.1.4-.4.6-.6.8l-.3.3-.2.2h-.3c-1.6 0-4.2.3-5.5.8h-.2c-2.7-.2-5.4 0-8 .2-2.5.2-5.1.4-7.7.2h-.2l-.1-.2c-.3-.3-1.5-.3-2.3-.2l-1.3.1 1-.9c.5-.4.7-.8.7-1 0-.2-.2-.5-.5-.9-.9.1-1.9.2-3 .2-2.8.1-6 .3-8 1.8l-.5.3-.3-.5c-.3-.6-.8-1.2-1.4-1.7-.9.8-2.2 1.3-3.4 1.7-.9.4-1.9.7-2.7 1.2l.5.5h-1.2c-.1 0-.3 0-.6-.1-.7-.1-2.4-.4-3 0-.1.1-.1.1-.2.3v.1c.3.3 1.3.7 3.6.7h.6v.6c-.1.7-.2 1.4-.2 2.3v.6l-1.1-.3c-.8.3-1.5 1-2.2 1.8-.9.9-1.8 1.9-3.1 2.1-2.7.5-3.8-.6-4.5-1.2-.4-.3-.6-.5-.8-.5-.8 0-1.2-.2-1.7-.3-.7-.2-1.3-.5-3-.2-1.1.2-1.3.7-1.7 1.4-.5 1-1.1 2.2-4 1.9h-.3l-.1-.3c-1.4-2.9-5-2.7-8.9-2.6h-.6c.2 2.1-.8 3.5-3.3 4.2H220l-.1-.2c-.9-1-.8-1.8-.7-2.4.1-.6.1-1-1-1.6-1.3-.2-1.8 0-2.5.3s-1.5.6-2.9.4c-.6.5-.5.7-.2 1.3.2.4.5 1 .6 1.7v.3l-.3.1c-5 2.6-8 2.2-11.9 1.8-2.3-.3-4.9-.6-8.5-.3h-.2c-.9-.3-1-1.1-1.1-1.8-.1-.6-.2-.9-.4-1-1.2 1.3-2.8 1.1-4.2.8-.9-.1-1.8-.3-2.5 0 .2.2.4.4.4.7-.1 1.5-5.1 2.5-5.1 2.5-2 .4-3.8-.5-5.5-1.4-1.2-.6-2.3-1.1-3.4-1.3-1.1.2-2.3.5-3.4.8-2.8.8-5.8 1.6-8.9.6-1.6 1.8-4.3 2-6.8 2.2-3.2.2-5.9.5-6.3 3.6v.4h-.8c-2.8.2-3.4.5-3.4.6.3.2 2.2.1 4.8-.4l1-.2-.2.5c1.8.2 2.9.7 3.5 1.6l.2.2-.1.3c-.4.8-1.4 1.2-2.3 1.5-.5.2-1 .3-1.3.6l.3.6-.9-.2c-2.7-.5-6.2-.5-7.8 1.4l-.2.2-.6-.1c-4.1-.9-4.8-.5-4.9-.3v.1s.5.8 6.5 1.1c1.7-1.7 3.8-2.3 6.7-1.7l.2.1c3.6 2.2 9.3 2.3 17.4.3l.5-.1.1.5c.3 1.4.9 2.4 1.6 3.6v.1c1.7-.8 3.1-.2 4.4.3 1 .4 1.9.7 3 .6 1.5-.2 2.8-.8 4.2-1.5 1.1-.5 2.3-1.1 3.6-1.4.8-.2 2.6-.3 4.9-.3 4-.1 11.3-.3 11.9-2l.2-.8.6.6c.4.4.6.8.8 1.2.3.6.6 1.1 1.3 1.3.3-1.4 1-2.3 2.2-2.7h.2c2.9.2 5.1.5 7 .8 3.9.6 6.3.9 11.5-.6l-.2-.6 1 .4c1.1.5 2.1.3 3-.4-.7-1-6.4-1.3-10.5-1.5-5.2-.3-8.5-.5-9.3-1.4l-.4-.4.5-.3c3.7-2.2 9.6-2.5 15.3-2.7 4.6-.2 9-.3 11.6-1.6l.3-.1.2.1c1.9 1.2 4.4 1 7.1.8 2.9-.2 6-.4 8.2 1.3l.9.2-.3.5c-.4.7-.4 1.4-.1 2.4l.2.8-.6-.2c-.3.6-.9.9-1.6 1.1l.2.4-.8-.1c-2.3-.3-3.3-.2-3.7-.1l-.2.1c-.2.1-.4.2-.7.2-1.2.4-2.4.8-3.1 1.6.9.1 1.6.4 2.1.7h1.5l-1 .9c-.4.3-.9.6-1.3.9l-.7.4v-.1c-14.3.6-26.9 2-38.6 4.4-6.4 1.3-11.2 1.5-16.7 1.8-2.1.1-4.2.2-6.5.4-1.5.1-3 .2-4.4.3-7.5.6-15.3 1.2-22.8.5-7.1-.7-20.5-1.1-30.1 3.8l-.2.1c-3.4.1-5.3.3-7.8.6-2.1.2-4.5.5-8.5.8h-.2c-3.7-1.3-4.8-3.6-5.8-5.7-.3-.7-.6-1.3-1-1.9-1.4.3-2.8.6-4.2 1-3.9 1-7.6 2-11.7.5-3.1 4-9.5 3.5-15.2 3.2-2.4-.2-4.6-.3-6.4-.1-8.6.6-15.7 3-20.7 6.2l-.3.2-.2-.1c-3.4-1.9-6-.3-9 1.5-3.3 1.9-6.9 4.2-11.9 1.4-1 .4-1.5 1.2-2 2.1-.7 1.2-1.5 2.5-3.7 2.8v-.1z"/><path d="M962.8 77.2h1.8v-.4h-1.8v.4zm3.8 1.4l-1.4-.3h-3.3v-2.4h3.6l.5.2-.2.5c-.1.3-.1.6.1 1l.7 1zM1100.9 42.4c2.7 1 3.7 1 6.9.6.6-.9.5-1.1 0-1.5-.4-.4-.9-.8-1.1-1.8-1-.2-2.1-.3-3.1-.5-.5 1.2-1.6 1-2.3.9-.6-.1-1-.2-1.2.2.7.4.7 1.2.8 1.8v.3m3.9 1.8c-1.5 0-2.6-.3-4.6-1l-.3-.1v-.3c0-.2-.1-.5-.1-.7 0-.9-.1-1-.5-1l-.6-.1.1-.5c.4-1.8 1.7-1.5 2.5-1.4.8.1 1.1.2 1.3-.7l.1-.5.5.1c1.3.2 2.6.5 3.8.7l.4.1v.4c.1.9.5 1.2.9 1.6.7.7 1.1 1.3 0 2.9l-.1.2h-.2c-1.2.2-2.3.3-3.2.3M1182.9 60.9c.7.4 1 .3 1 .3s-.1-.2-.4-.3c-.2-.1-.4-.1-.6 0m.9 1.3c-.5 0-1.1-.2-2.1-.8l-.5-.3.4-.4c1.1-1.1 2.1-.9 2.7-.4.5.4.7 1.1.3 1.6-.1.1-.4.3-.8.3M1117.9 66.9c-.6 0-1.1-.2-1.3-.4-.3-.3-.4-.6-.2-.9.3-.6 1.5-.7 3.4-.2l1.1.3-.9.6c-.8.4-1.5.6-2.1.6M370.4 20.7zm-.3.1c-.2 2-2.7 2.3-4.7 2.5-2 .2-3.4.5-3.8 1.3 7.1-.8 12.3-.9 17.4-1.1 4.8-.1 9.4-.2 15.1-.9 0-.1 0-.3-.1-.3-.2-.4-1.1-.5-1.9-.5-1-.1-2.1-.2-2.6-.9-.2-.2-.3-.5-.3-.8-2.4.5-3.5.5-4 0-.4-.4-.3-.8-.3-1 .3-.7 1.4-1.1 3.7-1.3.3-.4.6-.7.6-1.3-.8-.4-1.5-.3-2.3-.2-1.1.2-2.4.3-3.4-1.2l-.1-.1h-.4c-2.9.2-6 .3-9 .1l.2.4-.9-.2c-1.3-.2-1.9 0-2.6.3-.7.3-1.4.6-2.7.4-.2.9.3 1.2 1.3 1.6.6.3 1.3.5 1.6 1.1l.1.1c1.4.1 3.1.2 3.1 1.3 0 .4-.3.7-.7.9-.5.2-1.7.1-2.5-.1h-.8zm-9.6 5v-.6c0-2.3 2.5-2.6 4.8-2.8 2.5-.3 4-.6 3.9-2v-.5h1l.1-.2.6.1c.6.2 1.8.3 2.2.2-.3-.1-1-.2-2.1-.3h-.5l-.8-.1.4-.6c-.3-.2-.6-.4-1-.5-1-.4-2.5-1.1-1.7-3.2l.1-.4.4.1c1.3.2 1.9 0 2.6-.3.6-.2 1.2-.5 2.3-.5l-.2-.4.9.1c3.2.4 6.5.2 9.6 0l2-.1-.4.9c.6.8 1.3.7 2.2.5.9-.1 2.1-.3 3.2.5l.2.1v.2c0 1.1-.5 1.8-1 2.3l-.1.1-.4.1c-2.5.3-2.8.7-2.9.7.1 0 .7.3 3.7-.4l1.2-.2-.5 1c-.1.3 0 .5.1.5.3.3 1.1.4 1.9.5 1.1.1 2.2.2 2.7 1 .3.4.3.9.1 1.5l-.1.3h-.3c-5.9.7-10.6.9-15.6 1-5.2.1-10.6.3-18 1.1l-.6.3zM247.5 50.9c1.6 4.3 4.1 3.7 7.8 2.7 1.9-.5 4-1 6.2-.9-1.1-2.6-5.4-2.3-9.9-2-1.3.1-2.8.2-4.1.2m4 4.4c-2.1 0-4-1-5.1-4.7l-.2-.6h.7c1.5 0 3.1-.1 4.7-.2 5-.4 10.2-.8 11.1 3.4l.1.7-.7-.1c-2.3-.2-4.6.3-6.6.9-1.3.2-2.7.6-4 .6M350.2 45.2c.3.1.5.2.7.3.3.2.5.3 1 .3.1-.4.2-.8.5-1 .8-.6 2.1-.3 3.6 0 1.2.3 2.5.6 3.1.1.1-.1.3-.3.3-.5-.6-.3-1-.8-1.4-1.3-.5-.6-.9-1.1-1.8-1.3-.8.4-1.6.8-2.5 1.1-1.4.6-2.9 1.2-3.5 2.3m1.7 1.6c-.7 0-1.2-.2-1.5-.4-.3-.2-.5-.3-1-.3h-.6l.2-.6c.6-1.9 2.5-2.6 4.4-3.4.9-.3 1.8-.7 2.5-1.1l.1-.1h.2c1.5.1 2.1 1 2.7 1.7.4.5.7.9 1.3 1.1l.4.1v.4c-.1.7-.4 1.2-.8 1.5-1 .7-2.5.3-3.9 0-1.1-.2-2.3-.5-2.7-.2-.1.1-.2.4-.2.7v.4l-.4.1c-.4.1-.5.1-.7.1M762.6 36c1 2 2.7 1.8 5.4 1.3 1.8-.3 3.8-.7 5.8-.2-.1-.4-.4-.8-.9-1.1-2.3-1.5-7.7-.8-10.3 0m2.7 2.7c-1.6 0-3-.6-3.9-2.7l-.2-.5.5-.2c2.2-.8 8.8-2 11.7-.1.9.6 1.4 1.5 1.4 2.6v.7l-.7-.3c-2-.8-4-.4-6 0-.9.3-1.9.5-2.8.5M462.9 28.5c.9.5 2.5 1.3 3.9 1.2-.1-.9.3-1.5.6-1.9.3-.4.3-.4-.2-.8-1.2-.2-1.7 0-2.2.3-.5.2-1 .5-1.9.5 0 .3-.1.5-.2.7m3.8 2.2c-1.7 0-3.6-.9-4.7-1.5l-.4-.2.2-.4c.2-.4.3-.8.4-1.2l.1-.5.5.1c.9.1 1.3-.1 1.8-.4.6-.3 1.4-.7 3-.3l.2.1c1.2.9.9 1.5.5 2.2-.3.4-.5.8-.3 1.6l.1.5-.5.1c-.3-.1-.6-.1-.9-.1M437.3 25.8l.7.4c3.2 2.1 7.1 2.8 10.8 2.1-.1-.9.1-2.2.9-3v-3c-2.6.1-5.2 0-6.4-1.3-1.8.5-3.3-.5-4.7-1.4-1.3-.8-2.5-1.6-3.9-1.4-.5.2-.9.4-1.1.6.2.1.5.1.7.2.8.2 1.7.4 2 1.3l.1.5-.5.1c-.7.2-1.2.2-1.6.3-.2 0-.5.1-.6.1 0 .3.3 1 .6 1.7l.2.5-.6.1c-2.6.6-4.1 1.4-4 2.4.1 1.1 2.4 2.4 4.5 2.4.9 0 2.5-.2 2.8-1.8l.1-.8zm8.7 3.8c-2.8 0-5.5-.7-8-2.2-.5 1.3-1.8 2-3.6 2-2.4-.1-5.3-1.5-5.4-3.3-.1-1 .6-2.4 4.2-3.3-.5-1.2-.6-1.7-.4-2.1.2-.4.7-.5 1.3-.6.2 0 .4 0 .6-.1-.2-.1-.4-.1-.6-.2-.5-.1-1.1-.3-1.5-.6l-.3-.2.1-.3c.3-1 1.3-1.4 2-1.6 1.9-.3 3.3.6 4.7 1.5 1.4.9 2.7 1.7 4.2 1.2l.4-.1.2.3c.8 1.2 3.5 1.3 6.3 1.2h.5V25l.5.4-.6.4c-.8.5-1 2-.8 2.9l.1.7-.8-.2c-1 .3-2 .4-3.1.4zM419 48.8c-.1.8.1 1.4.5 1.8.9.9 3.3.5 5.6.1 2-.3 4.1-.7 5.6-.2.2-.4.6-.8 1-1 2-1 5.6.1 7.8.8.3.1.6.2.8.3.6-.7 2-.9 3.6-1.1 1.8-.2 3.9-.4 4.9-1.5l.3-.3.4.3c1.7 1.3 3.3 2 6.6 1.4-.8-.8-3.4-2.1-11.7-2.7-7.6-.5-15.4.6-22.9 1.7-.9.1-1.7.3-2.5.4m2.5 3.3c-1.1 0-2.1-.2-2.7-.8-.7-.6-.9-1.6-.7-3l.1-.4.4-.1c.9-.1 1.9-.3 2.9-.4 7.6-1.1 15.5-2.2 23.1-1.7 8.1.6 12.3 1.8 12.9 3.9l.1.5-.5.1c-3.9.8-5.8.2-7.7-1.2-1.3 1.1-3.3 1.3-5.2 1.5-1.3.1-2.9.3-3 .8l-.1.4-.5-.1c-.3-.1-.7-.2-1.3-.4-1.9-.6-5.4-1.7-7-.9-.4.2-.6.5-.7.9l-.2.6-.6-.3c-1.2-.6-3.4-.3-5.5.1-1.4.3-2.7.5-3.8.5M329.9 16.6c1.3.5 4.6 1 5.5.3.1-.1.2-.2.1-.5-.8-1-1.4-.9-2.7-.7-.8.1-1.7.3-3 .3.1.2.1.4.1.6m3.8 1.6c-1.8 0-3.9-.5-4.5-.8l-.3-.1V17c0-.6-.1-1.1-.2-1.4l-.3-.9 1 .4c1.4.1 2.4-.1 3.2-.2 1.4-.3 2.5-.5 3.8 1.1l.1.2c.2.7 0 1.2-.4 1.6-.5.3-1.4.4-2.4.4M265.5 60.5c.7.1 1.3.2 1.8.4.9.3 1.3.4 2.3-.3-.1-.3-.2-.5-.2-.8-.9-.5-2.6-.6-3.4-.1-.4.2-.5.4-.5.8m2.8 1.5c-.5 0-.9-.1-1.3-.3-.5-.2-1.1-.3-1.9-.3h-.4l-.1-.3c-.2-.9 0-1.7.7-2.2 1.3-.9 3.6-.6 4.8.2l.2.1v.2c.1.5.2.9.4 1.3l.3.7h-1c-.6.5-1.2.6-1.7.6M277.8 17.3c2.3 0 4.3.7 6.5 2.5 4.5-1.8 9.4-3.3 14.6-4.7 0-.2.1-.4.1-.5-2.5-.1-5 0-7.5.2s-5 .4-7.5.2l.1.2h-.8c-2.4-.1-4.3 0-6.1.1-3 .2-5.4.4-8.4-.8-1.2-.1-1.8.3-2.5.6-.7.4-1.6.9-3.1.8 0 .3-.1.6-.1.9.6.3 1.3.6 2 .9 1.1.4 2.2.8 3 1.5.9-.2 1.7-.4 2.4-.6 2.9-.8 5.2-1.3 7.3-1.3zm6.4 3.6l-.2-.2c-4.1-3.5-7.1-2.7-13.2-1.2-.8.2-1.7.4-2.7.6l-.3.1-.2-.2c-.7-.6-1.8-1-2.9-1.4-.9-.3-1.7-.6-2.5-1.1l-.3-.2V17c0-.6.1-1.3.2-1.8l.1-.3.3-.1s.1 0 .1-.1l.3-.2.3.3c1.1 0 1.7-.3 2.4-.6.8-.4 1.6-.9 3.2-.8h.2c2.8 1.1 5.1 1 8 .8 1.6-.1 3.3-.2 5.4-.2l-.1-.3.8.1c2.7.2 5.5 0 8.2-.2 2.7-.2 5.4-.4 8.1-.2h.5v.5c0 .5-.1 1-.2 1.5l-.1.3-.3.1c-5.3 1.4-10.4 3-15 4.8l-.1.3zM249.8 32.3c-.1.3-.2.5-.2.8.3 0 .7 0 1-.1 3.9-.2 8.2-.5 9.9-2.1-3.4-2-8.8-.7-10.7 1.4zm-1.2 1.8v-.5c0-.6.1-1.2.3-1.8l.1-.1c2.4-2.8 9-3.9 12.6-1.2l.4.3-.3.4c-1.6 2.4-6.4 2.6-10.9 2.9-.5 0-1.1.1-1.6.1l-.6-.1zM283.4 56.6c.3.3.2.7 0 1.1-.1.3-.4 1-.2 1.2l.1.1c1.7-.3 2.9-.9 4.3-1.6 1.6-.7 3.2-1.5 5.3-1.7 1.3-.1 2.4.2 3.6.5 2 .5 3.6.9 5.3-.9 0-.1-.1-.2-.1-.3-.8-.1-1.4-.3-1.9-.5-1-.4-1.8-.7-3.9-.1l-.3.1-.2-.2c-.4-.4-.6-.8-.9-1.3-.5-.9-.8-1.6-2.5-1.4-3.2 1.4-7.1 3.6-8.6 5zm-.1 3.4c-.6-.1-.8-.4-.9-.6-.2-.4-.2-.9-.1-1.3l-.5.4.1-1.1c.1-2.2 7.8-5.9 9.9-6.7h.1c2.4-.3 3.1 1 3.6 1.9.2.3.3.6.5.8 2.2-.5 3.2-.1 4.2.2.6.2 1.1.4 2 .5h.3l.1.2c.1.3.3.5.4.9l.1.3-.2.2c-2.2 2.6-4.4 2-6.5 1.5-1-.3-2.1-.6-3.2-.5-2 .2-3.4.9-5 1.6-1.5.7-3 1.4-4.9 1.7zM241.8 42.9c1.5 0 3.4.4 5.5.9 4.8 1.1 10.9 2.4 16.5-.1h.2s.3-.1.7-.2c3.5-1.2 7.9-2.5 10-2.4 1.3 0 2.7.4 4 .8 3.5.9 6.8 1.8 9.5-2.2-8.1-1.2-17.4-.5-26.3.2-6.6.5-12.8 1-18 .6l-1.3-.1 1-.8c.5-.4.5-.4.2-.8-.1-.1-.1-.2-.2-.3-.4 0-.8 0-1.2-.1-.1.7-.6 1.6-2 2-.3.2-.6.4-.8.6.2 1.1.6 1.7 1.4 2 .4-.1.6-.1.8-.1m14.9 3.2c-3.4 0-6.7-.7-9.5-1.4-2.4-.5-4.5-1-6-.8h-.2c-1.3-.5-2.1-1.5-2.2-3.2v-.3l.3-.2c.4-.2.7-.4 1-.7l.1-.1h.1c1.2-.3 1.4-1 1.4-1.5v-.5h.5c.7 0 1.4 0 2 .1h.3l.1.3c.1.2.2.4.3.5.3.4.4.8.2 1.3 4.9.3 10.7-.2 16.8-.7 9.3-.7 18.9-1.5 27.3-.1l.7.1-.4.6c-3.1 5.3-7.3 4.2-11 3.2-1.3-.4-2.6-.7-3.8-.7-2.2-.1-7.6 1.7-9.6 2.4-.5.2-.7.2-.8.3-2.6 1-5.1 1.4-7.6 1.4M287.3 29.8c.7.2 1.1.7 1.5 1 .5.5.8.8 1.7.9.1-1-.1-1.8-.7-2.5-1.1.1-1.9.3-2.5.6m3.5 2.9c-1.5 0-2.1-.6-2.7-1.2-.5-.5-.9-.9-1.9-.9h-.9l.5-.8c.7-1 2-1.5 4.2-1.6h.2l.2.2c1 1 1.4 2.3 1.1 3.9l-.1.4H290.8"/><path d="M271.6 60.1c.7.3 1.5.3 2 .1.1 0 .2-.1.2-.2l-2.2.1m1.2 1.2c-.6 0-1.2-.1-1.8-.4l-.2-.1-.1-.2c-.1-.3-.2-.7-.3-1.1l-.1-.6h4.9l-.1.6c-.1.7-.5 1.2-1.1 1.4-.3.3-.7.4-1.2.4M305.8 55.5c1.2 0 2.1.2 2.9.4 1.1.3 2.2.5 3.9.3.5-1.2 1.1-2.3 1.7-3.3.3-.6.6-1.1.9-1.7-2.1-1.7-6.8-2.9-9.5-1.8-1.2.5-1.9 1.5-1.9 2.9.6.4 1.1 1.1 1.4 1.8.3.4.6.9.6 1.4zm5.6 1.9c-1.2 0-2.1-.2-2.9-.4-.9-.2-1.8-.5-3.1-.4h-.1l-.8-.2.2-.5c.1-.1 0-.6-.3-1.3-.4-.8-1-1.4-1.2-1.4l-.6-.1.2-.5c0-1.9.8-3.2 2.5-3.9 3.2-1.3 8.7.1 10.8 2.2l.3.2-.2.3c-.4.7-.7 1.4-1.1 2.1-.6 1.1-1.3 2.2-1.7 3.5l-.1.3h-.3c-.5 0-1.1.1-1.6.1zM334.6 44.6c0 .3.2.6.4.7.7.6 2.5.3 4 0 .8-.1 1.6-.3 2.4-.3.1-.5-.1-.8-.4-1.1-.3-.3-.7-.7-.7-1.4-1 .1-1.7.5-2.4.9-.8.6-1.7 1.2-3.3 1.2m1.8 2.1c-.8 0-1.5-.1-2-.6-.5-.4-.8-1.1-.7-2v-.5h.5c1.6.1 2.4-.4 3.2-1 .8-.5 1.8-1.1 3.4-1.1h.6l-.1.6c-.1.5.1.7.4 1.1.4.5 1.1 1.1.5 2.5l-.1.3h-.3c-.7 0-1.7.2-2.6.3-1 .2-1.9.4-2.8.4M306.9 25c2.1.9 2.9.4 4-.3.7-.5 1.5-1 2.7-1.2.1-.4-.2-.6-.8-.9-.6-.3-1.7-.9-1.2-2.3l.1-.2.2-.1c1.9-1.1 4.9-1.2 7.8-1.4 3.2-.2 6.5-.4 8-1.7 0-.3-.1-.7-.2-1l-.4.1-.2-.5c0-.1-.2-.2-.3-.3-.2-.2-.4-.4-.6-.7h-5.1l.1-.3c-1 0-1.9 0-2.9.1-2.6.1-5.4.2-8-.4-.2.2-.4.3-.5.4-.8.7-1 .6-2.4.3l-1.5-.3.1-.2c-1.2 0-2.6 0-3.7.3 0 .4-.1.7-.2 1.1 2.2-.2 4.8.4 5.8 2.4l.2.4-.4.2c-1.4.7-1.2 1.4-.9 2.8.2 1.1.5 2.3.3 3.7m1.9 1.4c-.7 0-1.6-.2-2.7-.7l-.4-.2.1-.4c.3-1.4 0-2.5-.2-3.5-.3-1.3-.6-2.6.9-3.6-1.2-1.5-3.7-1.7-5.3-1.4l-.8.1.2-.8c.2-.6.3-1.3.3-1.9v-.3l.3-.1c1.6-.6 3.4-.5 5-.4h.7l-.1.4.4.1c1.2.2 1.2.2 1.6-.1.2-.2.4-.3.8-.6l.2-.1h.2c2.6.5 5.4.5 8 .4 1.2 0 2.4-.1 3.6-.1h.7l-.1.2h4.6v.5c0 .2.1.2.3.5.1.1.2.2.4.3l.4-.1.2.4c.3.6.5 1.3.4 2v.2l-.1.1c-1.7 1.7-5.1 1.9-8.8 2.1-2.7.1-5.5.3-7.2 1.2-.1.5.1.7.8 1 .6.3 1.7.9 1.2 2.3l-.1.3h-.3c-1.2.1-1.9.6-2.7 1.1-.7.6-1.4 1.1-2.5 1.1M454.1 27.4c1.3 0 2.5.1 3.6.3 1.3.1 2.5.3 3.2.1 0-.1.1-.2.1-.3-2.2-1.3-5.1-.8-7.6-.1h.7m6 1.5c-.7 0-1.6-.1-2.5-.2-1.6-.2-3.4-.4-5.2-.2l-.5.1v-.5c0-.3 0-.7.1-.9l.1-.3.3-.1c2.9-1 6.7-1.8 9.6.1l.3.2v.3c-.1.4-.1.7-.3 1.1l-.1.2-.2.1c-.6 0-1.1.1-1.6.1M599.3 60.4h1.9c-.1-.1-.2-.3-.3-.4h-1.6v.4zm4.1 1.5l-1.8-.4h-3.3V59h3.2l.1.3.9 1.5.9 1.1zM607.2 67.9c1.1 0 2.9.4 5.2.9.7.2 1.4.3 2 .4 0-.2 0-.4.1-.6.3-.6.8-.8 1.4-1 .7-.3.9-.4.8-.7-2.4-.8-10-2.3-13.1-.6-.6.3-1 .8-1.2 1.4 1.1.6 2.9.5 3.9-.2l.5-.4.3.7c0 .1.1.1.1.1zm8.6 2.4h-.8c-.5 0-1.5-.2-2.8-.5-1.8-.4-4.6-1-5.3-.8l-.4.1-.2-.4c-1.5.7-3.6.6-4.9-.3l-.3-.2.1-.3c.2-1 .8-1.8 1.8-2.3 3.7-2.1 12.4-.1 14.2.6l.2.1.1.2c.5 1.5-.7 1.9-1.4 2.1-.3.1-.7.3-.8.4-.1.1 0 .3.1.6l.4.7zM587.7 53.1c-.1.4 0 .7.1.9.5.7 2 .9 3.5 1 .7.1 1.5.2 2.1.3.1-.8 1-1.1 1.5-1.3.4-.1.7-.3.8-.5 0-.1.1-.3-.2-.7-.9-.6-1.9-.4-3.3-.1-1.2.3-2.7.6-4.5.4zm7.1 3.7l-1-.3c-.7-.3-1.7-.4-2.6-.5-1.7-.2-3.5-.4-4.2-1.5-.4-.6-.4-1.3-.2-2.2l.2-.3.4.1c1.8.3 3.3 0 4.6-.2 1.6-.3 2.9-.6 4.2.3l.1.1.1.1c.4.7.4 1.2.3 1.7-.2.6-.9.8-1.4 1-.8.3-.9.4-.8.9l.3.8zM603.3 59.8c3.6 0 7.1.2 10.4.4 7.8.5 14.6.9 20.8-1.2-6.6-1.2-13.2-1.1-19.7-1-3.7.1-7.2.1-10.6 0-.1.6-.5 1.1-1.2 1.3l.3.5zm19.5 1.7c-2.9 0-6-.2-9.2-.4-3.4-.2-6.9-.4-10.6-.4h-.3l-1.7-2.8 1.7.4c.4-.1.6-.3.5-.8l-.1-.6h.6c3.5.2 7.2.1 11.1.1 7.1-.1 14.4-.3 21.6 1.3l1.5.3-1.5.6c-4.2 1.8-8.7 2.3-13.6 2.3zM578.3 28.5c.6.3 1.5.3 2.3.4 1.1.1 2.3.2 3 .7 1.9-.5 3.8-.6 5.8-.1.6-.3 1.2-.5 1.7-.7.6-.2 1.2-.4 1.8-.7-3.5-.9-7.1-.8-10.7-.7h-3v.1c-.1.4-.4.6-.6.8-.2.1-.2.2-.3.2zm4.3 2.5l.2-.6c-.6-.3-1.5-.3-2.3-.4-1.2-.1-2.4-.2-3.1-.8l-.2-.1v-.2c0-.6.4-1 .7-1.2.1-.1.2-.1.2-.2l-.4-.9h4.5c4-.1 8.1-.2 12.1 1l.9.3-.8.6c-1 .8-1.9 1.1-2.9 1.4-.6.2-1.2.4-1.8.7l-.2.1h-.2c-1.9-.5-3.8-.4-5.7.2l-1 .1zM575.5 34.2c4.7 3.1 9.2 2.6 16 1.8h.2c.1-.8-.3-1.1-1.2-1.6-.7-.4-1.6-.9-1.7-1.9-1.4-.3-2.4-.4-3.8-.1-.1.9-.5 1.6-1.1 2-1.1.7-2.6.2-4.1-.2-2.2-.6-3.5-.9-4.3 0m8.7 3.4c-3.5 0-6.5-.7-9.6-2.8l-.3-.2.2-.4c1.1-2.2 3.6-1.5 5.6-.9 1.3.4 2.6.8 3.3.3.3-.2.5-.5.6-1.1l-1-.5 1.1-.3c2.1-.6 3.4-.5 5.4 0l.6.1-.2.5c.1.5.5.8 1.2 1.2.9.5 2.2 1.2 1.6 3l-.1.3-.8.1c-3 .4-5.4.7-7.6.7M705.5 36.3l.9-2.2 1.5.4zM621.8 73.7c3.4 0 5.3.7 8.4 1.9 0-.1.1-.1.1-.2 2.3-2.4 21-.8 25.7-.3-.1-.2-.2-.4-.3-.5-4.1-.4-7.6-1.1-11.1-1.7-6.6-1.2-12.9-2.4-21.2-1.7 0 .6-.4.9-.6 1.1-.2.2-.3.3-.4.5v.7l-.4-.1c-.1.1-.2.2-.2.3zm9.4 3.3l-.9-.3c-3.6-1.5-5.4-2.1-9.3-2.1h-1l.6-.8c.3-.4.4-.8.5-1.3l.1-.6.4.1c.1-.2.3-.4.5-.6.3-.3.4-.4.3-.8l-.1-.6h.6c8.7-.7 15.2.5 22 1.7 3.5.6 7.2 1.3 11.3 1.8h.3l.1.3c.2.4.4.9.8 1.5l.7.9-1.2-.1c-5.6-.7-24.1-1.9-25.8-.1l.1 1z"/><path d="M704.8 38.8c3.1 0 5.8.2 8.2.3 5.3.3 9.6.6 15.3-1.1-1.9-.3-4.3-.3-6.7-.4-3.2-.1-6.5-.1-8.7-.7l-.9-.2.7-.6c.5-.4.7-.8.7-1 0-.3-.2-.6-.7-1l-.2-.2c-1.1-.2-2.3-.1-3.8.2v.6l.1.1c.8.5 1.7 1.1 1.7 1.8 0 .3-.1.6-.4.8-1.1.8-2.4-.3-3.3-1 0 .1-.1.2-.1.2-.3.4-.9.5-1.3.5h-.1c-.1.2-.3.4-.4.6v1.1zm14 1.5c-1.9 0-3.8-.1-5.9-.3-2.5-.2-5.3-.3-8.6-.3h-.5v-2.6l.1-.1c.3-.4.5-.7.8-1l.3-.4.4.4c.1 0 .3 0 .4-.1V35.6l.4-.9.5.3c.2.1.4.3.7.5.6.5 1.6 1.3 2.1 1 0-.1-.2-.4-1.2-1-.3-.2-.4-.2-.5-.3l-.1-.1v-.9L705 34l3-.7c2.3-.5 4-.5 5.5-.1l1.7.5-1.2.3c.2.3.4.7.4 1.1 0 .4-.2.8-.4 1.1 2.1.3 5 .4 7.7.5 3.5.1 6.8.2 8.8.8l1.4.4-1.4.5c-4.6 1.5-8.1 1.9-11.7 1.9zM683.2 72c3.9.5 13.1.5 16.7 0-3.7-.3-12.7-.2-16.7 0zm8.2 1.3c-4.8 0-9.7-.3-10.6-1.1-.2-.2-.3-.5-.2-.7.1-.4.2-.6 9.3-.7 4.3 0 9.6 0 11.4.3.4.1 1 .1 1 .7 0 .2-.1.5-.6.7-1.2.5-5.8.8-10.3.8zm18.3 3.2c2.3.1 4.4-.4 6.6-1 2.3-.6 4.6-1.2 7.1-1.1.3-.3.4-.7.6-1.2.3-.9.6-2.2 2.5-2.3h.2c.8.2 1.7.3 2.6.5 1.4.2 2.8.4 4 .9 2-1.5 6.1-1.3 10.4-1.1 5.1.3 10.3.5 11.2-2.2l-.7-.2c-3.6-1.1-5.7-1.7-10.2-1.1l-.6.1.1-.6c0-.4-.1-.7-.4-1-.2-.3-.5-.6-.6-1.1-.5.1-1 .2-1.4.2-.9.1-1.9.3-2.1.6 0 0-.1.3.5 1.1l.5.6-.8.1c-5.2 1-7.1 0-9.7-1.4-.7-.4-1.5-.8-2.5-1.2-.1.3-.3.5-.6.7-1.5 1.1-4.8.6-8.1 0-.5-.1-1-.2-1.3-.2-1.2.2-2.1.6-3.1 1-1.1.4-2.1.9-3.6 1.1h-.2c-4.9-1.5-9.1-1.5-13.1 0h-.2c-2.3 0-4.3-.4-6.1-.8-3.2-.6-5.8-1.1-7.9.7l-.6.5-.2-.8c-.3-1.2-2.5-2.1-5.9-2.3-5-.4-9.9.7-10.7 2.4-.3.6.1 1.4 1 2.2h1c1.9 0 3.2.1 3.7.8.4.6.2 1 .1 1.2-.7 1.1-3.9.9-5.4.8l.1.1-.6.1c-1.4.1-2.9.4-4.2.7-1 .2-2 .4-3.1.6l.3.6c1.5.3 2.6.3 3.7.4 1.4 0 2.7.1 4.7.7 0-.2.1-.5.3-.7.6-.8 1.9-1 3.1-1.1.3 0 .6-.1.8-.1l2.1-.3-1.8 1.2c-.3.2-.5.4-.5.6 0 .2.3.6 2.1 1.3 7.5-2 19.1-2.5 34.4-1.4.3-.4.5-.9.7-1.4.2-.3.3-.7.5-1l.1-.2h.6c8-1.2 9.4-.4 9.7.5.1.3.1.6-.1.8-.6.8-2.7 1.1-7.5 1h-.5c-.3.5-.7 1.1-1 1.7zm-37 1l-.2-.1c-1.4-.5-2.8-1.2-2.9-2.2v-.4c-.9.1-1.8.3-2.1.7-.1.2-.2.4-.1.7l.1.8-.8-.3c-2.2-.8-3.5-.8-5-.9-1.1 0-2.4-.1-4.1-.4h-.2l-.1-.2c-.3-.5-.5-1-.8-1.5l-.2-.6.7-.1c1.2-.1 2.5-.4 3.6-.7 1.2-.3 2.5-.5 3.7-.7l-.2-.4.8.1c1.8.2 4.9.2 5.2-.3 0 0 0-.1-.1-.2-.2-.3-2.2-.3-2.9-.3-.6 0-1 0-1.3-.1l-1.3-.2.6-.4c-1.2-1.3-1.2-2.3-.9-3 1.2-2.6 7.5-3.3 11.7-2.9 1.7.1 5.3.6 6.5 2.4 2.4-1.6 5.1-1.1 8.2-.5 1.7.3 3.7.7 5.9.8 4.2-1.6 8.5-1.6 13.6 0 1.3-.2 2.2-.6 3.2-1s2-.9 3.4-1.1h.2c.3 0 .8.1 1.5.2 2.1.4 6 1.1 7.2.2.2-.2.3-.4.3-.7v-.7l.7.3c1.3.5 2.3 1 3.2 1.5 2.5 1.3 4 2.1 8.3 1.4-.2-.5-.4-1-.2-1.4.3-.8 1.4-1 2.8-1.2.6-.1 1.3-.2 1.9-.3l.7-.2-.1.7c-.1.5.1.7.4 1.1.2.3.5.6.6 1.1 4.4-.6 6.7.1 10.1 1.2l1.5.4-.1.4c-.5 4.1-6.5 3.8-12.3 3.5-4.1-.2-8.4-.4-9.9 1l-.2.2-.3-.1c-1.1-.5-2.6-.7-4-.9-.9-.1-1.8-.3-2.6-.5-1 0-1.2.6-1.5 1.5-.2.7-.4 1.4-1.1 1.9l-.1.1h-.2c-2.4-.2-4.7.4-7 1-2.5.7-5 1.3-7.8 1l-.9-.1.5-.7c.6-.8 1.1-1.7 1.5-2.7l.1-.3h1.2c5.4.1 6.5-.4 6.7-.6 0 0-.2-.4-2.4-.4-1.3 0-3.3.1-6.3.6h-.1c-.1.2-.2.5-.3.7-.3.6-.6 1.3-1 1.8l-.2.2h-.3c-15.5-1-27.1-.6-34.5 1.4v.4zM596.7 72.4c8.2 1.2 13.4 1.6 22.7.7 0-.1 0-.1.1-.2 0-.3-.9-.3-1.5-.4-.9-.1-1.9-.1-2.3-.8l-.1-.2v-.1c-3-.1-5.5-.5-7.7-1l-.1.1c-1.3.8-3.4.8-5.6.9-2.4 0-4.8 0-5.5 1m13.6 2.2c-4.7 0-8.9-.5-14.4-1.3l-.5-.1.1-.5c.4-2.3 3.6-2.3 6.7-2.4 1.8 0 3.6-.1 4.7-.5l-.4-.9 1.1.3c2.4.7 5.3 1.1 8.9 1.2h.7l-.4.8c.3.1.9.2 1.3.2.8.1 1.8.1 2.2.7l.6-.2-.3 1c-.1.2-.2.4-.2.7l-.1.3h-.3c-3.9.5-6.9.7-9.7.7M563.3 32.7c.4.4 1 .6 1.8.8 1.9.5 4.5.2 5.9-.5-2.2-.9-3.8-.7-6.6-.5-.4.1-.8.1-1.1.2m3.9 2c-.8 0-1.7-.1-2.4-.3-1.5-.4-2.5-1.1-2.9-2l-.2-.6h.7c.7-.1 1.3-.1 1.9-.2 3.2-.3 5-.5 8 .9l.7.3-.6.5c-1.1.9-3.1 1.4-5.2 1.4M519.4 43.2c12.8 1.6 28.8 2.9 41.5 3.2-.1-.4-.4-.8-.7-1.2-3.7-1.2-8.4-1.3-13-1.4-2.9-.1-5.7-.1-8.2-.4-.7-.1-1.3-.2-2-.3-6-.7-12.1-1.6-17.6.1zm42.5 4.2h-.5c-13.5-.4-30.8-1.7-44.2-3.5l-1.8-.2 1.7-.7c6.3-2.7 13.3-1.7 20-.8.7.1 1.4.2 2 .3 2.5.3 5.2.4 8.1.4 4.7.1 9.6.2 13.4 1.5h.1l.1.1c.5.5 1.1 1.3 1.1 2.4v.5zM571 59.5c-1.5 1.9 4.1 1.9 3.8.7-1.8.2-2.1-.8-3.8-.7M1067.8 38.5c5-1.6-3.3-1.8 0 0M1065.9 37.8c-3.9-2.1-6.2 2.4 0 0M1019.9 35.7c-1.7.4-4-2.1-4.8 0 .6.4 4.5 1.7 4.8 0M1013.2 35.7c-6.3-2.2-3.9 2 0 0M647.7 33.6c2.6-1.1-1.4-2.3-1.9-.7 1 0 1.2.6 1.9.7M197 18.3c-3.1-.6-3 1.1-3.8 2.1 1.8-.3 4.1-.3 3.8-2.1M248.8 16.9c.3-1.4 2.6-1.4 2.9-2.8h-3.8c.1 1-.4 2.5.9 2.8M209.4 16.2c3.3.8 9.9.3 16.3 0-1.1-2.2 1.5-1.7 1.9-2.8 2.2-.4 4.5-.6 6.8-.8v.1c8-1.8 15.5.2 22.1-2.8-1.1-3-.2-3.9-1-6.3-8.8-3.7-18.7.1-18.2 6.3-1.3.1-3.2-.2-3.7.5-8 .6-17.6 1.1-25.1 3.7 1.1.1 1 1.1.9 2.1"/><path class="st4" d="M172 16.9h2v-1.4h-2z"/><path class="st6" d="M393.9 7.6c-.3 0-.8.1-1.2.2.3-.1.8-.2 1.2-.2"/><path class="st8" d="M1276.1 21.1c.3.2.6.4.8.6-.4-.3-.6-.5-.8-.6"/><path class="st10" d="M653.5 35.7c3.4-1.2 5.3.4 6.7-.7-3.6-1.9 6.1-2.4 1.9-4.9 2.7-1.3 6.7-1.6 8.6-3.5-.7-.2-1.1-.6-1-1.4-5.2 0-9.5 1.6-16.3.7-2.5 3.9 2.5 3.8-1.9 7.7 1.8 0 2.3.7 2 2.1"/><path class="st12" d="M676.5 33.6c.1-.4.1-.8 1-.7 0 .4.8.8 1 0-.6 0-1.1-.1-1-.7.6 0 1.1-.1 1-.7h-2.9c.1.9-.2 2 .9 2.1"/><path class="st14" d="M206.6 16.2c.3 1.6-2.8.8-2.9 2.1 1.9.3 4.9-1.9 2.9-2.1"/><path class="st16" d="M560.4 59.2c-.4-.1-6.1-.7-6.9-.2-3.1 2.1 10.3 1.4 6.9.2"/><path class="st18" d="M681.2 27.7c-.2-.1 10.7 3.3 10.3.6-.3-2.1-12.5-1.6-10.3-.6"/><path class="st20" d="M564.5 19.7c.3.1 1.9-.7 1.8-1.2-.2-.3-.4-.4-.7-.3-1.3.2-1.7.7-1.1 1.5"/><path class="st22" d="M240.3 39.9c1.1-.3 1.8-.9 1.7-2 .7 0 1.3 0 2 .1.4.9 1.1 1.1 0 2 12.1.9 30.7-3.1 45.1-.7-4 6.8-9.7 2.4-14.3 2.2-2.8-.1-10.4 2.6-10.6 2.7-8.8 3.9-18.5-1.2-23-.7-1.3-.5-1.8-1.5-1.9-2.8.3-.2.7-.5 1-.8zm9-7.7c0-.1 0-.1.1-.2 2.2-2.5 8.4-3.7 11.9-1.2-1.7 2.5-7.5 2.5-12.1 2.8-.2-.5-.2-.9.1-1.4zm13.4-16.9c.1 0 .1 0 .2-.1l.2.2c2.8.2 2.9-1.6 5.8-1.4 4.6 1.9 7.9.4 14.4.7l-.1-.2c5.5.4 10.9-.8 16.4-.4 0 .4-.1.9-.2 1.4-5.4 1.4-10.4 3-15.1 4.8-4.8-4.1-8.4-2.5-16.3-.7-1.4-1.2-3.8-1.6-5.4-2.6-.1-.5 0-1.1.1-1.7zm23.5 14.8c.6-.9 2.1-1.3 3.8-1.4.8.8 1.3 1.9 1 3.5-2.7.2-2.3-2.1-4.8-2.1zM302 54.6c.1.2.2.5.4.8-3 3.6-6 .5-9.4.8-3.9.3-5.9 2.7-9.7 3.3-1.8-.4 1.1-3.8-1-2.1.1-1.6 6.1-4.8 9.6-6.3 3-.3 2.7 1.8 3.8 2.8 3.6-.8 3.8.5 6.3.7zm-.4-40.4c1.4-.5 3.1-.5 4.8-.4l-.1.3c3 .6 2 .6 3.7-.6 3.9.8 7.8.3 11.8.3l-.1.3h4.8c0 .7.8.8 1 1.4l.4-.1c.3.5.4 1.1.4 1.8-2.9 2.9-12.2 1.1-16.1 3.2-.7 2.2 2.6 1.3 1.9 3.5-3.4.4-3.4 3.4-7.7 1.4.7-3.6-1.9-5.5 1-7-1.1-2-4-2.4-6.1-2 .1-.7.3-1.5.3-2.1zm27.7 1.3c3.8.3 5-1.5 6.7.7.7 2.5-5.3 1.4-6.6.8-.1-.7-.1-1.2-.3-1.5h.2zm12.5 30c-2.9 0-7.8 2.2-7.7-1.4 3.4.2 3.5-2.1 6.7-2.1-.4 1.7 1.8 1.6 1 3.5zM313 56.7c-3.6.5-4.6-.9-7.7-.7h-.1c.4-.9-.9-3.2-1.8-3.4v-.1c-.2-6.1 9.7-4.1 12.5-1.4-.9 1.9-2.1 3.6-2.9 5.6zm-41.8 3.8l-.3-.9h3.7c-.2 1.4-2.1 1.5-3.4.9zm-1.4-1c.1.5.2 1 .4 1.5h-.3c-1.8 1.3-2.4.1-4.8 0-.7-2.4 3.2-2.6 4.7-1.5zm-23-9.1c6 .1 14.3-2.2 15.3 2.8-6.9-.7-12.7 5.6-15.3-2.8zm109.4-9.1c2.3.2 2.1 2.2 3.8 2.8-.5 3.8-7.8-1.6-7.7 2.1-1.6.2-1.7-.7-2.9-.7.8-2.4 4.5-2.8 6.8-4.2zm13.4-20.9h1l-.1-.1c-.3-.1 3.2.9 3.2-.2 0-.7-2.8-.7-3.2-.8l.2-.2c-.9-1.2-3.9-.9-2.9-3.5 2.9.5 2.8-1.2 5.8-.7l-.2-.3c3.6.4 7.3.2 10.9 0l-.2.4c1.5 2.3 3.6-.1 5.8 1.4 0 .9-.4 1.5-.9 2-.3.1-4.4.4-3.3 1.6.5.6 3.8-.2 4.3-.3l-.1.2c-.6 2.8 5.7.5 4.8 3.5-12.1 1.5-19.1.4-33.6 2.1-.1-4 8.8-1.2 8.5-5.1zm48.9 27.9c8.4-1.2 17.3-2.9 25.9-2.1 2.3.2 11.8 1.3 12.5 3.5-4 .8-5.8.1-7.7-1.4-2.1 2.3-8.1 1.1-8.6 2.8-1.8-.5-8.7-3.4-9.6 0-3.5-1.8-13.4 3.7-12.5-2.8zm15.4-25.2c-1.3-3-.8-2.1 1.9-2.8-.3-1-2.1-.8-2.9-1.4.2-.7.9-1 1.7-1.3 3.4-.6 5.5 4 8.9 2.7.9 1.4 3.7 1.5 6.7 1.4v3.5l.2.1c-1 .7-1.2 2.4-1 3.4h-.1c-4.4.9-8.4-.1-11.5-2.1-1 5.8-15.4-.9-3.9-3.5zm18.5 4.2c3.2-1 6.6-1.6 9.2 0 0 .3-.1.7-.2.9-1.7.6-5.4-.6-9-.2-.1-.3-.1-.6 0-.7zm10.3.1c2.2.2 2-1.3 4.7-.7 1.8 1.3-.6 1.3 0 3.5-1.7.3-3.8-.6-5.1-1.4.2-.5.4-.9.4-1.4zM548 44.1c4.4.4 8.7-.6 12.5.7.5.6 1 1.1 1 2.1-12.7-.3-30-1.6-44.1-3.5 8.7-3.7 20.4-.2 30.6.7zm24-11.2c-1.9 1.7-8.6 1.9-9.6-.7 4.5-.3 6.2-.8 9.6.7zm12.4-.7l-.2-.1c2-.6 3.2-.5 5.1 0l-.1.1c.1 2.1 3.7 1.5 2.9 4.2-7.4.8-12.2 1.4-17.3-2.1 2-3.8 8.9 3.1 9.6-2.1zm-5.7-4.9l-.2-.4c5.2.1 10.6-.6 15.6 1-1.5 1.1-2.9 1.3-4.7 2.1-2-.5-4-.4-6 .2v-.1c-1.2-1-4.5-.4-5.8-1.4.1-.7.9-.8 1.1-1.4zM596 52.5c1.4 2.6-2.6 1.3-1.9 3.5-2.6-.9-7.8.1-6.7-3.5 3.9.8 6.4-1.4 8.6 0zM607.5 70l-.2-.3c2.4.7 5.4 1.1 9 1.2l-.2.5c.6 1 3.7.1 3.8 1.4h.1c-.1.2-.2.5-.2.7-9.7 1-14.9.6-23.8-.7.6-3.2 8.7-1 11.5-2.8zm-8.7-10.5h2.4c.3.5.6 1 1 1.5l-.5-.1h-2.9v-1.4zM615 69.8c-1.3-.1-7-1.6-8.3-1.3l-.2-.5c-1.3.9-3.5.9-4.8 0 .9-4.9 13.1-2.2 15.3-1.4.7 2-3 .9-2 3.2zm-12.3-11c.7-.2 1.1-.6 1-1.4 10.1.6 21.5-1.1 32.6 1.4-9.5 3.9-20.4 1.4-33.2 1.4-.3-.5-.6-1-.9-1.6l.5.2zM656 74.2c.2.5.5 1 .9 1.6-2.4-.3-27-2.5-26.4.6-3.7-1.5-5.5-2.1-9.5-2.1.3-.4.5-1 .6-1.5l.3.1c.1-.9 1.2-1 1-2.1 13.1-1.2 21 2.1 33.1 3.4zm1.3-.7c4 0 3-1 7.7-1.4l-.1-.3c.6.1 6.9.7 5.6-1.2-.5-.8-3.7-.5-4.6-.6-6.9-6.2 15.1-7.5 16.3-2.8 3.6-3 8.1-.1 14.4 0 4.6-1.7 9-1.4 13.4 0 2.7-.4 4.1-1.7 6.7-2.1 1.9.2 9.5 2.3 9.6-.7 4.9 2 5.8 4.1 12.5 2.8-1.9-2.6 1-2.1 3.8-2.8-.2 1.3 1.1 1.5 1 2.8 5.1-.8 7.3.1 11.5 1.4-.8 6.4-18.1.5-22.1 4.2-1.8-.8-4.5-.9-6.7-1.4-2.5.1-1.5 2.6-2.9 3.5-5.1-.4-9.6 2.5-14.8 2 .7-.9 1.2-1.8 1.6-2.8.4-.1 8.6.4 8-1.2-.6-1.6-8.3-.2-9.5-.1-.5.9-.8 1.9-1.4 2.7-10.7-.7-25.1-1.1-34.7 1.5-1.7-.6-3.7-1.6-1.9-2.8-1.8.3-4.1.2-3.8 2.1-3.9-1.4-5.2-.5-9.2-1.3-.3-.5-.5-1-.7-1.5h.3zm47-36.2c.3-.3.5-.7.8-1l.2.1c.6 0 1.1-.1 1-.7l.2-.4c.7.4 2.3 2.3 3.3 1.5.9-.7-1.4-1.9-1.6-2.1v-1.2h-.1c1.8-.4 3.6-.6 5.3-.1l-.4.1c1.1 1 1.1 1.8 0 2.8 4.5 1 13.7.2 17.3 1.4-9.8 3.5-15 1.3-25.9 1.4v-1.8zm2.4-2.6zm67.6 3.1c-5.1-2-10.4 3.1-12.5-2.1 3.1-1.1 12.5-2.4 12.5 2.1zm-.9-8.4v-.1c.7.1 1.3.1 2 .2.1 1.1 2.4.5 1.9 2.1-3.8-.2-9.5.9-9.6-2.1h5.7zm5.7 39.2c3-6.5 17.4-.5 18.2-8.4 5-.1 2.8 3.6 3.8 4.9 10.8-.9 22.3 0 31.6 1.4h.1c.5.7 1 2.9 2.4 2 .3-.8.1-1.5-.5-2 1.2-2.1 7.5-.5 9.5-2l-.1-.3c1.8 1.2 3.2 1.2 4.3-.1-1-.8-2.1-1.1-3.5-.9l.3-.1c-.1-1.5-4.1-.3-5.8-.7 17.1-5.9 39.9.1 57.5.7.4 1.3 2.1 1.8 1.9 3.5 8.5-1.7 12.9-3.7 23-2.8v5.6c-8.3 3.3-18.6-1.2-27.5-.3-8.6.9-16.5 3.1-25.3 1.7-7.2-6.9-17 2.4-24.9-1.4.1.9 1.2 1 1 2.1-9.1-1.4-19.8 2.4-25.9-.7-14.9 1.4-29.1 2.8-40.3-.7.1-.9 1.6-1.2.2-1.5zm58.5-37.7l-.1-.2c3.7-.6 7.2.9 10.8-.1l-.1.3c.7.2 1.9 0 1.9.7l.6-.1c-.3.5-.5 1-.6 1.5-3.8.4-15.3 2.2-17.2-2.1 2.3 0 2.9 1.3 4.7 0zm13.6 2.5c.1-.4.2-.7.3-1.1 2.6.1 3.4-1.5 5.3 0-.1 1.8-3.2 1.4-5.8 1.4h-.1c.2-.1.3-.2.3-.3zM527.9 58.8c2.9-.5 2.8 1.2 5.8.7h.1c0 .4 0 .7-.1 1-.3.1-.6.3-1 .4-2.5 0-5-.1-4.8-2.1zm4.7 6.2c2.3.4 4.7.6 7 .8-.1.7-.2 1.4-.2 2.2-2.8 2-12.5-1.1-6.7-2.8l-.1-.2zm9.7 3c0-.6.1-1.3.2-1.9 1.3.1 2.7.3 4.1.7 1.7 1.3-3.2 2.9-4.3 1.2zm54.6 13.9c.2 4.8-6 1-11.5 2.1 2.6-1.4 8.6-3.1 11.5-2.1zm-19.2-9.1c-.1-1.3 15.9-2.4 17.3-2.1-2.5 8-10.9 1.9-17.3 2.1zm8.7-12.6c-9.6 10.9-27.2 1.8-39.2 4.9-1.7-.5-3.4-.7-4.9-.8-.4-.2-.9-.3-1.3-.2-2.5-.3-5-.6-7.6-.9l.2-.1v-.7l-.4-.1c.7-.3 1.4-.6 2-1 .1-.5.2-1 .2-1.6.5 0 6.6 1.2 6.6-.5 0-1.5-6.2-1.3-6.5-1.3.2-4.7-10.7-1.4-9.6-6.7 13.7-1.6 26.4 1.9 38.4.7 5.6 2.9 13.9 3.9 21.1 5.6.2 1-.3 2.5 1 2.7zm338.5 15.4c3-.5 1.8-.5 4.8 0-.1 1.3-3.2.5-2.9 2.1-1.1-.3-1.9-.9-1.9-2.1zm36.5-11.2c.6-2.3 5.6-4 7.7-1.4l.3.1-.2.2c.1 0-3.4.8-3.2 1.5.4.9 3-.5 3.4-.6.7.6 4.3 1.8 4.8.3-.5-1.1-1.3-1.6-2.4-1.6l.1-.1c2.8-5.3 11.9-1.9 16.3-5.6 10.5 3.1 40.2 8.2 48 .7 2.2 3.1 9.1-1.8 9.6 2.8 2.7-1.8 9.5-3.8 10.6 0-3.3-.3-5.4.3-7.7.7.1 1.7.1 3.4-1 4.2-15.8-1.7-29.8-1.4-51.8 0V70c-8 3.5-17.5 1.1-25.9 2.2v-.1h-6.7c0-2.3-4.1-1.7-3.8-4.2-5.2 1.5-21.2-1.1-29.7 2.8-1.1-8.8 22.6-5.6 31.6-6.3zM977.7 77c-3.7 1.1-7.9.2-10.4 0 0-.1-.1-.2-.1-.3.5-1.3 2.8-1.3 3.7-2.4 1.4-.1 3.4.2 4.9-.1-1.2 2.3 3.1.6 1.9 2.8zm-12.5.7h-2.9v-1.4h2.9c-.2.5-.1 1 .2 1.4h-.2zm138.1-39.1c1.3.3 2.6.5 3.8.7.3 2.5 2.6 1.7 1 4.2-3.7.5-4.6.5-7.7-.7-.1-.8.2-2-1-2.1.7-2.7 3.2.4 3.9-2.1zm16.3 27.2c-2.5 1.8-5-1.2 0 0zm62.4-4.9c2.2-2.2 3.8 2.5 0 0zm145.7 31.5c-4.1-.3 1.1-4 0 0zm671.4 3.6V57.4c-4.6-1.2-10.6.8-15.4.6-4.6-.2-9.2-1.2-13.7-2-11.1-2-20.7-1.8-31.9-1.9-19.4-.2-38.7-5.4-58-6.8-19-1.4-36.6-8.6-55.5-8.2-22.1.5-44.1-6.1-66.2-4.8-5.1-2.8-16.7-3.8-24-2.8.3-1.4-1.3-1.4-1.9-2.1-16.4-.5-32.8-1.1-49.2-1.8-12.5-.5-32-5.3-43.8-1-5.5-1.9-17.7-2.9-23-.7-6-4.2-17.7-2-24.6-2.7-8.6-.9-17.2-2.3-25.9-2-13.3.5-27-3.6-40.6-.2-6.8-2.4-15-.2-22.1-.7-5.5-.4-13.2-4-18.2-.7-1.8-.6-3.5-1.2-5.8-1.4-9.7.9-16.9-.4-26.5-.1-5.7.2-11.2-1.2-16.8-1.2-5.8 0-8.9 3.3-14.2 4.1-4.5-1.7-7.6.6-12 .7-5.4 0-5.3-1.6-9.9-2.6-7.8-1.6-13.5 1.7-21.3 2.6-9.2-6.1-30-3.2-37.4 2.1 3.4.6.1 1.7 1 4.2-6.8 4.4-21.3.8-27.8 1.4-1.9-1.4.4-1.4 1-2.8l-.2-.1c1.6 0 2.6-.7 2.9-2.1-.8-1.2-2.9-.1-3.7.1-7.1 1.5-13.5.7-22.1 0-2.1 3.1-6.7 3.3-10.5 3.5-.7 5.6-16.9 3.5-23 2.8.5-2.7 6.5-1.3 8.6-2.8-1.9-1.7 8.3-7.1 8.8-6.9-6.2-3.8-19.3 2.9-27.9-.1-1.5 3.1-9 1.8-11.5 4.2 1.1.3 2.2.7 2.9 1.4-4.9 4.6-11.3 3.9-19.2 6.3-2.2-1.6.1-3.5 1-4.9-3.9-.5-3.3 2.3-7.7 1.4-1.3-1.2-2.5-2.3-1.9-4.9-5.2.5-7.8-.5-12.5 0-1.9 2.5 4.1 6.2-1 8.4h-2.9l-.2.3c-2-.8-4.3-.2-6.3.2-2 .2-1.7.8-.4 1.6 1.5-.3 3.8-.8 5-.7 1 1.6 6.4 0 5.7 2.8-5.6 1.6-41.4 8.1-40.3-3.5l-.1-.2c.9.4 1.8.3 2.5-.4-.3-.7-.9-1-1.6-1-.8-1.5-2.9-2-4.7-2.7-3 3.5-13.6.9-20.1.7-2.2 2.8-8.2 2.9-10.6 5.6-5.3-2.8-12.3-.2-17.2 1.4-1.6-.1-3.2-.9-4.9-.6v-.1c-8.7-2.1-14.1.9-22.1.7-.9 4.8-9.7.5-13.4 2.8 4.6 1.6-1.7 6.4-5.8 6.3-.1-2.8-1.1-2.9-3.8-4.9-13 1-27.7 5.8-40.3 1.4-16.4 1-31.2 2.6-47 0-14.4 1.9-33.8 2.9-48-.7-3.3 1.3-8.5 2-10.5 0-10.8 2-22.7 1.5-33.6.8-10.8-.7-23.1 1.2-33.6-2.2 8.2-5.6 25.4 2.2 34.2-2.6 10.5.4 25.8 3.5 36 .9 13 2 32.1-.3 41.1 1.7 4.3-3.9 11.5 4.1 14.4-4.2l-.1-.1c3.1-1.1 5.6-.7 8.8-.9l-.1.3c3.3.2 5 1.5 4.8 4.2 4.9-.9 6 .2 8.6-.7-3.4-2.1 4.3-1.9 2.9-4.9-5.1-1.3-12.9.9-16.3-2.8.2 1.2-.9 1.5-1 2.5-2.7.1-5.5-.4-8 .8-2.4-1.2-5.1-2-8.3-2.6-1.2.2-2.4 1.7-3.8 2.1-3.7 1-10.9-.9-15.2-.5-8.3.7-15.9 3.2-24.1.5-2.1.1-1.3 2.3-3.6 2.3-.4-.1-.8-.2-1.1-.1h-.1c-10.6-.4-25.2-3.2-35.5-.9-.3-1.1-3.1-.4-2.9-2 2.1-1 5.2-1.4 6.7-2.8-1.2-.1-2.3-.2-1.9-1.4-4.4.3-9.7 1.6-12.5-.7 1.5-4.6-3.7-4.3-5.8-6.3-6.6.5-6.9 5.7-12.7 6.8-.3-.1-.6 0-.9.1-.2 0-.5 0-.8.1l.3.1c-3.2.9-6.7-.4-9.9 0-.5-2.2 1.7-2.5 1-4.9-7.4-5.9-25.4-7.1-35.5-2.1 2.4-.1 3 1.1 3.8 2.1-.7 3.5-8.1 4.1-9.6 4.9 1.4.6 3 1 2.9 2.8-5.1 1.3-11.4 2.5-17.3-.7-1.2-2.8 3.2-1.4 1.9-4.2-1.7-1.1-7.7-1.1-9.5 0-.5 0-.9-.1-1.4-.1-4.6-1.5-14.1 1.6-10.2-4.1h-.1c1.4-.3 14.5 0 14.5-1.7-.1-2.7-14.9-.4-15.4-.2v-.1c-4.8-.9-10.9 1.3-15.3 0-.7 2.2 2.6 1.3 1.9 3.5-6.5 2-15.7 2-19.2 6.3-7.5-.2-11.2-.9-16.3 1.4l.1.2c-2.4-.6-4.8-.6-7.1.2l.2-.2c.6-.9.6-1.8 0-2.9 1-.3 14-1.5 12.9-3.4-1.3-2.3-19.7 2.1-19.6 3 1.2 1.3 2.7 1.6 4.5.9.1.7.2 1.2.2 1.8-.6.6-2.4.3-3.7.4-.7 1.8 1.1 1.8 1 3.2-.3.4-.6.8-.9 1.1l-.1-.1c-8-.1-16.4 2.3-24.1 2.9-9.5.7-19-2.3-28.7-1.5-10.5.9-25 3-35.5-.7.8-1 2.4-1.5 4.8-1.4l-.2-.4c1.6.7 3 .1 1.1-.6-.4-1.9-1.5-3.3-2.8-4.6 1.7-.4 4-.4 4.8-1.4.3 0 .7-.1 1-.1v.1c6.2.8 7.8-1.8 12.4-2.1.5.3 7 1.9 6.9.3 0-.8-5.3-.6-6.2-1.1l.3.1v-2.1c2.6-.1 8.2-.5 10.6 0-.7-2.6-1.4-5.3-3.8-6.3-2.6.1-8.8-.1-12.4 2-1 0-2.1.1-3 .3v-.2c-1.1.1-2.7-.1-2.9.7 1.7-.6 3.1 1.9 3.7.2.6-.1 1.3-.1 2-.1-.3 3.9-5.2 4.4-8.4 6.1-.4 0-.8.1-1.1.1-1.8-2.9-23.1-2.3-25.8-.1-5.1-1.4-10.3-.9-15.5-.9-8.3-2.3-15.1-1.7-23 .3-5.2-2-11.5-.8-17.3-2.1-1.5 3.3.8 1.7 1 4.9-6.1 3.1-13.2 4.7-24 3.5-2.7-4.3-12.7-11.2-1-12.6 2 .2 1.9 1.9 3.8 2.1-.1-1.2.7-1.8 1.9-2.1 2.4.6 3 2.5 4.8 3.5 3.3-1.9 7.5-1.1 8.6-5.6-6.2-5.1-19.1-5.5-29.7-4.2 1 .7-4.2 3.6-6.7 2.1-3.6 5.1-19.9 2.3-26.9 1.4-2.3-1.6 1.3-1.9 1.9-3.4 1.4.2 2.2-.3 2.3-1.5-.7-.8-2.9.2-3.3.3l.1-.3c-2.7-.4-5-1-7.7-1.4-2.2 6.2-16.3 3.8-21 8.3-3.1 0-5.1-4-8.7-2.7-1.7-3-2.1-5-4.8-8.4-10.5-1.8-24.3-1.7-35.2-.2 2.3-.1 1.6 2.1 1.6 3.7-2.6 1.5-8.3.8-11.7 1.8-3.1.2-6.3.4-9.5.1-1-2-2.6-3.5-1.8-6.8-7.5-3.9-20.8-5.6-28.8-3.5-1.1 4.3-10 2.7-11.5 4.9.9.7 3.5.2 2.9 2.1-5.3-.8-10.6-.3-14 1.9-3.3 0-6.8.4-10-.2-.1-.5-.1-.9-.8-1 0-.8-.1-1.6-.2-2.4.4-.2 6.8-1.6 6.9-2.4.4-3.1-8.3.5-8.8.8-.2 0-.4 0-.7.1-.4 0-4.1-.7-4.1 1.1.7 1.1 1.7 1.5 2.9 1.3 0 .6.1 1.2.1 1.8-.1.4-.6.6-.8.9-1.5 0-4.3.3-5.7.9-5.3-.4-10.5.7-15.7.4-.4-.5-1.6-.4-2.7-.4 1.1-1 1.1-1.8 0-2.8-3.4.5-8.4-.1-11.5 2.1-.5-.8-1-1.6-1.9-2.1-1.6 1.6-4.9 2-6.7 3.5-.6 0-4-1-4.2.5-.2 1.4 4 1.4 4.2 1.4-.2.9-.2 1.7-.2 2.4l-.7-.2c-2.1.7-3.2 3.6-5.4 3.9-5.4.9-2.8-1.7-5.3-1.8-1.2 0-2.5-.9-4.8-.5-2.3.3-1.8 3.6-5.6 3.3-1.7-3.5-6.2-3-10.6-2.8.5 2.5-.8 3.6-2.9 4.2H220c-1.7-1.9.7-2.7-1.9-4.2-2.9-.5-2.8 1.2-5.8.7-1.8 1.3-.1 1.8 0 3.5-7.8 4.1-10.7.6-20.1 1.4-1.3-.4-.1-2.7-1.9-2.8-1.9 2.5-5.4-.5-7.7 1.4 3.7.9-3.4 2.7-3.6 2.7-3.2.5-5.8-2.3-8.8-2.7-4.1.7-8.1 3-12.5 1.4-3.3 4.2-12.6 0-13.4 6.3-.5.1-4.9.1-4.2 1.3.5.9 4.8 0 5.3-.1l-.1.2c1.8.1 3.2.5 3.8 1.4-.6 1.2-2.9 1.2-3.8 2.1v.1c-2.5-.5-6.4-.6-8.3 1.5-.7-.1-6.3-1.5-5.9.3.3 1.2 6.1 1.4 7.2 1.5 1.7-1.9 3.8-2.2 6.4-1.7 4.6 2.8 11.7 1.9 17.7.4.3 1.6 1.2 2.9 1.9 4.2 2.8-1.7 4.8 1.1 7.7.7 2.8-.4 5.1-2.2 7.8-2.9 2.8-.8 16.2.3 17.1-2.7 1 .9.9 2.6 2.9 2.8.1-1.3.6-2.3 1.9-2.8 9.5.6 10.9 2.4 19.2 0v-.1c1.3.6 2.6.4 3.7-.6.8-2.9-18.2-1.7-19.9-3.5 6.5-4 21.1-1.4 26.9-4.2 4.2 2.6 11.4-1 15.3 2.1l.4.1c-.5 1-.4 1.9-.2 2.8l-.2-.1c-.2.8-1.1 1.1-1.9 1.4v.1c-.5-.1-2.8-.4-3.9-.1-1.9.7-4.1 1.2-4.8 2.8 1.3 0 2.1.3 2.9.7h.3c-.4.3-.8.6-1.2.8v-.1c-13.1.5-26.3 1.8-39.2 4.4-8.7 1.8-14.5 1.5-23.1 2.2-9.1.6-18.3 1.6-27.2.8-9.6-.9-21.6-.6-30.4 3.8-6.4.2-7.8.8-16.3 1.4-4.9-1.7-4.9-5.2-6.7-7.7-6 1.1-10.8 3.6-16.3 1.4-4.1 5.9-15.3 2.4-21.4 3.2-6.5.8-14.3 3-19.8 6.6-7.7-4.2-11.9 8.1-21.1 2.8-2.8 1-2.3 4.4-5.8 4.9-4-1.1-7.2-2.7-8.7-5.6 4.2-3.5 17.1-.6 21.1-4.2l-.1-.2c.3 0 5.2-.8 5.4-1.1 1.8-2.1-5.2-.8-5.4-.7v-.1c-3.8-1.7-8.1 1.3-13.4.7-.7-2.2 2.6-1.3 1.9-3.5-2.1-.5-3.7-1.5-6.7-1.4-.9 1.3-3 1.8-5 2.3V96h1999z"/><path class="st24" d="M681.6 72.3c1.7.3 20.2 1.1 20.1-.6 0-1.4-21.2.5-20.1.6"/><path class="st26" d="M1001.2 37.7h.4c.3-.3 2.6-1.7 1.1-2.3-.8-.1-1.4.2-1.8.8.7.1-4.2-3-3.5-.7.7 1.5 2 2.2 3.8 2.2"/><path class="st28" d="M1025.6 36.3c3.3.9 6.5 0 9.6-.7l-.1.1c4 .1 6.1-1.1 6.7-3.5-1.1-.2-1.5-.8-1.9-1.4-3 .2-3.7 1.9-5.8 2.8l.1.1c-.3.1-11.7 1.8-8.6 2.6"/><path class="st30" d="M113.1 36c4-.5 8.2-4.2 12.2-3.5l-.3.5c1.1.1 1 1.1 1 2.1 4.1-.6 7 .5 8.6-2.8-3.5-1.1-6.1-2.6-9.9-1-3.1-.3-11.5 4.7-11.6 4.7"/><path class="st32" d="M892 31.7c2.7-.2 5.6-.9 8-1.6 2.9 1.1 12.5 1.5 16.3.7-1.7-.5-1.2-3.7-.4-5.1 3.5-.5 7.5-.1 10.3.2 1.4.3 1.5-.2.8-1-3.9-.5-7.9-.7-11.7-.2v-.1c-8-1-11.8-1.5-17.3.7 2-.1.6 2.2.9 3.3-.6.2-10.9 3.5-6.9 3.1"/></svg>