<svg xmlns="http://www.w3.org/2000/svg" viewBox="0 0 2000 96"><path d="M560.6 59.1zm-1.6.5c-.5 0-.9-.1-1.4-.1.9 0 1.8-.1 2.4-.2.1 0 .3.1.4.1-.4.1-.8.2-1.4.2zm-5.8-.9c0 .2.1.3.4.4.9.7 2.7 1.1 3.5 1.3.5.1 1.2.2 1.8.2 1 0 2-.2 2.5-1 .2-.3.1-.6-.1-.8-.1-.1-.2-.1-.3-.2-.1-.1-.2-.2-.5-.3 0 0-.2 0-.4-.1-2-.6-5.9-1.1-6.8-.6-.3.2-.4.4-.3.7.1.2.2.3.2.4zM573 60.7c.7 0 1.4-.1 1.8-.3.8-.4.7-1 .7-1.1l-.1-.4h-.4c-.8.1-1.3-.1-1.8-.3-.5-.2-1.1-.5-2-.4h-.2l-.1.2c-.6.8-.3 1.4-.1 1.6.3.5 1.3.7 2.2.7M683.5 25.7c-.7.1-1.4.1-1.8.3-.1-.1-.2-.2-.2-.3.2-.1 1-.1 2 0m5.7 3.1c.8 0 1.6-.1 2.1-.3.7-.3 1.1-.8 1-1.5-.1-.4-.3-.6-2.1-1.1-.1 0-8.5-2.2-9.5-.9-.3.4-.3.9 0 1.3 1 1.4 5.5 2.5 8.5 2.5M1025.7 34.2c.3-.4 2.4-.6 4.3-.7-1.8.4-3.6.8-4.2 1.2 0 0-.1 0-.1-.1-.1-.1-.2-.2 0-.4m2.4 1.8c2.5 0 5.7-.6 7.1-.9h.5c4.1.1 6.5-1.2 7.2-3.9l.1-.5-.6-.1c-.8-.1-1.2-.6-1.6-1.2l-.2-.2h-.3c-2 .1-3.1.9-4.1 1.7-.6.4-1.1.8-1.8 1.1l-.2.1c-.6.1-1.5.1-2.4.2-4.7.3-6.7.5-7.1 1.4-.3.7-.2 1.2.1 1.4.5.7 1.8.9 3.3.9M675.3 31.1c0 .7.1 1.8 1.4 1.9l.5.1.1-.5c0-.2 0-.3.1-.3h.1c.2.3.4.4.8.5.4 0 .9-.1 1-.8l.1-.6h-.5c.1-.1.2-.1.2-.2.1-.2.2-.4.1-.8l-.1-.4h-3.9l.1.6v.5M1001.9 37.1h.2l.2-.2s.1-.1.3-.2c.6-.5 1.6-1.2 1.5-2 0-.3-.2-.6-.9-.9h-.1c-.8-.1-1.5.2-2 .7-.2-.1-.4-.3-.6-.4-.6-.5-1.4-1.1-2.1-1-1.1.2-1.3.7-1.3 1.1.1 1.3 4.4 2.9 4.8 2.9M1018.8 36c.4 0 .8-.1 1.1-.2.5-.2.8-.6.9-1.1l.1-.7-.7.2c-.5.1-1.2-.1-1.9-.4-.8-.3-1.6-.6-2.3-.3-.4.2-.7.5-.9 1l-.1.4.3.2c.3.2 2 .9 3.5.9M653.1 33.3c.2.3.2.8.1 1.2l-.2.9.9-.3c1.7-.6 2.9-.5 4-.3 1 .1 2 .2 2.8-.4l.6-.5-.7-.4c-.5-.2-.5-.4-.6-.4.1-.2 1-.6 1.5-.9 1.1-.5 2.3-1.1 2.3-2 0-.5-.2-.9-.6-1.2.8-.3 1.8-.6 2.7-.9 2-.6 4.1-1.2 5.3-2.4l.7-.6-.9-.2c-.5-.1-.7-.3-.6-.8l.1-.6h-.6c-2 0-3.7.2-5.6.5-3.1.4-6.4.8-10.6.2h-.3l-.2.3c-1.3 2-.8 3.1-.4 4 .4 1 .7 1.7-1.4 3.6l-1 .9 1.4-.1c.5.1 1.1.1 1.3.4M892.9 29.6c-1.5.6-2.2 1.1-.6.9 1.6-.1 3.3-.5 5-.8 1.3 0 2.4-.1 3-.2 2 .7 6.4 1.1 10.4 1.1 2.4 0 4.7-.1 6.1-.4l1.9-.4-1.9-.6c-.3-.1-.5-.3-.6-.6-.4-.9-.1-2.6.4-3.6 3.5-.4 7.4-.1 9.9.2.6.1 1.4.2 1.7-.3.3-.5-.1-1.1-.4-1.5l-.1-.2h-.2c-4.6-.6-8.1-.7-11.3-.3l-.4-.1c-7.9-1-11.9-1.6-17.5.7l-2.7 1.1 2.9-.2c.2 0 .4 0 .5.1.2.2.1.8 0 1.3-.1.4-.1.8-.1 1.1-2.2.6-4.6 1.1-6.8 1.3-.5 0-.8.1-1 .4l-.1.3.2.2c.1.4.8.5 1.7.5M1011.5 35.7c.7 0 1.5-.2 2.3-.6l1-.5-1-.4c-1.7-.6-3.8-1.2-4.4-.3-.2.3-.2.7.1 1.1.3.4 1 .7 2 .7M564 18.5c.2.2.5.3.8.3.5 0 1.1-.2 1.5-.4.9-.5.8-1.1.7-1.3-.1-.5-.5-.6-.7-.7-.7-.2-1.4.4-2.1 1l-.1.1.2.3-.4-.2-.3.4.1.1c.1.2.3.4.3.4"/><path class="st2" d="M171.5 16h2.9v-2.4h-2.9z"/><path class="st4" d="M645.6 31.7l-.2.6h.7c.4 0 .6.1.9.3.2.1.5.3 1 .4h.1l.1-.1c1.1-.5 1.2-1 1.2-1.4-.1-.7-.9-1-1.7-1.1-1.1 0-1.9.5-2.1 1.3"/><path class="st6" d="M113 34.2c.5 0 1.1-.1 1.6-.2-.9.5-1.5.8-1.6.8 2-.3 4-1.3 6-2.2 2.1-.5 4.3-.9 5.5-.9l-.2.5.7.1c.5.1.6.3.5 1.6l-.1.6.6-.1c1.1-.2 2.1-.2 3-.2 2.5-.1 4.7-.1 6-2.9l.2-.5-.5-.2c-.6-.2-1.2-.4-1.7-.6-2.8-1-5.1-1.8-8.4-.5-2.4-.2-4.4.9-6.3 1.9l-1.2.6c-2.4.5-4.4 1.1-4.6 1.4l-.2.3.3.6.4-.1z"/><path class="st8" d="M194 19.5c1.2-.2 2.5-.3 3.1-1.1.3-.4.4-.9.3-1.4l-.1-.3-.3-.1c-2.8-.6-3.4.6-3.9 1.6-.1.3-.3.5-.4.7l-.8 1 1.3-.2c.3-.2.6-.2.8-.2"/><path class="st10" d="M204.1 17.5c1.3 0 2.8-.8 3.3-1.5.4-.5.3-.8.2-1-.1-.3-.5-.6-1.1-.6l-.7-.1.1.7c.1.3 0 .4-1 .6-.7.2-1.8.4-1.8 1.4v.4l.4.1h.6"/><path class="st12" d="M208.9 14.8v.4l.4.1c1.4.3 3.2.4 5.4.4 2.3 0 5-.1 7.8-.3 1.1-.1 2.2-.1 3.3-.2h.8l-.3-.7c-.2-.4-.3-.7-.2-.9.1-.2.4-.4.8-.5.4-.2.9-.4 1.2-.8 1.9-.3 3.8-.5 5.7-.7l-.1.2.9-.2c3.3-.7 6.6-.8 9.8-.9 4.4-.1 8.5-.2 12.4-2l.4-.2-.1-.4c-.6-1.6-.6-2.5-.6-3.5 0-.8 0-1.7-.4-2.9l-.1-.2-.2-.1C250.3-.9 244-.5 240 2.3c-2 1.4-3.1 3.4-3.1 5.4h-.7c-1.1 0-2.1 0-2.7.5l-.9.1c-2.1.1-4.3.3-6.4.9-1.5.2-3 .3-4.5.5-4.6.5-9.5 1-13.2 2.3l-2.1.7 2.2.2c.4.4.4.7.3 1.9"/><path class="st14" d="M248.7 16l.5.1.1-.5c.1-.5.5-.7 1.2-1.1.7-.4 1.5-.8 1.7-1.8l.1-.6h-5l.1.6v.9c-.1.9-.1 2.2 1.3 2.4"/><path class="st16" d="M685.2 71.2c-.4 0-.9.1-1.2.1-.2 0-.4 0-.6-.1h1.8m16.3-.8c-1.8-.3-7.1-.3-11.4-.3-9.1.1-9.2.3-9.3.7-.1.3 0 .5.2.7.9.8 5.7 1.1 10.6 1.1 4.6 0 9.1-.3 10.3-.8.5-.2.6-.5.6-.8 0-.5-.6-.6-1-.6"/><path class="st18" d="M1327.4 90.6c.1-.1.3-.1.3-.1h.1c.1 0 .2.3.1.8-.5-.1-.7-.3-.7-.3-.1 0 0-.2.2-.4zM273.9 59.2l-.2.2c-.5.3-1.3.2-2-.1v-.1h2.2zm-8-.4c.8-.6 2.5-.4 3.4.1 0 .3.1.6.2.8-.9.7-1.4.5-2.3.3-.5-.1-1-.3-1.8-.4.1-.3.2-.6.5-.8zm-14.3-9c4.5-.3 8.7-.7 9.9 2-2.2-.1-4.3.5-6.2.9-3.7 1-6.2 1.6-7.8-2.7 1.4 0 2.8-.1 4.1-.2zm81.3-35.4c1.3-.2 1.9-.3 2.7.7.1.3 0 .4-.1.5-.9.7-4.2.2-5.5-.3 0-.2-.1-.4-.1-.6 1.3 0 2.2-.2 3-.3zm-20.1 6.9c.6.3.8.5.8.9-1.2.2-2 .7-2.8 1.2-1.1.7-1.9 1.2-4 .3.2-1.4-.1-2.6-.3-3.5-.3-1.5-.5-2.1.9-2.8l.4-.2-.2-.4c-1.1-2-3.6-2.6-5.8-2.4.1-.4.1-.8.2-1.1 1.1-.3 2.4-.3 3.7-.3l-.1.2 1.5.3c1.4.3 1.7.3 2.4-.3.1-.1.3-.3.5-.4 2.7.5 5.4.4 8 .4.9 0 1.9-.1 2.9-.1l-.1.3h5.1c.1.3.4.5.6.7.1.1.3.2.3.4l.2.5.4-.1c.1.3.1.6.2 1-1.5 1.3-4.8 1.5-8 1.7-2.9.2-6 .3-7.8 1.4l-.2.1-.1.2c-.3 1.1.7 1.7 1.3 2zm-6.9 27.2c2.6-1.1 7.4.1 9.5 1.8-.3.6-.6 1.2-.9 1.7-.6 1.1-1.2 2.2-1.7 3.4-1.7.2-2.8 0-3.9-.3-.9-.2-1.7-.4-2.9-.4 0-.5-.3-1.1-.4-1.4-.3-.6-.8-1.4-1.4-1.8-.2-1.5.4-2.5 1.7-3zm-22.4 7.2c1.5-1.4 5.3-3.6 8.6-5 1.7-.2 2 .5 2.5 1.4.2.4.5.9.9 1.3l.2.2.3-.1c2.1-.5 2.9-.2 3.9.1.5.2 1.1.4 1.9.5 0 .1.1.2.1.3-1.7 1.9-3.3 1.5-5.3.9-1.1-.3-2.3-.6-3.6-.5-2.1.2-3.8 1-5.3 1.7-1.4.7-2.7 1.3-4.3 1.6-.1 0-.1-.1-.1-.1-.1-.2.1-.9.2-1.2.1-.4.3-.8 0-1.1zM249.6 32c0-.3.1-.6.2-.8 1.9-2.1 7.3-3.4 10.7-1.3-1.7 1.7-6 1.9-9.9 2.1-.3-.1-.6-.1-1 0zM284 13.7c2.5.1 5.1-.1 7.5-.2 2.5-.2 5-.4 7.5-.2 0 .2-.1.4-.1.5-5.1 1.3-10 2.9-14.6 4.7-2.3-1.9-4.3-2.5-6.5-2.5-2.1 0-4.4.6-7.3 1.3l-2.4.6c-.8-.7-1.9-1.1-3-1.5-.7-.3-1.4-.5-2-.9 0-.3.1-.6.1-.9 1.5.1 2.4-.4 3.1-.8.7-.4 1.3-.7 2.5-.7 3 1.2 5.4 1 8.4.8 1.7-.1 3.7-.3 6.1-.1h.8l-.1-.1zm6.6 16.9c-.9-.1-1.2-.4-1.7-.9-.4-.4-.8-.8-1.5-1.1.6-.3 1.4-.5 2.5-.6.5.8.8 1.6.7 2.6zm-26.7 12.1c-5.7 2.6-11.7 1.2-16.5.1-2.1-.5-4-.9-5.6-.9h-.7c-.8-.3-1.3-1-1.4-2 .3-.2.6-.4.8-.6 1.4-.4 1.8-1.2 2-2 .4 0 .8 0 1.2.1.1.1.1.2.2.4.3.4.3.4-.2.8l-1 .8 1.3.1c5.1.4 11.4-.1 18-.6 9-.7 18.2-1.4 26.4-.2-2.7 4-6 3.1-9.5 2.2-1.3-.4-2.7-.7-4-.8-2.1-.1-6.4 1.3-10 2.4-.4.1-.7.2-.7.2h-.3zm71.2 1.7c-.2-.2-.3-.4-.4-.7 1.6 0 2.5-.6 3.3-1.1.7-.5 1.3-.9 2.4-1 0 .7.4 1.1.7 1.4.3.4.6.6.4 1.1-.7 0-1.6.2-2.4.3-1.6.3-3.3.6-4 0zm30.3-22.3c2-.2 4.5-.5 4.7-2.6h.8c.8.2 2 .3 2.5.1.4-.2.7-.5.7-.9 0-1-1.7-1.2-3.1-1.3l-.1-.1c-.4-.6-1-.8-1.6-1.1-1-.4-1.5-.7-1.3-1.6 1.3.2 2.1-.2 2.7-.4.7-.3 1.3-.5 2.6-.3l.9.2-.2-.4c3 .3 6 .1 9-.1h.4l.1.1c1 1.5 2.3 1.4 3.4 1.2.8-.1 1.5-.2 2.3.2 0 .5-.3.9-.6 1.3-2.3.3-3.4.7-3.7 1.4-.1.2-.1.6.3 1 .5.5 1.6.5 4 0 0 .3.1.6.3.8.5.7 1.6.8 2.6.9.8.1 1.7.2 1.9.6.1.1.1.2.1.4-5.7.7-10.3.8-15.1.9-5.1.1-10.3.3-17.4 1.1.4-.9 1.8-1.1 3.8-1.4zm-11.5 19.8c.9-.3 1.8-.7 2.5-1.1.9.1 1.3.7 1.8 1.3.3.5.7 1 1.4 1.3-.1.2-.2.4-.3.5-.6.4-2 .1-3.1-.1-1.4-.3-2.8-.6-3.6 0-.3.2-.5.6-.5 1-.4 0-.7-.1-1-.3-.2-.1-.4-.2-.7-.3.5-1.1 1.9-1.7 3.5-2.3zm107.2-15.6c0 .1 0 .2-.1.3-.8.2-1.9 0-3.2-.1-1.1-.1-2.3-.3-3.6-.3h-.6c2.4-.7 5.3-1.1 7.5.1zm-42 21.5c.8-.1 1.7-.2 2.5-.4 7.5-1.1 15.3-2.3 22.9-1.7 8.3.6 10.9 1.9 11.7 2.7-3.3.5-4.9-.1-6.6-1.4l-.4-.3-.2.3c-1 1.1-3 1.3-4.9 1.5-1.6.2-3 .3-3.6 1.1-.2-.1-.5-.2-.8-.3-2.2-.7-5.8-1.9-7.8-.8-.5.2-.8.6-1 1-1.5-.5-3.6-.1-5.6.2-2.3.4-4.7.8-5.6-.1-.5-.4-.7-1-.6-1.8zm15.3-26.1c-.3-.8-.6-1.5-.6-1.8.1 0 .4-.1.6-.1.4-.1.9-.1 1.6-.3l.5-.1-.1-.5c-.2-.9-1.2-1.1-2-1.3-.3-.1-.5-.1-.7-.2.2-.2.6-.4 1.1-.6 1.4-.2 2.6.6 3.9 1.4 1.5.9 3 1.9 4.7 1.4 1.2 1.3 3.8 1.4 6.4 1.3V24c-.7.8-.9 2.1-.9 3.1-3.8.7-7.6 0-10.8-2.1l-.7-.4-.1.8c-.3 1.7-1.8 1.9-2.8 1.8-2.1-.1-4.4-1.3-4.5-2.4-.1-.9 1.4-1.8 4-2.4l.6-.1-.2-.6zm28.9 5c.9 0 1.4-.3 1.9-.5.6-.3 1-.5 2.2-.3.5.4.5.4.2.8s-.7.9-.6 1.9c-1.4.1-3-.7-3.9-1.2 0-.3.1-.5.2-.7zm158.8 46l.4.1v-.7c0-.2.1-.3.4-.5.2-.2.6-.6.6-1.2 8.4-.6 14.6.5 21.2 1.8 3.5.6 7.1 1.3 11.1 1.8.1.2.2.3.3.5-4.6-.4-23.4-2.1-25.7.3-.1.1-.1.1-.1.2-3.1-1.2-5-1.9-8.4-1.9.1-.2.2-.3.2-.4zm-19.8-2.1c2.2 0 4.3-.1 5.6-.9l.1-.1c2.2.6 4.7.9 7.7 1v.1l.1.2c.4.7 1.4.7 2.3.8.6 0 1.5.1 1.5.4 0 .1 0 .1-.1.2-9.3.9-14.5.5-22.7-.7.8-.9 3.2-1 5.5-1zm-19.4.2c.9-.1 2-.2 3-.3-.8.2-1.6.4-2.3.4-.1 0-.4 0-.7-.1zm-2.3.4c.4.1.7.2 1.1.3.8.3 1.5.5 2 .4 1.1-.1 2.3-.4 3.5-.7 2.1-.6 4.6-1.2 7.3-.8-1.7 4.5-5.6 3.5-10.1 2.3-1.9-.5-3.9-1-5.8-1.1.5-.1 1.2-.3 2-.4zm-43.5-29.1c.7.1 1.4.2 2 .3 1.9.3 4 .3 6.3.4.9.1 1.9.2 2.8.3 2.1.2 4.2.1 6.3 0 2.1.2 4.1.5 5.9 1.1.4.4.6.7.7 1.2-12.7-.4-28.7-1.6-41.5-3.3 5.5-1.6 11.6-.8 17.5 0zm65.4 24.8c.2-.6.6-1 1.2-1.4 3.1-1.8 10.7-.3 13.2.6.1.3-.1.4-.8.7-.5.2-1.1.4-1.4 1-.1.2-.1.4-.1.6-.5-.1-1.2-.2-2-.4-2.3-.5-4.1-.9-5.2-.9h-.2l-.3-.8-.5.4c-1 .8-2.8.8-3.9.2zm-3-7.3v-.4h1.6c.1.1.2.3.3.4h-1.9zm14.4-.3c-3.3-.2-6.8-.4-10.4-.4l-.3-.5c.7-.2 1.1-.7 1.2-1.3 3.4.2 6.9.1 10.6 0 6.5-.1 13.1-.2 19.7 1-6.3 2.1-13.1 1.7-20.8 1.2zm-29.9-26c.6-.4 1-1 1.1-2 1.4-.3 2.4-.3 3.8.1.1 1 1 1.5 1.7 1.9.9.5 1.4.8 1.2 1.6h-.2c-6.8.8-11.4 1.3-16-1.8.8-1 2.1-.6 4.1 0 1.7.4 3.2.9 4.3.2zm7.3-5.7c-.6.2-1.1.4-1.7.7-1.9-.5-3.9-.4-5.8.1-.7-.5-1.9-.6-3-.7-.9-.1-1.8-.2-2.3-.4.1-.1.1-.1.3-.2.2-.2.5-.4.6-.8v-.1h3c3.6-.1 7.2-.1 10.7.7-.5.3-1.1.5-1.8.7zm2.4 26.9l-2.1-.3c-1.5-.2-3-.3-3.5-1-.2-.2-.2-.6-.2-1 1.8.2 3.3-.1 4.5-.3 1.4-.3 2.4-.5 3.3.1.2.5.2.7.2.7-.1.2-.4.3-.8.5-.5.1-1.3.4-1.4 1.3zm-28.5-22.1c-.8-.2-1.4-.5-1.8-.8.4 0 .7-.1 1-.1 2.8-.3 4.4-.4 6.6.5-1.3.6-3.9.8-5.8.4zm140.4 3.4c.4 0 1-.1 1.3-.5 0-.1.1-.1.1-.2.9.7 2.2 1.9 3.3 1.1.3-.2.4-.5.4-.8 0-.7-.8-1.3-1.7-1.8l-.1-.1v-.6c1.5-.3 2.7-.4 3.8-.2l.2.2c.5.4.7.8.7 1.1 0 .3-.2.6-.7 1.1l-.7.6.9.2c2.2.5 5.6.6 8.8.7 2.4.1 4.9.1 6.8.4-5.8 1.8-10.1 1.5-15.4 1.2-2.4-.2-5.1-.3-8.2-.3v-1.3c.1-.4.3-.6.5-.8zM534.3 61.5c.4-.2.9-.4 1.3-.6l.2-.1.1-.2c.1-.4.2-.8.2-1.1h.2c2.6.4 5.1.6 6.1-.2.3-.2.4-.5.4-.9 0-.2-.1-.5-.3-.8-.9-.9-3.7-1.1-6.2-1.1-.2-2.3-2.9-2.7-5.2-3.1-1.7-.3-3.5-.6-4.1-1.5-.2-.3-.3-.7-.3-1.3 7.1-.8 13.8-.2 20.4.3 6.1.5 11.8 1 17.4.4 4.1 2.1 9.5 3.2 14.8 4.3 2 .4 4 .8 6 1.3v.5c0 .7 0 1.6.6 2.1-5.8 6-14.6 5.1-23.1 4.2-3-.3-6.1-.6-9.1-.6-2.2 0-4.3.2-6.2.7-1.4-.4-2.9-.6-4.7-.8-.4-.2-1-.3-1.5-.3-2.3-.2-4.6-.5-6.8-.8v-.4zm-1.3 3.3l.3-.1c2 .3 4 .5 5.9.7-.1.5-.1 1-.2 1.4-1.5.8-5.2.4-6.9-.6-.5-.3-.7-.6-.6-.6 0-.1.3-.5 1.5-.8zm.3-5.5l-.6.3c-1.6-.1-3.3-.1-3.9-.8-.1-.1-.2-.3-.2-.4 1-.1 1.6.1 2.2.4.5.2 1.2.6 2.5.5zm13.3 7.3c0 .2-.6.6-1.6.8-.9.2-1.7 0-2-.3 0-.4.1-.8.1-1.3 1.3.1 2.4.4 3.4.7l.1.1zm50 15.1c0 .6-.2 1-.5 1.2-.7.6-2.4.4-4.3.2-1.1-.1-2.2-.3-3.3-.3 2.7-1 6.1-1.7 8.1-1.1zm147.1-11.3c-4.3-.2-8.4-.4-10.4 1.1-1.2-.4-2.6-.7-4-.9-.9-.1-1.8-.3-2.6-.5h-.2c-1.8.1-2.2 1.3-2.5 2.3-.1.5-.3 1-.6 1.2-2.5-.2-4.9.5-7.1 1.1-2.2.6-4.3 1.2-6.6 1 .4-.6.7-1.2 1-1.9h.5c4.9.1 7-.2 7.5-1 .2-.3.2-.6.1-.8-.3-.9-1.8-1.7-9.7-.5h-.6l-.1.2c-.2.3-.3.7-.5 1-.2.5-.5 1-.7 1.5-15.3-1-26.9-.5-34.4 1.5-1.8-.7-2.1-1.1-2.1-1.3 0-.1.2-.4.5-.6l1.8-1.2-2.1.3c-.3 0-.6.1-.8.1-1.2.2-2.5.3-3.1 1.1-.2.2-.3.4-.3.7-2-.6-3.3-.7-4.7-.7-1.1 0-2.2-.1-3.7-.4-.1-.2-.2-.4-.3-.7 1-.2 2.1-.4 3.1-.6 1.4-.3 2.8-.6 4.2-.7l.6-.1-.1-.1c1.5.1 4.7.2 5.4-.8.1-.2.3-.7-.1-1.2-.5-.7-1.8-.8-3.7-.8h-1c-.9-.9-1.3-1.6-1-2.2.7-1.7 5.7-2.8 10.7-2.4 3.3.3 5.6 1.2 5.9 2.4l.2.8.6-.5c2.2-1.8 4.7-1.3 7.9-.7 1.8.4 3.8.8 6.1.8h.2c4-1.5 8.2-1.5 13.1 0h.2c1.5-.2 2.5-.7 3.6-1.1 1-.4 1.9-.8 3.1-1 .3 0 .8.1 1.3.2 3.3.6 6.6 1.1 8.1 0 .3-.2.4-.4.6-.7 1 .4 1.8.9 2.5 1.2 2.6 1.4 4.5 2.4 9.7 1.4l.8-.2-.5-.6c-.6-.8-.5-1.1-.5-1.1.1-.3 1.2-.4 2.1-.6.4-.1.9-.1 1.4-.2.1.5.3.9.6 1.2.3.3.4.6.4 1l-.1.6.6-.1c4.5-.7 6.6 0 10.2 1.1l.7.2c-.8 2.8-6.1 2.5-11.2 2.2zm211.9-37.1c1.7-.1 2.9-.6 3.9-1 .1 0 .2-.1.2-.1-.6.4-1.2.8-1.8 1-1.4.4-3.3.4-5.3.2 1 0 2 0 3-.1zm9.4 43.3h-1.8v-.4h1.8v.4zm-38.5-1.4c1.2-.2 1.2-.2 2.3 0h.2c-.1 0-.3.1-.5.1-.6.1-1.5.3-1.8 1-.7-.3-.9-.7-1-1 .4 0 .6 0 .8-.1zm43.2-.1c.6-.3 1.3-.5 1.8-1h1.6c.8 0 1.6.1 2.3 0 0 .2 0 .4.1.6.3.5.9.7 1.5.8.2 0 .7.1.8.2 0 0 0 .1-.1.3-2.8.8-5.8.4-8.2.1-.4-.1-.9-.1-1.3-.1.4-.4.9-.7 1.5-.9zm78.9-14.3c.1 1.5.1 3-.6 3.7-16.4-1.7-30.8-1.3-51.7 0h-.5V69c-4.9 2-10.4 1.9-15.7 1.8-3-.1-6.1-.1-9 .2h-7c-.3-1.1-1.3-1.6-2.2-1.9-1.1-.5-1.7-.8-1.6-1.8l.1-.7-.7.2c-1.9.6-5.5.5-9.6.5-6.3-.1-14.2-.1-19.5 2 0-.8.3-1.5.9-2.1 3.1-3.4 13.5-3.2 21.8-3 3.3.1 6.3.1 8.5-.1h.4l.1-.3c.3-1 1.6-2 3.2-2.3.7-.1 2.3-.3 3.4.8-2.5.7-2.8 1.2-2.9 1.4-.1.2-.1.4 0 .6.1.2.3.4.5.5.7.3 1.8-.1 3-.6.1 0 .2-.1.2-.1.9.6 2.9 1.2 4.2.9.7-.2 1-.6 1.2-1l.1-.2-.1-.2c-.4-.9-1.1-1.6-2-1.8 1.6-2.2 4.6-2.5 7.9-2.7 2.8-.2 5.7-.5 7.8-2.1 11 3.3 39.5 7.9 47.8.9 1.2 1.2 3.2.9 5 .7 1.4-.2 2.8-.4 3.5.2.3.3.5.7.6 1.3l.1.8.7-.5c2-1.3 6.1-2.7 8.3-1.8.5.2.9.5 1.2.9-2.4-.1-4.2.2-6 .6-.3.1-.7.1-1 .2l-.4.1v.4zM852.6 32h-.5c0-.1.1-.3.1-.4.9 0 1.7-.2 2.2-.4.8-.3 1.3-.4 2.1.1-.2.8-1.8.8-3.9.7zm-18.4-1.7c.3.1.6.1.9.2 1 .3 1.8.5 3.2-.4l.2-.1c1.4-.1 2.8 0 4.2.1 1.7.2 3.5.3 5.3 0l.5.1c.2 0 .5.1.7.1.3 0 .7.1.8.1v.6h.2c0 .1-.1.3-.1.4-.3 0-.7.1-1 .1-4.2.5-12.3 1.4-14.9-1.2zm35.7 39.2c-4.1-3.9-9.1-2.7-13.9-1.6-3.8.9-7.7 1.8-11.1.2l-.8-.4v.8c0 .6.4.9.6 1.2l.3.3c-3.8-.5-7.9-.1-11.8.2-5.2.5-10 .9-13.3-.8l-.1-.1-1.7.2c-14.1 1.3-27.4 2.5-38.1-.7l.1-.1c.2-.2.4-.5.3-.8-.1-.2-.2-.3-.4-.4 1.5-2.4 5.1-2.6 8.6-2.9 4.2-.3 8.6-.6 9.4-4.8 1 0 1.7.2 2 .6.5.5.5 1.3.5 2.1 0 .7 0 1.5.4 2l.2.2h.3c11.5-1 23.4.2 31.5 1.4.1.1.1.2.2.3.3.7.7 1.6 1.5 1.8.4.1.8 0 1.3-.2l.1-.1.1-.2c.3-.8.2-1.6-.4-2.3.7-.7 2.6-.7 4.4-.7 1.9 0 3.7-.1 4.7-.8 2.1 1.1 3.5.4 4.3-.5l.3-.4-.4-.3c-.9-.7-1.9-1.1-3.1-1.1-.1-.2-.2-.3-.3-.4-.5-.4-1.2-.5-2.1-.4 11.1-2.7 24.1-1.2 36.7.2 5.9.7 11.6 1.3 16.8 1.5.2.5.6.9.9 1.2.5.6.9 1 .9 1.8l-.1.7.7-.1c1.9-.4 3.6-.8 5.2-1.2 5.4-1.3 9.7-2.3 17.2-1.7v4.9c-4.8 1.8-10.2 1-15.5.2-3.8-.6-7.8-1.1-11.5-.7-2.4.3-4.8.6-7.1 1-5.9 1-11.6 1.8-17.8.9zM768.8 29.2c-.1-.1-.2-.2-.3-.4h5.9v-.1c.3 0 .6 0 .9.1.2.5.8.6 1.2.8.4.1.6.2.6.3h-2.7c-2.3.1-4.7.1-5.6-.7zm4.3 5.7c.4.3.7.7.9 1.1-2-.5-4-.1-5.8.2-2.7.5-4.4.7-5.4-1.3 2.7-.8 8.1-1.5 10.3 0zm328.2 6.4V41c0-.6-.1-1.4-.8-1.8.2-.4.6-.4 1.2-.2.7.1 1.8.3 2.3-.9 1 .2 2.1.4 3.1.6.2 1 .7 1.5 1.1 1.8.4.4.6.6 0 1.5-3.2.4-4.1.4-6.9-.7zm83 19s-.3.1-1-.3c.2-.1.4-.1.6 0 .3.1.4.3.4.3zM0 95.5h2000v-2c-63.5 0-135.4-50.1-143.2-51.8-10.2-2.2-20.7-4.4-31.5-4.2-10.4.2-21-1.1-31.2-2.5-11.4-1.5-23.3-3-34.9-2.3-5.3-2.8-16.4-3.8-23.6-2.9-.1-.8-.8-1.2-1.4-1.4-.3-.1-.6-.3-.7-.4-17-.6-33.8-1.3-49.6-2-3.7-.2-8-.7-12.5-1.2-10.7-1.3-22.9-2.8-31.4.2-5.3-1.8-17.3-2.9-23-.7-4.5-3-12.2-2.9-19-2.8-3 0-5.9.1-8.2-.2-1.5-.2-3-.3-4.5-.5-6.2-.7-12.6-1.5-19-1.2-5 .2-10.1-.3-15.1-.8-8.3-.8-16.9-1.6-25.5.6-4.4-1.5-9.2-1.2-13.8-.9-2.7.2-5.6.4-8.2.2-1.5-.1-3.3-.5-5.1-.9-4.5-1-9.6-2.1-13.2.2-2-.6-3.6-1.2-5.7-1.4-5.5.5-10.2.3-15.2.1-3.6-.2-7.3-.3-11.4-.2-3 .1-6.1-.3-9.1-.7-3-.4-6.2-.8-9.3-.7-2.9.1-5.1 1.2-7.2 2.3-1.7.9-3.3 1.7-5.3 2-2.8-1-5.3-.5-7.7.1-1.4.3-2.8.6-4.3.6-2.7 0-4.3-.6-6-1.3-1.1-.5-2.3-.9-3.9-1.3-5.1-1-9.5 0-14 1.1-2.3.6-4.7 1.1-7.2 1.5-9.6-6.1-30.5-3.1-37.8 2.2l-.9.7c2.2.4 2.3.6 2.3.6 0 .1-.1.4-.2.6-.3.6-.7 1.4-.5 2.5-4.5 2.7-12.5 2-18.9 1.5-3.1-.3-6.1-.5-8.2-.4l-.4-.4c0-.1.3-.2.4-.4.4-.3.9-.6 1.1-1.2 2-.2 2.6-1.4 2.8-2.5l.2-.3c-.9-1.4-2.8-.6-3.8-.3-6.5 1.4-12 1-19 .4l-3.3-.3c-2.4 3.1-6.7 3.3-10.4 3.5l-.7.4c-.6 4.9-15.9 3.2-21.7 2.5.4-.7 1.9-.9 3.9-1.1 1.6-.1 3.2-.3 4.2-1l.5-.4-.5-.4c.4-2 7-5.7 8.3-6.1.2.1.4.3.6.5l.7-.7c-.4-.4-.7-.6-1-.7-3.3-2-8.4-1.2-13.7-.3-5 .8-10.2 1.7-14.3.2-1.3 1.7-3.8 2.1-6.3 2.5-2.2.3-4.5.7-5.8 1.9l-.6.6c1.6.5 2.4.8 3.1 1.2-3 2.6-6.7 3.3-11 4.1-2.3.4-4.7.9-7.4 1.7-.3-.3-.5-.5-.5-.8-.1-.8.6-1.7 1.2-2.5.2-.3.4-.6.6-.8l.4-.7c-2.8-.4-3.8.2-4.6.7-.9.5-1.6 1-3.6.6-1.2-1.1-2.2-2.1-1.7-4.4l.2-.7c-3.2.3-5.1.2-7 0-1.9-.1-3.8-.3-6.2 0-1.3 1.5-.6 2.9 0 4.3.5 1.1.9 2.1.6 2.9-.2.5-.7 1-1.6 1.4-5-.3-7 .1-8.8.4-1.3.1-2.1.3-2.3.9-.2.7.5 1.2 1.1 1.7 2.3-.3 4-.7 5.1-.6.6.7 1.8.8 3 .9 1 .1 2.1.2 2.4.6 0 0 .1.2.1.4-5.8 1.5-31.1 6-37.8.6-1-.9-1.6-1.9-1.6-3.2.8.1 1.6-.1 2.3-.7l.1-.6c-.4-.8-1-1.2-1.7-1.3-.8-1.2-2.4-1.8-4-2.3l-.9-.3c-2.6 2.5-8.8 1.8-14.2 1.2-2.2-.3-4.3-.5-6.1-.5-1.4 1.5-3.5 2.2-5.5 2.9-1.9.7-3.9 1.3-5.2 2.6-5.1-2.5-11.5-.4-16.2 1.2l-.9.3c-.6-.1-1.1-.2-1.7-.3-.9-.2-1.9-.4-2.9-.3-5.5-1.3-9.5-.7-13.9-.1-2.6.4-5.3.8-8.4.7l-.5.4c-.4 2.1-2.7 2.1-6.4 1.8-3.9-.4-3.4-.8-3.5-1.4 0-.3-.3-.7-1.2-.8-.7-.1-1.9 0-2.2.8-5 .2-5.1.7-4.8 1 .5.7 2 .6 4.4-.2.7.2 1.3.6 1.5.7-.3.2-.6.4-1 .6l-.9.5 1 .3c1.4.5 1.3 1.2 1.3 1.4-.3 1.6-3.6 3.8-6.4 4-.2-2.2-1-2.8-2.6-3.9-.4-.3-.8-.6-1.4-1-4 .2-7.8.8-11.7 1.4-9.7 1.5-19.8 3.1-28.7 0-2.4.1-4.7.3-6.9.4-13.7.9-26.7 1.8-40.2-.4-11.4 1.4-32.5 3.3-47.9-.7-3.9 1.4-8.6 1.8-10.3.1-11.2 1.9-22.9 1.4-33.9.7-3.5-.2-7.3-.2-10.9-.1-7.3.1-14.8.2-21.5-1.8 4.1-2.2 10.3-1.5 16.3-.9 6.1.6 12.5 1.3 16.8-1.1 3 .1 6.5.5 10.1.8 8.7.9 18.7 1.9 25.8 0 6.5 1 14.4.9 22.1.9 7.5-.1 14.5-.1 18.9.9 2.1-1.6 4.2-1.2 6.5-.7 3.1.6 6.7 1.4 8.5-3.8 2-.6 3.6-.7 5.6-.7 4.3.3 5.6.7 6.2 1.5.5.6.8 1.4.7 2.4v.6c3-.5 4.5-.5 5.7-.4 1.2.1 2.2.1 3.6-.4l1-.3-.9-.5c-.6-.4-.6-.5-.7-.5.1-.2.8-.5 1.3-.7 1-.5 2.2-1 2.6-2 .2-.5.1-1-.1-1.5-2.3-.8-4.7-.8-6.9-.8-3.7 0-7.5 0-9.5-2.2l-1.1-1.2.3 1.6c.1.5-.1.7-.4 1.1-.2.2-.4.5-.5.9-3.5-.1-5.6-.1-7.6.7-2.3-1.1-5-2-8.2-2.6-1.2.2-2 .5-2.8.8-1 .4-2 .8-3.6.9-2 .2-4 0-6.1-.1-2.2-.1-4.5-.3-6.7-.1-2.2.2-4.3.5-6.4.8-6 .9-11.6 1.7-17.6-.2-1.5 0-2 .8-2.3 1.4-.3.5-.5.9-1.3.9-.3-.1-1-.2-2.1-.4-2.9 0-6.1-.3-9.6-.6-8.3-.8-17.7-1.7-24.9-.1-.4-.4-1-.6-1.6-.7-.7-.2-1-.3-1-.4.7-.3 1.6-.6 2.4-.8 1.5-.5 3.1-1 4.2-1.9l.8-.8c-1.6-.1-2.4-.2-2.6-.4-.1-.1 0-.3 0-.4l.2-.7c-1.7.1-2.8.2-3.8.3-3.3.4-6.8.8-8.8-.7.9-3.3-1.6-4.3-3.5-5.1-1-.4-1.9-.8-2.5-1.4-4.1.2-5.9 1.9-7.7 3.5-1.5 1.4-2.9 2.7-5.4 3.2-.8.1-2.6.2-5.2.4-3.1-.1-4.4-.3-5.7-.2 0-.6.2-1 .5-1.5.4-.7 1-1.6.5-3.1-7.8-6.4-26-7.5-36.2-2.4l-2.1 1c4.2-.2 4.8.6 5.5 1.5-.5 2.3-4.3 3.2-6.8 3.9-1.1.3-1.9.5-2.4.7l-.9.5 1.4.6c1.2.5 2 .9 2.1 1.8-5.4 1.4-11.1 2.2-16.4-.7-.3-.8 0-1 .8-1.3.8-.3 2-.9 1.2-2.8-2-1.3-8-1.4-10.1-.3-2.9-.6-5.1-.6-7.1-.6s-4.3.1-4.7-.7c-.2-.4.1-1.1.7-2.1 8.6-.3 13.3-.5 14.3-1.6.2-.2.3-.5.3-.6 0-.3-.1-.7-.6-1.1-2.5-1.8-13.1-.1-15.1.3-2.4-.5-5-.2-7.5.1-2.9.3-5.6.6-7.8-.1l-.6.3c-.5 1.5.6 2 1.2 2.4.6.3.9.5.8.9-2 .6-4.3 1-6.5 1.5-4.9.9-10 1.9-12.5 4.8-8.7-.3-12.1-.5-16.3 1.5-2-.4-3.9-.4-5.8.1.2-.6.2-1.3-.1-2 .5-.1 1.2-.2 2-.3 6.4-.9 10-1.7 10.6-2.9.1-.3.1-.6 0-.9-1.5-2.7-16.5 1.4-16.6 1.4-4 1.1-4 1.5-4 1.9l.1.3c1.2 1.3 2.8 1.8 4.5 1.2 0 .3.1.6.1 1-1.6.1-2.8.2-3.6.4-.5 1.4.1 2 .5 2.5.3.3.4.5.5.7-.2.2-.4.5-.5.7-4.7-.1-9.5.8-14.2 1.5-3.5.6-6.7 1.1-9.9 1.3-4.5.3-9.1-.2-13.5-.8-5-.6-10.1-1.2-15.2-.7-12.3 1.3-24.9 2.7-34.5-.4.8-.6 2.1-.8 3.8-.7 1.3 0 1.8-.1 2.1-.3.2-.2.3-.4.3-.6-.1-.4-.4-.6-1-.9-.4-1.7-1.3-2.9-2.3-4 1.9-.3 3.3-.5 4.1-1.3 4.5.5 6.6-.3 8.7-1 1.4-.5 2.6-.9 4.4-1.1 1.1.4 5.6 1.5 7 .7.4-.2.5-.5.5-.9 0-.9-1.3-1-3.8-1.2-.4 0-1.1-.5-2.1-1.5 3.8-.2 8-.4 10 0l.5-.8c-.7-2.5-1.5-5.4-4.1-6.5-4.4 0-9.5.1-12.7 2-4.7.1-6 .1-6.2 1.2l-.2.9.8-.3c.6-.2 1.2.1 1.7.4.5.3 1 .6 1.6.4.3-.1.5-.3.6-.5.6 2.1-1.7 3-4.2 3.9-.9.4-1.9.7-2.8 1.2-1.4-.6-2.7-1.1-4.8-1.4-6.5-1-19.2-.5-22.1 1.4-3.9-1-7.9-1-11.9-.9-11-2-17.6-2-26.5.3-2.9-1.1-6.3-1.2-9.5-1.3-2.6-.1-5.2-.2-7.7-.8l-.6.3c-.9 2-.5 2.6.1 3.2.3.3.7.7.8 1.6-6.7 3.4-13.9 4.4-23.2 3.4-.6-1-1.6-2-2.6-3.1-2-2.3-4.3-4.9-3.7-6.5.4-1.1 2.1-1.8 5-2.1.8.1 1.1.5 1.6.9.5.5 1.1 1.1 2.2 1.2l.6-.5c0-.6.1-1.2 1.4-1.6 1.2.3 2 1.1 2.7 1.9.5.6 1.1 1.1 1.8 1.6 1.5-.6 2.6-.9 3.7-1.2 2.4-.7 4.8-1.4 5.7-4.7l.1-.3c-7.8-6.5-23.8-5.3-30.4-4.6l-.4.8c-.2.3-1 .9-2.2 1.3-1 .4-2.5.5-4.5.2-3.1 4.4-16.9 2.5-24.3 1.5-.7-.1-1.4-.2-2-.3-.4-.3-.4-.5-.4-.5 0-.1.6-.5.9-.7.6-.3 1.2-.7 1.5-1.3.8 0 1.3-.1 1.8-.5.4-.3.7-.9.7-1.6l-.1-.3c-4.9-.4-6.1-.6-7.3-.9-1.2-.3-2.5-.5-3.9-.7l-.4.7c-1.1 3.2-6 4-10.7 4.8-3.8.6-7.8 1.3-10 3.3-1.2-.1-2.1-.7-3.2-1.4-1.4-1-2.9-2-5.2-1.4-.5-.8-.8-1.6-1.2-2.4-.8-1.8-1.6-3.5-3.5-5.8-8.3-1.5-23.7-3.3-37-.2l.2 1c2.3.5 2.3 1.4 2.3 2.6-1.4.9-3.8 1-6 1.2-1.9.1-3.8.2-5.3.7-3.9.2-6.5.4-9.1.1-.2-.3-.3-.6-.5-.9-.9-1.5-1.7-2.9-1.2-5.4l.1-.4C364.9.6 351.6-1.1 343.5 1l-.4.4c-.6 2.2-3.7 2.7-6.6 3.1-2.2.3-4.1.6-4.9 1.7l-.2.4c.7.6 1.3.7 1.9.9.5.1 1.1.2 1.2.5-5.7-.6-10.6.1-13.8 2.1-4.9.2-7.3.2-9.5-.1-.1-.4-.3-.8-.8-1 0-.6-.1-1.1-.1-1.7.3-.1.8-.2 1.3-.4 4.4-1.2 5.5-1.6 5.6-2.3.1-.6-.1-1.2-.6-1.5-1.9-1.2-7.8 1.3-8.9 1.7-1.9-.1-3.7-.2-4.6.5-.3.3-.5.7-.5 1.1l.1.3c.7 1.1 1.7 1.6 2.9 1.5 0 .4 0 .8.1 1.2l-.3.3c-1.7.2-4.3.5-5.8 1.1-2.7-.2-5.4 0-8.1.2-2.4.2-4.9.4-7.4.2-.4-.3-1.1-.4-1.8-.4.2-.3.3-.6.3-.9 0-.6-.3-1.1-1-1.8-6.3.2-9.4.4-11.7 1.8-.4-.6-1-1.3-1.8-1.8-1.4.9-2.7 1.4-3.9 1.9-1.1.4-2.3.9-3.2 1.6-4.3.3-4.5.6-4.5 1-.1.3 0 .7.3.9.5.6 1.8 1 3.8 1.1-.1.4-.1.8-.1 1.3-1.5.3-2.4 1.2-3.2 2.1-.8.9-1.6 1.7-2.5 1.8-2.2.4-3-.4-3.7-1-.4-.4-.9-.8-1.5-.8s-1-.1-1.4-.3c-.7-.3-1.6-.5-3.5-.2-1.6.2-2 1.2-2.4 1.9-.4.8-.8 1.5-2.8 1.4-1.7-3.3-5.8-3.1-9.7-2.9l-1.6.6c.4 1.9-.3 3-2.5 3.6-5.9-.6-5.9-1-5.8-1.5.1-.9 0-1.7-1.5-2.7-1.8-.3-2.6 0-3.3.3-.7.3-1.3.6-2.6.3-1.8 1.1-1.5 1.9-1 2.7.2.3.3.6.4 1-4.5 2.3-7.2 2-11 1.5-2.3-.3-5-.6-8.5-.3-.2-.1-.3-.4-.4-.9-.1-.7-.2-1.8-1.6-1.9-1.2 1.3-2.5 1.1-3.9.9-1.4-.2-2.9-.4-4.2.6l-.7.6c1.3.3 1.5.4 1.6.4-.6.5-3.4 1.4-4.2 1.6-1.7.3-3.2-.5-4.9-1.3-1.2-.6-2.5-1.2-3.8-1.4-1.4.2-2.6.6-3.8.9-2.9.8-5.7 1.6-8.6.5-1.9 1.9-4.4 2.1-6.9 2.3-3.2.3-6.5.5-7.2 4.1-2.2.1-3.8.4-4.2 1.2-.2.3-.2.6 0 .9.4.8 2 .9 4.9.3 2.3.1 3.4.4 4 1-.3.3-.9.5-1.6.7-.7.2-1.4.5-1.9.9-1.7-.3-5.9-.7-8.1 1.5-3.5-.7-5.3-.8-5.9-.1-.3.3-.3.6-.2 1 .1.5.4 1.5 7.6 1.9 1.8-1.8 3.6-2.2 6.2-1.7 3.8 2.3 9.5 2.5 17.6.5.3 1.3 1 2.4 1.6 3.4l.5.9c5.5.3 6.6.7 7.9.5 1.7-.2 3.1-.9 4.5-1.6 1.1-.5 2.2-1.1 3.4-1.4.7-.2 2.6-.2 4.7-.3 6-.2 10.8-.5 12.4-2 .1.1.2.3.3.5.4.8 1 1.8 2.5 2l.5-.4c.1-1.3.6-2 1.5-2.4 2.9.2 4.9.5 6.8.8 4.1.6 6.6.9 12.4-.8 1.4.5 2.7.2 3.9-.8.2-.6.2-.9 0-1.2-1-1.3-4.9-1.6-11.2-1.9-2.9-.2-6.4-.4-8-.8 3.5-1.7 8.9-1.9 14.1-2.1 4.6-.2 9-.3 11.7-1.6 2.1 1.2 4.8 1 7.5.8 2.9-.2 5.7-.4 7.6 1.1-.2.8-.2 1.4-.1 2l-.1.3c-.1.5-.7.7-1.6 1.1-4.1.1-4.4.2-4.8.3-1.7.6-3.5 1.2-4.2 2.8l-.3.7c1.7 0 2.3.1 2.9.4-14.7.6-27.6 2.1-39.4 4.5-6.3 1.3-11.1 1.5-16.5 1.8-2.1.1-4.2.2-6.5.4l-4.5.3c-7.5.6-15.2 1.2-22.6.5-7.2-.7-20.7-1.1-30.6 3.9C114.8 49.8 96 74.7 0 95.5z"/></svg>