<svg xmlns="http://www.w3.org/2000/svg" viewBox="0 0 2000 96"><path d="M.3 73.6h.2v-.8H.4M.5.2h1999.4V0H.4M387.9 94.4c7.4 4.1 3.5-2.9 0 0M353.3 94.4h1.7c0-.7.7-.8.9-1.3-1.4 0-3-.1-2.6 1.3M489.2 91.7c0 .9-1.5.6-1.7 1.3 1.1 0 1.2.9 2.6.7-.1-.7.1-1.9-.9-2M328.2 92.4c2.9 2 2.6-2.5 0 0M245.1 89.7c-.6 2.3 1.4 2.5 3.5 2.7-.5-1.5-1.6-2.4-3.5-2.7M550.7 91.7c2.1.1 4.2.1 4.3-1.3-2.1-.1-3.6.3-4.3 1.3M291.8 91.7c1.3-.1 3.2.2 3.5-.7-1.2-.8-3.3-.8-3.5.7M284.9 91.1c1.2.2 1.7 1 3.5.7.6-2.4-3.4-2.7-3.5-.7M282.3 91.1c-4.8-1.8-4.4 2.3 0 0M221.7 90.4c-1.3 2 4.5 1.8 4.3.7-1-.6-2.3-.9-4.3-.7M445.9 89c-1.3 2 4.5 1.8 4.3.7-.9-.6-2.3-.9-4.3-.7M521.3 87c-.9 1.7-1-.6-.2-1.2-1.8.8-5.8 0-7.3 1-1.8-.5-2.9-.1-3.3 1.2 1 .5 2 .5 3.1-.1-.3 3.1 10.2 1.8 7.7-.9M497 89.7c2 .2 3.2-.2 3.5-1.3-1.5.1-4.4-.7-3.5 1.3M480.6 87.7c0 2 4 2.3 5.2 1.4.8-2.5-3.4-1-5.2-1.4M475.4 89c1.2.2 1.7 1 3.5.7v-2c-2-.2-3.3.2-3.5 1.3M505.7 87.7H504c-1.3 1.7 2.9 2 2.6.7-.6-.1-1.1-.1-.9-.7"/><path class="st2" d="M323.9 86.3h-6.1c.7 2.4 5.8 2.3 6.1 0"/><path class="st4" d="M189.6 87.7c2 .2 3.7 1.4 4.3-.7-2.7.4-3.5-1.6-4.3.7"/><path class="st6" d="M568.9 82.3v2l.1.1c-4.7-.1-9.6.1-14 1.8-1-1.7-5.9-2.8-6 .1.8 1.4 3.3 1.5 6 1.3l-.1-.2c4.6-1.7 9.2-2 14.1-2l-.1.1c2.7.9 6.1 2 6.9-.7-3.1-.1-2.3-3.4-6.9-2.5"/><path class="st8" d="M308.3 85.7h-1.7c-1.4 1.7 2.9 2 2.6.7-.6-.1-1.1-.1-.9-.7"/><path class="st10" d="M245.9 86.3c-2-.2-3.6-.8-5.2-1.3-.6 1.9 4.3 2.8 5.2 1.3"/><path class="st12" d="M232.9 86.3c-1.1-.9-4.2-1-4.3.7 1.3-.3 4.5.8 4.3-.7"/><path class="st14" d="M589.7 83c.3 1.8-4.8-.6-3.5 2 1.3-.2 6.3-.9 3.5-2"/><path class="st16" d="M594 83.7c1.1 0 1.2.9 2.6.7 1.4-1.7-2.9-2-2.6-.7"/><path class="st18" d="M1116.1 81.6c2.2 1.2 2.6-.3 5.2.7.5-2.2-5-2.8-5.2-.7"/><path class="st20" d="M1130 81.6c3.1-.1 7 .5 6.9-2-2.9.2-7.5-.9-6.9 2"/><path class="st22" d="M355 81.6c1.3-1.7-2.9-2-2.6-.7 1.1.1 1.2.9 2.6.7"/><path class="st24" d="M344.6 81c4 0 4.4 1.3 6.9-.7-3.7.5-5.3-1.5-6.9.7"/><path class="st26" d="M336.8 80.3c1.9.6 3 1.7 6.1 1.3 0-2.6-5.1-3.2-6.1-1.3"/><path class="st28" d="M221.7 79h-4.3c-.8 2.2 2.8 1 3.5 2-.1-1 .3-1.5.8-2"/><path class="st30" d="M204.4 80.3c2.2.5 3.6.7 5.2-.7-2.2-.4-3.6-.6-5.2.7"/><path class="st32" d="M188.8 80.3c.5 1.4 5.6.8 5.2-.7-1.5.1-5.6-2.2-5.2.7"/><path class="st34" d="M184.4 80.3c1.1.9 3.2.9 3.5-.7-1.3.1-3.2-.2-3.5.7"/><path class="st36" d="M678.4 76.7c-2.7 0-27.8.2-27.3 2.4.3 1.5 25.5-.4 27.8-.4l-.1.2c3.8.7 9.4 2.9 9.5-2-1.6-.8-7.7-1.2-9.9-.2"/><path class="st38" d="M336 79.6c-4.2-1.7-8.9 2.3 0 0"/><path class="st40" d="M320.4 79.6c.3 0 4.1 1.3 5.2 0-2.1.5-5.5-2.8-5.2 0"/><path class="st42" d="M317.8 80.3c.4-2.1-1.9-2.1-4.3-2-.4 2.1 1.8 2.1 4.3 2"/><path class="st44" d="M298.7 80.3c2.5-.1 5.9.6 6.1-1.3-2-.5-6.5-1.8-6.1 1.3"/><path class="st46" d="M272.8 79.6c4.7 1.8 4.3-2.4 0 0"/><path class="st48" d="M267.6 79.6c5.5.8 1.9-2 0 0"/><path class="st50" d="M1663.4 77.6c1.3 0 3.5 2.5 4.3.7-1-.2-3.3-2.7-4.3-.7"/><path class="st52" d="M917 76.9c-2.2.1-4.1.4-5.2 1.3 2 1.6 3.8-.4 5.2-1.3"/><path class="st54" d="M792.3 74.9h-6.1l.1.2c-6 .5-13.3-1.6-19.2.2-3.4-1-9.2-.3-10.3 1.7 1.6-.1 2 .7 1.7 2 3.5-.4 9.2.9 11.3-.7-.9-.1-1.8-.2-1.8-1 5.8-.6 11.6.3 17.4 0 .5 1.9 7.8 1.1 8.6.3-1.1-.4-1.6-1.4-1.7-2.7"/><path class="st56" d="M1659.9 77.6c1.1 0 1.2.9 2.6.7 1.4-1.7-2.9-2-2.6-.7"/><path class="st58" d="M1645.2 76.9c1.6 1 2.9 1.8 4.3 0-.5-.4-4.1-1.5-4.3 0"/><path class="st60" d="M935.2 78.3c2.3-.3 4.7-.4 6.1-1.3-2.7 0-6.2-2-6.1 1.3"/><path class="st62" d="M830.4 75.6c-2-.2-3.2.2-3.5 1.3 1.3.3 2.2 1 3.5 1.3.1-1.8-1.5-1.3 0-2.6"/><path class="st64" d="M1637.4 75.6c-.9 2.3 1.2 2.2 3.5 2 .2-1.8-1.2-2.2-3.5-2"/><path class="st66" d="M848.6 74.3c-4.5-.1-8.5.1-11.3 1.3-.9 2 8.6 2.9 12.1 1.3.6-2.1-3.1-.9-.8-2.6"/><path class="st68" d="M1595.8 74.3l.1.2c-1.8.2-14-.1-13.7 1.6.3 1.8 11.8.4 13.7.2v.1c.7 1.3 6.4 1 6.1-.7-2-.7-3-1.8-6.2-1.4"/><path class="st70" d="M1519.7 75.6c-1.1 2.2 5.8 1.7 6.1.7-2.4 0-5 .2-6.1-.7"/><path class="st72" d="M998.4 76.9c1.3-.4 4.5.8 4.3-.7-1.3.4-4.5-.7-4.3.7"/><path class="st74" d="M831.3 76.3c2.2-.7 4.1 2 5.2 0-.6-.6-4.9-1.5-5.2 0"/><path class="st76" d="M609.6 74.3c-2.3-.2-2.8.9-2.6 2.7 2.3.1 2.8-1 2.6-2.7"/><path class="st78" d="M1343.9 75.6c8.3 1.9 5.3-1.7 0 0"/><path class="st80" d="M529.9 75.6c-.7.2-1.7 0-1.7.7 3.1-.1 7 .5 6.9-2-3 .3-4.9-.3-6.9-.7-.3 1.3 1.2 1.3 1.7 2"/><path class="st82" d="M906.6 73.6c3.6-.1 12.3 3.6 14.7 0 1.8-2.9-13.6-3-14.7 0"/><path class="st84" d="M185.3 75.6c1.3-2.1-5.7-2.1-4.3 0h4.3z"/><path class="st86" d="M258.9 74.3c8.6 0-4.2-.1 0 0"/><path class="st88" d="M207.8 74.9c.8-1.8 3.2 1.3 3.5-1.3-1.8-.4-6.5.2-3.5 1.3"/><path class="st90" d="M439 72.9c-2.3 0-4.9.3-6.1-.7 0 2.1 5.8 2.9 6.1.7"/><path class="st92" d="M394 72.2c-1.6.3-5.2-.9-4.3 1.4 1.5-.4 3.5-.4 4.3-1.4"/><path class="st94" d="M1414.9 72.9h1.7v-1.3h-1.7z"/><path class="st96" d="M1407.9 70.2c-1.3 3.6 5.2 3.1 6.1 1.3-1.9-.5-2.9-1.7-6.1-1.3"/><path class="st98" d="M694.4 70.2c-.2 1.4-3.2.6-3.5 2 1.6-.6 2.9 2 3.5 0-3-.2 3.7-1.3 0-2"/><path class="st100" d="M346.4 71.6c-1.5 0-2.7-.2-3.5-.7-1.4 1.9 3.7 1.8 3.5.7"/><path class="st102" d="M1507.5 71.6h3.5v-1.4h-3.5z"/><path class="st104" d="M723 68.9c.8-1.2-3.2.2-2.6.7.8.5 2.5-.5 2.6-.7"/><path class="st106" d="M127.3 68.9c.1-.9 1.1-.9.9-2h-1.7c-1.1.9-1 1.6.8 2"/><path class="st108" d="M121.2 68.9c.1-1.3 2.9-.5 2.6-2-1-1.7-5.4.8-2.6 2"/><path class="st110" d="M924.3 63.8c-1.2-.4-3.7.2-3-1.7 1.8-.2 3.1.1 3.4 1.1-.1.2-.2.4-.4.6m10 1c-1.8-.8 2.4-1.8 2.6 0 .3-1.6 1.4-2.5.9-4.7 1.1-.2 5.3.5 5.9-.6 1.3-2.3-6.3-1.2-6.8-1.1l.1-.3c-12.1 1.1-19.8.8-29.4 2.7-.8 0-1.8.3-2.6.5-.1.6-.9 2.3.3 2.4.8-.2 1.2-.7 1-1.5.4-.1.8-.2 1.3-.2l-.1.1c-.6 3.1 3.3.9 3.5 2-.6 1.4-4 .4-4.3 2 3.6 2.9 14.7 1.4 18.2 0l-.1-.1c1.2-.3 2-1.5 2.5-2.6h.2c2.4-.7 5.3 2.2 6.8 1.4"/><path class="st112" d="M893.6 66.9c1.7.3 2.2 1.4 4.3 1.3 1-2.7-4-3.6-4.3-1.3"/><path class="st114" d="M872.8 67.5c2.1-.9 3.6 2 4.3 0-1.5-1-2.9-1.8-4.3 0"/><path class="st116" d="M517.8 66.2c.1 1.9-5.3-.6-5.2 1.3 1.1 1.5 8 0 5.2-1.3"/><path class="st118" d="M114.3 66.9c-2.3 1.1-4.1-1.1-5.2 1.3 1.8-.4 6 1.1 5.2-1.3"/><path class="st120" d="M1410.5 65.5c-.1-1.7-1.3-2.6-3.5-2.7.9 2.5-3.2 1.1-2.6 3.4 3.3.3 4.1.9 6.1-.7"/><path class="st122" d="M1402.8 65.5c-.7-2.3-3.7-3-6.1-4 .2 1.5-.2 2.5-1.7 2.7l.1.1c.2 0-4-.9-4.1.5-.1 1.1 4.5 1.2 4.1 1.1l-.1.3c1.7.9 5.8-1.1 7.8-.7"/><path class="st124" d="M1030.4 65.5c.5.4 4.1 1.6 4.3 0-2.1.9-3.6-2-4.3 0"/><path class="st126" d="M938.6 62.8v3.4c3.2.5 2.2-2.4 3.5-3.4-2.4 0-1.7 1.1-3.5 0"/><path class="st128" d="M613.1 65.5c-1.9-.5-5.5.7-1.7.7 1.8.6 5.4-.6 2.6-1.3-.1.3-.2.7-.9.6"/><path class="st130" d="M274.5 65.5c-2 0-2.6-1.2-5.2-.7-1.2 2.2 5.2 1.7 5.2.7"/><path class="st132" d="M959.4 64.2c-2.7.1-5.2-1.8-5.2 1.3 2.5.1 4.4-.2 5.2-1.3"/><path class="st134" d="M620.9 64.2c-1.4 1.9 3.7 1.9 3.5.7-1.3-.3-1.7-1-3.5-.7"/><path class="st136" d="M1382 64.8c3.2.3 2.7-2 .9-2.7.1 1.3-1 1.5-.9 2.7"/><path class="st138" d="M1373.3 62.1c0 1.2.7 1.7 1.7 2 1.3-.9 1.3-2.5-1.7-2"/><path class="st140" d="M994 62.1c-1.4.1-3-.1-2.6 1.3h1.7c.1-.6.8-.7.9-1.3"/><path class="st142" d="M888.4 63.5c5.5.8 1.9-2.1 0 0"/><path class="st144" d="M887.5 63.5c.1 0-.1-.6 0-.7 4.2-3.6-4.1 1.3 0 .7"/><path class="st146" d="M1835.7 62.8c2 .2 3.3-.2 3.5-1.3-1.7.1-2.9.4-3.5 1.3"/><path class="st148" d="M899.7 61.5c1.2 0 1.9.3 2.6.7v-1.3c-1.3-.9-2.2-.8-2.6.6"/><path class="st150" d="M648.6 61.5c.4-1 1.3-1.7 1.7-2.7-2.6-.5-2.5 1.2-5.2.7-.8 2.1 2.8.9 3.5 2"/><path class="st152" d="M946.4 60.1h3.5v-1.3h-3.5z"/><path class="st154" d="M1324 56.8c-2.4-.1-1.7 1.1-3.5 0 .4 1.5 1.5 2.4 3.5 2.7 1.4-1.4-.1-.9 0-2.7"/><path class="st156" d="M749 59.5c1.5-.2 4.3.7 3.5-1.3-2-.3-3.3.1-3.5 1.3"/><path class="st158" d="M1184.5 58.8c1.4-1.6-2.9-2-2.6-.7 1.2 0 1.2.9 2.6.7"/><path class="st160" d="M673.7 58.8c0-.7.7-.8.9-1.3-1.4.1-3-.1-2.6 1.3h1.7z"/><path class="st162" d="M1196.7 56.8c1 .6 2.3.9 4.3.7 1.3-2.1-4.5-1.8-4.3-.7"/><path class="st164" d="M810.5 56.1c-1.4 1.7 2.9 2 2.6.7-.5 0-1-.1-.9-.7h-1.7z"/><path class="st166" d="M1888.5 55.4c1.2.2 1.6 1 3.5.7.2-2-3.4-2.6-3.5-.7"/><path class="st168" d="M1100.6 56.1c1.8-.4 5.7.8 6.1-.7-2.3-.6-5-1.1-6.1.7"/><path class="st170" d="M1131.7 55.4c5.6.8 1.9-2 0 0"/><path class="st172" d="M889.3 54.7c1.4-.1 3 .1 2.6-1.3-1.5 0-2.3.5-2.6 1.3"/><path class="st174" d="M1424.4 52.1h-2.6v2h1.7c.1-.9 1.1-1 .9-2"/><path class="st176" d="M1030.4 54.1h1.7v-1.4h-1.7z"/><path class="st178" d="M242.4 50.7c-1.1 2.2 5.9 1.6 6.1.7-2.8.4-4-.5-6.1-.7"/><path class="st180" d="M1539.6 50.7c.9 0 1 .5 1.7.7 2.4-1.1-1.3-2.3-1.7-.7"/><path class="st182" d="M955.1 50.7c-3.3-1.8-3.8 2.5 0 0"/><path class="st184" d="M301.3 50.7c1.3.9 6.9 1.4 6.9-.7-2 .4-6.2-.8-6.9.7"/><path class="st186" d="M1595 48.7c-3.5.6-3 .1-6.9 0-.3 2.7 7.1 2.7 6.9 0"/><path class="st188" d="M974.1 49.4c-2-.2-3.3.2-3.5 1.3 2 .2 3.3-.2 3.5-1.3"/><path class="st190" d="M1013.1 49.4c-2.9-2.1-2.6 2.5 0 0"/><path class="st192" d="M387.1 49.4c.7-2.4-6.5-1.6-6.1 0 3.1-.6 4.2 1.5 6.1 0"/><path class="st194" d="M1488.5 47.3c-1.3-1.1-4-.3-5.2.7 1.5-.4 5.1.8 5.2-.7"/><path class="st196" d="M1433.9 47.3c-1.3.4-4.5-.8-4.3.7 1.2-.3 4.5.8 4.3-.7"/><path class="st198" d="M1427.9 47.3c-.5-.2-3.3-1.7-3.5 0 .5.3 3.3 1.7 3.5 0"/><path class="st200" d="M1559.5 46c.6-2.3-3.3-2.6-3.5-.7 1.7-.1 1.9.8 3.5.7"/><path class="st202" d="M341.2 44.7c-1.1-1.3-5.4-1.7-6.1.7 3.3-.8 5.4 1.7 6.1-.7"/><path class="st204" d="M400 43.3c-1.7.3-3.7.2-3.5 2 2.3.2 2.8-1 3.5-2"/><path class="st206" d="M316.1 44c4.1 1.9 2-2.2 0 0"/><path class="st208" d="M218.2 43.3c-1.5.4-5.1-.8-5.2.7 1.4 1.1 4 .3 5.2-.7"/><path class="st210" d="M1213.1 43.3c1.8-.4 5.7.8 6.1-.7-1.8.4-5.7-.8-6.1.7"/><path class="st212" d="M144.6 42.7c-.5-.4-4.1-1.6-4.3 0 .5.3 4.1 1.5 4.3 0"/><path class="st214" d="M313.4 42c5.6.7 2-2.1 0 0"/><path class="st216" d="M235.5 42c2 .2 3.2-.2 3.5-1.3-1.5.1-4.3-.7-3.5 1.3"/><path class="st218" d="M181.8 42c4.5-1.7-2.9-1.8 0 0"/><path class="st220" d="M155 40c-4.4-1.9-3.2 2.3 0 0"/><path class="st222" d="M123.8 39.3c5.6.8 1.9-2.1 0 0"/><path class="st224" d="M448.5 35.2c-1.2-.9-3.2-.9-3.5.7 1.4-.1 3.3.3 3.5-.7"/><path class="st226" d="M103.9 35.2c4.8 1.8 4.4-2.3 0 0"/><path class="st228" d="M1146.4 35.2c5.6.8 1.9-2 0 0"/><path class="st230" d="M385.3 34.6c7.4.8 3.7-2.1 0 0"/><path class="st232" d="M377.5 33.2c-1.3-1.1-4.9-1-4.3 1.3 1.5-.3 3.6-.3 4.3-1.3"/><path class="st234" d="M314.3 34.6c5.6.8 1.9-2.1 0 0"/><path class="st236" d="M1392.4 32.6c2.2.1 4.2.1 4.3-1.3-1.6.2-5.2-1-4.3 1.3"/><path class="st238" d="M225.1 30.5c5.6.8 1.9-2 0 0"/><path class="st240" d="M333.4 29.9c1.3-1.7-2.9-2-2.6-.7 1.1 0 1.2.9 2.6.7"/><path class="st242" d="M1241.7 17.8c4.1 1.8 2.1-2.2 0 0"/><path class="st244" d="M754.2 75.6c-3.2-1.5-6.9-.2-10.4.7l.1.1c-10.5 2.1-21.9-2.7-32.1-.3-5.1-.6-12.8-.9-14.7 1.4-.7 0-1.2.3-1.5.9.7.7 1.4.8 2.3.4l-.1.1c3 .5 11.3 1.7 14.7-.7l-.1-.2c10.6-.4 21.3 2.4 31.9.3 3 .6 8 3 12.3.6-2.8-.4-3.3-3.7-2.4-3.3"/><path class="st246" d="M1489.3 76.3l.1.2c-2.4-.4-21.1-.6-21.4.7-.3 1.4 19.1.5 20.8.7 1.8 1.1 7 .4 7.4-.9-1.6-.9-4.8-2.3-6.9-.7"/><path class="st248" d="M822.6 74.3c-4 .2-7.6.7-13 0v.1c-1.1-.2-9.6 0-9.6 2 .1 2 8.2-.1 8.7 0 3 3.4 11.2 2 15.6.6-2.5-.7-.2-2.5-1.7-2.7"/><path class="st250" d="M462.4 78.3c2.3 0 4.9.2 6-.6.5 0 1.2.1 1.8-.1 1.6.7 6.2 1.8 7.7.1.3 0 .6-.1.9-.1 2.2.2 20.7-.5 20.7-2.3 0-1.6-18.3.7-19.7.6.9-1.2-1-1.3-1.7-.2-.3 0-.7.1-1 .1v-.1c-1.6.1-4.9-.7-6.9-2-.1.7.1 1.8-.7 2-.6 0-1.3-.1-1.9.1-1.3-.6-6-2-6.9-.7 4.2-.8 2 1.8 1.7 3.2"/><path class="st252" d="M776.7 66.9c2.6-2.5 2.9 2 0 0M747.4 70c-.2 0-.5 0-.8-.1.7-1.8-.1-1.4-.1-3.7 1.6-.1 1.9.8 3.5.7-.9 1.1-2.1 1.8-2.6 3.1m-12.3-3.8c-1-.1-1.5.2-1.7.7-1 .2-1-1.5-.9-2 1.3.3 2.2 1 3.5 1.3-.2.7-.9.3-.9 0m105.7 0c3.9-2.7 11.7.5 18.2-2.7l-.4-.2c.8-.1 3.5.4 4-.2-.3.4-23.3-1.7-26.6-.4-.7.1-1.4.2-2.2.3v-.1c-35.8-3.8-71 1.8-103.9-1.3-7.9 2.3-22.5.5-26.6 3.8 0 0-2 .1-2.7.4l-.1-.2c-7.7-4.4-21.1-.5-29.7-.5-12.3.1-24.6-.4-36.8 1.5-5.1-1.9-18.5.7-24.3 1.5-4-.6-16.7 1.6-15.8-.5-1.6 3.3-5.2.3-6.6 2.1-5.1-.2-10.5.4-15.6.8-3.9-1.1-6 .4-10.7.5l.1.2c-4.9.7-11.2 1.6-17.6 2.1-1.4-1.8-5.1.9-7.6-1-.6 3.6 3.3 4.9 6.9 3.4l-.1-.2c6.4-.5 12.7-1.3 17.7-2.1 1.8 1.6 7.4-.2 11-.4 3.6.6 14.3.7 17.7-.8 6.8-.6 14.6-.4 20.5-1.7 14.1 2.4 31.7-1.8 46.1-2.1 15.2-.3 30.4-.4 45.6-1.5l-.1-.1c1-.2 1.9-.3 2.9-.3l-.2.4c6.5 1.1 13 .2 20.8.7.8 2 .8 2.1 0 4 7.6.2 12.4.4 20.8-.7l-.2-.4c1.1.4 2 .5 2.8.2v.2c16.2-.5 42.6.2 59.8-1.3 1.6.3 2.2 1.5 4.3 1.3 2.1-.8 5.1-1 7.8-1.3l-.1-.2c-2.9-1.2 7.4 1.4 7.2-.5 0-.7-7.2-.5-6.2-.3.5-2.1-3.3-.9-2.7-3.1 7.4-.6 12.9 1.6 16.3-.6.7-.1 1.3-.2 2-.2v.1c3.2-.9 1.6 1.9 4.3 1.4"/><path class="st254" d="M1329.2 74.9c-2.1-.8-2.7-1.7-3.5 0 .1-.1 6.1 1.1 3.5 0"/><path class="st256" d="M408.7 72.9c-1.1 0-1.2-.9-2.6-.7-1.1 2 4.8 1.2 2.6.7"/><path class="st258" d="M697.9 70.9c-.1 1.1-2.2.5-1.7 2 1.8.6 3.3-2.2 1.7-2"/><path class="st260" d="M1132.2 68zm-109.6-5.9c-1.1-.3-1.8-.9-1.7-2 .5 0 1-.1.9-.6 3.1-.4 6.5-.3 9.7-.1.5 1.6 1.9 2.5 4.2 2.8 2.4-.4 3.6-1.7 6.1-2 .7.8 1.1 1.8.9 3.4 6.7.9 15.8-3 18.2 2.7h-.5c-2.3-2.5-2.7-.5-1.2 1.8.9 0 1.8.1 2.7 0l-.1.3c4.9 2 18.6 2.3 20.8-2-2.1-1.5-4.7-2.7-6.1-4.7 2.6-.3 3.3 1.4 5 .1.4.1.8.3 1.2.4l-.2.1c1.2 1.6 4.7 4.1 5.2-.6.6 0 1.2 0 1.8.1.3.6 1.4.6 2.5.5.6.2 1.2.3 1.9.5l-.1.2c.9 2.7 3.5-.1 6.9.7 1.8 1.7 2.6 4.3 5.2 5.4 3.1-3.4 6.1 2.8 8.7-.7.5 4.4 10.8 1.8 18 .8v.1c.7-.1 1.3-.2 2.1-.2 6.7 1.6 13.1.4 19.8-.8v.1c7.2-.2 16.8 1.4 17.3-4-4.8.7-7.5-.2-7.8-2.7-2.7-.1-5.2 0-6.1 1.3 1 .1.9 1.1.9 2-2.2.1-4.1.4-5.1 1.3-.3.1-.6.1-1 .2v-.1c-2.6-2.7-11.9.4-14.7.7-1.6.6-2.9-2-3.5 0-.6 0-1.2.1-1.8.2v-.1c-3.1-.3-5.5-1.1-6.1-3.4 3.1-3.3 10.7.9 13.9-2l-.1-.1c-.3 0 4.2-1.4 4.1-2.3 0-2.2-3.8.7-4.2.6l.1-.2c-14-1.4-17.7 1.3-26 1.3 0-.7.7-.8.9-1.3-9.5 1-9.9 1.3-21.7 1.3-.6-.2-1.2-.4-1.8-.5l.1-.2h-1.7l.1.2c-1-.2-2-.3-3.1-.2-1.3-.3-.9-1.8-3.1-1.3-.2.5 0 1.2-.7 1.3-.6-.2-1.3-.4-1.9-.6v-.1h-.8c-4.8-.1-7.2-3.6-13-3.3-2.4.1-4.7.8-7.1 1.1-4.4.5.1-1.4-1.7-1.2-2.4.2-2.7 1.8-6.3 2-4.6.2-8.9-1.4-13.7-.6 0-1.2-.7-1.7-1.7-2-1.7.9-3.1 2.2-5.2 2-3.7-.3-7.7-.4-11.3.2l.1-.2c-3.5-3.1-5.2.5-11.2 0v.1c-2.3-.3-4.7-.3-7 .2-1.8-.2-5.5-.6-7.2.2-3.1-1.9-6-.1-11-.5l.1.3c-3.2.2-33 .2-32.9 1.8.1 1.8 30.6.2 32.2.2 3.3 2.6 9.4 2.3 12.3.1 2-.1 4-.1 6-.1.1 0 .1 0 .2.1.1.2.8 2.7 1.7 2.5 1-.2-.5-2.3-.5-2.5 1.4-.3 3.1-.3 5.1-.1.1.7.9.8.9 1.6-2.1 1.7 1.1 2.2 2.3.7l.2.2c3.4 1.3 8.1 2.4 10.6-.4z"/><path class="st262" d="M475.4 67.5c-.2.8-1 .4-1.7 0 1.3 2.4-2.9.4-2.6 2 2.6.7 6.1-1.4 4.3-2"/><path class="st264" d="M463.3 69.5c.3-2.3 2.3.1 2.6-1.4-1.1-1.6-5.3.6-2.6 1.4"/><path class="st266" d="M865 66.2c-.6 1.1-4.2-.2-3.5 2h2.6c-1.5-1.8 3.9-1.3.9-2"/><path class="st268" d="M522.1 66.9c0 .4-.1.8-.9.7 0-.4-.7-.8-.9 0 .9 1.3 4.5.1 1.8-.7"/><path class="st270" d="M1452.1 62.1zm-37.2 1.4c4.1 5.6 35.1 5.6 39.8 1.3.4-1.9-.9-2.6-2.2-3.2-.1-.2-.1-.5-.1-.8.9-.1 1.4-.5 1.4-1.3-.7-.6-1.9.6-2.4.8-.2.6-.2 1.2.1 1.8-12 .1-24.8-1.4-36.6 1.4z"/><path class="st272" d="M1187.1 62.8c-1.4.4-4.6-.6-5.1.4l-.9.3c-.1-.4.3-2.1-.5-2.1-.9 0-.5 1.7-.5 2.1-3.5.2-5.5 1.5-6 4 3.4 0 6.1-.6 7.8-2 .6-.2 1.2-.4 1.7-.7 1.7-.2 3.8-.2 3.5-2"/><path class="st274" d="M1459.9 63.5c-1.2.4-2.1-2.6-2.6-.7.9-.1 1.8 2.9 2.6.7"/><path class="st276" d="M620 63.5c.2-2.3 2.3.1 2.6-1.3-.5 0-1-.1-.9-.7.5 0 1-.1.9-.7-1.9-.3-4.8 2-2.6 2.7"/><path class="st278" d="M489.7 21.8h-.5.5"/><path class="st280" d="M1787.2 51.4c.3.8 5.4.6 3.5 0-.8-.5-5.6-.5-3.5 0"/><path class="st282" d="M283.1 50c2.3.3 2.6 2 5.2 2v-2c-2.6 1.8-3.3-1.8-5.2 0"/><path class="st284" d="M1020.9 46.7c-2.7-.1-4.8.3-6.1 1.3 3.3-1 5 .7 6.1-1.3"/><path class="st286" d="M331.6 48v-.7c4.7-2.1-2.9.4 0 .7"/><path class="st288" d="M411.3 44c.7-.3.7-.2 0-.7-.6-.3-4.3 2.5 0 .7"/><path class="st290" d="M158.5 37.3c7-1.8-5.8 1.1 0 0"/><path class="st292" d="M327.3 35.9c1.6.1 1.9-.8 3.5-.7 0 .4.7.8.9 0-1.6-1.3-2.2-.1-4.3 0-.4-1-1.1 0-.1.7"/><path class="st294" d="M242.4 31.2c0 1.1-2.4.4-2.6 1.3 1.8.6 4.8-1 2.6-1.3"/><path class="st296" d="M739.6 57.1c12.4-.9 24.8-2.8 37.2-1.9l-.1.3h.9l.6-.1c-.4.6-.6 1.2-.7 1.7-1.8-.5-3.3-.1-4.5 1.1 1.3 1.4 3.1 1.6 5.2.5 1.3.7 2.3.5 3-.6-.7-.7-1.5-1-2.5-1-.1 0-.1-.1-.2-.1 0-.3.1-.6.3-.9 6.2.1 11.7-1.3 16.9 0v.3c-.7.1-7.6 0-7.7 1.4-.1 2.1 8.2.5 8.7.4 2.2 1.2 6.5.1 8.6-.7-1.2-.7-2.6-1.1-3.5-2 4.1-.9 9.5-.7 14.7-.7h.1c-.1.5-.1 1 0 1.5v.1c-.5.2-2.2.3-1.7 1.4.8 1.9 3.9-.6 4.2-.7 0-.5-.1-1.1-.1-1.6h.1c-.6-1.8 4.1.5 3.5-1.3 1.7-.2 14.5-.6 14.6-2 .1-2.3-14.6.2-15.5.3l.1-.3c-11.7-.4-26.2-.7-44.3 1.2-6.4-1.2-14-.2-20.4.3-4 .3-8.8.3-12.7 1.1-.5 0-9.1 2.6-4.8 2.3"/><path class="st298" d="M1371 54.3c.2-.4.4-.7.7-.9 1-.1 2.3 0 3.2 0 .2.1.4.2.7.3.2.4.4.8.6 1.1l-.1.1c-1.8.4-3.7 0-5.2-.4 0 0 0-.1.1-.2m32.9 1c-1.5.5-4 .8-5.5.2v-.7l-.3-.1c1.9-.6 4.1-.1 5.8.6m-75.6-.6c12.2 1 25.1 1.6 40.5 1.6 2.9 1.1 5.7 1.4 8.2.8 1.4.4 7 1.6 8.4.6 12 1.5 26.3 1.6 34.7 1 3 .4 6.6.6 9.5-.1l.1.2c0 .2 2.4 2 2.6 2 0-2.2 4.7-.7 6-2 .4 0 .7 0 1.1.1 1.7 1.4 5.2 1.4 7.6.5.7-3.6-3.9-3.8-6.9-2.7v.1c-.7-.1-1.4-.1-2.1-.1h-.5c-2.8-2.3-5.4-.7-8.7 0l.1.1c-3 .3-6.7-.7-9.5 0l-.1-.2c-3.3-1-7.8-1.1-12.1-1.3 0-.9.4-1.5.9-2h-3.4c-2.8-1.1-5.6-1.2-8.3-.1-2.2-1.1-4.6.4-2.7 1-2.3.8-5.8.6-8.7 1-2.1-.6-5.1-1.1-7.3-1-.3-.5-.5-1-.8-1.4-.5-.2-.9-.4-1.4-.6-1.4-.1-2.9-.1-4.3 0-.6.5-1.2 1.2-1.7 1.9-.2 0-.3 0-.5.1-15.2 0-27.9-.6-39.8-1.7-2.3-3.4-7.9-1.1-12-.5v.1c-2.4-.1-29.5-1.2-29.3 1 .1 1 26.9.7 29.4.9v.1c4.2.7 5.1 1 11 .6"/><path class="st300" d="M457.6 93.8c-4.9.1-9.8-.1-14.7-.3-1.3-.4 2.1 1 4.8 1.4 1.7.3 12.1-1.2 9.9-1.1"/><path class="st302" d="M401.5 94.4c-1-.1-4.4-.9-5.2-.1-3.2 3.5 8.8.5 5.2.1"/><path class="st304" d="M383.2 93.4c-6.1-.4-13.6-1.4-19.7-.4-.3 0-6.8 1.5-3.7 1.5H370c3.1 0 7.5.9 10.5.2-3.1.7 7.5-1 2.7-1.3"/><path class="st306" d="M347.7 92.4c-.5.1-3.5-.4-3.5.7-.1 2.7 6.4-.7 3.5-.7"/><path class="st308" d="M321.9 91.5c1.3.4-8.9-1.9-7.8.4.7 1.7 9.4-.1 7.8-.4"/><path class="st310" d="M266.7 90.5c-.6 0-4.4.1-4.6.8-.6 3 6.9-.8 4.6-.8"/><path class="st312" d="M236.7 90.4c-.1 0-3-1.1-3.6-.4-3.1 3.2 7.6 0 3.6.4"/><path class="st314" d="M470.6 88.1c-1.8 0-18 .2-17.6 1.8.4 1.3 10.3.5 11.8.3s9.3-2.1 5.8-2.1"/><path class="st316" d="M431.2 89c-1.3.5-6-1-6.6.5-2.2 5.6 11.4-2.3 6.6-.5"/><path class="st318" d="M375.5 87.8c-1.9 0-15.7-1.9-16 .1-.1.4 38.1 4 38.5 2.3.6-1.9-20.7-2.4-22.5-2.4"/><path class="st320" d="M543.4 85.5c-5.3 0-10.5.9-16 .7-3.2 0 6.8 2.2 8.6 2.1.8-.1 11.1-2.8 7.4-2.8"/><path class="st322" d="M354.5 88.3c-.1-.7-10.3-2.1-10.3-.6.1 1 10.5 2.1 10.3.6"/><path class="st324" d="M182.4 86.3c-1.7-.2-22.4 0-22.8.9-1.1 2.9 25.8-.5 22.8-.9"/><path class="st326" d="M129.5 87.3c-.3 0-3.4.2-3.1 1.2.4 2.4 5.9-1.2 3.1-1.2"/><path class="st328" d="M336.9 86.4c-.2 0-3.1-.6-3.2.6 0 2.2 5.8-.1 3.2-.6"/><path class="st330" d="M301.2 86.4c.5.1-5.7-1.7-5.4 0 .5 3.3 6.9.4 5.4 0"/><path class="st332" d="M263.8 86.7c1.2 1 2.3 1.1 3.4.2.3-1.1-2.8-1.6-3.5-1.9-.5 0-6.4.6-6.6 1.3-.3 1.9 6.5.3 6.5.3.1 0 .1 0 .2.1"/><path class="st334" d="M289.7 85.6c-.7-.1-4-.4-4 .7 0 2.7 6.8-.4 4-.7"/><path class="st336" d="M645.7 79c-4.5-.6-44 1.4-43.8 4 .1 2.3 22.8-1.5 25.3-1.8 4.3-.5 8.7-.2 12.9-.7.2 0 9.7-1 5.6-1.5"/><path class="st338" d="M564.4 77.9c-.2-1.6-141.7 6-141.7 5.2.2 4 141.9-4 141.7-5.2"/><path class="st340" d="M414.9 83.1c.2-1.4-9.2-1.5-9.4-.2-.1 1.3 9.1 1.5 9.4.2"/><path class="st342" d="M1108.3 81.1c-.4-.2-7.3-2-8.1-.7-1.6 2.5 10.1 1.5 8.1.7"/><path class="st344" d="M1095 80.3c-1.8-.1-13.8-1.6-14.3-.2-.8 2.8 16.6.4 14.3.2"/><path class="st346" d="M170.6 80.3c-.1-2.2-14 .4-13.9.8.1 1 14 .2 13.9-.8"/><path class="st348" d="M1162.9 78.3c.3 0-7.4.4-7.4 1.4.3 3 10.2-1.4 7.4-1.4"/><path class="st350" d="M1150.5 79.4c-.3 0-5.1-.2-5.1.8-.2 2.2 7-.5 5.1-.8"/><path class="st352" d="M258 79.5c-.3-1.9-7.6-.6-7.7.4-.4 2.6 8 1.2 7.7-.4"/><path class="st354" d="M294.8 78.5c-1.7 0-11.5-1.3-12.2.2-1.4 3.8 15.7-.2 12.2-.2"/><path class="st356" d="M244 80.2c3.2.5-9.1-3.4-8.8-.5.1 1 7.9.4 8.8.5"/><path class="st358" d="M412.8 79.2c5.3-.8 10.6.2 15.9-.5l-.1.2c3.1.4 4.9-.2 5.2-2-1.5 0-5-1.8-6.1 0-3.5.4-7.7-.6-11.1.1-.9.2-7.7 2.7-3.8 2.2"/><path class="st360" d="M373.2 75.8c-1.5-.5-1.3.9-.9 1.6 1.3 2.3 12 1.4 13.8 1.2.1-.9 21.2 1 21.3.1.1-1-14.1-2.4-16-1.7v-.1c.1-1.5-3.1-.3-4.3-.7l.1.4c-5 .9-9.5.6-14-.8"/><path class="st362" d="M1436.3 77.2c-.5-.1-10.6-1.3-10.7.3-.2 2.5 13.1.2 10.7-.3"/><path class="st364" d="M1040.9 77.8c.1 0-13.4-2.1-13.3-.5.2 1.7 14.1.6 13.3.5"/><path class="st366" d="M436.5 77.4c.3 1.4 17.2.8 19 .6l-.1.3c1.6.9 4.9.4 6.1-2-.9-.7-6.2-1.4-6.9 0-1.5.1-18.4-.8-18.1 1.1"/><path class="st368" d="M951.2 76.8c-.2 0-3.1-.3-3.1.4-.1 1.9 4.8-.4 3.1-.4"/><path class="st370" d="M577.8 77.1c-.6-.2-2.8-1.2-3.4-.5-1.5 2.2 5.4 1.2 3.4.5"/><path class="st372" d="M1631.6 75.1c-.4 0-24.9-.9-24.2 1 .3.9 12.3.4 13.8.4 1.8.1 13.6-1.7 10.4-1.4"/><path class="st374" d="M1548.2 75.3c-1.1 0-13.2-1.2-12.4 1.2.4 1.1 8 .6 8.4.5.4 0 8.1-1.6 4-1.7"/><path class="st376" d="M1516.6 76.2c-.4 0-7.5-.4-7.5.4.1 1.9 8.9-.4 7.5-.4"/><path class="st378" d="M1016.6 76c-.4-.1-3.1-1-3.4.4-.6 2.9 6.7.7 3.4-.4"/><path class="st380" d="M964.2 75.9c-.4 0-2.7.3-2.6 1.1.4 2.1 5-1.1 2.6-1.1"/><path class="st382" d="M586.6 76.3c4.3.4-6.1-2.8-3.3.4.5.6 2.8-.4 3.3-.4"/><path class="st384" d="M357.9 75.9c1.5.6-3.7-1.2-3.8 0-.1 1.3 5 .5 3.8 0"/><path class="st386" d="M883.3 73.9c-1.3.2-14.8-1.3-14.1 1.3.6 2 16.2 1.3 15.8-.3-.6-.4-1.2-.7-1.7-1"/><path class="st388" d="M622.5 75.3c.4-.2 5.4-1 5.4-1.3.6-3.2-8.2 3-5.4 1.3"/><path class="st390" d="M520.9 75.6c1.4.6 2.6.4 3.8-.4 1.7-5.1-8.6.7-3.8.4"/><path class="st392" d="M166.6 75.3c.4 0 11.4 1.6 9.5-.7-1.5-1.8-11.4.6-9.5.7"/><path class="st394" d="M158 75.6c2.9.1-.9-2.2-3-1.9v-.1c-2.5.1-5.7-.4-6.9.7-1 2.8 6 2.5 7.6 1.5.8-.2 1.5-.2 2.3-.2"/><path class="st396" d="M120.7 75.9c1.4.1 23.9 1.7 23.8-.6 0-1.9-22.2-1.2-23.7-1.3-.3-.1-3 1.7-.1 1.9"/><path class="st398" d="M904.1 73.5c-.8-.4-6.2-.2-6 1.5.3 2.1 7.7-.7 6-1.5"/><path class="st400" d="M1157.2 73.6c.2-1.4-7.8-.8-7.7.3.1 1.1 7.6.8 7.7-.3"/><path class="st402" d="M295.7 73.5c-.2 0-4-.3-4 .4 0 2 5.7-.4 4-.4"/><path class="st404" d="M248.9 72.7c-1 .1-13.2.2-13.2 1.5-.2 3.7 16.6-1.5 13.2-1.5"/><path class="st406" d="M222.9 74c-2.3.2 4.2 2.7 4.4.3.1-1.4-3.9-.4-4.4-.3"/><path class="st408" d="M218.3 74.6c0-.7-3.7-.7-3.7 0s3.7.7 3.7 0"/><path class="st410" d="M946.3 71.9c-1.3-.2-16.9-1.5-17.2.6-.6 3.5 20.9.1 17.2-.6"/><path class="st412" d="M656 72.6c3.2-.1-10.4-2.7-8.8 1.5.5 1.2 9.3-1.5 8.8-1.5"/><path class="st414" d="M277.5 73.5c-.3.1-2.3-.3-2.3.4 0 1.7 4.1-.4 2.3-.4"/><path class="st416" d="M1501.9 70.2c-6-.1-74.9-.2-74.9 1.7s38.1.6 41.6.6c6.8-.1 13.7-.2 20.5-.2 2.9 0 7.5.8 10.3 0-2.2.6 8.2-2.1 2.5-2.1"/><path class="st418" d="M1179.1 71.8c-.9-.1-15.6-.5-15.9 1-.7 3 18.6-.6 15.9-1"/><path class="st420" d="M972.8 70.3c-1.2 0-17.6.7-17.5 2.1.3 3.9 20.7-2.1 17.5-2.1"/><path class="st422" d="M1190.2 70.6c-.9-.1-5.8-.1-6 .9-.6 3.5 8.6-.9 6-.9"/><path class="st424" d="M703.3 71.3c-2 .5 7.6.2 8.6 0l-.1.3c1.6.1 5.6 1.7 6.9.1 1.1-.2 1.2-.5.1-.8.3-.9 1-1.1 0-1.9-4.1.7-7.2-1-7.8 1.3h.1c-2.7.2-5.3.6-7.8 1"/><path class="st426" d="M688 71.5c-.5.2-2.7-.5-2.7.7 0 2.5 5.6-.7 2.7-.7"/><path class="st428" d="M1402.7 70c-4.5.2-70.3-2.8-70.3-1.9-.1 1.3 34.5 2.8 37.2 3 6.8.4 13.6.7 20.4.8 2.9 0 7.4.8 10.2-.1-2.4.8 7.8-2 2.5-1.8"/><path class="st430" d="M1199.7 70.4c-.8 0-4.1 0-4.1.8 0 2 6.4-.8 4.1-.8"/><path class="st432" d="M1011.9 69.6c-2.5-.2-32.3-.3-32.5 1.2-.4 2.4 19.2.9 20.2.9 2.8-.1 7.1.6 9.7-.2-2 .5 8-1.6 2.6-1.9"/><path class="st434" d="M850.7 66.1c-.8 0-12.2 2.7-12.2 2.8.1 4 15.3-2.8 12.2-2.8"/><path class="st436" d="M416.5 69.7c2.3 0 24.6 1 24.9 0 .4-2-13.1-1.7-14.4-1.7-1.6-.1-13.9 1.7-10.5 1.7"/><path class="st438" d="M400.4 68.8c.6 0 6.5.4 5.5-.9-1.4-1.9-7.1.8-5.5.9"/><path class="st440" d="M498.7 68.1c1.1.1 12 .6 11.7-1-.5-2.6-13.3.9-11.7 1"/><path class="st442" d="M480.7 67.9c.9.4 6.6.4 6.9-.6.5-1.4-8.1.1-6.9.6"/><path class="st444" d="M447.1 68.7c3.7.7 9.1-1.1 9.6-1.4-1.9.1-10.5 1.3-9.6 1.4"/><path class="st446" d="M370.6 68.2c1.3 0 14.5 1.2 14.3-.4-.4-2.7-16 .3-14.3.4"/><path class="st448" d="M149.5 68.4c4-.3-4.4-3.8-2.9-.2.9.6 1.9.7 2.9.2"/><path class="st450" d="M1051.6 65.7c.8.1-4.5-1.3-4.6.5 0 1.5 5.8 2.1 6.1.6-.2-.8-.7-1.2-1.5-1.1"/><path class="st452" d="M222.1 67c1.1.4 2.2.4 3.2 0 1.9-3.1-5.9-.1-3.2 0"/><path class="st454" d="M209.2 67.3c3.1-.2-16.3-3.7-16.2-1.1 0 1.4 15.1 1.1 16.2 1.1"/><path class="st456" d="M169.6 68.3c.8-.3 7.3-.1 7.3-1.1 0-3-9.9 2-7.3 1.1"/><path class="st458" d="M158.6 67.8c.3-.2 5.5 1.3 4.7-.6-.5-1.1-5.1-1.2-5.9-.7-.6 1.2-.2 1.6 1.2 1.3"/><path class="st460" d="M537.4 67.6c2.2 0 2.9-.7 2.1-2-1.5-.7-4.2 2.2-2.1 2"/><path class="st462" d="M342.5 66.9c.4 0 4.4.5 4.4-.7-.1-3-7.4.7-4.4.7"/><path class="st464" d="M254.1 67.2c-.5 0 12 .4 11.3-1.6-.9-2.5-13.2 1.5-11.3 1.6"/><path class="st466" d="M233.2 66.9c-.1 0 5.6.8 6.2.1 2.5-2.5-9.1-1.5-6.2-.1"/><path class="st468" d="M320.9 67.1c1 0 15.9.2 15.9-1-.2-2.4-18.7 1-15.9 1"/><path class="st470" d="M316.2 66.5c0-.7-6.3-.7-6.3 0s6.3.7 6.3 0"/><path class="st472" d="M282.7 66.2c1.7 0-4-2-4-.4 0 .8 3.9.4 4 .4"/><path class="st474" d="M966.8 65.7c.4-.1.8-.2 1.1-.2.4-1.3.1-1.8-1.1-1-1 .2-4.4-.4-5 .4-1.4 1.6 5.4.7 5 .8"/><path class="st476" d="M291.8 66.2c.4 0 4.4.5 4.4-.7 0-3-7.3.7-4.4.7"/><path class="st478" d="M610.1 63.4c1.6.5 2.7.1 3.3-1.1-.7-1.9-5.6 1.1-3.3 1.1"/><path class="st480" d="M635.1 62.9c.5 0 4.2.4 4.4-.6.4-3-7.5.6-4.4.6"/><path class="st482" d="M1146.1 61.8c6.4-.4 12.8-.4 19.1-1.8.2-.5 1.4-1.7.4-2.2-.8-.4-1.4.4-1.7 1v.1c-4.5 1-9.2.4-13.6 1.4-.3 0-7.5 1.7-4.2 1.5"/><path class="st484" d="M766.7 57.2c-3.1-.2-4.4.6-3.8 2.3.5.3 5.2-1.1 5.3-1.6-.3-.6-.8-.9-1.5-.7"/><path class="st486" d="M1882.5 56.7c-.9-.1-5.7-.6-5.8.7 0 2.9 8.6-.5 5.8-.7"/><path class="st488" d="M880.1 54.6c-.2 0-2.3-.1-2.2.5 0 .7 3.5.7 3.7.1-.3-.6-.8-.8-1.5-.6"/><path class="st490" d="M1440.7 53.6c1.5.3 2.7-.1 3.7-1.2 0-1.9-5.7-1.5-5.3.4.5.3 1 .6 1.6.8"/><path class="st492" d="M998 52.3c4 .2-6.4-1.5-6.7.4-.2 1.2 13.5 2.3 13.7.9.3-1.6-6.7-1.3-7-1.3"/><path class="st494" d="M1868.2 51.4c-.7.3-3.1-.7-3.1 1 0 3.4 7.2-1 3.1-1"/><path class="st496" d="M1018.7 52.5c.2 0-3.7 0-3.7.9.1 2.6 4.6-1.9 3.7-.9"/><path class="st498" d="M849 52.6c.9 0 15.2.9 13.1-1.7-1.4-1.5-15.9 1.6-13.1 1.7"/><path class="st500" d="M1088.9 50.5c4.5-.2 51.4 2 51.2.5-.1-1-27.5-1.5-29.3-1.6-4.8-.3-9.6-.5-14.4-.6-2.3 0-10.5 1.8-7.5 1.7"/><path class="st502" d="M871 53.1c1.2-.2 17.8-.3 17.5-2.2-.4-2.4-20-.5-19.3 1.5.7.2 1.3.5 1.8.7"/><path class="st504" d="M1877.3 52.1c.5-.1 4.4.1 3.9-1.3-1-2.5-6.5 1.4-3.9 1.3"/><path class="st506" d="M958.9 50.8c2.2-.2 4.3-.6 6.4-1.1.2.1.4.2.5.3.8 1.5 1.5 1.3 1.8-.3-.5-.6-1.3-1.1-2-1.4-.9 0-9.3 2.4-6.7 2.5"/><path class="st508" d="M1045.5 48.7c2 .1 24.6.4 24.8-.6.3-1.7-11.9-1-12.5-1-2.8 0-6.9-.5-9.5.2 3.3-.8-7.6 1.2-2.8 1.4"/><path class="st510" d="M1031.7 49.3c2.7.8 4.4.3 5.1-1.6-1.1-2-7.3 1.6-5.1 1.6"/><path class="st512" d="M1469.9 47.9c.7 0 9.1.5 8.5-.8-1.2-2-10.3.8-8.5.8"/><path class="st514" d="M1492.6 48c1-.2 12-.6 11.9-1.7-.4-3.1-15.5 2.4-11.9 1.7"/><path class="st516" d="M1527.9 47.4c.4 0 4 .4 4-.7-.1-2.9-7 .7-4 .7"/><path class="st518" d="M345.4 43.3c.4 0 5.5 1.4 4.8-.2-1-2.5-7 .1-4.8.2"/><path class="st520" d="M288 42.6s9.7.3 9.8-.5c.5-3.7-12.5.7-9.8.5"/><path class="st522" d="M1377.1 28.5c-3.9-.6 3 2.4 3 2.5 1.3-.4-3.5-.2-3.6.6 0 1.6 4.4-.1 4.9-.2-.6-2.2-2-2.6-4.3-2.9"/><path class="st524" d="M427.7 94.2c-1.4-.6-13.7-1.5-14.4-.9-2.5 2.1 16.1 1.7 14.4.9"/><path class="st526" d="M534.3 91.3c-2.6-1-21.8-1.4-22.3.6-.4 1.9 23.3-.2 22.3-.6"/><path class="st528" d="M414.3 89.6c-1.8 0 4.9 2.2 4.9.4 0-.8-4.3-.4-4.9-.4"/><path class="st530" d="M492.2 86.8c-1-.8-4.3 1-3.4 2 .9 1.2 4.5-1.1 3.4-2"/><path class="st532" d="M398.7 83.4l1.5-1.1c.1-1.5-41.7-3.2-41.8-1.1-.1 2.2 35.8 2.1 40.3 2.2"/><path class="st534" d="M1071 79.4c-.4-.1-.8 0-1 .3-1.7-.5-23-2.9-23.4-1.6-.1.4 21.8 2.4 24.3 3.1.2-.3.9-1.5.1-1.8"/><path class="st536" d="M229.9 79.4c-.7-.9-5.5 0-6.1.6-.6.7 6.7.2 6.1-.6"/><path class="st538" d="M602.6 75.4c-1.3-1.7-10.9.5-10.2 1.9 1 1.5 11.9.2 10.2-1.9"/><path class="st540" d="M363.1 76.9c1.6 1.4 3.1 1.6 4.6.6 1.1-3.2-6.6-1.8-4.6-.6"/><path class="st542" d="M1841.3 59.4c-.1-.2-.2-.4-.2-.6 1.9 0 2.5-1.1 5-.7.8 2.3-2.9 1.1-4.8 1.3zm-129.4 7.5c.2-1.2 1.5-1.5 3.5-1.3v-1.3c1 .2-.2 3.3 4.3 2.7-2.1 1.3-4.8-1.1-7.8-.1zm-10.4.6c.2-2.4 6.6-2.5 8.7-1.3-2.6.3-6.8 2.8-8.7 1.3zm-43.3.7c-9.3-.3-20.1.7-27.7-.7 1.6-1.2 5.2-.9 6.9-2v-.1c2.2.9 3.9.6 5.3-.9 0-1.6-4.6-1.1-4.5-1.1-3.3-3.4-12.4-2.1-17.2-2.6v.1c-.3-.3-.6-.7-.9-1-.1-.8.1-1.7-.8-1.8 8.6-1.1 17-.2 25.5 1.4 1.9.3 18.6 3 18.6 2.9l-1.5-1.8c-.7-2.1 4.9 2.9 4.2 2.2 3.7.7 8.5.5 9.5 3.4-3.2 4.2-11.1 2.2-17.4 2zm-45.9-15.5c-.1 2-5.7 1.6-6.9.7v-.3c2-.3 4.3-.4 7-.5l-.1.1zm-42.4-.6c0-.6.6-.8.8-1.2 1.1 0 2.2.1 3.3.2.1.2.1.5.1.7-.4.8-3.1-.1-4.2.3zm-55.4 4c-2.8-.8-5.7-1.4-9.5-1.3 2.2-2.5 5-.7 6.9-2.7V52c2.5.1 7.1.6 9.5-.1l.1.1c-3.4.6-4.9 2.6-7 4.1zm342.4-2.9c-.5 0-.9.1-1.4.4l.1-.2c-8.1.8-23.8 3-36.4 2-6.4 2.6-23.6 3.3-30.3.7-1.2 2-7.2 1.1-8.6-.6 1.1-.5 9.2-.7 9.1-1.4-.4-1.6-9.4.4-10 .7v-.1c-28.8-4.5-58.2-1-87.1-3.7-14.4-1.3-29.2-2-43.7-2-10.8 0-26.5-3.6-36.3 1.7l.1.1c-3.1 0-5.6.2-7.9.6-8.4-.5-18.9 1.4-27.7 0 0-.3-.1-.5-.2-.8.6-.1 9.6.5 8.8-1.6-.7-2-10-.3-10.4-.2-1.7-.2-3.5-.5-5.2-.2-8.2-2.2-14.3 1.6-21.6.7.1 2.3-2.5 2.5-4.3 3.4-6.6-1.6-11.1 1.4-16.4-.7v-.7l-.1-.1c.6 0 7.3.5 5.9-1.4-.7-1-5.9-.5-6.7-.4l.1-.2c-1.2-1-4.1.1-6 .6-2.9-.5-5.8.2-8.8.1v-.1c-18.8.5-33.2.6-52.8 1.4l.1.3c-1-.2-3.4-1.5-4.2-.6-.9 1 2.9 1.6 3.2 1.7 1.3 1.2 4.7.8 4.3 3.4-1.2.1-3-.2-3.4.6-1.3-.3-2.3.1-3.1 1.1 1 1.3 2.3 1.6 4 .9v.1c.8 1.5 4.2-.1 5.2 1 1.7 1.8-.5 2.7 0 5.1 7.7 1 16 2.3 24.2.7 1.4-2.3-3.7-2.9-.9-4 8.7-1.6 8.3 3.8 14.7 4 2.4-2.4-1-4.7-3.5-5.4 2.8.1 3.7-1.2 6.9-.7.6 2.1-1.5 2-.9 4 4.3 1.1 16.7 4.1 18.2-.7-1.3-1.5-6.9.4-6.9-2 4-2.2 9.2.4 10.4 4 3.3.4 4.2-1.2 7.8-.7 5.4 2.8 32.8 5.3 36.4-.7-.3-3.6-8.2-1.2-8.7-4.7 6-.5 12 3.3 18.2 4.7 1.1-2.7-2.9-1.4-1.7-4 2-.5 4.4-.6 6.1-1.3 1.9 4.6 8.6 8 14.7 5.4v-.1c.8.1 5.9 1 6.6.5 2.5-2.1-5.2-2.4-5.7-2.5.2-1.5-2.5-.7-2.6-2 5.2-3.6 16.3-2 19.9 1.3l.1-.1c.3.3.6.7.9 1 .5 1.7-1.3 1.6-.9 3.1 4.1 1.6 6.8.1 8.7 3.4-3.1.2-7.5-.5-9.4.6-9.3-.3-103.3-1-103.2 1.8 0 .7 103.8.3 114.2.7 18.2.7 36.4 1.4 54.6 2.4 10.1.6 20.2 1.2 30.3 2 5.2.4 11 1.8 16.1 1.3 1.9.2 3.7.3 5.6.5.7-.6 1.2-1.3 1.7-2 9.2 1 17 .6 25.1 1.3l-.1-.3c.9.1 12 1.3 11.8-.5-.1-.9-11.4-.9-11.1-.8-4.5-3.7-17.6-.9-23.1-3.8 5.4-.9 9.9-1.5 17.3-2 9.7 5.2 23.8.7 34.2.3 11.5-.4 23.8.9 35-2.3.5-3.1 5.9-4 3.5-7.4 3.1-1.8 7.6-2.2 10.3-1.4.1.5.3 1 .6 1.5l-.6-.1c0 .9.4 1.5.9 2 4.7 1.4 6.8-1.4 12.1-1.3 1-2.2 1.2-4.9 3.5-6.1l-.5-.1c-.2.4 3.1-1.1.9-1.1z"/><path class="st544" d="M986 75.5c-.3 0-3.3 0-3.4.7-.1 1.1 6.2.7 5.5.1-.7-.3-1.4-.5-2.1-.8"/><path class="st546" d="M861.9 75.4c.2 0-5.7-.9-5.8.1-.1 2.6 8.3-.3 5.8-.1"/><path class="st548" d="M1142.4 72.7c-10.8 1-120.9-1.5-120.9-1.8 0 1 58.9 3.6 64.3 3.9 10.9.6 21.7 1 32.6.8 5.4-.1 10.8-.2 16.2-.6 2.4-.1 11-2.6 7.8-2.3"/><path class="st550" d="M504.9 76c1.4-.7 10.6-.7 10-2.3-.7-1.7-5.2-.3-6.5-.1-2.7.4-5.9 3.5-3.5 2.4"/><path class="st552" d="M631 74.7c.7.5 1.3.5 2 0l-.1.2c1 1.2 6.2 0 7.8-.7-1-.1-.5-.7 0-1.3v-.2c.4.1 5.8.3 5.3-.9-.2-.4-5.4.1-5.5.1-2.8-.8-4.7-.1-8.5 1.7l.5.1c-.7 0-1.2.4-1.5 1"/><path class="st554" d="M197.7 73.9c-.4 0-10.4-.9-9.3.9 1.7 3 11.4-1.1 9.3-.9"/><path class="st556" d="M667.8 72.5c1.8-1.1-6.1-2.8-6.1-.7 0 1.8 5.5 1.1 6.1.7"/><path class="st558" d="M1094.9 64.8c-1 0-4.8 2.9-2.5 3.3 1.1.2 4.5-3.3 2.5-3.3"/><path class="st560" d="M358.9 67.6c.3-.1 2.3.3 2.3-.4 0-1.7-4 .4-2.3.4"/><path class="st562" d="M1304.2 66.3c-1.1-.2-13.5-1.2-13.4.2 0 1.6 14.6 0 13.4-.2"/><path class="st564" d="M1039.6 65.5c-.3 0-4.4 0-4.4 1-.1 1 6.4 1 6.8.4-.1-1.2-.9-1.7-2.4-1.4"/><path class="st566" d="M547.7 67.2c5.5 0 57.2-2.3 57.2-3.4 0-1.9-30.9.8-34 1-4.4.3-19.1-1.4-22.4.9-.1.1-3.8 1.5-.8 1.5"/><path class="st568" d="M869.8 63.1c1.7.6 2.7.3 3-.8-.6-1.1-6.2.8-6.1 1 1.1.3 2.1.2 3.1-.2"/><path class="st570" d="M626.8 63.1c0 1.5 2.8-2 .7-2.4-1.2-.1-.7 1.8-.7 2.4"/><path class="st572" d="M841.6 57.5c.2-.1 2.9-2.2 1.3-1.6-2.4.4-2.1 2-1.3 1.6"/><path class="st574" d="M932.6 54.7l-.1-.3c3.6.1 40.2.4 39.8-2.1-.2-1.1-34.8.5-38.8.4v-1.1c.3-.4.6-.9 1-1.1 2 .5 3.9.3 5.6-.5 1.1-2.3-6.6-1-6.6-1-.7.4-1.3 1-1.8 1.7-3.6-.6-11.1 3.4-14.7-.7-1 3.5-24.8-2.8-20.8 4 9 .7 25.8 1.6 36.4.7"/><path class="st576" d="M980 51c2.1-.5 30-2.1 29.1-3.6-.3-.5-15.2 1.3-16.3 1.3-2.8.1-6.2-.4-8.9.3 2.8-.7-7.8 2.9-3.9 2"/><path class="st578" d="M384.9 31.4c2.6.6 3.8 0 3.5-1.6-1.4-1-5 1.7-3.5 1.6"/><path class="st580" d="M228.1 26.8c.8.1 1.5.2 2.3.3l-.1.1c-.3 2.7-3-.7-2.6 2 8.5 1.4 13.3 2.1 21.6-.7 1.8.4 2.8 1.4 4.3 2 .2-1.3-1-1.5-.9-2.7.5 0 1-.1.9-.7 1.4-.5 3-.7 4.3-.5v.4c-1.2.3-1 .6.2.8.5.6.5 1.1.1 1.7.5 1.7 3-1.1 3.2-1.1.2.9 1.9.8 2.6 1.3.3-.8 1.1-1.2.9-2.3 1.8-.7 3.5.2 5.1-.4l.1.1c0 3 6.8 3.3 9.5 2V29c1.1.4 2 .1 2.7-.8-.4-.8-1-1.2-1.8-1.1-.4-2.6 2.3.7 2.6-2-6-.2-8.1-1.1-13.8.7-1.8 0-3.6-.2-5.3.6-1.3-1-3.7-2.4-5.1-1.3v.1c-2.1-.4-4.2-.2-6.3.6-4.1-.5-13.7.8-18-1.3.9 2.3-2.7 1-4.3 1.3v.1c-.9-.1-3.9.7-2.2.9"/><path class="st582" d="M652.8 63.4c2.9-.5 5.8-1.1 8.7-1.6 15.4 0 30.7-.9 46-1.2l-.1.2c5.9-.3 13 .5 16.5 0v-.1c.3 0 7.4-.2 7.8-1.3.8-2.5-6.4-.7-6.9-.7 0-1.7-5.3.6-5.2-1.3 1-.1 2.3.1 2.6-.6-.8.1 7.5-.1 7.3-1.2-.2-1.6-9.2.2-8.3 0l.1-.3c-4.8-1.6-10.5 1.5-14.2 3.1-14.6.3-29.2 1.4-43.9 1.2.6-2.7-2.3-1.4-2.7.2-1.8.5-11.7 4.5-7.7 3.6"/><path class="st584" d="M130.8 26.4c-.9-.2-1.8-.4-2.7-.8-.7-2 3.2-.6 2.7.8zm68.4-2.6c.5 0 1 .1.9.7.5 0 1-.5 0-.7 1.3-1.4 2.1.5 4.3-.7.2.5 0 1.2.7 1.3v.1c-2.6-.4-2.1 2.7-5 1.9 0-.4.1-.8.9-.7-.2-.9-2.3-.4-1.8-1.9zm154.9-1.3l.4-.1c-.2.3-.3.5-.4.8-2.1 3-2.1-3.8 0-.7zm1 1.1l.3-.6c3.2-.8 9.8-1.9 9.2-3.3 5.2 0 13-1.9 14.7 4.7-2.7-.8-2-.1-5.2 0-5-1.7-9.8.9-14.9.3l.1-.3c-1-.1-.5-.8 0-1.4-2.1-.3-1.9 1.2-4.3.7 0 0 .1 0 .1-.1zm39.8-1.1c-.2.8-1.1 1.1-1.6 1.7-.9.2-2.3.2-3 .2l.2-.5c-2-.6 2.3-1.8 4.4-1.4zm13.8.6c10.2 0 16.6-.3 25.1 0h.1c-.1 0-2.7 1-2.2 1.5.5.6 2.7-.7 3-.9h.1c.8-1.4 3.3-1.5 6.1-1.3-.5 2.2 3.1.9.9 2.7.1 1.5 2.2-.9 4.3 0-.1-1.1-2.2-.5-1.7-2 .9.3 2.1.8.9 0 3.6-1 8.5-1 13-1.3-.1.8-.3 1.6-1.7 1.3.3 1.7 4 .5 2.6-1.3 7.8 1.2 16.7-2.6 24.2 0l.3-.1c.2.5.3 1 .3 1.5-1 .1-1.8.3-1.5 1.3-1.5 0-2.2-.5-2.6-1.4-1.8 2.1-7.1-.1-9.5 2.7 1.9.9-12.3 2.1-14.1 2.1-8.2.1-18.8-3.5-26.6-.7v.1c-.4-.1-1.2-.2-1.8-.1v-1.3c-3.5 1-4.2 0-7.8.7 0-.7.7-.8.9-1.4-1.2.1-1.7.3-1.7 1.4-3.7-.9-7.5-.5-11.2-1 .2-.8.9-1.2.6-2.5zm76.2-1.3c.2-2.9 2.6 1.5 5.2-.7 0 .3-.1.6-.4.7 4.3-.2 16.3-3 22-.7-.3 1.4-1.7 1.8-2.6 2.7-4.7-2.8-6.6.8-10.4 0 4.5-2.5-4.3.3-4.3-1.3-1.6.8-2.5 2.1-4.3 2.7-1.3-2.2-3.1-1.5-5.1-2 0-.7-.1-1.1-.1-1.4zm36.4-1.4c-.3 2.4-2.3 1.7-4.3 1.4.7-1 2.7-1 4.3-1.4zm663.8-5.6l.3.3v-.3h5.3c-.1.3-.3.6-.5.9-2.9 0-5 .6-7.1 1.2-1.3-.4-2.7-.6-3.9-.7-.2-2.2-5.2.7-6-1.5h11.9zm6.7.2c0-.1.1-.2.1-.2h4.2c.1.3.2.5.2.9l-.6.3v-.2c-1.4.1-3-.1-2.6 1.4-.9 0-1-.5-1.7-.7l-.4.1c.4-.6.7-1.1.8-1.6zm340.8 10.8c11.2.1 21.8.5 32.8.1 5.5-.2 11 1.3 16.5 1.3 5.2 0 12.4-2.9 17.3 0 6.9-2.6 17.3-.9 23.2 1.3 0 .4-.2.8-.3 1.1-.2.1-4.4-.1-4 .8.4.8 4.9-.2 4.8-.1.5-.4.8-1 .7-1.8 4.3-2.2 8.5-2.9 12.8-.6-.2 1-1.4 1.1-1.7 2 .2 1.7 1.5-.9 3.5 0l-.2-.4c1.2.9 2.2 1 2.9.1-.5-.4-1.1-.6-1.7-.6 1.1-2.7 7.5-1.8 9.4-.4l.4-.1c-.4.4-.7.8-1.1 1.1-.3 0-2-.4-2 .3-.1.8 2.4.6 2.5.6.5-.3 1-.7 1.4-1.2 2.4.5 2.4-2.2 6.6-2.8 1.3.6 2.8 1 2.6 2.7 4.8-1.7 4.8-.3 8.7 1.4-7.3 3.7-17.8-1.1-21.6 2-22.5-1.9-38.5.3-60.3 0 .2-.4.2-.8-.1-1.2-.1 0-4.9-2.6-4.5-.6.1.5 2.5 1.1 2.9 1.3 0 .1.1.3.1.4-1.1.7-4.2-.2-5.7.2 0-.9-1.1-.9-.9-2-8.4-.1-17.2-.4-24.2 1.3-11.5-4.2-29.7 1.3-37.2-1.3-4.5 2.4-10-.5-13 2-11.2-1.7-24.5-1.7-33.8 1.3-4.5-2.2-5.5-2.1-10.4 0-3.7-1.5-10.3-2.8-13.9-.7-3.6-.1-5.1-1.8-8.7-2 0 .2.1.5.3.6.2 0 .4 0 .6.1-.3 0-.5 0-.6-.1-4.4-.4-11 .9-18.5.7l.2.4c-.8-.4-1.6-.6-2.4-.5-2 .1 1.3 1.1 1 1-1.8.9-4.4 1.2-7.4 1.1 1.7-2 2.4-3.1-2.6-2.7l.1.2c-2.1-.4-4.5-.3-6.7.1-.3.8-.3 1.6-.1 2.5l-.2-.1c-5.2.8-12.1-1.2-16.5 1.3-6.7-2-15.5-2.7-21.7-.7-11.1-7.7-31 3.3-42.4-3.4-9.8 3-25.8-4-30.3 1.4-6.6-1.8-41.9 2.1-43.3-3.4 12-2.5 23.5-1.3 36.4-2.7 3.5-.3 7-.4 10.4-1.3 13.3.9 39.5-7.2 51.1.7 1.5.3 2.8-1.2 4.3-1.4 3.7-.3 8.7 1.6 12.5 1.9 9.4.6 18.9-.5 28.2.8-.2-.5-.7-.8-1.7-.7 7.4-2.3 15.8-.3 23.3-.5 6.2-.2 13.1-2.1 19.1.5 1.2-.7-.4-1.1 1.7-2 3.6 4.3 22.7 3.6 26.8 1.4 24.2 4.5 49-.8 74.6-.7zm143.8 4.7c-2 0-2.5 1.2-5.2.7-.7-2.6 5.5-4.1 5.2-.7zM1402.1 34c-.1-.3-.1-.5-.1-.7 1.6-.2 3-.2 4.2 0 .1.3.2.6.8.5-.2 1.5-3.8.8-4.9.2zm472.6-10.2c11.7-1.1 18.5-.9 31.2-2.7 2.1 2.6-4.3 1-4.3 4.7-13 1.2-26.6 8.5-39.8 3.4 2.7-5 5-4.6 12.9-5.4zm27.2 10.4c-.4.2-.8.3-1.2.5l-.1-.1c-.1-.8-1.4-.7-2.6-.7-2.5-3.8 3.4-2.3 4.3 0h.1c-.1.1-.3.2-.5.3zm-669.7-1.6c-4.4 1.3-8.2 2.6-13 1.3-3 2.2-10.8 1.7-13.9 2-1.1-.3-1.8-.9-1.7-2-3.2-.4-7.2 1.6-10.4 1.7-3.8.2-8-2.9-11.3 1-7.5-1.1-10.2 2.1-14.7-1.3-10.4.7-20.5.5-31.2 0-.2-.6.3-.6.9-.7-.6-.1-1.2-.3-1.7-.7-.2-2.5 2.3-.5 3.5-.7 3.8-3.3 9.8-1 13.8.7 1.5-1.2-.1-1.8.9-4 8.9.6 13.8 1.3 19.9 4.7 4.2-2.8 12.5 2 18.2-2.7 2.7-.8 2.1.4 4.3-.7 4.1.5 5.3.7 8.7 2 9.1-4.4 18.3-3.2 31.2-2 .6 2.3-2.5 1.1-3.5 1.4zm-78 9.7v1c-2.6.8-7.9 2.2-8.6-.7 4.1 1.2 4-.9 8.7-.7-.1.2-.1.3-.1.4zm-64-7.1c0-.4.1-.8.9-.7-3-1.4-7.6 1.6-11.3.7 1.6-2.7-.3.2-2.6 0 .3-1 0-1.9-.8-2.8 1.1-1.9 3.3.6 4.3.8 1.5-.9 2.9-1.8 6.1-1.4-1.3 1.8 10.5 1.5 3.4 3.4zm-27.8 0c-1.8.3-7.2.5-7.8-1.3 4.9 1 4.8-.4 7.8-2 3.7-.5 8.5 2.3 12.1 1.4l.1-.2c.4.5.5 1 .7 1.6-2.5.9-9.2 0-12.9.5zm-15.3-1.1c-.1-.3-.3-.6-.4-1l.2.1c1-.1 1.4 1 1.7 0 2.5.8-.5 1.9-1.5.9zm-2 .5c-5.9-.6-12.1 2.4-14.7-1.3-3.2.4-7.2 2.8-8.7-.7 4-.6 8.5-.4 16.5-.7 0 .9 1.1.9.9 2 3 .6 4.5-1 5.9-.1.1.3.2.6.4.8h-.3zm-38.9-.7c-1.3-2 4.5-.4 6.9-1.3.6 3.2-7.3-.1-6.9 1.3zm-384.5 9.4c3.1-1.5 6.9-1.1 10.4 0-.3 2-7.9.5-10.4 0zm-4.3 1.4c-2.4-.9-4.3 1.7-5.2.1v-.9c.2-.6 1-.2 1.7.1 1.2-.2 1-1.5 1.7-2 1-.1 1.3 1 1.7 0 2.7.4-.7 1.4.1 2.7zm-7 0c-6.5 2.2-18.8 3.1-25.1 3.3-21.7.9-43.6 1.5-64.9 1.3v-.7c24.7-3.6 57.5-2.9 86.6-6 .2 1.2 1.5 1.5 3.4 1.3v.8zm-92.6 4.7c-2.7 3.5-17.3 6.2-18.2 1.3-7.2 1.1-15.3 5.5-19.9 1.3-3.3 3.4-40.9 2.5-41.6-.7 2.8 0 4.7 1.4 5.2-1.4 1.6.5 3.5.9 4.3 2 3.6-5.9 12.7-.7 18.2-3.4 2-.2 3.3.2 3.5 1.3 2.5-2.7 5.8 0 12.1-.7 2.4-2.1 8.8-1.3 13 0 1.7.2 1.7-.9 2.6-1.3 2.3 1.5 14.9-1.6 20.8.7v.9zm-73-3.4c.3 0 .5-.1.8-.1.1.1.2.1.4.1-.6.9-1.9 1.2-3.5 1.3v-.7h-.2c.7-.3 1.5-.4 2.5-.6zm-30 1.3c-.2 1-1.9.5-2.6 0V47c.7-.2 1.3-.1 1.8-.1 0 .3.2.5.8.4zm-314.2-1.5c.3.8 12 1.9 12.8 2.4 11.9-2.2-2.8 3.6 10.4 1.9.1.8-.1 1.9.9 2 .9-.9 2.3-1.3 3.5-2 8.1 3.9 20.4-1.6 28.6 2 0 .4.1 1.5-.9 1.4-.1-.5-.7-.4-1.9.3-.2-.9-.8-1.9-1.7-2.2-2.9.4-2.8 1.6-.2.7.4.3.7.7.9 1.3-.4 0-.7.2-.6.6-3.3-3-9.8 2.1-10.4-1.3-15.7 3.4-24.1 8.9-14.4 8.6 10.1-.3 21.2-1.5 30.8 2.1.2-1.9 2.6-2.1 4.3-2.7 21-1.8 42.8 1 59.7-2.7 7.3 3.4 14.2-1.2 18.2 3.4 3.4.2 2.6-2.9 6.1-2.7 5.3 1.5 12.5-1.8 16.5 1.4 7.7-4.2 19.7-2 28.1-1.8 10 .2 20 .6 29.9-.2-1 1.4 1.4 3.2 1.7 1.3-1.3-.2-.1-1.1.9-1.3 10.2-.3 28.9.1 36.4 2-1 .1-2.5-.1-2.6.7 3.2.7 2.5-1.7 5.2-1.3-.2 1.8-1.8 2.2 1.7 2-.9-4.4 9-1.3 12.1-4 7.7 5.9 15.5-1.6 20.8 4 2.3-.7 4.4-1.5 6.9-2 .3.8 2.7 3.2 3.5 1.3-.1.9 32.3-.7 34.6-.7 1.8.8 4.4 5.2 6.1 2-.7-.2-1.7 0-1.7-.7 4 .6 9-1.3 13-1.4 4.6-.2 9.2.7 13.8.7 13.9 0 28-1.4 41.9-1.6 23-.3 48-4.2 70.6-1.8 1.2-.7 1.7-1.8 3.5-2 12.7 2.6 22.6-2 33.8 0 1.5-2.9 10.6-1.8 12.1-.7-3.1-.3-1.2 1.2.9.7.5 0 1-.1.9-.7-1-.1-1.3-.7-1.7-1.3 22-.9 44-2.6 65.8-3.8 7.1-.4 16.5.7 24.4.2 10.6-.6 22.4-4.9 32.7-1.1 1.6-.5 3.2-1.1 5.2-1.4.4 4.3 20.5 1.1 22.5 1.4 1.2-.7 1.7-1.8 3.5-2 5.5 1.9 10.4.1 15.6 2 0-1.2.7-1.7 1.7-2 11.1 3 20.1-.8 31.2 2 1.2-1.4 3.8-1.5 6.1-2 1.1.9 3.8.7 6.1.7 7.6-2.9 14.3.9 22.5-1.3 1.1 1 3.3 1 4.3 2 8.4-4.3 18.1-3.9 25.1-2 .7-1 1.3-2.1 3.5-2 5.5 2 10.8-1.4 18.2 1.3 15.4-2.4 36.7-4.2 48.5-2.7 1.2-.2 1.5-1.1 2.6-1.3 6.6 4.9 13.3-1.5 20.8-.7 1.2.7 1.7 1.8 2.6 2.7 2.9 0 3-2.2 6.1-2 0 .7-.7.8-.9 1.3 7.3-1.9 8.3 1.4 15.6-1.3.1.8-1.3 1 0 1.3 10.6-2.8 21.9.5 32.9-2 3.5 3.1 12.6 2.2 17.3 2.7.1-2 38.5 3.6 40.3 3.8 17.5 1.7 34.6 1.7 52.4-.9 2.8.5 4 .5 5.1.4l-.1-.4c1.2-.2 2.5-.4 3.6-.7.4 2.7 5.4-.1 6.1-1.1.5.1 4.3 1.6 4.4.6 0-.6-3.2-1.1-3.7-1.2-.4-.7-.9-1.4-1.6-1.8-5.3.6-5.2 1.3-5.5 1.7-1.3-.1-1.7-.1-3.7.6l-.3-.3v.2c-.8-.2-1.9-.2-3.4-.2-3.2.5-3.7-1.1-6.9-.7v-.6c3.3.8 6.8-3.6 9.5 0 1.7-2.7 9.9-.7 14.7-2-.9 2.8 2.8 1.9 4.7 2.5-.1 0 7.8 2.6 6.9.3-1.7-.8-3.5-1.2-5.5-1.2.4-.9 3.1 0 4.3-.3.3-1.2-1.3-1.7 0-2 13.7.3 22.2-1.4 34.6.7 3.2-3.3 16.1-2 20.8-2 .2-.5 0-1.3.9-1.4 1.7.3 2.2 1.5 4.3 1.4 8.8-3.1 21.8.2 36.4-2.7.1.8-.1 1.9.9 2 1.6-.7 3-1.7 5.2-2 12.1.5 23.6.8 35.7 2.1 7.9.8 22.8-3.6 29.3 1.3.1-.8.3-1.6 1.7-1.3 8.9 3.8 18.5 3 29.4 4.7 1.1-1.2 2.8-1.8 5.2-2 10.4 2.6 20-1.7 28.6 1.3 2.5-.7 6.2-.6 8.7-1.3 5.7 3.5 11.1-1.3 16.4 1.3.4-.8.9-1.5 1.7-2 .7 1 2.8 1 4.3 1.3 6.9-2 15.3-.7 26 1.3 1.2-1.3 2.4-2.6 6.1-2-.1 1.1-2.2.5-1.7 2 3.8 1.5 5.1-2.1 9.5-2-.2 1.4 29.4-.5 33.8.7.1-1.1-.1-2.3 1.7-2 .9.7 1.8 1.3 2.6 2 8.6-.4 14.5 1 22.5.7 14.7-5.9 32.8-.7 48.2-1.8 13.7-1 28.8.8 42.7 2 8.1.7 16.2 2.2 24.3 2.3 3.2 0 6.7-.8 9.9-.6 3.8.3 2.8 1.6 5.6 2.1 15.8 2.6 39.8 5.5 55.4 1.3 7.1 3.4 19.2-3.4 28.6 2-.7.1-1.7 0-1.7.7 3.6.6 4.7-2.1 7.8-2.7 4.5-.9 9.3-.6 13.8-.7 1.8-.6 3.4-1.4 5.2-2 9.4 1.3 18.8-.4 28.2-.6 4.4-.1 9.2.7 13.6.2 3.9-.4 6.6-2.3 10.2-2.9 17.3-2.5 36.9-1.1 54.5-5.4-1.4-.3 1.5-.6 2.8-.8 13.6-7.7 26.1-14.8 41.7-20.3 26.4-9.3 53.9-14.6 53.9-14.6H.5s34.3.7 59.5 7.8c17.1 4.8 24.4 17.1 35.8 16.5.7 1.2 1.8.6.7-.8l5.6.1c-.1 1.8 1.4 1.4 0 2.7 5.2-.9 12.8 1.1 11.3-2 2.4-.1 2 2 4.3 2 .5-1.4 1.3-2.5 4.3-2 .1 1-.3 2.5.9 2.7.1-1 1.5-1.1 4.2-.3 1.4.5 2.9.8 4.5.8 8.7-1.9 19.7.8 25.9 1.5v.6c-.8 0-2.5.1-5.1.4-4.7.4-9.4-.5-14.1-.1l.1-.3c-1.3.1-3.2-.2-3.5.7-2.8.2-34.6-1.6-34.5.4.2 1.5 31.5 1.5 34.5 1.5 3.2 1.1-2.6.2-1.8 1.5 1.5-.4 4 2.3 5.2 1.3 1.5-1.2-1.4-2.3 0-2.7 1.8.7 1.8.7.9-.6 4-.2 8 .3 12 .2-.3.8-2.1.4-1.7 1.8 4.9-.7 5.3-.2 5.2-1.9.8 0 3.1 0 6.9-.1.9.3 1.6.2 2.3-.5.2-1-1.9-1.1-2.4-1.2l.1-.3v-1.3c3.6-.1 17.4-.9 15.6 3.4 2.2-.8 6-.3 6.9-2 5.4 2.5 16.6 1.4 21.7-.7 3.9-.8 11.9 1.6 13-1.3-3.2-.2-1.5-2.3-.9-2-3.4-1.8-7.1-.8-11.2-.7.1-.5.1-.9-.2-1.4 5.9-2.1 10.8-1.8 22.7-2-.2.8-1.3 1.4.9 1.3.2-.5 0-1.3.9-1.3 1.1 2.5 10.6-1.5 9.5 1.3 5.7-1.3 10.1-1.7 14.7 0 9-2.6 15.2-.7 23.4-.7 6.4 0 17.4.4 25.1-.7 1-2.5 42.4 1.3 42.4 1.3-.6 1.3-4.8-.2-5.2 1.4-.5.4-1.2.6-1.7.4-.2-2.3-4-1.4-6.1-.4-6 .6-12.2-1-18.1.6-.7-.1-1.5 0-2 .5-5.8-.7-12.8-2.2-17.9 1.5.8-1.5-.9-2.7-2-1.3-1.1-.3-2.5-.2-4 .4.1 0-1.9-1.3-2.4-.5.2.7.6 1 1.4 1 0 1.1-.2 1.9-.9 2.5 1.8-.4 5.7.8 6.1-.7V28c.8.4 1.7.6 2.5.6 5-3.7 11.3-2.2 17-1.6.1.2.2.6.4.9-.9-.1-1.6.2-2 .9 3.5.3 4.1.3 4.6.1 1.1.6 2 .5 3-.4-.3-.9-1-1.4-2-1.4 0-.1-.1-.2-.1-.2 5.4-1.2 11 .1 16.5-.3.3.6 1 .8 1.6 1.1.2.8.7 1.3 1.5 1.4.6-.7.4-1.4-.8-2.1.3-.5 2.2-.5 2.8-1.3 1.2.6 2.5.1 3.6-.3l-.1.3c3.9 3.5 12.2.6 16.1 1.9.6 1.4.9 2.8.9 4.2-.3.1-.6.2-.8.4-.9-.1-11.5-1.6-11.4-.1.1.8 9.9 1.1 11.2 1.2.1.2.3.3.5.4 0 .4-.1.7-.1.7-.6.1-12.2-.5-11.5 1.1.4.9 12.9 1.2 13.1-1.8.2 0 .4-.1.6-.3.8.1 8 .9 7.3-.7-.5-1.1-6-.6-7.1-.7-.2-.2-.4-.3-.7-.4-.1-1.7-.5-3.3-1.2-4.8.4-.3.7-.5 1-.7 4.4.2 9-1.9 13.4-.5.5.1.9.5 1.5.4 3.2.8 7.1 1.6 9.6 1-.6.6-2.7 2-2.7 3s4.1-1.4 4-2.6c2-1.7 4.7-.4 5.7-2.3 1 0 1.9-.1 2.7-.3 4.1 2.4 7.8.9 13 2.2 3.6.5 7.3.1 11 .8-1.8.8-6 2.3-7.3 2.5 1.6-.3-5.2-3.2-7-.2-3.9 1.6.5 1.8.8 1.9l-.1.3c10.2 1 13.2-.1 23.4 0-1.4-1.7-2.1-1.2.7-3.3 1.2 3 6.5 1.1 3.6 4.6 22.9.7 65.5-.6 90.9-2.7.6.9 1.9 1.2 3.5 1.3 25.7-4.8 52.8-2.6 78.8-4 13-.7 25.9-3.1 38.9-3.1 8 0 20.3-3.8 27.7-.3 6.8-4 20.7-1.5 28.3-2.2 11.5-.9 22.8-2 34.3-1.9 12.1.1 32.7-6.2 43.9-.6.1-3.1 3.9-.1 6.1-.7 4.1-3.3 11.5-.4 19.9-2 2.8.3 3 2.6 6.1 2.7 5.3-1.1 7.7-.1 13.9 0 3.2-2.5 16.7-4.1 23.4-1.3 7.5-1.3 14-.9 22.5.7 2.4-.4 3.6-1.7 6.1-2 10.9.9 25.2 3 32-1.4 11-.2 22.4-2 33.4-1.6 3.8 3.3 5.6 2.6 12.5 3 .8-.7 1.7-1.4 2.6-2 2.4-.1 4.2-.5 5.9-.9h8.6c9.7 2.5 13.9 3.5 19.3.3 2.1-.3 1.9 1.2 4.3.7.6-1.8 4.8-.7 5.4-.9 8.4 4 23.7 1.6 31 .3.4 1.3 3.4.5 2.6 2.7 3.8-.9 10.2-.7 9.5.7 10.8-2.4 20-1.1 28.6-1.3 8-.2 21.3-.7 31.2-.7 9.9 0 23-1.4 32.9 1.4 13.4-4.1 27 1.1 42.4.7 1.7.4 3.4.6 5.2.6 1.8 1.6 7.2.3 10.4.7l-.1-.2c4 .3 44.6 1.2 44.2-1.6-.2-1.2-39.2-.1-43.3-.4.2-.6 1.3-.5 1.6-1 .3-.1.5-.3.8-.4.2-.4.2-.9 0-1.4h26.1v.9l1.7-.9c2 .1 1.8.2 1.7.3 1.4-.3 4.3.5 5.1-.3h296.4c.5 1 1.7 1.5 1.6 3-5.9-.6-8.2 1.7-12.1 2.7-3.6-.4-2-1.7-4.3-2-5.2.4-7.3 3.3-12.1 4-4.8-2.4-8.4-2.4-15.6-2.3-8.5.2-15.5-3.3-24.2.2-1.7 0-1.1-1.8-3.5-1.3.6 1.8-1.8 1.3-2.6 2-10.8-.4-26.5 1.8-39-.7-18.8 3.2-38.4.8-57.4 1.8-4.9.3-41.2 2.4-43-1.8-2.5 1-24.4 2.5-24.2 3.4-3.1.9-6.4 1-9.6 1.3-6.1-5.7-22.4 2.4-29.4-2 .5-.9 3.3-.1 3.5-1.3-25.9-.6-46.5 5-71 1.3-2 .2-3.6.8-5.2 1.4-4.3-2.9-8.7.5-12.1-2.7-6.4 3-13-2.3-18.2.7-1.7 0-1.1-1.8-3.5-1.3-1.2 1.1-3.9 1-5.2 2-6.7-3-14.4 0-21.4-.4-7.3-.4-12.1-1.2-19.6-.2-14 1.9-30.3-2.1-43.9 2.7-.5-2.7-4.1 0-8.7-.7-4.6-3.2-12.3 1.9-14.7-1.4-35.8.3-73.3-.9-108.2 0-6.6 0-13.4 3-21.4.8 1.1-.6-.8-2.5-2.6-.5l-.2-.2c-5.3 2.8-12.5 1.1-19.1 2.7-3.6-2.7-14.6.2-18.4.3-6.8.1-13.8.1-20.5-.9-4 4.8-28.5 2.2-34.2 2.4-12.6.5-25.4.7-37.7-2.4-.5 3-7.1 1.2-8.7 3.4-1.1-3-46.8 2.6-53.7.7-.9 5.1-42.4 3.7-49.4 6.1-1.3-.4-2.2-1-3.5-1.3-2.4 2.8-7.8 2.1-13 1.3-2.3 1.5-11.6 2.4-14.8 2.5-6.8.1-11 .5-17.7.9-8.5.5-16.9 1.5-25.6 2.1-7.3.5-17.5-1.7-24.2-.1 2.2 1.2-12.1 1.3-13.9 1.3-9.7.2-19.4.5-29.1.7-21.5.3-43.9 4.3-65.3 0-.1 2-3.5.6-5.2 2.7v-.6c-.7-.4-8.8-2.9-9.1-.8-.1.9 8 1.6 7 1.1-1.1.2-2.2.5-3.2.9-5.8.7-8.8-.3-12 2.6-.6-.8-.9-3.2-2.2-2.4-.5.3.3 1.9.4 2.3-.9 0-1.8.1-2.7.2-4.6-1.5 2-.4-.8-2.2-1.2-1.3-7.3-.8-8.7 0-.1-.4-.1-.8-.9-.7v.2c-1.3-.3-2.5-.2-3.6.2l.2-.4c-6.6 1-9.3-.6-12.1 2-.1-1.1.1-2.3-1.7-2 0 .9.4 1.5.9 2v.3c-1.6-.8-3.6-.4-5.3-.2-.2-1.5 1.2-1.5 1.8-2.2-6.2.2-4.5.1-6.9 4 1.2 1 2.9.9 5.1-.2 1.2-.2 2.4-.3 3.6-.2.6 2.2 5.6.9 7.8 1.8 6.2-3.9 17.3.6 24.5-1.3 2.9 1.5 7.8.4 8.4 2.7-15.4 4.5-32.4-1.6-47.6 2-2-.2-1.6-2.3-4.3-2-5.6 2.6-13.4.4-19.4 0 .2-.4.3-.9.4-1.3 1.6 0 5.3.4 6-1.4 1.3-.9 3.2-1.1 4.9-.6-1.4 1.5-.5 1.6 1 1.2.5-.6.8-1.2 1.1-1.9-2.5-1.1-5.5-1.3-8-.1-3.9-.1-.4-2.9-3.4-2.7.1 2.6-4.4-1.9-6.1 1.3.2-1.1.2-2.2-.4-3.3.8 0 6.3 1.6 6.7.4.5-1.6-8-1.4-9.1-1.2 1 .9 1.8 2.4 1.2 3.8-1.9.4-6.6-.4-8.7.4-1.8-1.1-3.2-2.5-6.1-2.7V46c-.3.2-6.1.5-4.9 2.1.7.9 4-.1 4.9-.2 1.2.2.7 1.7.8 2.8l4.3-.1c1.7.4 3.3-1 .9-1.3 0-.2.1-.4.3-.5 2.3.3 6.6.1 8.5-.2l-.1.2v.2c-1 .2-1.5.8-1.6 1.9 1.5.8 2.9.5 4-.9 1.3.3 1.6 1.2 2.6 1.5 0 .2-.1.5-.2.7-16.4.7-25.5 1.2-40.4.7-.2-.5 0-1.3-.8-1.3-12.3 3.4-32.6.1-44.3 2-1.5-.6-1.9-2.1-2.6-3.4-4.1-.1-4.9-.1-6.9-.7-1.2 2 .6 3.5-4.3 3.4 0-.9 1.1-.9.9-2-7.4-1.3-6.9 0-13 2 .1-.8 1.5-1.5 0-2-6.5 2.6-22.9 3.9-26.8.7-1.7 1.5.2.7.9 2-13.8 0-23.2 2.4-32.9-1.4-13.4 4.2-25.9 1-35.5 1.4 0-.2.1-.4.1-.7 4.7.1-.2-2.3 1.6-2.7 36.5-.9 71.1-.7 102.2-2 1.8.1 3.6.1 5.2-.1 5.3.6 13.2-.2 17.3-.6l-.1-.3c5.1.5 10.6.7 15.8 0l-.1.3c1.6 0 1.8.5.9 1.4 2 .4 1.9-.8 2.8-1.2.5.1 16.9.5 16.9-1.1 0-1.7-15.5-.5-16.2-.5.1-.7 1.1-.9.9-1.9-1.5.4-5.1-.8-5.2.7l.2.4c-3.1.5-1.2.6-1 .6-4.5.7-9.3.5-13.8.1.1-.4.5-.6.7-.9 1.5.5 2.7.3 3.7-.6 0-1.2-5.5.2-4.4-.1V44c-8-.2-15.2 1.3-19.1.7 1 .1.6.7.1 1.2-1.1-2.4-9.8-1.5-10.4-1.9-4.9-3.3-9.3-.9-13.2-.2-5.2.9-15-.8-21.2.8-.7-1.2-1.7-.4-.7.9-1.5-.2-12.9.8-11.7-2.1-3.7 2-5.6 1.7-10.4 2v-2c-6.4-1.3-13.3 5.2-12.1 0-3 .8-5.7 1.8-10.4 1.3-.1-4.3-5.5-.2-7.8 0 .1 0 .6-1.3.9-1.3-3.6.1-9 2.8-13.9-.7-2.9 2.2-27.1 4.3-29.4 2-3.9 2.4-8.6 2-10.4 0-9.7 2.4-3.6-2.6-13.9.4l-2.3.7z"/></svg>