<svg xmlns="http://www.w3.org/2000/svg" viewBox="0 0 2300 570"><path d="M1062.9 270.27l-.08-.27c.03.09.05.18.08.27zm-25.08-31.46l-.11-.05zm-25-8.44zm-269.33-212c.5-1.72 30.5-4.62 38.68-4.46-.62 1.61-30.63 4.39-38.64 4.46zm487.2 77c-86.37-77.69-214.41-85-323.59-87.75 11-.23 22.46-.4 34.43-.28 98.8-.29 214.25 16.52 289.2 88zm87.53 216c-3.45-19.83-6.45-39.89-8.42-59.93.55.45 1.51 4.21 2.53 9.7a351.35 351.35 0 015.93 50.16zm195.56-9.37q11.61-3.09 24.73-6.28C1800.88 233 1656.85 273 1513.78 302zm175.88-38.61c12.13-3.16 41-13.29 35.3-9.34-14.47 4.95-33.96 11.28-35.3 9.35zm-683.75-7.91l-.19-.05zm1268.38-159.3c-317.86 43.43-232.27 44.49-537.37 138.48-129.65 39.94-273.35 87.07-410.84 84.47-11.22-93.82-28.21-183.71-108.81-244C1129.73 9.61 1014.49-.83 909.14.05c-202.4 1.68-406.91 40.89-605.87 75.58-191.86 33.46-172.82 30-280.38 60.44C-38 121.49 37.8 302 73.89 330.65 54.77 327.44-38.77 401 215.57 354.17c212.49-39.09 426.11-85 641.9-100.84 51.33-3.78 125.57-14.6 174.89 11.83 15.45 25.6 12.17 60.8 15.81 89.77 5.54 44 15.25 86.84 43.44 121.94 23.07 28.72 54.75 49.18 88.1 63.76 90.24 39.48 198.32 32.29 293.15 18 171.05-25.79 337.68-79.77 500.49-137.1-97.77 30.56-195.33 61.72-294.5 87.41-135.15 35-284.61 72-424.72 47.4-55.31-9.72-112.39-32.93-151.06-75.43-29-31.88-42-73.18-47.75-115.25-4.72-34.22-.42-75.32-19-105.06-17.65-9.83-37.54-13-57.36-15.14-3 6.58-115 .2-134.84 1.87-49.76 4.17-99.28 11.15-148.77 17.7-136.19 18.05-271.88 42.5-406.8 68.35-278.46 53.37-170.28-9.29-164.55-19.61 276.87-47.3-175.42 66.23 100.38 12.82 185.9-36 426.58-81.41 615.38-98.29 63.72-5.69 149.89-18.33 209.13 16.47 28.48 27.41 21 89.91 26.6 124.53 4 24.83 10.15 50.2 22.62 72.23 22.44 39.65 63.77 65.94 105.4 81.53 133.4 50 295.11 8.94 427.82-23 147.83-35.54 291.3-87.64 435.75-134.62 173.51-56.43 22.37-25.39 118.07-46.35 61.26-13.38 162.68-232.96 89.14-222.91z" /></svg>