<svg xmlns="http://www.w3.org/2000/svg" viewBox="0 0 2300 1754"><path d="M2104 588.2c-164.89 109.72-271.93 199.13-433.65 313.63q-116.85 82.73-232.63 167c-35 25.46-216.73 125.19-229.13 165 8.92-28.63 86-56.11 84.73-85.82-85.44 59.61-179.31 105.21-264.2 165.52q22.09-12 14.73-29.85c-49-3.85-124.26 70-167 89.4-4.58-6.16 42.79-47.74 59.38-68.36q-19.32 19.27-43.4 14.3c-5.91-6.67 6.77-36.09-10.49-33-38.43 6.79-79.79 44.94-109.42 66.72-16.57 2.83 40.06-44.22 23.53-41.38-88.07 55.63-180 121-278 158.32-163.06 126.19-101.46 42.88-257.28 178.79-108.83 26-109.79 37-194.49 105.61 33.85-65.74-49.79-12-65.5-37.6-13.54-22.1 101.2-199 112-224C744.71 803.53 1260.52 508.6 1883 114.11s406.59 350.6 221 474.09zm196-71c-533.68 308.8-454.84 300.5-949.17 668.19l6.47 8.34c497.94-364.61 420.12-348.25 942.7-676.55z"/></svg>