<svg xmlns="http://www.w3.org/2000/svg" viewBox="0 0 2300 1045"><path d="M1564.65 298.23a3.42 3.42 0 00.9.64 2.51 2.51 0 00.77.55 1.57 1.57 0 00.61.45.88.88 0 00.41.3c-1.32.43-3.82-6.45-3.82-7a25.83 25.83 0 004.65 5.7c-.09-.08-4-3-6-2.25a14.14 14.14 0 002.48 1.61zM1535 293c-8.74-5.58-34.94 3.31-43.21 7.21 14.33-4.48 28.41-5.88 43.21-7.21zm-164.36 71.37c-12.33 9.58-24.62 18.73-37.19 27.79-4 2.85-24.87 16.59-24.54 23.06 52.66-43.43 108.7-86.74 172.83-112-26.64 8.7-52.19 21.94-75.9 36.67 2-1.81 8.28-5.63 9.12-8-21.27 11.64-40.76 26.37-59.43 41.71 1.19-2.6 14.54-7.43 15.13-9.25zm-204.4 171.85c-6.12 3.72-14.16 9.41-17 9.79q-7.44 6.16-14.89 12.37c2.65 4.2-42 36.21-46.51 40.84 27.16-19.66 53.39-40.78 78.4-63zm323.56-243c4.9-1.31 19.28-1.65 23.11-6-4.91 1.01-19.35 1.64-23.11 5.97zm-8 2c-55.4 19.55-106.75 52-149.72 92 47.14-35.03 94.07-71.22 149.68-92.03zm-191.92 127c1.22-4.16 24.17-19.63 28.13-23-1.24 3.91-24.61 19.88-28.17 22.98zm-49.24 42c-46.68 35.55-90.1 75.87-134.65 114 46.48-36.07 90.83-74.71 134.61-114.01zm-979.75 543.05c-11.74-20.34-32.24-38.24-34.68-63.19-4.32-2.74-9-29-8.5-31.82 1.68 36.16 18.37 68.98 43.18 95.01zm1202.78-709.08c-92.55 35.58-171.6 112.93-243.17 178 75.07-65.19 152.27-135.27 243.17-178zM345 1037c-7-.33-17.46-3.33-24.22-1.24 46.41 7.09 97.13 3.56 141.12-12.52-14.13 4.1-30.55 8.11-45.44 8.09-21.37 4.25-43.42 8-65.32 5.49 7.56.24 16.72.38 24.08-1.81-20.08-.46-40-1.15-60-3.52-.92.11 26.18 3.43 29.78 5.51zm847.42-536.82c-29.2 19.87-61.56 45.11-85.41 71 29.39-22.49 57.53-46.54 85.36-70.97zm-163.6 131.39c-3.17 4.9 26.53-19.14 25.87-20.35-5.04 3.31-16.15 12.51-25.87 20.35zM621.65 934.26c5-2.79 14.43-9.18 24.09-16-.02.02-25.07 14.11-24.09 16zm109.5-698.08c-1.82 13.08-7 25.23-10 38 5.17-10.8 9.77-25.76 10-38zm830 559.25c1.92 3.71 27.1-6.43 31.15-8.19-10.23 3.47-20.76 5.5-31.16 8.19zM972.84 675.05c-2.81 4 6-2.87 15.53-10.45.38-1.76-5.99 2.9-15.53 10.45zm-533-92.84c8.64-7.24 14-12.09 18-16-.26.7-19.13 16.54-18.05 16zm100.44-87c-3.4 9.78-40 18.47-40.19 33 11.75-9.42 24.44-19.69 40.14-33zm822 170a237.27 237.27 0 019-33c-.41 4.35-7.28 28.79-9.1 33.02zm-650.32-511c3-8.09-30.69-19.19-39-16.63 14.04 1.88 28.12 7.13 38.9 16.6zm-85.21-16c-3.32 3.08-21.28 1.2-27.13 5 8.99-1.06 17.97-3.62 27.03-5.04zm105.9 95c3.7-3.37 2.56-27.16.49-26 .3 8.46-1.83 17.59-.59 25.97zm-444.2 790.08c105.72 21.19 200.68-7.41 291.07-62.35-44.9 22.4-88.18 46.87-137.27 59.43-51.22 13.11-101.25 11.44-152.82 1.42-52.56-46.28-77-103.87-56.64-172.51.19.4-5.54 16.79-6 19-12.49 63.42 14.89 113.87 61.56 154.98zM280 302.19c-8.31 4.6-19.76 13.75-21.1 16 9.99-6.67 17-11.76 21.1-16zm396.89-166.81c-2 1.37-18.5-3.75-23.11-1.73 7.71.41 15.41 1.14 23.11 1.73zm-66.32 2.79c-6.73 1.14-13.41 1.87-20.06 3.44-1.06.8-5.5 2.17-3.58 2.56 2.24-.56 23.14-3.53 23.64-6zm916.41 660c-54.23 4.64-117.91-4-149.72-54.89 22.11 54.06 100.37 64.28 149.74 54.85zm-155.61-64.06c-8.21 5.11-7.86-105.4.86-101.76-13.31 31.36-15.77 70.47-.86 101.72zm130.49-283.86c-.63 1.88-22.47 21.15-19.89 24 4.18-4.11 12.66-14.77 19.89-24.04zm-103.17 131a554.11 554.11 0 0135.31-48.71c9.21-11.49 28.49-26.91 32.66-41.33-4.91 5.29-73.66 88.06-67.97 90.01zm-1107.62 436.8L279 1007.27c1.5 2.41 4.22 4.51 6.25 6.48 30.27 10.35 61.91 16.6 94.23 12a524.36 524.36 0 01-88.41-7.7zm447.11-832.87c-1.56-10.34-7.31-27.86-18.08-33 7.4 10.67 13.9 20.7 18.08 33zm-108.52-55.09c30.39-.28 55.27.39 82.4 14.08-21.62-18.54-56.13-17.34-82.4-14.08zm1440.93 344.12c37.73-18.2 72.4-23.79 109.53-42.24-41.24 9.24-78.51 22.19-115.56 42.24.21.39 5.82-.38 6.03 0zm183.88 444.05c28.18 29.31-30.08 46.12-68.32 37.19-51.79-12.09-95.53-61.66-106.52-100.2-19.09-67-17.75-112 100.49-302.39 34.93-56.26 30.14-75.85 19.09-102.65-31.94-31.8-174.94 53-231.86 93.45-57.24 40.69-108.85 88.11-165.11 130-64 47.62-130.51 80.17-204.68 109.21 5.47.06 31.83-9.37 11-.68 105.74-34.17 194.55-99.73 279.07-169.46-30.58 34.72-74.78 61.67-112.09 88.81-38.7 28.16-82.47 49.48-126 69.25 41.19-11.35 79.57-37.14 114.91-60.32 40.89-26.83 79.33-57 117.4-87.6 72.15-58 145.14-112.89 228.46-154.05-5.45 13.3-47.09 27.23-60.22 34.36-26.38 14.31-52.2 31.64-76.16 49.72-23.14 17.45-44.28 37.34-67.32 54.89-20.41 15.56-51.14 33-65.45 54.52-34.65 21.07-65.48 47.9-99.86 69.47a583 583 0 01-106.87 52.77c-53.83 20-114.89 35.33-172.7 26-62-9.95-112.12-54.66-113.15-119.66-1.14-72.41 50.36-140.85 95.64-193.1 30.57-35.27 60.52-71.07 86.39-109.95 11.76-17.67 23-35.93 31.78-55.25 3.39-7.44 16.72-38.68 13.28-42.77-24.2-19.68-68.17-7.78-94.54 1.21 30.39-9.62 66.8-16.28 94.59 2-1.12-.6-2.38-3.12-2.72-3.93 4.59 10.54-8.66 34.38-13.26 44.25-9.54 20.45-21.69 39.78-34.44 58.39-24.82 36.24-53.17 70-82.78 102.45 33.52-39.59 66.61-80 94-124.06 13.12-21.1 27.93-45 32.67-69.6.37-1.91 2.53-8.46 1.31-10.72 1 2.47 5.41 7.3 1.34 3.43-5.71-3.62-11.62-5-18.1-6.09 6.53 1.64 14.34 3.44 18.78 8.89-2-2.36-2.7-3.14-3-3.95-2.67 26-20.47 54-34.93 77.13-18.81 30.06-40.6 58.3-63.6 85.31 30.52-41.18 57.06-79.4 78.14-125.79-35.55 64-80 120.38-130 173.72 25.75-31.22 52.08-61.73 76.37-94.15 12.72-17 26-33.6 35.68-52.55 9.5-18.66 15.1-44.53 26.67-61.56.93 1.5 2.33 6.64 6.42 10.33-15.72-27.29-90.78 8.14-108.94 15.89-36 15.35-68.2 39.31-98.82 63.2-40.31 31.47-77.33 66.68-116.25 99.75-32.57 27.68-63.85 58.66-98.62 83.54-71.94 51.49-137.77 111.44-208.18 165.06-78.09 59.42-160.57 112.32-240.07 169.73-29.93 6.45-48.89 48.51-81.42 53.75-51.5 32.66-101.88 63-161.93 78.79-56.47 14.85-111.32 13.12-168.14 2.17-12.85-11.65-25.17-22.67-35.35-36.88-12.73-17.76-17.47-43.22-30.2-59.44 5.28 6.81 6.66 22.39 11.07 30.81-29.91-47.82-17.88-114.84 4.75-163 31.56-67.14 84.83-123.62 137.28-175.17C441.36 562 519.81 498.59 595.45 432c60.09-52.95 114.46-120 131.38-198.74 8.12-37.79-7-90.72-55.33-89.37-45.5-10.43-97.94 13.28-139.73 29.11-23.83 9-47.19 19.22-70.1 30.31q-19.12 9.24-37.8 19.36c-7.37 4-19.87 14.77-28.27 15.32-9.5-1.87-26.24 13.33-35.14 18.9q-20.47 12.81-40.58 26.2-39.18 26.06-77 54.09c-37 27.5-88.8 58-162.89 125-80.41 72.76-119-74.84-25.12-152 88-72.36 142.32-122.78 240.69-180.81C395.47 70.45 509.21 12 626.75 1.14c113.94-10.49 220.6 51.66 241.4 168.17 20.05 112.27-39.78 224-111.78 306.19-72.59 82.82-164.83 148.09-245.09 223.29-46.45 43.52-94.56 88.34-130.28 141.31-12.27 18.19-24.27 38.26-26.21 60.48 1 6.38 3.57 9.65 8.43 14.34L330 898.82c55.77 10.52 109.16-9.09 157.5-35.3C559.6 824.43 623.93 771.9 691.68 726c129.1-87.4 253-184.39 372.75-284.07 74.48-62 144.9-128.83 223.11-186.35 56.26-41.37 118.74-81.05 188.36-94.72 78-15.32 182.4-3.34 216.74 80.34 36.63 89.27-34.88 191.3-86.18 259.39-25.07 33.28-53.28 63.75-79.56 96-14.38 17.65-28 36.42-38.4 56.69-5.41 10.55-6.48 26.21-12 35.54-4.48.52-9.62 1.49-13.55 3.69 3.72-2.06 6.59-7.21 8.72-10.75 103.4 17.19 212.4-59 289.71-119.39 106.53-83.22 156.05-144.35 286.11-193.22 95.46-35.87 203.23-94.92 235.13-10 26.13 69.55 23.11 202.69-11.05 262.53-104.33 182.75-83.41 227.57-17.1 296.58zm-566.62-139.41q-24.78 11.76-50.56 21.28c-11.91 4.4-38 18.42-51 15.79a12.6 12.6 0 013.26-1.78c61.64-16.77 119.15-45 173.59-77.9a632.65 632.65 0 01-75.29 42.61zm-354.75-94.79c.87-30.15 10.72-59.43 24-86.4a390.68 390.68 0 0121.7-38.11c6.75-10.55 19.2-22.34 24-33.33-11.48 26.33-33.91 49.29-46.41 75.84-11.4 24.22-20 50.19-21.76 76.94-3.65 55.48 24.9 106.41 75.82 131.25-50.25-21.98-78.88-73.19-77.35-126.19zm106.46-192.85c-11.58 15.89-24.86 30.68-37.18 46 9.73-16.53 23.51-32.47 37.18-46zm-1 317.9c92.7 19.4 179.3-16.65 263.27-50.87-76.83 39.38-176.16 75.76-263.28 50.87zm-13.11-294.9c1.17.94-21.29 28.88-23.06 31 2.08-10.21 16.86-23.03 23.05-31zm654.19 379c-31.58-54-23-119.76-1.91-175.77 32.94-87.34 99.55-159.91 118.25-252.65 8.6 27.15-15.39 65.89-27.06 87.7-25.37 47.4-55.4 92-77.77 141.07-18.38 40.29-32 84.7-29.26 129.36 4.91 81.43 67.52 133.13 145.67 144.92-52.12-5.38-100.93-28.4-127.93-74.59zM1941 571.15c20.59-14.76 40.08-31 61.28-44.93.72 1.78-58.89 47.02-61.28 44.93z" /></svg>