<svg xmlns="http://www.w3.org/2000/svg" viewBox="0 0 1728 168"><path d="M474.8 80.3l.6.3-.6-.3zM477.7 82l-.3-.5c.6.3 1.1.6 1.6 1l-1.9-1.4-.7-1 .6.9-.6-.4c.3.3.5.4.8.7l.1.1h.1c0 .3.1.4.3.6M479.3 85.8c-.1-.2-.1-.4-.2-.6v.1c.1.1.1.3.2.5M1316.3 39.7c-38.5 7-77.1 13.8-115.2 22.9 38.3-7.6 76.9-14.6 115.2-22.9M775.5 114.6c-8 2.3-27.7 8.5-31.6 10.5 9.1-3.2 25.9-8 31.6-10.5M905.1 66.5c10.6-2.3 21.1-4.5 31.7-6.7-10.7 1.4-21.4 3.8-31.7 6.7M962.3 60.4c.1.6.2 1.2.4 1.8l-.4-1.8zM1057 143.4c4.4-.2 8.8-.4 13.2-.9-9.3.6-18.6.4-27.9.9 4.4.3 9.8.3 14.7 0M1089.8 140.7c-4.3.5-7.9.9-8.8 1.3 8.5-.8 17.3-1.8 21.8-2.9-3.7.6-8.7 1.1-13 1.6M1134.5 133.7c-7.7 1.3-17.4 2.7-19.3 3.7 9.1-1.3 15.2-2.6 19.3-3.7"/><path d="M1076.5 144.5c-23.9 2-47.8 1.8-71.3-3.1 40.4 12.2 88.7 4.4 128.9-4.6-19.3 2.8-38.3 6.1-57.6 7.7M469.7 78.5zM469.3 78.4l-.2-.1c.2.1.4.1.6.1-.1.1-.2.1-.4 0M21.1 85.1C80.3 68 140.2 55 199.6 38.8c-38.9 9.4-78.1 17.1-116.7 27.5-20.5 5.5-43.4 9.3-62.7 17.7.4-.2.9-.4 1.3-.6-2.6 1.3-5.5 2.4-8.2 3.5-.3.5-.5 1-.8 1.5 5.8-4.3 10.7-1.4 8.6-3.3M963.3 86.9c0-5.3.6-11.2-.5-16.4.3 7.9-.8 16.4.7 24.2-.2-2.6-.2-5.4-.2-7.8M34 142.6h.2c.1-.2-.1-.2-.2 0M1030.9 88.8c-.1-.1-.1-.3-.2-.5l.1.7c.1-.1.1-.2.1-.2M1032.4 84.5l-.9-.3v.1l.9.2zM12.4 88.4C7.9 91.7 2.8 99.5 0 117.2c.7 2 1.4 3.8 2.1 5.5-.4-8.2 2.4-19.3 10.3-34.3M1032.4 87.8l.2.9.3.4c-.3-.3-.5-.8-.5-1.3M1031.5 85.5c.1 0 .2 0 .3.1l-.3-.5v.4M1030.8 84.1l-.1-.2c-.2-.1-.4-.1-.6-.2V85c.2.1.5.2.7.2v-1.1zM1702.8 51.9c0 .2.1.5.2.9-.2-.4-.2-.7-.2-.9"/><path d="M1031.5 85.1v-.8l-.7-.2.7 1zM961 57.5h-.3.1l.5.2-.3-.2zM1029.2 83.6c-.3-.2-.5-.3-.8-.5l-.9-.3 1.7.8zM1706.9 81.8c0 .3.1.5.1.8 0-.3-.1-.5-.1-.8z"/><path class="st2" d="M1715.5 78.7c-2.4 2.1-5.4 3.6-8.6 3.9 0-.3-.1-.5-.1-.8 18.6-3 15-30.7-4-29l-.2-.9c13.3-.1 26.1 16.1 12.9 26.8zm-8.9.9zm-.3-3v0zm-.3-2.4v0zm0-.4v0zm0-.2zm1.2 11.1c0-.3-.1-1.1-.2-2.1 0-.2-.1-.5-.1-.8-.2-2-.5-4.8-.8-7.4.3 2.6.6 5.3.8 7.4 0 .3.1.5.1.8.2 1.7.3 2.6.2 2.1zm-3.5-2.2c1.1-.2 2.1-.4 3.2-.7 0 .3.1.5.1.8-1.1.2-2.2.1-3.3-.1zm-342 13c-.5.8-1.1 1.4-1.8 2.1 1.6-2.7 2.8-5.6 4.3-8.3l.8.7c-1 1.9-2.1 3.7-3.3 5.5zm-33.4-4.3c-4.4 1-9.7 2-14.6 3.1 1.5-3.2 20.7-4.7 24-5.4-1.5.6-5 1.3-9.4 2.3zm-31.8 6.8c-2.7-.4 10.2-2.8 13.7-3.2-1.8.7-6.9 1.9-13.7 3.2zm-15.3 3.1c2.3-.7 9.7-2.2 11.9-2.4.9.1-13.4 3.3-11.9 2.4zM960.8 56.7h.1v.1l-.1-.1zM484.5 84.1c.1 0 .1.1 0 0 .1.1.1 0 0 0zm-7-8.7c.1 0 0 0 0 0zm-.3-.2zm-6.6-2.2zm0 0zm-64.4-60.5c-.2.5-8.6 1.2-10.8 1.2.1-.4 8.5-1.3 10.8-1.2zm44.5-1.9c27.6-.1 59.8 4.6 80.8 24.6-24.1-21.7-59.9-23.8-90.4-24.5 3 0 6.2-.1 9.6-.1zm85.2 99.1zm18.4-28.1c.9 4.6 1.4 9.4 1.6 14-1-5.5-1.8-11.2-2.4-16.8.2.2.5 1.3.8 2.8zm63.1 9.7c73.3-17.5 143.4-46.6 216.4-65-13.6 6.2-29.6 8.8-43.9 13.3-20.6 6.6-41.3 13.2-61.9 19.7-38.8 12.3-77.5 25.7-117.5 33.8 2.2-.6 4.5-1.2 6.9-1.8zM917.5 6c24-5.3 50.6-8.4 74.2.7 33.4 13 40.3 43.2 41 76.5-.4 0-.8-.1-1.2-.3-1-29.1-5-57.8-33.5-71.9-31-15.4-66.2-6.7-98.5-.9 5.9-1.4 11.9-2.8 18-4.1zm112.1 59.5c-.1-.6-2.4-18.4-2.7-18.3.5-.5 2.8 18.7 2.7 18.3zm.4 16.8c-.1-3.5-.1-6.1 0-7.5.3 2.6.6 5.2.6 7.8-.1-.1-.3-.2-.6-.3zm2.7 3.4c-.3-.1-.6-.1-.9-.2l.1.1c-.1 0-.3-.1-.4-.1-.3 0-.5-.1-.7-.2v.1c-.2 0-.3-.1-.5-.1l.5.1v1l-.7-1V85c-.1 0-.2-.1-.3-.1-1-1.1-2.2-2.1-3.5-2.8.7.3 1.4.7 2.1 1.1.6.2 1.2.4 1.7.6v-.5c.2.2.4.4.6.7h.1v.2c.2 0 .5.1.7.1.4.1.8.2 1.2.2v1.2zm24.4 2c17.9-.7 35.6-2.7 53.3-5.5-19.4 6.8-47.2 7-67.6 5.8 4.5 0 9.2-.1 14.3-.3zm107.8-15.1c-16.7 4.7-34.1 6.7-51.2 9.3 10.5-2.8 30.3-4.9 51.2-9.3zm100.9-20.3c4.2-.9 11.2-2.3 12-1.9-2.7.8-13.7 2.9-12 1.9zm169.3 30.1c-.1.5-.2 1.1-.4 1.6-1.2.2-2.4.4-3.5.6.2-.5.3-1.1.4-1.6 1.1-.3 2.3-.5 3.5-.6zM1650 54.5h4.9c-3.7.8-10.5 3.6-14.3 2.8 1.2.3 8.1-2.5 9.4-2.8zm54.8 10c0-.2-.1-.4-.1-.6.1.2.1.4.1.6zm.2.9c0-.2-.1-.4-.1-.6 0 .2 0 .4.1.6zm.1.3v0zm0-.1zm-.1-.2v.2c.1-.1.1-.2 0-.2zm0-.1zm0-.6zm0 0zm0 0zm-.4-3.7zm.5 5c0 .3.1.6.1.9 0-.2 0-.5-.1-.9zm.2 1.2zm0 .3v-.2c.4 2.6.3 1.9 0 .2zm.9 8c0-.3-.1-.5-.1-.8 0 .3.1.5.1.8zm0 .3v-.2.2zm.1.8v-.2.2zm0-3.2c0 .1 0 .1 0 0 0 .1 0 .1 0 0zm-.6-2c.1 1 .2 2.1.4 3.2-.1-1.1-.3-2.2-.4-3.2zm-.1-.7c0 .2 0 .4.1.6 0-.3-.1-.6-.1-.8v.2zm-.2-2c.1.5.1 1 .2 1.5-.1-.5-.1-1-.2-1.5zM1365 87.8c.1-.1.1-.2.2-.3.5-.1 1-.2 1.4-.3-.2.5-.5.9-.8 1.4l-.8-.8zm-1.3-2.7c-.2.4-.4.8-.6 1.1l-1-.8c.5-.1 1-.2 1.6-.3zm-403-28.5h.2-.2zm-.5-.8l.6.8h-.2c-.1-.3-.2-.6-.4-.8zM669.5 79.6c-4 1.4-9.5 3.2-9.9 2.6 3.4-.8 11.5-3.7 9.9-2.6zM912.9 9.8c-2.9.6-5.7 1.2-8.6 1.7-.5-.4 10.1-2.7 8.6-1.7zm92.4 6.6c-12.5-7.3-26.2-11.9-40.7-12.6 15.2-.9 32.7 5.6 44.6 15.1-1.4-.9-2.7-1.8-3.9-2.5zm25.7 72.2c.1.8.1 1.4.2 1.9l-.3-1.5c0 .4.1.8.2 1.2l-.8-1c0-.5-.1-1.1-.1-1.6l.8 1zm335.8-4.1c.5-.1.9-.2 1.4-.2l-.9 1.8c-.5.1-.9.2-1.4.3.3-.7.6-1.3.9-1.9zM1702.9 53s.5 3 0 0zm2.3 14zm.1.2zm-.1-.2zm.1.3zm0 0zm0 0zm0 0zm-38.5-4.9c2.9-.7 5.8-1.3 8.5-1.9 2.6.1 5.3.1 7.7.2-11.3 2-25.5 7.9-37 6.7 6-1.6 13.4-3.3 20.8-5zm-5.6-6.8c13.8-1.1 27.7-3.5 41.6-3.7 0 .2.1.6.1.9-3.9.4-7.7.8-11.6 1.2-4-2.1-21.5 1.9-25.9 4.7-8.3 1.7-16.7 3.5-25 5.1-.4-.9.9-1.9 6.5-3.3-2.7 0-5.3 0-7.6-.1 7.2-1.7 14.5-3.3 21.7-5.2.1.1.2.3.2.4zm-628.4 31.2c0 .9.1 1.7.1 2.4 0 .8.1 1.5.2 2l-.5-2.4-1-1.3v-1.9l.4.1.8 1.1zM1705.2 67c-.1-1-.3-3 0 0zm-1.8-11.4c.5 2.7.9 5.4 1.3 8.2-1-6.1-1.5-9.3-1.8-10.9-.1-.4-.1-.7-.1-.9-.1-.3-.1-.3 0 0 0 .3.1.6.2.9-.9.3-.7 1.3.4 2.7zm-17.2-12.1c1.1-2.4 12-3.8 14.4-4.4-.2-1.5.2 1 .9 5.3-7 .5-14.1.9-20.9 2.3.4-.2.9-.3 1.5-.5-4.4.5-8.7 1-13.1 1.7 5.8-1.6 11.5-3.1 17.2-4.4zM468.6 80zm1259.3-16.6c-4.3-15.4-11.3-15.7-14.8-17.9-3.7-1.4-7.7-1.6-11.5-1.2l-1-6c-26.5 5.2-53.1 9.8-79.5 15.5-17.5-1.2-37.7 4.5-55 7.1-15.5 2.3-31 5.1-46.3 8.5 4.4-1.3-4 0-4.7.1-4.5.6-8.9 1.7-13.3 2.6-4.5 1-16 1.5-19.6 3.9 1.6-1.1 4.8-1.1 6.6-1.7-18 2.2-35.6 6.6-53.4 9.6.1-.5.2-1.1.3-1.6 15.5-2.5 30.7-6.1 46.1-8.9 12.9-2.4 25.7-4.7 38.6-7 8.1-1.5 18.4-1.5 25.9-4.9-37 6-73.6 13.8-110.5 20.2 1.1-6.4.9-12.8-1.2-19-1.7-6.3-5.5-12.1-10-16.8 9 9.5 13.2 22.9 10.6 35.9-1.1.2-2.3.4-3.5.6 2.9-12.8-1.6-22.2-7.6-33.3-2.6-3-5.4-5.4-8.8-7.6-6.3-4.1-13.8-3.7-19.7-6.9 1.4.8 3.3.6 4.7 1.3-6.4-3.7-19-2.2-26.1-1.7-16.1 1-32 5-48 7.4 2-.8 10.1-2 8.9-2.5-31.4 4.2-62.2 11.6-93.2 17.8-.1 0 3.1.2 3 0-.1-.2-29.2 6.2-32.2 6.6 6.3-1.5 17.2-3.4 18.9-4.4-20.3 2.2-41.3 7.7-61.4 11.6-15.5 3-30.9 5.9-46.5 8.4-28.7 4.7-60.5 11.4-89.7 7v-1.3c18.4 2.8 37.9.4 56.1-2.1 32.3-4.3 65.8-8.8 97.3-17.4-13 .2-26.6 4.8-39.3 7.2-16.9 3.2-34 6-51.1 8.5-20.5 2.9-42.5 5.8-63.1 2.5-1.2-32.8-7-63.5-40.4-77.1-19.6-7.9-40.3-7.1-60.8-4.3-88.8 12.1-174.7 46-260 72.2-36.2 11.2-76.4 24.4-114.8 23.6-3.1-26.2-7.9-51.4-30.4-68.2-24.5-18.3-56.6-21.2-86.1-21-56.3.4-113.4 11.3-169 21-53.6 9.4-106.6 23-159.5 36-30.3 7.4-60.3 16.1-90.3 24.6-17-4.1-12 40.5-1.5 51.1-5.3-.9-11.8-1.3-19-18.7 1.4 29.1 42.8 20.9 32.2 21.3 71.3-11.8 142.6-23.3 213.6-36.4 59.4-10.9 119-23.8 179.3-28.2 14.3-1.1 35.1-4.1 48.8 3.3 4.3 7.2 3.4 17 4.4 25.1 1.5 12.3 4.3 24.3 12.1 34.1 6.4 8 15.3 13.8 24.6 17.8 25.2 11 55.4 9 81.9 5 47.8-7.2 94.3-22.3 139.8-38.3-27.3 8.5-54.6 17.3-82.3 24.4-37.8 9.8-79.5 20.1-118.6 13.3-15.4-2.7-31.4-9.2-42.2-21.1-8.1-8.9-11.7-20.5-13.3-32.2-1.3-9.6-.1-21.1-5.3-29.4-4.9-2.7-10.5-3.6-16-4.2-.8 1.8-32.1.1-37.7.5-13.9 1.2-27.7 3.1-41.6 5-38 5-75.9 11.9-113.6 19.1-77.7 15-156 26.9-234 40.7-.2.1-1.4.4-5.9.3 1.6-1 3.2-2.8 4.8-5.7C110.4 124 188 112.2 265 97.3c52-10.1 104.5-20.1 157.2-24.9 17.8-1.6 41.9-5.1 58.4 4.6 8 7.7 5.9 25.1 7.4 34.8 1.1 6.9 2.8 14 6.3 20.2 6.3 11.1 17.8 18.4 29.4 22.8 37.3 14 82.4 2.5 119.5-6.4 41.3-9.9 81.4-24.5 121.7-37.6C813.5 95 862.2 81 911.4 67.9c-35.8 7.5-70.4 18.8-105.8 27.8C834 84.2 864 77.2 893.3 68.9c-21.8 4.4-42.9 11.7-64.5 17.1 26-8.7 52.2-15.8 78.9-21.7 17.1-3.8 34.6-8.2 52.3-7.7h.1c.1.2.3.5.4.8h.3l-.6-.8c.1 0 .3.1.4.1 0-.1-.1-.1-.1-.2.1 0 .2.1.3.1l.1.1c.3.1.5.2.8.3.1.3.3.6.4 1l1 .8c-.3-.2-.6-.4-1-.6.1.2.1.3.2.5l-.8-.6-.3-.5c-.2-.1-.3-.1-.5-.2v.1c-.2-.1-.4-.1-.7-.2h-1.2c-4.8 0-9.5.4-14.3 1.2 5.1-.6 10.2-1 15.3-.8.4.1.7.2 1.1.4.9 2.1 1.5 4.1 1.8 6.3 0-2.1-.5-4.1-1.3-6.1.2.1.3.2.5.3l.6.3c7.8 22.8-5.6 50 17.9 66.4 12.3 8.8 26.5 13.3 41.4 15.5 18.1 2.6 37.1 1.5 55.2.1 11.8-1 23.5-2.4 35.2-4.2 9.5-1.5 24.8-7.4 34.1-5.6-1.3-.3-3.3 1.5-4.6 1.3 7.2.7 17.3-3.4 24.3-4.6-.2-.9-12.7 2.7-15.7 2.5 8.6-2.3 17.4-3.8 26-5.7 5.1-1.2 16.2-.7 20.2-3.7-.5.4-2.4-.2-2.7-.1 9.6-4.4 22.5-5.3 32.8-7.7 13.6-3.2 27.2-6.3 40.8-9-15.6 5.3-32.5 6.3-48.1 11.7 46.4-10 92.5-20.9 139-29.9.1.2.3.4.4.7l.6-.8c.2 0 .3-.1.5-.1l1.7 1.4c-53.4 10.8-106.7 22.4-159.6 35.4 53.6-10.2 106.6-23.4 160-34.4-1.3 2.3-2.5 4.5-3.8 6.8-4.4 4.7-5.9 11.7-6.4 17.9 7 32.6 40.4 32.8 67.6 29 21.7-3 43.1-6.9 64.6-11.4 14.6-3.1 29.2-6.1 43.8-9.2 12.3-2.6 25.8-7.7 38.4-7.6-31.2 7.4-62.3 15.1-93.6 22-9.9 2.2-19.9 4.2-29.9 6.3-5.9 1.3-11.8 2.5-17.8 3.5-3.2.5-13 3.8-14.8 3.1 56.5-.3 111.4-22 166.8-30.4 44-6.7 87.4-19.3 131.2-27.8.5 4.3.8 6.9.6 5.3-1.4.2-2.8.4-4.1.8 1.4.1 2.8.1 4.2-.1-.2-2.2-.5-4.2-.7-6.1.4-.1.7-.1 1.1-.2 3.1-2.1 7.2-1.9 10.4-4.6 6.6-5.2 9-13.6 8.4-22z"/><path d="M1694.8 43.2c-5.6 1.1-10.1 2.1-12.7 2.9 1.3-.1 12.8-1.5 12.7-2.9M961.1 57.5c0 .1.1.2.1.2v.1c.3.1.7.3.9.6l-.1-.1.1.1c0-.1 0-.1-.1-.2l-.1-.2-.8-1.1c-.1 0-.2-.1-.3-.1.1.2.2.4.3.7h-.1.1c-.1 0 0 0 0 0M960.6 57.5c.1 0 .1.1.2.1v-.1h-.2.1-.1l-.5-.2c.1.1.2.1.3.2l-1.4-.4.9.3h-.1c.1 0 .2 0 .3.1h.5"/></svg>