<svg xmlns="http://www.w3.org/2000/svg" viewBox="0 0 1460 296"><path class="st2" d="M936.6 92.8c.1.1.5.4.6.5l.2.2.2.2c0 .1.1.1.2.1l.1.1c-.3.1-1-1.9-1-2 .3.5.7 1.2 1.2 1.7 0-.2-1-1.1-1.5-.8m-18.6.9c3.8-1.2 7.6-1.6 11.6-2-2.4-1.6-9.4.9-11.6 2m-36.3 19.4c.3-.7 3.9-2 4-2.5-3.3 2.6-6.5 5-9.9 7.4-1 .8-6.6 4.4-6.5 6.1 14-11.6 28.9-23.1 45.9-29.8-7.1 2.3-13.9 5.8-20.2 9.8.5-.5 2.2-1.5 2.4-2.1-5.6 3.1-10.7 7-15.7 11.1m-70.9 60.6c7.2-5.3 14.2-11 20.9-17-1.6 1-3.8 2.5-4.5 2.6-1.3 1.1-2.6 2.2-4 3.3.7 1.2-11.2 9.8-12.4 11.1m112.8-83.6c-1.3.3-5.2.5-6.3 1.7 1.4-.4 5.3-.5 6.3-1.7m-48.1 26.5c12.6-9.3 25.1-19 40-24.5-14.8 5.2-28.6 13.9-40 24.5m-3.7 3.1c-.3 1-6.6 5.1-7.6 5.9.3-1.1 6.5-5.1 7.6-5.9m-56.4 47.8c12.4-9.6 24.2-20 35.9-30.5-12.4 9.5-24 20.3-35.9 30.5m-236 89.3c.4 9.6 4.9 18.3 11.4 25.2-3.1-5.4-8.5-10.2-9.2-16.8-1.1-.7-2.3-7.7-2.2-8.4m266.3-116.7c19.9-17.4 40.4-36 64.6-47.4-24.6 9.5-45.5 30.1-64.6 47.4M605.3 288.7c-.2 0 7 .9 7.9 1.5-1.9-.1-4.6-.9-6.4-.3 12.3 2 25.7 1 37.4-3.5-3.7 1.1-8.1 2.3-12 2.2-5.7 1.2-11.5 2.2-17.3 1.5 2 .1 4.4.1 6.4-.5-5.4-.1-10.7-.3-16-.9m210.4-122.9c7.8-6 15.2-12.4 22.6-19-7.8 5.3-16.3 12-22.6 19m-13.9 10.7c-1.3.9-4.3 3.3-6.9 5.4-.8 1.3 7.1-5.1 6.9-5.4m-108.7 81.7s-6.7 3.8-6.5 4.4c1.4-.8 3.9-2.6 6.5-4.4m20.2-171.4c1.4-2.9 2.7-7 2.7-10.3-.4 3.6-1.9 6.9-2.7 10.3m231.5 136.4c-2.8.9-5.6 1.4-8.4 2 .5 1 7.3-1.5 8.4-2m-160.6-32.6c.1-.5-1.6.8-4.2 2.9-.7 1 1.7-.8 4.2-2.9M643 164.4c-.1.2-4.9 4.5-4.6 4.4 2.2-2 3.6-3.3 4.6-4.4m11.4-10c3.1-2.6 6.4-5.4 10.5-9-.8 2.7-10.4 5-10.5 9m231.3 27.5c-.1 1.1-1.9 7.6-2.4 8.7.7-3 1.5-5.9 2.4-8.7M700.2 50.1c3.8.5 7.6 1.9 10.5 4.5.8-2.2-8.3-5.2-10.5-4.5M681 51.7c2.4-.3 4.8-.9 7.3-1.3-.9.8-5.7.3-7.3 1.3m35.4 17c.1 2.3-.4 4.7-.1 7 .9-1 .6-7.4.1-7M581.9 245c-3.3 17 4 30.5 16.4 41.5 28.1 5.7 53.3-2 77.3-16.7-11.9 6-23.4 12.5-36.4 15.9-13.6 3.5-26.9 3.1-40.6.4-13.9-12.4-20.4-27.8-15-46.2 0 .1-1.6 4.5-1.7 5.1m8.6-146.8c2.7-1.8 4.6-3.2 5.7-4.4-2.3 1.3-5.4 3.8-5.7 4.4M695.1 49c2 .1 4 .3 6 .4-.5.4-4.8-.9-6-.4m-17.4 3c.6-.2 6.2-1 6.3-1.7-1.8.3-3.6.5-5.4 1-.2.2-1.4.6-.9.7m209.8 159.8c5.9 14.2 26.8 16.9 40 14.4-14.5 1.2-31.5-1-40-14.4m-1.2-29.7c-3.6 8.4-4.3 18.9-.2 27.3-2.3 1.3-2.2-28.3.2-27.3m29-42.1c1.1-1.1 3.4-3.9 5.3-6.4-.2.5-6 5.7-5.3 6.4m193.3-14.1c-.2.2 6.4-.4 5-.7-1.7.1-3.3.5-5 .7m-197.3 18.6c-1.3 1.4-19.5 23.4-18 23.9 2.9-4.5 6-8.8 9.4-12.9 2.3-3.1 7.5-7.2 8.6-11M622.6 287.2c-8 0-15.6-.7-23.5-2.1-1.1-1-2.1-1.9-3.2-2.9.4.7 1.1 1.2 1.7 1.8 8 2.7 16.4 4.4 25 3.2m90.5-233.3c2 2.9 3.7 5.6 4.8 8.9-.5-2.8-2-7.5-4.8-8.9m397.4 71.2c14.8-2 26.3 2.4 22.2 18 4.9-15.8-7.3-21-22.2-18M711.1 51.9c-5.8-5.1-15.1-4.8-22.2-3.9 8.3-.1 15 .1 22.2 3.9m363 85.6c.1.1.1.2.2.3 10-4.9 21.2-7.4 31.1-12.3-11.1 2.5-21.5 6.7-31.3 12M349.3 286.7c1.6-.4 11.2-3.1 11.5-4.9-1.7.7-11.2 3.4-11.5 4.9m-25.6 5.3c5-.3 9.8-1 14.6-2.1-.2-.5-13.2 1.7-14.6 2.1m-52.2-18.1c-24.9-20.5-16.1-65 1.2-87.2-15.8 19.4-22.2 50.3-11.8 73.5 7.7 17.1 28.5 27.7 46.2 30.8-13.2-3.1-24.7-9.1-35.6-17.1M286.7 171c-1.5 1.5-4.6 3.7-5.2 5.8 1.6-1.8 4.3-3.6 5.2-5.8m18.3-18c-1.3 1-4.6 4.2-4.5 4.5.6-.5 4.8-3.7 4.5-4.5m44-41.7c-5.9 5.9-14.4 14.2-22 21.3 7.8-6.4 15.6-13.6 22-21.3m-41-72.1c.8-.2 5.4-1.1 5.7-2-1.1.2-5 .7-5.7 2m1111.7 104.5c-.4.1-.7.2-1.1.3.2 1 8.7 3.6 9.8 4.1 3.4 1.7 6.7 3.7 9.8 5.9 7.7 5.7 14 13.1 18.6 21.5-1.8-2.3-3.1-2-4.4-3.4 1.5 3.1 8.5 10.5 7.5 13.9-3.9-6.2-7.6-13.1-13.2-18 0 0 2.8 4.3 2.7 4.7-.2-.3-3.4-3.4-3.4-3.5 0 .1 1.7 3.2 1.6 3.2-1.8-1.7-5.7-7.7-8.5-8.2-.2 0 .5 1.4.4 1.5-3.4-2.7-6.6-5.8-10.6-7.6.4.7 7.8 6.6 8 6.6-2.2-.8-4.4-3.7-6.8-3.8-.1.5.2.9.9 1.2-1.3-.9-5.1-2.1-6-3.1.9 1.2 3.3 2.3 4.5 3.2-3.3-1.9-6.7-2.8-10.3-4.1.8-.5 5.8 3.7 6.2 3.8-3.4-1.7-9-2.7-11.8-4.4 2.2 1.3 4.9 1.8 7.2 2.8-5.4-1.1-10.7-2.6-16.2-3.3-4.3.4-8.7.3-13.1.4.4-1.2 21.9 3.1 23.8 4.5-16.2-4.4-32.3-1.3-47.7 3.7 9.2-.9 18.2-2.8 27.6-2.5-3.4.4-6.7.7-10.1 1.2.2.2.8.3 2.3.2-4 1-8.3 1.2-12.4 2.1-.2.5 4.4.5 4.8.5-2.2.5-4.4 1-6.6 1.6.1.2 4.2-.1 4.5-.3-3.6 2.7-12.3 3.1-16.7 4.6-6.3 2.1-12.4 4.5-18.5 7.1 1.8-.1 11.4-5.2 12.4-3.9-29.5 11.6-57.7 26.3-84.5 43.1-11.2 7-23 13.1-34.4 19.8-5.3 3.1-10.9 5.9-16.4 8.7-4.1 2.1-11.3 6.6-15.8 6.2.1 0 4.6-2.6 4.9-2.8-11.1 1-22.2 8.2-33.1 10.8-13.6 3.3-28 5.5-42.1 3.8-22.5-2.8-38.4-18.7-36.9-42.2 1.6-24.8 18.4-45.4 29-66.9 2.9-5.9 10.9-19.9 4.7-26.8-8.5-8.5-27.4-2.8-37.2.7-17.7 6.2-34.1 17.2-49.2 28-15.2 10.9-28.9 23.5-43.9 34.7-17 12.7-34.7 21.4-54.4 29.2 1.5 0 8.5-2.5 2.9-.2 28.1-9.1 51.7-26.6 74.1-45.2-8.1 9.3-19.9 16.5-29.8 23.7-10.3 7.5-21.9 13.2-33.5 18.5 10.9-3 21.1-9.9 30.5-16.1 10.9-7.2 21.1-15.2 31.2-23.4 19.2-15.5 38.6-30.1 60.7-41.1-1.4 3.6-12.5 7.3-16 9.2-7 3.8-13.9 8.4-20.2 13.3-6.1 4.7-11.8 10-17.9 14.7-5.4 4.2-13.6 8.8-17.4 14.6-9.2 5.6-17.4 12.8-26.5 18.5-9 5.6-18.5 10.4-28.4 14.1-14.3 5.3-30.5 9.4-45.9 7-16.5-2.7-29.8-14.6-30.1-31.9-.3-19.3 13.4-37.6 25.4-51.5 8.1-9.4 16.1-19 22.9-29.3 3.1-4.7 6.1-9.6 8.4-14.7.9-2 4.4-10.3 3.5-11.4.1.1.1.2.2.3l.1.1-.2-.2c-6.5-5.4-18.2-2.3-25.2.1 8.1-2.6 17.7-4.3 25.1.5-.3-.2-.6-.8-.7-1.1 1.2 2.8-2.3 9.2-3.5 11.8-2.5 5.5-5.8 10.6-9.1 15.6-6.6 9.7-14.1 18.7-22 27.3 8.9-10.6 17.7-21.4 25-33.1 3.5-5.6 7.4-12 8.7-18.6.1-.5.7-2.3.3-2.9V91c0 .1.1.2.1.3.2.5 1.3 1.8.3.7-1.5-1-3.1-1.3-4.8-1.6 1.7.4 3.8.9 5 2.4-.2-.1-.3-.3-.5-.5-.1-.2-.3-.4-.4-.6l-.3-.6V91v.1c-.4 7.5-5.2 15-9 21.1-5 8-10.8 15.6-16.9 22.8 8.1-11 15.2-21.2 20.8-33.6-9.4 17.1-21.3 32.1-34.5 46.4 6.8-8.3 13.8-16.5 20.3-25.1 3.4-4.5 6.9-9 9.5-14 2.5-5 4-11.9 7.1-16.4 0-.2 0-.6-.1-.8.4 1.2.7 2.5 1.8 3.5v-.1l-.1-.1c-4.1-7.1-24 2.4-28.8 4.4-9.6 4.1-18.1 10.5-26.2 16.9-10.7 8.4-20.5 17.8-30.9 26.6-8.7 7.4-17 15.7-26.2 22.3-19.1 13.7-36.6 29.7-55.3 44.1-20.7 15.9-42.6 30-63.8 45.3.6-.3.7-.6.3-.7-8.3 2.5-13.3 13.7-22 15.1-13.7 8.7-27.1 16.8-43 21-15 4-29.6 3.5-44.7.6-3.4-3.1-6.7-6.1-9.4-9.8-3.4-4.7-4.6-11.5-8-15.9 1.4 1.8 1.8 6 2.9 8.2-7.9-12.8-4.7-30.7 1.3-43.5 8.4-17.9 22.5-33 36.5-46.8 19.1-18.9 39.9-35.8 60-53.6 16-14.1 30.4-32 34.9-53 2.2-10.1-1.9-24.2-14.7-23.9-12.1-2.8-26 3.5-37.1 7.8-6.3 2.4-12.5 5.1-18.6 8.1-3.4 1.6-6.7 3.4-10 5.2-2 1.1-5.3 3.9-7.5 4.1l.4-.7c-2.9.2-7.4 4.3-9.7 5.8-3.6 2.3-7.2 4.6-10.8 7-6.9 4.6-13.8 9.4-20.4 14.4-9.8 7.3-18.9 15.2-28.4 22.9-1 .3 2.5-2.3 1.5-2-58.6 46.5-108.6 103.7-170.7 146 45-36.5 89.1-73.5 131.1-113.4-.9.4-5.9 5.4-5.8 4.7 1.8-1.6 11.2-12.5 13.3-12.1l-.6 1c.1-1.1 6.2-5.4 7.4-6.4 3.1-2.8 6.3-5.6 9.5-8.4-1.4.4-4.4 3.3-4.3 2.4-30 25.7-58.1 53.4-88.1 79.1-28 24-56.6 51.8-90.5 67.2 35-17.7 64.9-45.8 94.4-71.3 30.6-26.5 59.3-55.1 90-81.4-20.9 16.5-39.6 35.7-59.3 53.6-21.4 19.4-43.4 38.1-65.7 56.5-31.6 26-70.6 58.8-114.7 49.6-13.2-2.8-27.4-9.6-37-19.5-15.2-15.5-14.8-41.7-8.9-61.1 3.5-11.5 9.6-20.9 17.3-29.9 14.3-16.7 30.8-31.3 47-46.2 17.1-15.7 34.4-31.7 48-50.6 7.2-10 19.4-28.3 11.2-40.7 3.9 5.2 3.1 12.4 1.3 18.2-4.5 15.2-15.7 28.4-25.9 40.1 9.7-10.3 19.3-22 24.7-35.2 3.4-8.3 5.7-19.6-2-26.4-7.6-6.8-20.2-7-29.8-6.6C306 35.3 263 59.2 223.9 79.5c12.4-7.2 25.1-13.9 38.1-20 6.9-3.3 14-6.4 21-9.3 6.6-2.7 14.7-4.6 20.7-8.5-16.5 5.2-33.3 12-48.8 19.8 13.5-7.8 28.2-13.2 42.7-18.8-34.8 11.9-67.4 29.5-99.2 47.8a996.54 996.54 0 0 0-57.4 35.6c-9.3 6.2-18.4 12.5-27.5 18.9-4.4 3.1-8.7 6.2-13.1 9.4-2 1.4-12.2 7-12.9 9.3.5-1.6 4.8-3.1 4.8-4.8-4.8 3.3-10.1 5.9-14.8 9.3.8-.5 1.1-1 .8-1.7-2.8-.2-7 3.9-9.4 5-.3-.3 2.4-2.7 3.3-3.8-.7.7-1.5 1-2.4.8-.3-.4.4-2-.6-1.9-2.2.4-4.5 2.5-6.1 3.7-.9.2 2.2-2.5 1.3-2.3-4.9 3.1-10.1 6.8-15.6 8.9-9.2 7.1-19.4 12.2-28.2 19.9-6.1 1.5-12.2 8.1-16.9 12 1.9-3.7-2.8-.7-3.7-2.1-.8-1.2 4.8-7.4 5.5-8.8 35.5-38.8 78.9-69.8 122.7-98.4 43.8-28.6 88.9-56.2 137.3-76.6C292.4 11.6 321.4 1.4 350.8.1c21.5-.9 45 3.9 58.7 22 28.9 38.1-10.1 85.3-36 112.1-16.4 17-34.4 32.4-51.3 48.8-8.1 7.9-16.4 15.9-23.2 24.9-7 9.3-13.8 28.8-6.3 39.8 0 0 .1 0 .1.1v.1c-.6.6-1.2 1.2-1.7 1.8 3.2-3.8.9-1 1.7-1.8 30.6 24.1 64.8.2 90.3-20.3 24.4-19.6 48.3-39.9 71.7-60.8 24.1-21.5 46.9-44.5 71.8-65.1C550 82.4 574.1 63.5 600.2 48c26.5-15.7 56.7-31.3 88-34.2 30.3-2.8 58.6 13.8 64.1 44.9 5.3 30-10.6 59.8-29.7 81.7-19.3 22.1-43.8 39.5-65.1 59.6-12.3 11.6-25.1 23.6-34.6 37.7-3.3 4.9-6.4 10.2-7 16.1.3 1.7.9 2.6 2.2 3.8l-8.8-4.3c14.8 2.8 29-2.4 41.8-9.4 19.2-10.4 36.2-24.5 54.2-36.7 34.3-23.3 67.2-49.2 99-75.8 19.8-16.6 38.5-34.4 59.3-49.7 14.9-11 31.5-21.6 50-25.3 20.7-4.1 48.5-.9 57.6 21.4 9.7 23.8-9.3 51.1-22.9 69.2-6.7 8.9-14.2 17-21.1 25.6-3.8 4.7-7.4 9.7-10.2 15.1-1.4 2.8-1.7 7-3.2 9.5-1.2.1-2.6.4-3.6 1 1-.6 1.7-1.9 2.3-2.9 27.5 4.6 56.4-15.7 77-31.9 28.3-22.2 55.5-46.3 89.5-59.7 24.3-9.6 61.5-15.6 78 10.5 11.1 17.5 5 37.5-3.3 54.5-6.6 13.6-15.2 26.2-21.5 39.9-2.9 6.5-7.6 16.3-3.8 23.3.3.2.5.5.8.7 8.4 5.5 21.3 3.1 30.4 1.3 22.4-4.4 43.9-13.8 64.2-23.9 41.1-20.3 79-47.1 122.9-61.6 23-7.4 49.4-12.5 73-4.7M990 209.9c-6.4 4.2-13.1 8-20 11.3-4.4 2.1-8.9 4-13.4 5.7-3.2 1.2-10.1 4.9-13.6 4.2.3-.2.6-.4.9-.5 16.4-4.5 31.6-12 46.1-20.7m-94.1 19.5c-13.2-5.9-20.7-19.5-20.3-33.7.2-8.1 2.8-15.9 6.3-23.1 1.7-3.5 3.6-6.9 5.7-10.2 1.8-2.8 5-6 6.3-8.9-3 7-8.9 13.2-12.2 20.3-3 6.5-5.3 13.4-5.7 20.5-1 14.9 6.5 28.5 19.9 35.1m-1.9-72.7c2.6-4.4 6.2-8.7 9.8-12.3-3 4.2-6.5 8.2-9.8 12.3m79.9 59c-20.4 10.6-46.7 20.3-69.9 13.6 24.6 5.2 47.6-4.4 69.9-13.6m-79.8-57.2c.5-2.7 4.3-6 5.9-8.1.4.3-5.4 7.6-5.9 8.1m206.3-26.5c-4.7 1.4-9.6 2.8-14.1 4.8 2.8-1.8 6.1-3.1 9.2-4 .2-.1 5.5-1.3 4.9-.8m32.2 136.6c-13.8-1.5-26.8-7.6-34-20-8.4-14.4-6.1-32-.5-47 8.7-23.4 26.4-42.8 31.4-67.5 2.3 7.3-4.1 17.6-7.2 23.4-6.7 12.7-14.7 24.6-20.6 37.7-4.9 10.8-8.5 22.6-7.8 34.6 1.3 21.9 18 35.7 38.7 38.8m124.1-38.2c-1.7 2.9-8.1 5.2-10.8 6.6-4.3 2.2-8.8 4.4-13.4 5.9 7.7-4.7 16.2-8.2 24.2-12.5m-33.3 17.8c-19.8 8-40.1 17.4-61.6 19.7 21.3-3.9 41.3-12.4 61.2-20.6 0 .4 3.1-.7.4.9m-169.7-94.6c.2.5-15.7 12.5-16.4 12 5.5-3.9 10.7-8.3 16.4-12M380.5 275.2c-.9-.3-10.2 6.3-11.8 7 2.9-2.9 8.4-4.7 11.8-7m-112.8.2l-.3.3c-2-1.7-3.9-3.7-5.4-5.9-.5-.8-2.7-5.7-3.1-5.9 2 4.4 5.3 8.3 8.8 11.5m929-19.4c1.5-.4 5.2-1.8 5.1-1.4-3.8 1.5-5.5 1.9-5.1 1.4m-834.3 29.3c-19.1 9.7-41.1 13.7-62.2 8.1 21.1 4.5 43 1.5 62.2-8.1m-108.3-34.6c-1.2-3.7-1.8-7.3-2-11.2l.4-1.6c.4 4.2.9 8.4 1.6 12.8m-1.6-15.9c-3-21.1 9.6-43.1 23.2-58.2 13.6-15.1 28.7-31.5 45.2-43.3-17.7 16.7-36.2 33-51.4 52-11.2 13.9-16.9 31.7-17 49.5m36.6-70.6c8.4-8.2 16.5-17.5 26-24.4-8.5 8.2-16.9 16.9-26 24.4m34.1-32.1c2.1-2 3.5-3.2 4.6-4.1.2.3-5.2 5.2-4.6 4.1m14 159.8c3.8-.8 7.6-1.8 11.3-3-1.3 1.3-11.2 2.4-11.3 3m-42.2-2.5c-3.9-1.2-7.6-2.9-11.2-4.8 1.2 1.8 9 4.1 11.2 4.8m-39-69.5c.6-4.4 1.7-8.9 3.4-13-.5 4.3-2.3 8.8-3.4 13m7.1-21.4c5.9-12.5 16.1-22.9 25.6-32.6 14.5-14.7 30.2-28.1 45.2-42.3-1.9.3-6.6 6.6-8.3 8.1-3.9 3.7-7.9 7.3-11.8 11-7.6 7-15.1 14.1-22.4 21.4-10.4 10.4-21.5 21.4-28.3 34.4M95.9 161.4c28-20.5 56.8-39.5 86.1-57.9-30 17.3-58.7 36.8-86.5 57.5.2.1.3.2.4.4"/></svg>