<svg xmlns="http://www.w3.org/2000/svg" viewBox="0 0 656 144"><path d="M363.7 57.1c.1 3.2 0 9.3.3 10.9-.1-3.5 0-9.5-.3-10.9M403.9 126.6c-15.9 1.8-29.8-5.4-36.5-19.7-2.7-5.6-3.3-11.7-4.4-17.7 1.1 29.1 25.6 44.9 53.9 35-4.2 1.1-8.6 2-13 2.4"/><path class="st2" d="M1.8 108.2C.7 102.4 3 97.3 7.3 93.5 32.1 74 57.8 57 84.6 40.3c-21 12.4-41.9 25.1-61.2 39.8-8.9 6.7-36.1 24.2-16.3 36-5-3.6-4.1-5.9-5.3-7.9"/><path d="M22.7 117.9s.1 0 .1-.1c-.2-.2-.7-.3-.1.1M370.2 109.8c2.2 4 5.7 8 9.7 10.5-4.8-3.3-7.8-8.2-10.8-12.9.3.9.7 1.6 1.1 2.4M406.5 125.2c5-.7 8.4-1.8 10.5-2.6-3.3 1-7.3 1.2-10.5 2.6M394.5 125.8c1.7.1 3.4.2 5.2 0-5 .3-9-1.3-13.8-1.9 2.8 1.1 5.7 1.6 8.6 1.9M511.6 117.7l-.3-.8c.1.3.2.5.3.8M293.6 95.6c3.4-3.2 9.9-8.6 11.9-10.8-3.1 2.6-10.6 9.1-11.9 10.8M483.5 49c4.2-2.2 7.9-4.3 11-5.9-16.9 8.7-33.8 17.6-50.1 27.3 13-7.2 26-14.4 39.1-21.4M177.2 52.7l.6 1.2-.6-1.2zM176 51.1c.2.3.5.6.7.9l-.7-.9zM176.2 51.1l-.4-.3c.2 0 .4.1.6.1l-.7-.2-1-.7c.2.2.5.4.7.6l-.4-.1c.2.1.3.1.5.1h.1c.3.3.4.4.6.5"/><path d="M269.7 116c-19.6 16.1-56.6 43.1-78.2 15.2-7.2-9.3-8.4-20.2-9.1-31.6-.7-10.4 2.7-40.1-6.8-48.8-9-1.1-18.2 3.4-26.3 6.5-13.8 5.4-26.8 12.3-39.9 19.1-28.5 14.8-57.6 27.9-86.6 41.4.3.4-.3 1.2-8.6.8 8.4 1.4 15.7-1.6 8.8 0 28.9-13.1 57.8-26.1 85.8-40.8 13.4-7 26.8-14.2 41-19.7 7.8-3 16.6-7.3 25.3-6.4 5.6 5.4 4.8 17.5 5.2 24.7.8 14.6-.7 31.8 5 45.7 21.6 52.7 83.7-3.7 106.3-25-7.3 6.4-14.5 12.8-21.9 18.9M7.1 93.6c0 .1 0 .1 0 0 .1-.1.2-.1.2-.2 0 .1-.1.2-.2.2"/><path d="M10.8 118.4c1.3.1 2.4.2 3.5.2-2.4-.4-4.9-1.2-7.2-2.5 1 .7 2.2 1.5 3.7 2.3M362.3 36.9h-.2.2M362 37.3c0 .1.1.1.1.2l-.1-.3v.1M396.7 88.6v-.2.2zM361.7 36.5zM395 88.5l.5.6c-.1-.1-.3-.1-.4-.2l.5.4.1.1.1.1h-.1.1l.4.2h.1c-.1-.1-.2-.2-.3-.2l.9.2c-.2-.1-.4-.1-.6-.2-.1 0-.3 0-.4-.1l-.2-.2h-.1c0-.1-.1-.1-.1-.2-.2-.1-.3-.3-.5-.5M361.8 36.7c0 .1.1.2.1.3l-.1-.3z"/><path d="M394.6 87.9l.2.5.1.4s0 .1.1.1v-.2l.1.2c-.1-.2-.2-.4-.2-.6-.1-.1-.2-.3-.3-.4 0-.1 0 0 0 0M397.2 89c-.1-.1-.3-.2-.4-.4v.1l.4.3zM396.8 89c0-.1 0-.2-.1-.3l.1.3zM396.2 88.3s-.1 0 0 0zm-.1 0zm-.1-.4zm.2.3s-.1 0-.1-.1V88l.1.2zm.3.2h.2-.2c0-.1 0-.1 0 0l-.1-.1-.3-.3v-.1h-.1.1v-.1c0-.1-.1-.1-.1-.2-.1-.2-.3-.4-.4-.5l.4.8-.1-.1.1.1v.2c-.1-.1-.3-.1-.4-.2l.4.3v.1h-.2.2l.2.7c0-.2-.1-.4-.1-.7h.1l.2.2.2.3c0-.1-.1-.1-.1-.2l.2.1v-.1l-.2-.2z"/><path class="st4" d="M652 59.2c-.6 2-2 3.8-3.9 4.8.8-.5-5.6 3.3-6.5 3 2-1.2 4.1-2.4 6.2-3.6 7.3-3.8 3-15.2-5.1-13.2-3.7 1.1-9.7 2-12.8 4.5.9 1.2 2.2 1.2 3.8.2-2 1.1-3.7 2.1-5 2.8.6-.6 1.2-1.1 1.9-1.6-3.1 2.7-8.9 4.8-12.6 7h-.2c4.8-2.4 2.4-2.7 1.1-3.2 1.2-.8 2-1.5 2.4-2-.4 0-1.5.6-3 1.4-.1-.4.6-1 2.8-2-.6.1-1.2.2-1.7.3 1.2-.8 2.1-1.5 2.3-1.8-1.1.5-2.6 1.4-3.8 2-.2 0-.4.1-.7.1 2.3-1.5 4.2-2.8 6.3-4.1.7-.1 1.4-.3 2-.3 1-.7 2.7-1.8 4.9-3.1.2.4-5.5 3.6-4.6 3 1-.1 1.6-.1 1.7.2 4.4-1.2 10.3-3.1 15.1-4.2 5.8-1.3 10.9 4.2 9.4 9.8zm-136.4 12c-.1-.2-.1-.3-.2-.4.2-.1.3-.2.5-.2 0 .3-.1.7-.1 1-.2-.1-.2-.3-.2-.4zm-1-1.6c.5-.3 1-.5 1.5-.8-.1.3-.2.7-.2 1-.3.1-.6.3-.8.4l-.5-.6zm-18.5 9.7c.1-.6 6.9-4.1 10.3-6.1-1.2 1-6 3.7-10.3 6.1zm-7.3 4.2c1.4-.3 4.2-2.8 5.8-3.5-.7.7-2.9 1.9-5.8 3.5zm-6.5 3.8c.9-.7 4.1-2.5 5.1-2.9.4 0-5.7 3.6-5.1 2.9zm-120-50.5l.6-.1c-.1.1-.3.1-.6.1zM186.4 12.9c1.5.5 2.9 1.2 4.2 2-.7.4-7-2.7-7.7-2.9.1 0 1.6.3 3.5.9zm22.3 22.5c5.1 11.3 6.6 24.3 7.1 36.4-1.3-13.9-2.8-29-9.8-41.4.9 1.5 1.8 3.2 2.7 5zm7.8 53.3c.3.2.5 6 .4 7.2-.2-1.7-.5-5.5-.4-7.2zm20.9 3.3c28.3-21 52.5-46.9 81-67.7-12.8 13.6-30.2 25-44.4 37.4-13.4 11.8-26.6 25.2-42.2 34.3 1.8-1.2 3.5-2.4 5.6-4zm113-86.5c1.2-.6 3.6-.9 4.5-1.5-1.8.6-3.4 1.1-5.3 2 0 0 .3-.2.8-.5zm37.6 14c2.3 4.9 3.5 10.3 4.3 15.7-1.7-6.7-3-13.2-6.4-19.3.4.5 1.1 1.7 2.1 3.6zm5.4 26.4c.4-.2.1 6.9.2 7.1 0-1.4-.4-7.1-.2-7.1zm1 20.7c-.2.1-.1 3.9-.4 3.2-.1-4-.4-10.8-.1-12.6.3 1.9.2 7.2.5 9.4zm.2 19.8l.3 1.8c.2.3.4.6.6.8.1.1.1.1.2.1v0l.1.1c.2.1.4.2.6.2 3.2.4 6.9.3 10-.6-2.3 1.7-7.5 1.1-10.1.8h-.1c-.2-.1-.4-.1-.6-.2l-.3-.3c0-.1-.1-.1-.1-.2l-.1-.1h.1c0-.1-.1-.1-.1-.2v.2l-.1-.2c-.1-.1-.2-.3-.3-.4 0-.1-.1-.3-.1-.5l-.1-.3c0 .1.1.1.1.2-.2-1.4-.4-2.9-.4-4.3v.7c0 .2.6 3.6.4 2.4zm1.7 2.7zm20.1-3.8c4.4-1.8 8.7-3.6 13-5.6-6.6 3.9-14.5 7.1-21.9 9 2.1-.8 5.1-1.8 8.9-3.4zm56.3-29.2c1.6-1.1 3.4-2 5.3-2.6-1.2.7-5.9 3.4-5.3 2.6zM542.8 85c-.1.3-.1.7-.2 1.1-.1.1-.2.1-.3.2.1-.3.1-.7.2-1 0-.2.2-.3.3-.3zm1.4-.8c-.1.4-.1.7-.2 1.1-.3.2-.6.3-1 .5.1-.4.1-.7.1-1 .4-.2.8-.4 1.1-.6zm-26.9-15.1s0 .1 0 0v.1c-.1 0 0-.1 0-.1zM395.1 89.3l-.1-.3c.1.1.1.2.1.3zm0 .1c0-.1 0-.1 0 0zm1.4.5l-.2-.1c.1 0 .1.1.2.1zm-145.3-7.4c1.3-1 4.3-3.8 3.8-3-1.5 1.4-3.5 3.2-3.8 3zm110-46.9c-.3-.3-.6-.6-.8-1l.8 1zm156 34.4v-.1c.1-.1.3-.1.4-.2 0 .1.1.2.2.3-.3 2.8-.8 5.7-1.6 8.3 0-1.8.6-5.2 1-8.3zm116.9-15.1c2.2-.3 4.7-.8 6.5-1-3.8 1.4-3.4 1.9-3.7 2.8-2.4 1.3-4.5 2.5-6 3.1-1 .1 1.9-1.5 1.3-1.5-2.1.9-6.1 3.2-10 5.5-.5.2-.9.3-1.4.4-.1-.1-.2-.2-.2-.3 3.3-2 6.6-4.1 9.1-5.7-.2-.3 2.2-1.9 4.4-3.3zm21.8.3c-1.1-6.4-7.7-10.7-14.2-9.2-4.1 1-8.2 2.1-12.1 3.6 1.6-1.1 3.5-2.3 4.4-3-4.5 1.4-8.4 4.6-12.9 6.1-.3.5-.3.9-.6 1.4-2.4 1.3-4.8 2.6-7.1 3.9-.6-.3-.3-.8 1.3-1.8-18.9 2.9-36.2 11.3-53.1 20.4-1.7 1.1-12.7 5.7-16.6 8.6.8-.5 1.7-1.1 2.5-1.6l-3 1.5c.1-.4.1-.8.2-1.1 8.3-4.5 21.2-8.4 28.3-14.6-9.6 4.5-18.9 9-28.2 14.1 1.7-9.5 3.1-19.1 1.1-28.6 1.6 9.6.1 19.4-1.5 28.9-.3.2-.7.4-1 .6.1-1 .2-1.7.1-2.1-.1.7-.3 1.5-.5 2.3-.1.1-.2.1-.3.2.3-1.4.5-2.7.7-3.5 1.5-.2 2-12.6 1.9-14.2.1 1.3-.1 2.5-.5 3.7.6-4.9-.7-10.3.1-15-.7-4.2-2.2-7.8-3.8-11.5.4.8.7 1.6 1.1 2.5-.5-7-10.5-11.8-16.7-12.5-9.3-1-17.7 4.5-25.7 8.3.8-.6 4.5-2.3 3.9-2.4-14.2 6.2-27.5 14.2-41.1 21.6-.1.1 2.4-1.1.8 0-4.4 2.5-8.7 5.2-13.3 7.3 2.7-1.6 7.4-4.1 8.1-4.8-18.5 8.1-39.7 27.2-61.4 24.8-.1 0-.1 0-.2-.1-.1 0-.2-.1-.2-.1l-.1-.1c-.1-.2-.3-.4-.4-.7-.2-1.3-.4-2.6-.5-4 1-3.2-.2-8.8-.2-12.1-.2-9.3-.1-18.7-.9-28-.8-9.4-2.1-19.3-6.9-27.6C378.2.2 362.9-1.8 347.1 6.3c14.8-8.5 30.6-6.7 40 8.3 5.2 8.2 6.7 18.1 7.6 27.5 1.2 12.3 4 30 1.3 42 .1 1.2.3 2.4.5 3.6 0 0-.1 0-.1-.1l.1.1v.1s0 .1.1.1h.1c.1.1.2.3.3.4.1 0 .1 0 .2.1h.5l.1.1v-.1h.1l.4.3-.3-.3c13.8 1 30.4-8 41.3-14.9-13.7 4.3-26.4 16.1-41.7 14.5-.1-.1-.1-.2-.2-.3-4.1-25.4 5.2-106.2-47-83.8-27.9 12-51.3 35.1-73.7 54.7-16.6 14.4-35.3 36.7-57.6 43.3-3.6-30.6 3.1-87.7-41.6-91.7-26.8-2.4-58.8 14.4-81.1 27.1-29.7 16.9-57.9 36-84.8 57-.2-.4-.2-.4 0 0-5.6 4.4-9.2 11.9-3.9 18.2 16.2 5.2 15.9 4 14.8 3.1 27.8-12.7 55.7-25.2 82.8-39.2C117.8 69.3 131 62 145 56.2c8-3.3 23.4-11.7 32-7.7 5.5 4.7 6 15.1 6.6 21.6 1.2 13.8.2 28 2.6 41.7 2 11.3 8.2 22.9 19.8 27.1 25.9 9.3 54.6-18.3 71.6-33.7C302.7 82.4 327.7 58.7 357 41c-15.3 8.2-28.4 19-42 29.6 10.1-10.3 22.1-18.5 34-26.7-9.1 5.3-17.3 11.8-25.6 18.2 10.8-9.6 24.2-20.5 38.2-25.5.1.2.1.4.2.5-2.7 1-5.4 2.6-7.9 4.1 3.2-1.8 5.9-3.2 7.9-3.9 1.2 5.5 1.5 11.1 1.9 16.6-.1-4.9 0-12.1-1.8-16.7V37c-.1-.2-.1-.4-.2-.5 0-.1-.1-.1-.1-.2-.1-.2-.2-.4-.3-.7l.4.8c.1 0 .3-.1.4-.1l.2.5c-.1 0-.3.1-.4.1v.2c.1-.1.3-.1.4-.1 4.2 21.3-2.2 44.5 4.9 65.2 7.7 22.5 34.7 29.4 55.6 18.1-.7.3-1.4.7-2.1 1 3-2 8.1-3.4 11.4-4.9-.1-.3-6.5 2.8-7.2 3 5.3-2.7 10.8-5.1 16-7.7.8-.4 6.7-2.7 3.9-2 10.4-2.6 22.1-13.5 31.6-18.9-6.4 4.8-14 7.8-20.4 12.6 19.2-11.3 37.9-23.3 57.8-33.5l.4.7c-22.4 11.7-43.8 25.3-65.4 38.5 22.5-11.8 43.1-26.6 65.7-38l.2.3c.3.2.6.4.8.8-2.1 14.2-9.2 30-2.3 44 14.3 29.2 53.3-7.7 70.1-13.4-15.3 9.6-51.7 39.3-69 18.9l.5.6c-1.3-1.4-2.4-2.9-3.1-4.6v.1c-1-1.8-4.8-9.8-3.9-11.8.4 26.7 26.5 26.7 46.1 18 33.8-15.1 63.4-39.7 96.1-56.9 4.3-2.3 6.6-7.1 5.9-11.9z"/><path d="M397.2 88.6c-.2-.1-.4-.1-.5-.2l.5.2zM642.5 49.5c-.3.1-.7.2-1 .3l1-.3zM625.8 53.5h-.3c-.3.2-.6.5-.8.6.3-.1.7-.3 1.1-.6M648 64c.1 0 .1-.1.2-.1l-.7.3c.1 0 .3-.1.5-.2"/></svg>