<svg xmlns="http://www.w3.org/2000/svg" viewBox="0 0 3000 856"><path class="st2" d="M1722.8 482.2c.2.2.8.7 1.2.8.1.1.3.3.4.3.1.1.2.2.4.3.1.1.2.2.3.2l.2.2c-.6.2-1.8-3.4-1.8-3.7.5.9 1.3 2.2 2.2 3-.1.1-2-1.5-2.9-1.1m-34.3 1.7c7-2.3 14-3 21.3-3.7-4.3-2.8-17.2 1.7-21.3 3.7m-66.7 35.7c.6-1.2 7.1-3.6 7.4-4.5-6 4.7-12 9.2-18.2 13.6-1.9 1.4-12.2 8.1-12 11.3 25.7-21.3 53.1-42.5 84.4-54.9-13 4.3-25.5 10.7-37.1 18 1-.9 4-2.8 4.5-3.9-10.3 5.7-19.9 12.9-29 20.4M1491.4 631c13.3-9.8 26.1-20.2 38.4-31.3-3 1.8-6.9 4.7-8.3 4.9-2.4 2-4.9 4.1-7.3 6.1 1.3 2.1-20.6 18-22.8 20.3M1699 477.3c-2.5.5-9.6.9-11.5 3.1 2.4-.7 9.5-.9 11.5-3.1m-88.6 48.9c23.2-17.2 46.2-34.9 73.6-45.1-27.3 9.6-52.5 25.5-73.6 45.1m-6.8 5.5c-.6 1.9-12.2 9.5-14 10.9.6-1.9 12-9.3 14-10.9m-103.7 88c22.8-17.7 44.6-36.7 66.1-56-22.9 17.4-44.2 37.2-66.1 56m-434.1 164.2c.8 17.7 8.9 33.7 21 46.4-5.7-9.9-15.7-18.7-16.9-30.9-2.1-1.3-4.4-14.2-4.1-15.5m489.9-214.6c36.7-32 74.4-66.3 118.8-87.2-45.2 17.5-83.8 55.4-118.8 87.2m-442.3 273.2c-.4 0 12.8 1.7 14.5 2.8-3.4-.2-8.5-1.7-11.8-.6 22.6 3.6 47.4 1.8 68.8-6.4-6.9 2.1-14.9 4.2-22.2 4.1-10.4 2.2-21.2 4.1-31.8 2.8 3.7.1 8.2.2 11.7-.9-9.7-.2-19.5-.6-29.2-1.8m387-226c14.3-11.1 28-22.9 41.5-34.9-14.2 9.8-29.9 22.2-41.5 34.9m-25.5 19.7c-2.5 1.6-7.9 6.1-12.7 10-1.5 2.4 13.1-9.4 12.7-10M1275 786.4s-12.4 7.1-11.9 8c2.5-1.3 7.1-4.5 11.9-8m37.1-315.1c2.6-5.4 4.9-12.8 5-18.9-.9 6.5-3.5 12.6-5 18.9m425.8 250.9c-5.1 1.6-10.3 2.5-15.5 3.8 1 1.7 13.5-3 15.5-3.8m-295.4-60.1c.2-.9-2.9 1.5-7.7 5.3-1.4 2 3-1.4 7.7-5.3m-259.7-48c-.1.3-9 8.3-8.5 8.1 4.1-3.7 6.7-6.2 8.5-8.1m21-18.5c5.7-4.7 11.8-9.9 19.4-16.5-1.6 4.8-19.3 9.2-19.4 16.5m425.5 50.5c-.2 2.1-3.5 14-4.3 16 1-5.4 2.5-10.8 4.3-16M1288 403.8c7 .9 13.9 3.5 19.3 8.2 1.5-4-15.2-9.5-19.3-8.2m-35.4 2.9c4.5-.5 8.9-1.7 13.4-2.4-1.6 1.5-10.5.6-13.4 2.4m65.2 31.2c.2 4.2-.8 8.7-.2 12.9 1.7-1.7 1.2-13.4.2-12.9m-247.4 324.3c-6 31.2 7.3 56 30.1 76.3 51.6 10.4 98-3.6 142.1-30.7-21.9 11-43.1 23.1-67 29.2-25 6.5-49.4 5.6-74.6.7-25.7-22.8-37.6-51.1-27.7-84.9.1.2-2.7 8.3-2.9 9.4m15.7-269.9c5-3.4 8.4-5.9 10.5-8.1-4.1 2.4-9.8 7-10.5 8.1m192.4-90.4c3.7.2 7.4.5 11.1.8-1 .6-8.9-1.8-11.1-.8m-32 5.4c1.1-.3 11.4-1.9 11.7-3.2-3.3.6-6.6 1-9.9 1.8-.5.5-2.7 1.2-1.8 1.4m386 293.9c10.9 26.1 49.3 31 73.5 26.5-26.6 2.2-57.9-1.9-73.5-26.5m-2.2-54.7c-6.7 15.5-7.9 34.8-.4 50.2-4.2 2.5-4-52 .4-50.2m53.3-77.3c2.1-2 6.2-7.2 9.8-11.8-.4.9-11.1 10.4-9.8 11.8m355.6-25.9c-.3.3 11.7-.7 9.3-1.4-3.2.2-6.2 1-9.3 1.4m-363 34c-2.4 2.6-35.9 43-33.2 43.9 5.3-8.3 11.1-16.1 17.2-23.8 4.6-5.5 14-13 16-20.1m-531 262.5c-14.7 0-28.8-1.3-43.2-3.8-2-1.8-3.9-3.6-5.9-5.4.7 1.2 2.1 2.2 3.1 3.2 14.8 5.2 30.2 8.3 46 6m166.4-429c3.6 5.3 6.7 10.2 8.8 16.3-.8-5.1-3.5-13.8-8.8-16.3m731.2 130.8c27.2-3.7 48.4 4.3 40.8 33 9-28.8-13.5-38.3-40.8-33m-734.7-134.5c-10.7-9.4-27.8-8.8-40.8-7.2 15.1-.1 27.4.3 40.8 7.2m667.6 157.5l.3.6c18.4-8.9 39-13.5 57.2-22.6-20.2 4.5-39.4 12.2-57.5 22M642.5 839c3-.8 20.6-5.6 21.1-9-3.1 1.2-20.5 6.1-21.1 9m-47 9.7c9.1-.5 18.1-1.8 26.8-3.8-.4-1-24.4 3-26.8 3.8m-96.1-33.3c-45.8-37.7-29.7-119.5 2.3-160.4-29.1 35.7-40.9 92.5-21.6 135.2 14.2 31.4 52.4 50.9 85 56.7-24.4-5.8-45.7-16.7-65.7-31.5m28-189.3c-2.7 2.8-8.5 6.8-9.6 10.7 2.9-3.3 7.8-6.7 9.6-10.7M561 593c-2.4 1.8-8.5 7.7-8.3 8.2 1.1-.8 8.8-6.8 8.3-8.2m81-76.7c-10.9 10.8-26.4 26.1-40.5 39.1 14.4-11.6 28.8-24.9 40.5-39.1m-75.4-132.6c1.4-.4 10-2 10.6-3.7-2.1.6-9.4 1.4-10.6 3.7M2611.5 576c-.7.1-1.4.3-2 .5.3 1.8 16 6.5 18 7.5 6.3 3.1 12.4 6.7 18 10.9 14.1 10.5 25.8 24.2 34.3 39.5-3.4-4.2-5.6-3.7-8.2-6.3 2.7 5.8 15.7 19.4 13.8 25.5-7.2-11.4-14.1-24-24.2-33.1 0 0 5.1 7.9 4.9 8.7-.4-.5-6.2-6.3-6.2-6.5 0 .2 3.2 6 3 6-3.2-3.2-10.5-14.1-15.6-15-.3-.1.9 2.6.8 2.7-6.2-4.9-12.1-10.6-19.4-13.9.7 1.4 14.3 12.1 14.7 12.1-4.1-1.4-8.1-6.8-12.6-7-.1 1 .4 1.7 1.7 2.2-2.4-1.7-9.4-3.8-11-5.8 1.7 2.2 6 4.2 8.2 5.8-6-3.4-12.4-5.1-18.9-7.5 1.4-1 10.7 6.9 11.4 6.9-6.3-3.2-16.5-5-21.6-8.1 4 2.3 9.1 3.3 13.3 5.2-10-2-19.6-4.8-29.8-6-8 .8-16.1.5-24.1.8.7-2.2 40.3 5.7 43.8 8.3-29.8-8-59.4-2.4-87.8 6.8 17-1.6 33.5-5.1 50.7-4.6-6.2.7-12.4 1.3-18.5 2.2.3.4 1.4.6 4.2.4-7.4 1.9-15.3 2.2-22.7 3.9-.5 1 8.1.9 8.8.9-4.1.9-8.1 1.9-12.2 2.9.1.3 7.8-.2 8.3-.6-6.6 5-22.7 5.7-30.8 8.4-11.5 3.8-22.8 8.3-34 13.1 3.3-.1 21-9.6 22.8-7.3-54.2 21.3-106.1 48.4-155.4 79.2-20.6 12.9-42.3 24-63.2 36.3-9.7 5.7-20.1 10.9-30.1 16-7.5 3.8-20.7 12.1-29.1 11.4.2 0 8.4-4.8 8.9-5.1-20.4 1.8-40.9 15.1-60.9 19.9-25.1 6.1-51.6 10.2-77.4 7-41.3-5.1-70.7-34.4-67.8-77.6 3-45.6 33.8-83.5 53.3-123.1 5.4-10.9 20-36.5 8.7-49.4-15.6-15.6-50.4-5.1-68.5 1.2-32.5 11.3-62.7 31.7-90.5 51.6-28 20-53.2 43.2-80.7 63.8-31.3 23.4-63.8 39.3-100 53.6 2.7 0 15.6-4.6 5.4-.3 51.7-16.8 95.1-48.9 136.4-83.2-14.9 17-36.5 30.3-54.8 43.6-18.9 13.8-40.3 24.3-61.6 34 20.1-5.6 38.9-18.2 56.1-29.6 20-13.2 38.8-28 57.4-43 35.3-28.5 70.9-55.4 111.6-75.6-2.7 6.5-23 13.4-29.4 16.9-12.9 7-25.5 15.5-37.2 24.4-11.3 8.6-21.6 18.3-32.9 26.9-10 7.6-25 16.2-32 26.8-16.9 10.3-32 23.5-48.8 34.1-16.5 10.4-34 19.1-52.2 25.9-26.3 9.8-56.1 17.3-84.4 12.8-30.3-4.9-54.8-26.8-55.3-58.7-.6-35.5 24.6-69.1 46.7-94.8 14.9-17.3 29.6-34.9 42.2-54 5.7-8.7 11.2-17.6 15.5-27.1 1.7-3.7 8.2-19 6.5-21 .1.2.3.4.4.6l.1.1-.4-.4c-12-10-33.5-4.2-46.4.2 14.8-4.7 32.6-8 46.2 1-.5-.3-1.2-1.5-1.3-1.9 2.2 5.2-4.2 16.9-6.5 21.7-4.7 10-10.6 19.5-16.8 28.7-12.1 17.8-26 34.4-40.5 50.3 16.4-19.4 32.6-39.3 45.9-60.9 6.4-10.4 13.7-22.1 16-34.2.2-.9 1.2-4.2.6-5.3v-.1c0-.1 0-.1 0 0 .1.1.1.3.2.5.3.9 2.5 3.3.5 1.4-2.8-1.8-5.7-2.5-8.8-3 3.2.8 7 1.7 9.2 4.4l.1.1c-.3-.3-.5-.6-.8-.9-.2-.3-.6-.7-.7-1.1-.2-.3-.4-.7-.5-1 0-.1 0-.1-.1-.1v.1c-.8 13.8-9.5 27.5-16.5 38.8-9.2 14.8-19.8 28.6-31.1 41.9 14.9-20.2 27.9-39 38.2-61.7-17.4 31.4-39.1 59.1-63.5 85.3 12.6-15.3 25.4-30.3 37.3-46.2 6.2-8.3 12.7-16.5 17.4-25.8 4.6-9.2 7.4-21.9 13-30.2 0-.4 0-1-.2-1.4.7 2.1 1.4 4.6 3.4 6.5l-.1-.1v-.1c-.1 0-.1-.1-.1-.2-7.5-13.1-44.2 4.3-53 8.1-17.6 7.5-33.3 19.3-48.3 31-19.7 15.4-37.8 32.7-56.8 49-15.9 13.6-31.2 28.8-48.2 41-35.2 25.3-67.3 54.7-101.7 81-38.1 29.2-78.4 55.1-117.3 83.3 1.1-.6 1.3-1 .6-1.4-15.2 4.5-24.5 25.2-40.4 27.8-25.2 16-49.8 30.9-79.1 38.7-27.6 7.3-54.4 6.4-82.2 1.1-6.3-5.7-12.3-11.1-17.3-18.1-6.2-8.7-8.5-21.2-14.8-29.2 2.6 3.3 3.3 11 5.4 15.1-14.6-23.5-8.7-56.4 2.3-80 15.4-33 41.5-60.7 67.1-86 35.1-34.7 73.5-65.8 110.4-98.5 29.4-26 55.9-58.9 64.2-97.5 4-18.6-3.4-44.5-27-43.9-22.2-5.1-47.9 6.5-68.3 14.3-11.6 4.4-23.1 9.4-34.3 14.9-6.2 3-12.4 6.2-18.5 9.5-3.6 2-9.7 7.2-13.8 7.5-.1 0 .8-1.3.7-1.3-5.3.4-13.5 7.8-17.9 10.6-6.7 4.2-13.3 8.5-19.8 12.9-12.8 8.5-25.3 17.4-37.6 26.5-18.1 13.5-34.8 28-52.3 42.2-1.8.6 4.5-4.2 2.8-3.6C920.9 625.6 829 730.9 714.6 808.6c82.7-67.1 163.9-135.2 241.2-208.5-1.7.8-10.8 10-10.6 8.7 3.2-2.9 20.6-22.9 24.4-22.2.1 0-1.2 1.8-1.2 1.8.2-2 11.4-9.9 13.6-11.9 5.8-5.2 11.7-10.3 17.5-15.4-2.6.8-8.1 6.1-7.9 4.5-55.1 47.3-106.9 98.2-162.1 145.4-51.5 44-104.2 95.2-166.6 123.6 64.5-32.6 119.4-84.1 173.6-131.1 56.2-48.7 109-101.3 165.5-149.7-38.4 30.4-72.8 65.6-109 98.5-39.3 35.7-79.8 70.1-120.8 103.8-58.1 47.9-129.8 108.1-211 91.2-24.3-5.1-50.3-17.7-68-35.8C465.3 782.8 466 734.7 477 699c6.5-21.1 17.7-38.3 31.9-54.9 26.3-30.7 56.7-57.6 86.4-85 31.4-28.9 63.3-58.3 88.3-93.1 13.2-18.5 35.6-52.1 20.6-74.8 7.1 9.5 5.6 22.8 2.4 33.6-8.3 27.9-28.9 52.2-47.7 73.7 17.9-19 35.4-40.5 45.5-64.8 6.3-15.3 10.4-36-3.6-48.5-14.2-12.5-37.3-12.9-55-12.1-82.9 3.6-162 47.4-233.9 84.8 22.8-13.3 46.1-25.6 70-36.8 12.8-6 25.7-11.7 38.7-17.1 12.1-5 27.1-8.5 38-15.6-30.4 9.6-61.3 22.1-89.8 36.4 24.7-14.3 52-24.3 78.6-34.6C483.5 412 423.5 444.4 365 478c-35.9 20.7-71.1 42.5-105.6 65.5-17 11.3-33.9 22.9-50.6 34.7-8 5.7-16 11.4-24 17.2-3.6 2.6-22.4 12.9-23.7 17 .9-3 8.9-5.8 8.7-8.9-8.8 6.2-18.5 10.9-27.3 17.1 1.5-.8 2-1.9 1.5-3.1-5.1-.4-12.8 7.2-17.2 9.2-.5-.6 4.4-4.9 6.1-7.1-1.3 1.3-2.8 1.8-4.5 1.5-.6-.7.7-3.7-1.1-3.4-4 .7-8.2 4.6-11.3 6.9-1.7.3 4.1-4.6 2.4-4.3-9.1 5.7-18.6 12.5-28.7 16.3-16.8 13-35.8 22.5-51.9 36.5-11.2 2.7-22.4 14.9-31.1 22 3.5-6.8-5.1-1.2-6.8-3.9-1.4-2.3 8.9-13.6 10-16.2C75.1 603.9 155 546.8 235.5 494.3c80.9-52.4 163.8-103.1 252.8-140.6 49.5-20.9 102.8-39.6 156.9-41.8 39.6-1.6 82.7 7.2 108 40.5 53.2 70.1-18.6 156.8-66.3 206-30.2 31.2-63.2 59.6-94.4 89.8-14.9 14.4-30.2 29.2-42.7 45.8-13 17.1-25.4 53-11.7 73.2.1 0 .1.1.1.1s.1.2.1.1c-1.1 1-2.2 2.2-3.1 3.3 5.8-7 1.7-1.9 3-3.4 56.2 44.4 119.2.3 166.1-37.4 44.9-36.1 88.9-73.4 131.9-111.8 44.4-39.5 86.3-81.9 132.2-119.8 43-35.5 87.4-70.3 135.4-98.8 48.8-28.9 104.4-57.6 161.8-62.9 55.7-5.1 107.8 25.4 117.9 82.5 9.8 55.1-19.4 110-54.6 150.3-35.5 40.7-80.5 72.7-119.8 109.6-22.7 21.4-46.2 43.4-63.7 69.4-6 8.9-11.9 18.8-12.8 29.7.5 3.1 1.7 4.7 4.1 7l-16.2-7.9c27.2 5.2 53.3-4.5 77-17.3 35.2-19.2 66.7-45 99.8-67.5 63.1-42.9 123.6-90.5 182.1-139.4 36.4-30.4 70.8-63.2 109-91.5 27.5-20.3 58-39.8 92-46.5 38.1-7.5 89.1-1.6 105.9 39.4 17.9 43.8-17.1 93.9-42.1 127.3-12.3 16.3-26 31.3-38.9 47.1-7 8.7-13.7 17.9-18.8 27.8-2.6 5.2-3.2 12.9-5.9 17.4-2.2.3-4.7.7-6.6 1.8 1.8-1 3.2-3.5 4.3-5.3 50.5 8.4 103.8-29 141.6-58.6 52.1-40.8 102.2-85.2 164.7-109.7 44.8-17.6 113-28.6 143.5 19.4 20.4 32.1 9.1 69-6.1 100.2-12.2 25-28 48.1-39.5 73.5-5.4 11.9-14 30-6.9 42.8.5.4 1 .9 1.4 1.4 15.5 10.2 39.1 5.7 55.9 2.4 41.2-8 80.7-25.4 118.1-43.9 75.6-37.4 145.3-86.6 226.1-113.3 42.4-13.6 91-23 134.4-8.7M1821 697.7c-11.8 7.7-24 14.8-36.8 20.8-8.1 3.8-16.3 7.3-24.7 10.4-5.8 2.2-18.6 9-24.9 7.7.5-.4 1-.7 1.6-.9 30.1-8.1 58.2-21.9 84.8-38m-173.1 35.8c-24.3-10.8-38.1-35.9-37.4-62 .4-14.8 5.2-29.2 11.6-42.4 3.1-6.4 6.7-12.7 10.5-18.7 3.3-5.2 9.3-11 11.6-16.4-5.6 12.9-16.4 24.2-22.5 37.3-5.5 11.9-9.7 24.6-10.5 37.8-1.7 27.2 12.1 52.2 36.7 64.4m-3.4-133.7c4.7-8.1 11.4-16 18.1-22.6-5.7 7.8-12.1 15-18.1 22.6m146.9 108.6c-37.5 19.4-86 37.3-128.5 25.1 45.2 9.5 87.5-8.3 128.5-25.1m-146.7-105.2c1-4.9 8-11 10.9-14.8.6.4-10.1 13.8-10.9 14.8m379.5-48.8c-8.7 2.6-17.6 5.2-25.9 8.8 5.1-3.3 11.2-5.6 16.9-7.4.3-.1 10.1-2.2 9-1.4m59.2 251.3c-25.4-2.7-49.3-14-62.5-36.7-15.4-26.6-11.2-58.9-.9-86.4 16.1-42.9 48.6-78.6 57.7-124.2 4.2 13.3-7.5 32.4-13.2 43.1-12.4 23.3-27.1 45.2-38 69.4-9 19.8-15.6 41.6-14.3 63.6 2.4 40 33 65.4 71.2 71.2m228.1-70.3c-3.1 5.2-14.8 9.5-19.9 12.1-7.9 4-16.1 8.1-24.6 10.9 14.2-8.7 29.9-15.1 44.5-23m-61.2 32.7c-36.5 14.8-73.7 32-113.3 36.3 39.2-7.1 76-22.8 112.6-37.9-.1.7 5.7-1.3.7 1.6m-312.1-173.9c.4.9-29 23.1-30.1 22 10-7.2 19.6-15.2 30.1-22M700 817.8c-1.6-.6-18.7 11.5-21.7 13 5.2-5.5 15.4-8.9 21.7-13m-207.7.3l-.6.6c-3.8-3.2-7.1-6.9-10-10.9-1-1.4-4.9-10.5-5.7-10.8 3.9 8 9.9 15.2 16.3 21.1m1709-35.7c2.8-.6 9.6-3.3 9.4-2.6-7 2.9-10.2 3.6-9.4 2.6m-1534.6 54c-35.2 17.8-75.6 25.2-114.3 15 38.6 8.2 79 2.5 114.3-15m-199.3-63.7c-2.2-6.8-3.3-13.4-3.6-20.5-.1-.1.7-3 .7-2.9.8 7.6 1.6 15.2 2.9 23.4m-3-29.2c-5.6-38.7 17.6-79.3 42.6-107.1 25-27.8 52.8-57.9 83.2-79.6-32.5 30.6-66.5 60.7-94.6 95.6-20.5 25.6-30.9 58.4-31.2 91.1m67.3-129.8c15.5-15 30.3-32.2 47.8-44.9-15.6 15.1-31.1 31-47.8 44.9m62.8-59.1c3.8-3.6 6.4-5.9 8.4-7.6.4.6-9.5 9.7-8.4 7.6m25.8 293.8c7-1.5 14-3.2 20.7-5.6-2.3 2.6-20.5 4.6-20.7 5.6m-77.7-4.5c-7.3-2.2-14-5.4-20.7-8.9 2.4 3.4 16.7 7.6 20.7 8.9m-71.7-127.8c1.1-8.1 3.1-16.4 6.2-24-.9 7.9-4.2 16.3-6.2 24m13-39.3c10.8-22.9 29.5-42.1 47-60 26.6-27.1 55.6-51.7 83.1-77.8-3.5.5-12.2 12.1-15.2 14.9-7.2 6.8-14.5 13.5-21.8 20.2-13.9 12.9-27.8 26-41.2 39.4-18.9 19.2-39.2 39.2-51.9 63.3m-307.4-68.3c51.4-37.6 104.5-72.7 158.4-106.6-55.1 31.9-108 67.8-159.1 105.7.2.3.5.6.7.9"/><path class="st4" d="M2314.7 122.5c.2.2.6.5.9.6.1.1.2.2.3.2.1.1.2.2.3.2l.2.2c0 .1.1.1.1.1-.4.2-1.3-2.5-1.3-2.7.4.6 1 1.6 1.6 2.2.2.1.1.1 0-.1-.4-.3-1.6-.9-2.1-.7m-24.4 1.2c5-1.6 10-2.1 15.1-2.6-3-2.1-12.2 1.1-15.1 2.6m-47.5 25.4c.4-.9 5.1-2.6 5.3-3.2-3.1 2.4-21.7 13.6-21.5 17.7 18.3-15.1 37.8-30.3 60.1-39.1-9.2 3-18.2 7.7-26.4 12.8.7-.6 2.9-2 3.2-2.8-7.4 4.1-14.2 9.2-20.7 14.6m-92.8 79.3c9.5-6.9 18.6-14.4 27.3-22.3-2.1 1.3-4.9 3.3-5.9 3.5-1.7 1.5-3.5 2.9-5.2 4.4.9 1.4-14.7 12.7-16.2 14.4M2297.7 119c-1.8.4-6.9.6-8.2 2.2 1.8-.5 6.9-.7 8.2-2.2m-63 34.7c16.5-12.2 32.9-24.9 52.4-32.1-19.5 6.9-37.4 18.2-52.4 32.1m-4.9 4c-.5 1.5-8.4 6.5-10 7.8.5-1.6 8.5-6.5 10-7.8m-73.8 62.6c16.3-12.6 31.7-26.1 47-39.9-16.2 12.5-31.4 26.6-47 39.9m-309 116.9c.6 12.6 6.3 24 14.9 33-4-7-11.2-13.3-12-22-1.3-.8-3-10.7-2.9-11m348.7-152.7c26.1-22.7 52.9-47.2 84.5-62.1-32.1 12.4-59.6 39.4-84.5 62.1m-314.8 194.4c-.1 0 9.2 1.3 10.3 2-2.4-.1-6.1-1.2-8.4-.5 16.1 2.6 33.7 1.3 49-4.6-4.9 1.5-10.6 3-15.8 2.9-7.4 1.5-15.1 2.9-22.7 2 2.5.1 6 .1 8.4-.7-6.9 0-13.9-.2-20.8-1.1M2156.4 218c10.2-7.9 19.9-16.3 29.6-24.8-10.1 6.9-21.4 15.8-29.6 24.8m-18.1 14.1c-1.8 1.2-5.6 4.4-9 7.1-1.2 1.7 9.2-6.7 9-7.1M1995.9 339c-.5.5-8.9 4.9-8.5 5.7 1.8-1 5.1-3.3 8.5-5.7m26.5-224.3c1.9-3.9 3.5-9 3.6-13.5-.7 4.7-2.6 9-3.6 13.5m303.1 178.6c-3.6 1.1-7.3 1.8-11 2.7.7 1.3 9.8-2.3 11-2.7m-210.4-42.8c.1-.6-2.1 1-5.4 3.8-1 1.4 2.1-1.1 5.4-3.8m-184.8-34.2c.1-.2-6.3 5.9-6 5.7 2.9-2.5 4.7-4.3 6-5.7m15-13.2c4.1-3.4 8.4-7 13.8-11.7-1.2 3.5-13.8 6.6-13.8 11.7m302.8 36c-.2 2-2.2 9.4-3.1 11.4.8-3.8 1.8-7.7 3.1-11.4M2005.2 66.6c5 .7 9.9 2.5 13.7 5.9 1.1-2.9-10.8-6.8-13.7-5.9m-25.2 2.1c3.2-.3 6.3-1.2 9.5-1.7-1.3 1.2-7.3.3-9.5 1.7m46.4 22.2c.1 3-.6 6.2-.2 9.2 1.3-1.2.9-9.6.2-9.2m-176.1 230.8c-4.3 22 5.1 40.2 21.4 54.3 36.6 7.7 70-2.7 101.2-21.8-33.2 16.7-62.9 29.1-100.8 21.3-18.3-15.9-26.7-36.6-19.7-60.4.1.1-1.9 5.9-2.1 6.6m11.2-192.1c3.5-2.4 6-4.2 7.4-5.8-2.9 1.7-6.9 5-7.4 5.8m136.9-64.3c2.6.1 5.3.4 7.9.6-.7.4-6.3-1.3-7.9-.6m-22.7 3.9c.8-.2 8.1-1.3 8.3-2.3-2.4.4-4.7.7-7 1.3-.4.3-2 .8-1.3 1m274.7 209.1c7.7 18.5 35.1 22.1 52.3 18.8-18.9 1.7-41.2-1.3-52.3-18.8m-1.6-38.9c-4.8 11-5.7 24.8-.3 35.7-2.7 1.7-2.7-37 .3-35.7m38-55c1.5-1.4 4.4-5.2 6.9-8.4-.3.9-7.9 7.2-6.9 8.4m253.1-18.5c-.2.2 7.2-.8 6.6-1-2.3.2-4.4.7-6.6 1m-258.4 24.2c-2.2 2.4-25.3 30.7-23.6 31.3 4-6.3 8.6-12.3 13.3-18.2 2.9-3.5 9-8.6 10.3-13.1M1903.6 377c-10.4 0-20.5-.9-30.8-2.7-1.4-1.3-2.8-2.5-4.2-3.8.5.8 1.5 1.6 2.2 2.3 10.6 3.6 21.4 5.8 32.8 4.2M2022 71.6c2.5 3.7 4.8 7.3 6.2 11.6-.5-3.7-2.5-9.8-6.2-11.6m520.4 93.2c19.4-2.6 34.5 3.1 29 23.5 6.4-20.4-8.8-27.5-29-23.5M2019.5 69c-7.6-6.7-19.8-6.3-29-5.1 11-.1 19.4.1 29 5.1m475.2 112.1c.1.1.1.3.2.4 13.1-6.4 27.8-9.6 40.7-16.1-14.4 3.3-28 8.7-40.9 15.7m-949 195.3c2.1-.6 14.7-4.1 15-6.4-2 .8-14.6 4.4-15 6.4m-33.4 6.9c6.5-.4 12.9-1.3 19.1-2.7-.4-.7-17.4 2.2-19.1 2.7m-68.4-23.7c-32.5-26.9-21.1-85.1 1.6-114.2-19.8 24.2-27.8 61.1-17.5 90.7 8.9 25.7 37 41.3 62.6 45.8-17.3-3.9-32.6-11.8-46.7-22.3m19.9-134.8c-1.9 2-6.1 4.8-6.8 7.6 1.7-1.9 5.7-5.1 6.8-7.6m23.9-23.5c-1.7 1.3-6.1 5.5-5.9 5.9.8-.6 6.3-4.9 5.9-5.9m57.7-54.6c-7.8 7.7-18.8 18.6-28.8 27.9 10.1-8.3 20.4-17.8 28.8-27.9m-53.7-94.4c.7-.2 7.2-1.8 7.5-2.6-1.2.3-6.9 1.4-7.5 2.6m1455.6 136.9c-2.4 1.9 5.3 3 8 4.1 3.4 1.5 6.6 3.1 9.8 5 13 7.8 23.5 19.3 30.8 32.4-2.2-2.7-4.2-2.8-5.8-4.5 2 4.2 11.2 13.9 9.9 18.2-5.1-8.1-10-17.1-17.3-23.6 0 0 3.6 5.6 3.5 6.2-.3-.4-4.4-4.5-4.4-4.6 0 .3 2.4 4.2 2.1 4.2-2.6-2.5-7.5-10-11.1-10.7-.2 0 .6 1.9.6 1.9-4.4-3.5-8.6-7.6-13.8-9.9.5 1 10.2 8.6 10.5 8.6-3-1-5.7-4.9-9-5-.1.7.3 1.2 1.2 1.5-1.8-1.2-6.9-3-7.8-4.1 1.2 1.6 4.3 3 5.8 4.1-4.3-2.4-8.8-3.6-13.4-5.3 1.3-.9 6.9 4.8 8.2 4.9-4.5-2.3-11.5-3.4-15.4-5.8 2.8 1.6 6.6 2.4 9.5 3.7-7.1-1.4-14-3.4-21.2-4.3-5.7.6-11.4.4-17.2.6.5-1.6 28.4 3.9 31.2 5.9-21.1-5.7-42.3-1.7-62.5 4.8 12.1-1.2 23.9-3.6 36.1-3.3-4.4.5-8.8.9-13.2 1.6.2.3 1 .4 3 .3-5.3 1.4-10.9 1.5-16.2 2.8-.4.9 8.8.9 6.2.7-2.9.6-5.8 1.3-8.7 2.1.2.5 5.3-.7 5.9-.5-3.9-1.1-15.5 4-19.3 5.2-9.1 2.9-18 6.4-26.8 10.1 1.4-.1 15.1-6.6 16.2-5.2-39.3 15.4-76.6 35.2-112.5 57.5-14.4 8.9-29.6 16.8-44.2 25.3-9.1 5.3-30.2 19.9-41.1 18.9.2 0 6-3.4 6.4-3.6-14.8 1.3-29.9 11-44.5 14.5-17.2 4.1-35.3 6.8-53 4.8-24.2-2.8-44.8-16.4-48.7-42-5-32.2 16.3-62.1 31-88.8 6.5-11.7 19.8-30.7 14.1-45.2-.5-.7-.8-1.4-1.4-2-10.4-9.8-30.9-4.6-43.2-.9-24.8 7.4-47.6 22.7-68.5 37.5-20.7 14.7-39.3 31.9-59.6 47-22.1 16.5-44.9 27.5-70.4 37.6 1.9 0 11.1-3.3 3.8-.2 36.7-11.9 67.7-34.8 97.1-59.2-10.8 12.3-26.4 22-39.6 31.5-13.3 9.6-28.3 16.9-43.2 23.7 28.1-7.8 54.3-30.4 76.4-48.1 26.6-21.4 53.2-42.1 83.9-57.4-2 5-20 11.2-24.7 13.9-8.4 4.9-16.7 10.8-24.4 16.8-8.2 6.3-15.9 13.3-24.1 19.6-6.3 4.9-16 10.6-20.5 17.3-16.1 9.8-30.2 22.4-46.9 31.4-18.1 9.7-38.1 17.3-58.6 20.2-20.7 3-45.3.5-58.4-18.1-19.2-27.1 2.3-61.8 19.8-83.6 10.9-13.7 22.8-26.5 32.9-41 3.8-5.4 23.7-33.4 18.9-39 .1.2.2.3.3.4l.1.1-.3-.3c-8.6-7.1-23.8-3-33 .2 10.6-3.4 23.2-5.7 32.9.7-.4-.2-.8-1.1-.9-1.4 3.8 8.9-12.8 30.3-17.4 37-8.4 12.2-18 23.6-28 34.6 13.4-15.9 27.1-32.3 37-50.7 2-3.6 10.1-15.9 7.5-20.7v-.1c.1.1.1.2.1.3.2.6 1.8 2.3.3 1-2-1.2-4-1.8-6.3-2.1 2.3.6 5 1.2 6.5 3.1l-.6-.6c-.2-.2-.4-.5-.5-.8-.1-.2-.3-.5-.3-.7v-.1.1c-1.2 20.7-21.2 42.5-33.9 57.5 10.7-14.5 19.8-27.7 27.2-43.9-12.4 22.4-27.8 42-45.2 60.7 9.2-11.2 18.5-22.1 27.2-33.7 4.6-6.2 8.9-12 12.4-18.9 3.1-6 4.9-14.7 8.6-20.2 0-.3 0-.7-.2-1 .5 1.5 1 3.3 2.4 4.6v-.1l-.1-.1c-.1 0-.1-.1-.1-.1-5.9-6.7-22.7-.2-28.8 2.8-25.1 7-46.6 27.4-65.6 44.1-19.1 16.8-38.1 33.9-58.2 49.4-23.6 18.2-46.1 37.9-69.9 56-26.1 19.8-53.6 37.5-80.1 56.7.4-.4-11.7 7.2-14.6 9.5-3.9 3.1-8.4 8.4-13.7 9.3-36.3 23.1-71.3 36.7-114.9 28.3-4.8-4.3-9.3-8.5-13-13.9-4.1-5.9-5.6-14.5-9.8-19.8 1.8 2.3 2.3 7.8 3.8 10.8-21.8-35.1 13-79.4 35.3-103.6 27.8-30.1 59.8-55.9 90.6-82.8 19.9-17.4 39.1-39.1 46.1-64.9 3.8-13.8 3.6-38.2-17.5-37.6-16.3-3.8-35.2 5-50.1 10.7-4.5 1.7-44.4 23.4-45.9 22.1l.6-.9c-4.1-3.3-52.1 34.4-56.8 37.9-11.8 8.9-22.7 18.5-34.2 27.7-1.3.4 3.2-3 2-2.6-76.8 60.8-142.2 135.7-223.6 191 59.1-47.7 116.9-96.2 171.8-148.4-1.2.6-7.7 7.1-7.6 6.2 1.2-1.1 17.7-14.7 17.4-15.8 0 0-1 1.4-.6 1.2 7.9-4.7 14.9-13.3 21.9-19.4-1.8.6-5.8 4.3-5.6 3.2-38.2 32.8-74.1 68.1-112.3 100.9-37.6 32.3-76 69.8-121.6 90.6 47.3-23.9 87.6-62 127.3-96.5 38.7-33.7 75.1-70 114.1-103.3-29.9 23.6-56.5 51.2-84.9 76.7-29.1 26.1-58.9 51.3-89.2 75.9-39.6 32.2-89.7 69.3-143.9 55.3-16.7-4.3-36-14-47.2-27.9-18.7-23.1-16.1-59.4-5.5-85.3 16.6-40.6 58.9-70.2 89.7-98.9 20.2-18.8 40.7-38.4 56.3-61.3 8.7-12.8 22.7-34.9 12.6-50.2 16.9 22.7-19.9 62.3-32.2 76.4 12.8-13.7 25.6-29.2 32.6-46.7 4.2-10.4 6.9-24-1.7-32.9-8.6-9-23.6-9.9-35.2-9.9-60.3.1-119.4 33.5-171.4 60.5 15-8.7 30.4-16.9 46.1-24.4 10.4-5 21-9.7 31.6-14.1 8.5-3.5 19-5.9 26.8-11-21.6 6.8-43.7 15.7-63.9 25.9 17.6-10.2 37-17.3 55.9-24.6-48.2 16.5-93.3 41.3-137.2 66.8-24.3 14.1-48.2 29.2-71.5 44.9-11.9 7.9-23.6 16-35.2 24.3-5.2 3.7-10.4 7.4-15.6 11.2-2.5 1.8-14.6 8.4-15.5 11.1.7-2.3 6.3-4 6.2-6.3-6.3 4.4-13.2 7.7-19.4 12.2.4-.6.9-1.3 1.3-1.9 0-.2-11.5 5.9-12.5 6.3-.3-.5 3.1-3.5 4.4-5-4.4 2.7-2.5-1.4-3.6-1.3-3 .4-6.1 3.1-8.4 4.8-1.2.2 2.9-3.2 1.7-3-6.5 4.1-13.3 8.9-20.4 11.6-12 9.3-25.4 16-36.9 26-8.1 1.9-15.9 10.6-22.1 15.7 2.6-5.1-3.8-.7-4.8-2.4-1.2-1.9 6.4-10.1 7.2-11.9 41.9-45.7 92.6-83.7 144.1-118.1 63.2-42.6 129.5-83.5 200.4-112.8 50.5-20.9 149.2-56.1 187.4 5.5 30.8 49.7-16.2 106.3-49 140.5-23 24-48.4 45.5-72.1 68.8-9.5 9.4-19.4 19-27.4 29.8-9.1 12.3-17.4 37.3-7.8 51.5l.1.1v.1c-.8.7-1.6 1.5-2.2 2.4 4.2-5 1.2-1.3 2.2-2.4 32.8 25.8 68.1 9.6 99-12 64.8-45.5 121.6-102.5 180-155.6 32.5-29.6 67.6-58.1 104.5-82.1 38.1-24.9 82.1-49.5 127.8-56 42.2-6 83.8 14.8 90.9 59.6 5.8 36.9-12.7 73.5-35.7 101.2-26.4 31.9-61.5 56.3-91.5 84.7-16.4 15.6-34.1 31.9-45.7 51.6-3 5.1-5.5 10.3-6.1 16.3.4 2.2 1.2 3.4 2.9 5l-11.6-5.6c45.8 8.7 88.6-35 122.7-58.2 49.6-33.9 97.7-71 143.2-110.2 40.4-34.8 85.5-83.6 141.6-90.7 21.6-2.7 46.1 1.3 60.5 19.2 24.7 30.7-4 74-23 99.5-8.6 11.5-18.2 22.2-27.3 33.2-5.1 6.2-10 12.7-13.8 19.8-2.3 4.2-2.8 10.3-5 14.1-1.6.6-3.2.4-4.7 1.3 1.5-.9 2-2.6 3-3.8l.2.1c15.3 8.8 47.4-7.9 60.4-14.8 15.7-8.3 30-18.8 43.8-29.8 38.5-30.7 77-63.9 124.7-79.2 31-9.9 74.8-12.4 92.8 20.7 10.6 19.5 5.9 41-2.3 60.1-8.9 20.7-22 39.2-31.5 59.6-2.4 5.1-12.7 25.7-5.5 31.1.1.1.1.2.2.2.1.1.2.1.2.2.1.3.6.5.8.7 14.1 9.3 36.9 2.9 51.8-1 37.6-9.9 73.1-27.9 106.7-46.9 35.8-20.3 71.5-41.3 109.9-56.3 34.3-13.3 75.3-24.2 111.8-12.2m-562.7 86.6c-9.5 6.2-19.4 11.8-29.8 16.5-6.9 3.1-13.9 5.9-21.1 8.2-1.4.5-12.4 4.1-9.5 2.4 21.5-5.8 41.5-15.6 60.4-27.1m-123.2 25.5c-17-7.5-27-25.1-26.6-43.4.2-10.5 3.4-20.6 7.8-30.1 3.3-7.1 9.4-21.7 16.1-25.9-6.7 4.2-12.6 19.4-16 26.6-3.3 7.1-5.9 14.6-7 22.4-2.8 21 6.5 40.9 25.7 50.4m-2.5-95.2c3.4-5.8 8.2-11.4 12.9-16.1-4 5.6-8.6 10.8-12.9 16.1m104.6 77.3c-26.8 13.8-61.1 26.6-91.5 17.8 32.2 6.9 62.4-5.8 91.5-17.8m-104.4-74.8c.7-3.6 5.6-7.7 7.8-10.6.4.3-7 9.7-7.8 10.6m270.1-34.7c-6.2 1.8-12.5 3.7-18.5 6.3 4.7-3.1 15.9-4.3 18.5-6.3m42.1 178.8c-52-5.5-60-56.4-41.3-96.8 12.3-26.6 31.4-50.2 37.3-79.3 2 6.3-1.8 14.4-4.2 20-8.3 19.4-21.1 36.7-30.2 55.7-6.4 13.5-11.6 27.9-12.2 42.9-1.3 31.2 20.6 52.9 50.6 57.5m162.5-50c-4.4 7.6-23.7 13.7-31.7 16.3 10.1-6.1 21.3-10.7 31.7-16.3m-43.6 23.2c-26 10.5-52.5 22.8-80.7 25.8 27.9-5.1 54.1-16.2 80.1-27 0 .6 4.2-.8.6 1.2M2468 202.1c.4.9-20.7 16.3-21.5 15.7 7.2-5.1 14.1-10.8 21.5-15.7m-881.4 159.2c-1-.4-14.3 8.7-15.4 9.2 3.8-3.9 10.9-6.2 15.4-9.2m-147.8.3l-.4.5c-2.4-2-9.8-15-11.2-15.4 2.8 5.5 7.1 10.6 11.6 14.9m1216.5-25.5c2-.5 6.8-2.3 6.7-1.8-5 2-7.3 2.6-6.7 1.8m-1092.4 38.4c-25 12.7-53.8 18-81.4 10.7 27.5 5.8 56.3 1.8 81.4-10.7m-141.8-45.3c-1.6-4.8-2.3-9.5-2.6-14.6.1-.7.3-1.4.5-2.1.6 5.5 1.2 10.9 2.1 16.7m-2.1-20.8c-3.2-22.3 8.1-48.3 21.5-65.8 18.6-24.2 43.3-49.4 68-67.1-39.3 37-89 74.1-89.5 132.9m47.9-92.3c11-10.7 21.6-22.9 34-32-11.1 10.7-22.1 22.1-34 32m44.6-42.1c2.7-2.6 4.6-4.2 6-5.4.3.4-6.7 6.9-6 5.4m18.4 209.1c5-1.1 9.9-2.3 14.7-4-1.4 1.7-14.6 3.5-14.7 4m-55.3-3.2c-5.2-1.5-10-3.8-14.7-6.3 1.8 2.6 11.6 5.3 14.7 6.3m-51-91c.8-5.8 2.2-11.6 4.4-17.1-.6 5.7-3 11.6-4.4 17.1m9.2-27.9c7.7-16.3 21-30 33.5-42.7 18.9-19.3 39.6-36.8 59.2-55.4-2.2.3-8.6 8.5-10.5 10.3-5 4.7-10.1 9.4-15.2 14.1-10 9.3-20 18.7-29.7 28.3-13.6 13.7-28.2 28.1-37.3 45.4M1214 212.3c36.6-26.8 74.3-51.7 112.8-75.8-39.2 22.7-76.9 48.2-113.2 75.2.1.2.2.4.4.6"/></svg>